<?xml version="1.0" encoding="utf-8"?>
<!-- Generator: Adobe Illustrator 19.2.0, SVG Export Plug-In . SVG Version: 6.00 Build 0)  -->
<svg version="1.1" id="Layer_1" xmlns="http://www.w3.org/2000/svg" xmlns:xlink="http://www.w3.org/1999/xlink" x="0px" y="0px"
	 viewBox="0 0 960 960" style="enable-background:new 0 0 960 960;" xml:space="preserve">
<style type="text/css">
	.st0{fill:#333333;}
	.st1{fill:#808080;}
	.st2{fill:#FFFFFF;}
	.st3{fill:#4D4D4D;}
	.st4{fill:#F2F2F2;}
	.st5{fill:#F15A24;}
	.st6{fill:#F7931E;}
	.st7{fill:#FBB03B;}
	.st8{fill:#245F7F;}
</style>
<g>
	<path class="st0" d="M480,615L480,615c-7.3,0-13.2-5.9-13.2-13.2V168.5c0-7.3,5.9-13.2,13.2-13.2l0,0c7.3,0,13.2,5.9,13.2,13.2
		v433.4C493.2,609.1,487.3,615,480,615z"/>
	<path class="st0" d="M297.7,803.6L297.7,803.6c-6.6-3-9.6-10.8-6.6-17.4L468,390.5c3-6.6,10.8-9.6,17.4-6.6l0,0
		c6.6,3,9.6,10.8,6.6,17.4L315.1,796.9C312.1,803.6,304.4,806.5,297.7,803.6z"/>
	<path class="st0" d="M472.5,383.9L472.5,383.9c-6.6,3-9.6,10.8-6.6,17.4l176.9,395.6c3,6.6,10.8,9.6,17.4,6.6l0,0
		c6.6-3,9.6-10.8,6.6-17.4L489.9,390.5C486.9,383.9,479.1,380.9,472.5,383.9z"/>
	<path class="st0" d="M472.5,383.9L472.5,383.9c-6.6,3-9.6,10.8-6.6,17.4l176.9,395.6c3,6.6,10.8,9.6,17.4,6.6l0,0
		c6.6-3,9.6-10.8,6.6-17.4L489.9,390.5C486.9,383.9,479.1,380.9,472.5,383.9z"/>
	<rect x="168" y="199.4" class="st1" width="624" height="430.8"/>
	<rect x="200.2" y="230.9" class="st2" width="559.5" height="367.9"/>
	<path class="st3" d="M793,630.2H167c-12,0-21.8-9.8-21.8-21.8l0,0c0-12,9.8-21.8,21.8-21.8h626c12,0,21.8,9.8,21.8,21.8l0,0
		C814.9,620.5,805.1,630.2,793,630.2z"/>
	<path class="st3" d="M793,229H167c-12,0-21.8-9.8-21.8-21.8l0,0c0-12,9.8-21.8,21.8-21.8h626c12,0,21.8,9.8,21.8,21.8l0,0
		C814.9,219.2,805.1,229,793,229z"/>
	<rect x="200.2" y="230.9" class="st4" width="559.5" height="25.6"/>
	<circle class="st5" cx="469.9" cy="402.7" r="134.3"/>
	<path class="st6" d="M469.9,402.7h134.3c0,73.7-60.6,134.3-134.3,134.3s-134.3-60.6-134.3-134.3s60.6-134.3,134.3-134.3
		c36.3,0,71.1,14.7,96.4,40.8L469.9,402.7z"/>
	<path class="st7" d="M469.9,402.7l52.5,123.7c-16.6,7-34.4,10.7-52.5,10.7c-73.7,0-134.3-60.6-134.3-134.3s60.6-134.3,134.3-134.3
		c36.3,0,71.1,14.7,96.4,40.8L469.9,402.7z"/>
	<path class="st8" d="M469.9,402.7l-97.5-92.4c25.4-26.8,60.6-41.9,97.5-41.9c36.3,0,71.1,14.7,96.4,40.8L469.9,402.7z"/>
	<rect x="633.2" y="432.8" class="st8" width="25.8" height="16.7"/>
	<rect x="633.2" y="462" class="st7" width="25.8" height="16.7"/>
	<rect x="633.2" y="491.2" class="st6" width="25.8" height="16.7"/>
	<rect x="633.2" y="520.3" class="st5" width="25.8" height="16.7"/>
	<rect x="669.7" y="432.8" class="st4" width="61.2" height="16.7"/>
	<rect x="669.7" y="462" class="st4" width="61.2" height="16.7"/>
	<rect x="669.7" y="491.2" class="st4" width="61.2" height="16.7"/>
	<rect x="669.7" y="520.3" class="st4" width="61.2" height="16.7"/>
	<path class="st0" d="M334.9,702.1v-5.7c0-5.7,4.6-10.3,10.3-10.3h262.5c5.7,0,10.3,4.6,10.3,10.3v5.7c0,5.7-4.6,10.3-10.3,10.3
		H345.2C339.5,712.4,334.9,707.8,334.9,702.1z"/>
</g>
</svg>
