<?xml version="1.0" encoding="utf-8"?>
<!-- Generator: Adobe Illustrator 27.6.1, SVG Export Plug-In . SVG Version: 6.00 Build 0)  -->
<svg version="1.1" id="Layer_1" xmlns="http://www.w3.org/2000/svg" xmlns:xlink="http://www.w3.org/1999/xlink" x="0px" y="0px"
	 viewBox="0 0 256 256" style="enable-background:new 0 0 256 256;" xml:space="preserve">
<style type="text/css">
	.st0{fill:#FFFFFF;}
	.st1{fill:#010101;}
	.st2{fill:#ED1C24;}
	.st3{fill:#0081C3;}
	.st4{fill:#FB5058;}
	.st5{fill:#EA5B24;}
	.st6{fill:#89483E;}
	.st7{fill:#C03A26;}
	.st8{fill:#F89420;}
	.st9{fill:#F47D20;}
	.st10{fill:#F36D21;}
	.st11{fill:#F78D1E;}
	.st12{fill:#DF5126;}
	.st13{fill:#ED6A22;}
	.st14{fill:#DCBC83;}
	.st15{fill:#BACCD5;}
	.st16{fill:#5F3722;}
	.st17{fill:#0081C3;stroke:#FFFFFF;stroke-width:0.2754;stroke-miterlimit:10;}
	.st18{fill:#FBAB18;}
	.st19{fill:#2F1F11;}
	.st20{clip-path:url(#SVGID_00000093171126422752295770000004728913966091575468_);}
	.st21{clip-path:url(#SVGID_00000093171126422752295770000004728913966091575468_);fill:#010101;}
	.st22{clip-path:url(#SVGID_00000093171126422752295770000004728913966091575468_);fill:#FFFFFF;}
	.st23{clip-path:url(#SVGID_00000033328283591302621700000005193738797771829182_);fill:#FB5058;}
	.st24{clip-path:url(#SVGID_00000033328283591302621700000005193738797771829182_);fill:#FFFFFF;}
	.st25{clip-path:url(#SVGID_00000033328283591302621700000005193738797771829182_);fill:#010101;}
	.st26{fill:#8C786D;}
	.st27{fill:#8C786D;stroke:#FFFFFF;stroke-width:0.826;stroke-miterlimit:10;}
	.st28{fill:#0081C3;stroke:#091313;stroke-width:0.826;stroke-miterlimit:10;}
	.st29{fill:none;stroke:#091313;stroke-width:0.826;stroke-miterlimit:10;}
</style>
<g>
	<g>
		<path class="st1" d="M195.4,189.1c-3.6-1.8-5,0.1-4.6,2.4c0.1,0.8,0.7,4,0.6,4.8c-0.2,2.5-2.4,4.5-4.9,4.3
			c-1.4-0.1-2.5-0.8-3.3-1.8c-0.7,1.8-2.6,3-4.6,2.8c-2.4-0.2-4.2-2.1-4.3-4.5l0,0c-2.5-0.2-4.5-2.4-4.3-4.9c0.1-1.5,1-2.9,2.2-3.6
			c1-2.6,1.2-5.3,0.2-6.1c-0.7-0.6-0.6-1.9,0.2-3.5c0.8-1.4,1.4-2.2,1.8-2.6c0,0,6.2-4.5,10.4,0.1c4.2,4.6,9.8,4.7,13.5,3.6
			c3.7-1,5.9-1.7,6.1,2.3C204.6,186.5,199,190.9,195.4,189.1z"/>
		<path class="st1" d="M155.3,118.1c-0.6-3.5-3.2-6.6-7.6-6.8c0.1-3.3-4.7,6-3.7,14.4c0.4,3.1,1.7,5.7,3.5,8.1
			c0.1-2.1,0.2-4.3,0.3-6.4c0.7,0,1.4-0.3,2.1-0.5c0,0,0,0,0.1,0.1c1.1,0.6,27.8,14.8,25,52c2.3-0.4,4.5-0.4,6.8-0.7
			C184.4,136.2,157.7,119.5,155.3,118.1z"/>
		<g>
			<path class="st0" d="M47.6,236.8c-1.6,0-3.1-0.3-4.6-0.9c-10.3-6.1-8.9-42,3.3-87.3c7.3-27.1,17.5-53.5,28.1-72.3
				c12.2-21.7,24.3-33.2,34.9-33.2c15.7,0,29,25.2,38.4,72.9c0.6,2.9,1.3,6,2,9.3c4.1,19.1,9.2,42.8,11.7,62.6
				c3.5,27.7,0,34.8-3.5,35.8l-0.2,0.1l-0.2,0.1c-1.8,1.1-3.9,1.7-6.3,1.7c0,0,0,0,0,0c-6.8,0-15-4.4-23.6-9.1
				c-9-4.9-18.4-10-26.8-10c-1.4,0-2.8,0.2-4.1,0.5c-7,1-14.6,7.5-22.7,14.4C65,228.9,55.7,236.8,47.6,236.8z"/>
			<path class="st1" d="M109.3,44.5c10.4,0,25.3,12.5,37,71.8c0.6,2.9,1.3,6,2,9.3c4.1,19.1,9.2,42.8,11.7,62.4
				c3.8,30.1-1,33.9-2.5,34.3l-0.4,0.1l-0.3,0.2c-1.6,1-3.4,1.5-5.6,1.5c-6.5,0-14.8-4.6-22.9-9c-9.2-5-18.7-10.2-27.4-10.2
				c-1.5,0-3,0.2-4.4,0.5c-7.4,1.1-15.1,7.7-23.4,14.8c-8.8,7.5-17.9,15.3-25.6,15.3c-1.4,0-2.7-0.3-4-0.8c-4.5-2.8-6.7-13.2-6-28.7
				c0.7-15.6,4.2-35.8,9.9-57C61.5,97,87.2,44.5,109.3,44.5 M109.3,41.7c-44.3,0-93.8,179.8-67,195.4c1.7,0.7,3.4,1.1,5.2,1.1
				c16.2,0,35.2-28.1,49.4-30.1c1.3-0.3,2.6-0.4,3.9-0.4c15.8,0,35.7,19.2,50.4,19.2c2.5,0,4.9-0.6,7-1.9
				c14.7-4.3-1.4-72.6-9.2-109.2C138.5,62,124.2,41.7,109.3,41.7L109.3,41.7z"/>
		</g>
		<path class="st1" d="M150.4,121.9c-0.5-2.1-0.9-4.2-1.3-6.2c-24-122-67.1-71.8-93-2.4C71.8,118.8,104.2,126.8,150.4,121.9z"/>
		<path class="st26" d="M150.9,86.4c-1.1-1.5-1.5-3.2-1-5.2c0.7,1.5,1.3,2.9,1.9,4.3c-0.1-3.4-0.2-6.6-0.7-9.9
			c-0.2-1.1-1-2.4-1.9-2.9c-3.9-2.1-5-5.3-4.3-9.4c0.1-0.4,0-0.9,0-1.4c-0.3-2-1.1-3.7-3-5.1c0.3,0.9,0.4,1.5,0.7,2.5
			c-1.2-1.2-2.2-2.3-2.9-3.5c-1.3,3.7-2.4,7.3-3.3,11.1c4.4,10.1,8.4,23,11.9,38.7c0.8-1.5,1.6-2.9,2.3-4.4c0.1,0.3,0.2,0.6,0.4,1.2
			c0.4-1.9,0.6-3.6,1.2-5.1C153.8,93.3,153.4,89.8,150.9,86.4z"/>
		<g>
			<path class="st26" d="M56.3,108.8c7.2-18.4,15.6-35.2,23.6-46.6c8-11.4,15.8-18.4,23.4-20.8c-0.3-0.8-0.6-1.6-0.8-2.5
				c-0.9-0.4-1.7-0.9-2.5-1.5c-1.9-1.6-4-1.8-6.2-1.1c0.2,0.5,0.6,1.1,0.5,1.3c-0.2,0.4-0.9,0.7-1.3,0.6c-1.4-0.3-2.8-0.7-4-1.4
				c-1.6-0.8-3.1-1.4-4.9-1.1c0.5,0.4,0.9,0.8,1.3,1.1c0,0.2-0.1,0.4-0.1,0.6c-1.1-0.1-2.2,0-3.2-0.2c-1.6-0.3-2.9-0.1-4.3,0.7
				c-2,1.2-4.1,2.3-6.2,3.3c-1.8,0.8-3.1,1.8-3.1,3.9c-0.1,1.9-1.2,3.2-3,3.9c-0.9,0.4-1.8,0.7-2.7,1.1c-1.1,0.5-2.2,1.1-3.3,1.7
				c1.6,0,3,0,4.2,1.5C63,53.5,62.5,53.8,62,54c-2.1,1.1-3.7,2.4-3.6,5.1c0,0.6-1,1.6-1.6,1.8c-2.6,0.7-3.5,2.4-3.7,4.9
				c-0.1,1.7-0.3,3.6-1.1,5c-1.8,3-2.6,6.1-2.3,9.6c0.1,1.1-0.4,2.2-0.7,3.7c-0.9-0.8-1.4-1.2-2-1.7c-0.4,2.7,0.7,4.8,1.7,7
				c0.7,1.6,1,3.3,1.5,5c0.4,1.3,0.6,2.8,1.4,3.7c1.7,1.8,2.1,3.7,2.4,6.1C54.1,107.3,56.3,108.7,56.3,108.8z"/>
		</g>
		<path class="st1" d="M102.6,108.5L102.6,108.5L102.6,108.5c2.5-0.7,5.1-1,7.7-1c5.7,0,11.2,1.7,15.4,4.7c4.5,3.2,7.1,7.7,7.1,12.3
			c-0.1,7-6.1,13.3-15,15.7c-2.5,0.7-5.1,1-7.7,1c-5.7,0-11.2-1.7-15.4-4.7c-4.5-3.2-7.1-7.7-7.1-12.3
			C87.6,117.2,93.6,110.9,102.6,108.5L102.6,108.5z"/>
		<path class="st2" d="M110,137.7c10.4,0.1,19.1-5.9,19.2-13.1c0.1-7.2-8.6-13.4-19-13.5C99.9,111,91.1,117,91,124.2
			C91,131.4,99.7,137.6,110,137.7z"/>
		<g>
			<g>
				<path class="st0" d="M232.6,210.5c-0.2,0-0.3,0-0.5-0.1c-0.6-0.1-0.9-0.3-1.1-0.7c-0.3-0.5-0.1-1,0-1.5c0.2-0.6,0.5-1.2,0.7-1.8
					c0.1-0.1,0.1-0.3,0.2-0.4c-1.3-0.3-2.6-0.5-4.1-0.8l0,0.2l0,0l0,0.6c-0.1,0.6-0.1,1.2-0.2,1.8c0,0.4-0.2,1.6-1.4,1.6
					c-0.2,0-0.3,0-0.5-0.1c-0.6-0.1-0.9-0.3-1.1-0.7c-0.3-0.5-0.1-1,0-1.5c0.2-0.6,0.5-1.2,0.7-1.8c0.1-0.1,0.1-0.3,0.2-0.4
					c-1.2-0.2-2.6-0.3-4.2-0.5l0,0.5c0,0.6-0.1,1.2-0.2,1.7c0,0.4-0.2,1.6-1.4,1.6c-0.2,0-0.3,0-0.5-0.1c-0.6-0.1-0.9-0.3-1.1-0.7
					c-0.3-0.5-0.1-1,0-1.5c0.2-0.6,0.5-1.2,0.7-1.8l0,0c-3.9-0.5-5.1-1.8-6.2-2.8c-0.5-0.5-0.9-0.9-1.6-1.3c-0.9-0.5-1.4-0.8-1.7-1
					l-94-15.5c-0.1,0.1-0.1,0.1-0.2,0.2l-0.1,0.1l-0.1,0c-4,0.9-5.9,3.1-5.8,6.9c0.1,4.2,3.4,5.4,7.3,6.5l0.6,0.2l-0.5,0.4
					c-0.3,0.3-0.6,0.5-0.8,0.7c-0.4,0.4-0.8,0.7-1.1,1c-4,2.9-8.8,4.4-13.8,4.4c-4.8,0-9.5-1.4-13.6-4.2c-0.4-0.3-0.8-0.6-1.2-0.8
					c-2.3-1.6-4.6-3.2-7.5-3.3l-0.3,0c-2,0-4,0.3-5.7,1c-1.4,0.5-2.8,1.3-4.1,2c-1.3,0.7-2.6,1.4-4,2c-3.1,1.2-6.1,1.8-8.9,1.8
					c-4.6,0-9-1.6-12.9-4.7C39,195,36.8,191,36,186c-1-6.6-1.5-9.7-0.5-16.5l1-5.7c1.8-7.6,4.9-18,9.7-24c3.9-5,9.4-7.8,15.4-7.8
					c5.1,0,10.3,2,14.1,5.6c1.6,1.5,3.1,3,4.4,4.7c2.7,3.4,6,5.1,9.8,5.1c1.3,0,2.8-0.2,4.2-0.6c2.9-0.8,5.9-1.2,8.8-1.2
					c3.8,0,7.6,0.7,11.2,2c5,1.8,8.9,4.9,11.4,9.1c0.4,0.7,0.8,1.5,1.1,2.5c0.2,0.6,0.2,1,0,1.4c-0.1,0.2-0.4,0.4-0.9,0.4
					c-0.2,0-0.4,0-0.7-0.1c-0.5-0.1-1-0.3-1.5-0.5c-0.5-0.2-1-0.4-1.5-0.5c-0.9-0.2-1.8-0.4-2.6-0.4c-1.5,0-2.9,0.5-4.1,1.4
					c-1.2,1-2,2.4-2.1,4c-0.1,1.5,0.5,2.8,1.5,3.8c0.8,0.7,1.4,1.3,2.1,1.7l0.1,0.1l0.1,0.2c0.1,0.3,0.2,0.5,0.3,0.8l92.8,18
					c0.2-0.1,0.9-0.2,2.7-0.5c0.7-0.1,1.3-0.4,1.9-0.7c0.9-0.4,2-0.9,3.7-0.9c0.9,0,1.9,0.1,3.1,0.4c0-0.7-0.1-1.3-0.1-2
					c0-0.5,0-1.7,1.3-1.7c0.1,0,0.3,0,0.4,0c0.6,0.1,1,0.3,1.2,0.6c0.3,0.5,0.2,1,0.1,1.4c-0.1,0.6-0.3,1.1-0.5,1.7l-0.1,0.4
					c1.2,0.3,2.6,0.6,4.1,1c0-0.1,0-0.3,0-0.4c0-0.7-0.1-1.3-0.1-2c0-0.5,0-1.7,1.3-1.7c0.1,0,0.3,0,0.4,0c0.6,0.1,1,0.3,1.2,0.6
					c0.3,0.5,0.2,1,0.1,1.4c-0.1,0.6-0.3,1.1-0.5,1.7l-0.2,0.7c1.5,0.3,2.8,0.5,4.2,0.7l0-0.5c0-0.7-0.1-1.3-0.1-2
					c0-0.5,0-1.7,1.3-1.7c0.1,0,0.3,0,0.4,0c0.6,0.1,1,0.3,1.2,0.6c0.3,0.5,0.2,1,0.1,1.4c-0.1,0.6-0.3,1.1-0.5,1.7l-0.1,0.5
					c1.3,0.1,2.6,0.2,3.8,0.2c0,0,0.2-0.1,0.4-0.1c0.5,0,1.5,0.2,1.5,2.2c0,0.8,0.1,1.4,0.2,2.1c0.2,1.3,0.3,2.7-0.1,4.9
					c-0.4,2.2-1,3.4-1.6,4.6c-0.3,0.6-0.6,1.2-0.9,1.9c-0.5,1.3-1.2,1.6-1.7,1.6l0,0c-0.4,0-0.8-0.2-0.9-0.3
					c-1.1-0.4-2.3-0.8-3.6-1.1l-0.1,0.6c0,0.6-0.1,1.2-0.1,1.7C234,209.3,233.9,210.5,232.6,210.5z"/>
				<path class="st0" d="M61.6,132.4c5.1,0,10.2,2.1,13.9,5.5c1.6,1.4,3,3,4.4,4.7c2.8,3.5,6.2,5.2,10.1,5.2c1.4,0,2.8-0.2,4.3-0.6
					c2.9-0.8,5.8-1.2,8.7-1.2c3.7,0,7.4,0.7,11.1,2c4.7,1.7,8.6,4.6,11.2,8.9c0.5,0.8,0.8,1.6,1.1,2.4c0.3,0.9,0,1.3-0.6,1.3
					c-0.2,0-0.4,0-0.6-0.1c-1-0.3-2-0.8-3-1.1c-0.9-0.2-1.8-0.4-2.7-0.4c-1.5,0-3,0.4-4.3,1.5c-2.7,2.1-3,6-0.5,8.3
					c0.7,0.6,1.4,1.2,2.1,1.8c0.1,0.4,0.3,0.7,0.4,1.1l93.3,18.1l0-0.1c0,0-0.2,0,2.5-0.5c2-0.3,2.8-1.6,5.6-1.6
					c0.9,0,2,0.1,3.5,0.5c0-0.9-0.1-1.6-0.1-2.4c0-0.7,0.1-1.4,1-1.4c0.1,0,0.2,0,0.4,0c1.1,0.2,1.2,0.8,1,1.6
					c-0.2,0.8-0.4,1.5-0.7,2.5c1.6,0.4,3.3,0.8,4.9,1.2c0-1-0.1-1.9-0.1-2.8c0-0.7,0.1-1.4,1-1.4c0.1,0,0.2,0,0.4,0
					c1.1,0.2,1.2,0.8,1,1.6c-0.2,0.8-0.4,1.6-0.7,2.7c0,0,0,0,0,0c0,0.1,0,0.1-0.1,0.2c1.7,0.3,3.3,0.6,5,0.8c0-1-0.1-1.9-0.1-2.8
					c0-0.7,0.1-1.4,1-1.4c0.1,0,0.2,0,0.4,0c1.1,0.2,1.2,0.8,1,1.6c-0.2,0.8-0.4,1.6-0.7,2.7c0,0,0,0,0,0c0,0,0,0,0,0
					c1.4,0.1,2.8,0.2,4.2,0.2c0,0,0,0,0,0c0,0,0.2-0.1,0.4-0.1c0.5,0,1.2,0.3,1.2,1.8c0,2.3,0.7,3.7,0.1,6.9
					c-0.6,3.2-1.7,4.3-2.5,6.4c-0.4,1.1-0.9,1.4-1.4,1.4c-0.4,0-0.7-0.3-0.7-0.3c-1.4-0.5-2.7-0.9-4.1-1.3c0,0,0,0,0,0c0,0,0,0,0,0
					c-0.1,1.1-0.1,1.9-0.2,2.7c-0.1,0.8-0.3,1.2-1.1,1.2c-0.1,0-0.3,0-0.4,0c-1.2-0.2-1.1-0.9-0.8-1.7c0.3-0.8,0.7-1.7,1.1-2.6
					c-1.7-0.4-3.3-0.7-5-0.9c0,0.1,0,0.1,0,0.2c0,0,0,0,0,0c-0.1,1.1-0.1,1.9-0.2,2.7c-0.1,0.8-0.3,1.2-1.1,1.2c-0.1,0-0.3,0-0.4,0
					c-1.2-0.2-1.1-0.9-0.8-1.7c0.3-0.9,0.7-1.7,1.1-2.6c-1.7-0.2-3.3-0.4-5-0.6c-0.1,1-0.1,1.8-0.2,2.6c-0.1,0.8-0.3,1.2-1.1,1.2
					c-0.1,0-0.3,0-0.4,0c-1.2-0.2-1.1-0.9-0.8-1.7c0.3-0.7,0.6-1.4,0.9-2.2c-5.9-0.7-5.8-2.8-8.1-4.1c-1-0.5-1.5-0.9-1.8-1
					l-94.3-15.5c-0.1,0.1-0.3,0.2-0.4,0.3c-3.8,0.8-6.2,3.1-6.1,7.3c0.1,4.5,3.6,5.8,7.6,6.9c-0.9,0.8-1.3,1.3-1.9,1.7
					c-4,2.9-8.8,4.4-13.6,4.4c-4.6,0-9.3-1.4-13.4-4.1c-2.8-1.9-5.4-4.1-8.9-4.2c-0.1,0-0.2,0-0.3,0c-2,0-4,0.3-5.9,1
					c-2.8,1.1-5.4,2.9-8.2,4c-3,1.2-5.9,1.8-8.8,1.8c-4.4,0-8.7-1.5-12.7-4.7c-3.7-2.9-5.7-6.9-6.4-11.6c-1.1-6.6-1.4-9.7-0.5-16.4
					l1-5.7c1.7-7.4,4.9-17.8,9.6-23.9C50.8,134.7,56.2,132.4,61.6,132.4 M61.6,131.7l0,0.7L61.6,131.7c-6.1,0-11.6,2.8-15.6,7.9
					c-4.8,6.1-8,16.5-9.8,24.2l-1,5.7c-1,6.8-0.6,10,0.5,16.6c0.8,5.1,3.1,9.1,6.7,12c4,3.2,8.4,4.8,13.1,4.8c2.9,0,6-0.6,9.1-1.8
					c1.4-0.6,2.8-1.3,4.1-2c1.3-0.7,2.7-1.5,4.1-2c1.6-0.6,3.6-1,5.6-1c0.1,0,0.2,0,0.3,0c2.8,0,5,1.6,7.3,3.2
					c0.4,0.3,0.8,0.6,1.2,0.9c4.1,2.8,8.8,4.2,13.8,4.2c5.1,0,10-1.6,14-4.5c0.4-0.3,0.7-0.6,1.2-1c0.2-0.2,0.5-0.5,0.8-0.7l1-0.9
					l-1.3-0.3c-3.8-1-7-2.2-7-6.2c-0.1-3.6,1.7-5.7,5.5-6.5l0.2-0.1l0.2-0.2c0,0,0,0,0,0l93.8,15.4c0.3,0.2,0.8,0.5,1.7,1
					c0.6,0.3,1,0.8,1.5,1.2c1.1,1.1,2.3,2.3,5.9,2.9c-0.2,0.5-0.4,0.9-0.6,1.4c-0.2,0.6-0.4,1.2,0,1.8c0.2,0.4,0.7,0.7,1.4,0.8
					c0.2,0,0.4,0.1,0.6,0.1c0.7,0,1.6-0.3,1.8-1.9c0.1-0.6,0.1-1.1,0.2-1.8l0-0.1c1.3,0.1,2.3,0.3,3.3,0.4c-0.3,0.6-0.5,1.2-0.7,1.8
					c-0.2,0.6-0.4,1.2,0,1.8c0.2,0.4,0.7,0.7,1.4,0.8c0.2,0,0.4,0.1,0.6,0.1c0.7,0,1.6-0.3,1.8-1.9c0.1-0.6,0.1-1.1,0.2-1.8l0-0.1
					l0.1,0l0-0.3c1.2,0.2,2.2,0.4,3.3,0.6c0,0,0,0,0,0c-0.3,0.6-0.5,1.2-0.7,1.8c-0.2,0.6-0.4,1.2,0,1.8c0.2,0.4,0.7,0.7,1.4,0.8
					c0.2,0,0.4,0.1,0.6,0.1c0.7,0,1.6-0.3,1.8-1.9c0.1-0.6,0.1-1.1,0.2-1.8l0-0.1l0.1,0v0c1.1,0.3,2.1,0.6,3,1
					c0.2,0.1,0.6,0.3,1.1,0.3c0.6,0,1.5-0.3,2-1.8c0.3-0.7,0.6-1.3,0.9-1.9c0.6-1.2,1.3-2.5,1.6-4.7c0.4-2.2,0.2-3.6,0.1-5
					c-0.1-0.7-0.2-1.3-0.2-2.1c0-2.3-1.5-2.5-1.9-2.5c-0.2,0-0.4,0-0.5,0.1c-1.1,0-2.2,0-3.3-0.1l0-0.1c0.2-0.6,0.3-1.2,0.5-1.7
					c0.1-0.5,0.2-1.2-0.1-1.7c-0.3-0.4-0.7-0.7-1.4-0.8c-0.2,0-0.3,0-0.5,0c-1.1,0-1.7,0.7-1.7,2.1c0,0.7,0,1.3,0.1,2c0,0,0,0,0,0
					c-1-0.1-2.1-0.3-3.3-0.5l0.1-0.3l-0.1,0l0-0.1c0.2-0.6,0.3-1.2,0.5-1.7c0.1-0.5,0.2-1.2-0.1-1.7c-0.3-0.4-0.7-0.7-1.4-0.8
					c-0.2,0-0.3,0-0.5,0c-1.1,0-1.7,0.7-1.7,2.1c0,0.6,0,1.3,0.1,1.9c-1-0.2-2-0.5-3.3-0.8l0-0.1c0.2-0.6,0.3-1.2,0.5-1.7
					c0.1-0.5,0.2-1.2-0.1-1.7c-0.3-0.4-0.7-0.7-1.4-0.8c-0.2,0-0.3,0-0.5,0c-1.1,0-1.7,0.7-1.7,2.1c0,0.5,0,1,0,1.5
					c-1-0.2-1.9-0.3-2.7-0.3c-1.8,0-2.9,0.5-3.9,0.9c-0.6,0.3-1.1,0.5-1.8,0.6c-1.2,0.2-1.8,0.3-2.1,0.4c-0.2,0-0.3,0.1-0.5,0.1
					l-92.5-17.9c-0.1-0.2-0.1-0.4-0.2-0.6l-0.1-0.1l-0.1-0.2l-0.2-0.1c-0.6-0.5-1.3-1-2-1.7c-1-0.9-1.5-2.2-1.4-3.5
					c0.1-1.4,0.8-2.8,1.9-3.7c1.1-0.9,2.4-1.3,3.8-1.3c0.8,0,1.6,0.1,2.5,0.4c0.5,0.1,1,0.3,1.5,0.5c0.5,0.2,1,0.4,1.6,0.5
					c0.3,0.1,0.5,0.1,0.8,0.1c0.5,0,0.9-0.2,1.2-0.6c0.3-0.4,0.3-1,0.1-1.7c-0.4-1-0.7-1.9-1.2-2.6c-2.6-4.3-6.5-7.3-11.6-9.2
					c-3.7-1.4-7.5-2-11.4-2c-2.9,0-5.9,0.4-8.9,1.2c-1.5,0.4-2.9,0.6-4.2,0.6c-3.8,0-6.9-1.6-9.6-5c-1.3-1.7-2.8-3.3-4.4-4.8
					C72.1,133.7,66.8,131.7,61.6,131.7L61.6,131.7z"/>
			</g>
			<path class="st1" d="M236.6,191C236.6,191,236.6,191,236.6,191c0.3-1.1,0.5-1.9,0.7-2.7c0.2-0.9,0.1-1.5-1-1.6
				c-1.2-0.2-1.3,0.5-1.3,1.3c0,0.9,0.1,1.8,0.1,2.9C235.3,192,236.2,192.2,236.6,191z"/>
			<path class="st1" d="M230.2,189.9C230.2,189.9,230.2,189.9,230.2,189.9c0.3-1.1,0.5-1.9,0.7-2.7c0.2-0.9,0.1-1.5-1-1.6
				c-1.2-0.2-1.3,0.5-1.3,1.3c0,0.9,0.1,1.8,0.1,2.9C228.9,190.8,229.8,191.1,230.2,189.9z"/>
			<path class="st1" d="M223.7,188.7C223.7,188.7,223.7,188.7,223.7,188.7c0.3-1.1,0.5-1.9,0.7-2.7c0.2-0.9,0.1-1.5-1-1.6
				c-1.2-0.2-1.3,0.5-1.3,1.3c0,0.9,0.1,1.8,0.1,2.9C222.4,189.7,223.3,189.9,223.7,188.7z"/>
			<path class="st1" d="M233.9,206.2C233.9,206.2,233.9,206.2,233.9,206.2c-0.1,1.1-0.2,1.9-0.2,2.7c-0.1,0.9-0.4,1.4-1.5,1.2
				c-1.2-0.2-1.1-0.9-0.8-1.7c0.3-0.9,0.7-1.7,1.1-2.7C233.1,204.8,234,204.9,233.9,206.2z"/>
			<path class="st1" d="M227.5,205C227.5,205,227.5,205,227.5,205c-0.1,1.1-0.2,1.9-0.2,2.7c-0.1,0.9-0.4,1.4-1.5,1.2
				c-1.2-0.2-1.1-0.9-0.8-1.7c0.3-0.9,0.7-1.7,1.1-2.7C226.6,203.7,227.5,203.7,227.5,205z"/>
			<path class="st1" d="M221,203.9C221,203.9,221,203.9,221,203.9c-0.1,1.1-0.2,1.9-0.2,2.7c-0.1,0.9-0.4,1.4-1.5,1.2
				c-1.2-0.2-1.1-0.9-0.8-1.7c0.3-0.9,0.7-1.7,1.1-2.7C220.1,202.5,221,202.6,221,203.9z"/>
			<g>
				<path class="st4" d="M126.5,159.3c-0.3-0.8-0.6-1.7-1.1-2.4c-2.7-4.3-6.5-7.2-11.2-8.9c-6.5-2.4-13.1-2.6-19.8-0.8
					c-5.8,1.6-10.6,0.2-14.5-4.6c-1.3-1.7-2.8-3.2-4.4-4.7c-7.7-7-20.7-8.4-29,2.1c-4.7,6-7.3,13-9,20.4c-0.2,0.7-0.9,5-1,5.7
					c-1,6.6-1.2,13.2-0.2,19.9c0.7,4.6,2.7,8.6,6.4,11.6c6.6,5.2,13.9,5.9,21.5,2.9c2.8-1.1,5.3-2.9,8.2-4c1.9-0.7,4.1-1,6.2-1
					c3.5,0.1,6.1,2.3,8.9,4.2c8.2,5.5,19,5.4,27-0.3c0.6-0.4,1-0.9,1.9-1.7c-3.9-1.1-7.5-2.4-7.6-6.9c-0.1-4.2,2.2-6.4,6.1-7.3
					c0.1-0.1,0.2-0.2,0.4-0.3l-4.4-0.7l2.1-11.5l4.4,0.8c0-0.4-0.2-0.7-0.4-1.1c-0.8-0.5-1.5-1.1-2.1-1.8c-2.5-2.3-2.1-6.2,0.5-8.3
					c2.1-1.7,4.5-1.8,6.9-1.1c1,0.3,2,0.8,3,1.1C126.3,160.8,126.9,160.4,126.5,159.3z"/>
				<path class="st14" d="M206.5,198.1c1.4,0.3,2.1-0.1,2.3-1.6c0.2-1.6,0.4-3.2,0.8-4.7c0.4-1.6-0.2-2.2-1.8-2.5l-95-18.4
					l-2.1,11.5L206.5,198.1z"/>
			</g>
			<path class="st4" d="M209.1,198.4c0,0-0.2,0,2.2,1.3c2.3,1.3,2.2,3.5,8.6,4.2c6.2,0.6,12.2,1.3,18.2,3.5c0,0,1.3,1,2.1-1.1
				s1.9-3.2,2.5-6.4s-0.1-4.6-0.1-6.9c0-2.3-1.6-1.7-1.6-1.7c-6.4,0-12.2-1.4-18.3-3c-6.2-1.6-6.8,0.5-9.5,1
				c-2.7,0.4-2.5,0.5-2.5,0.5L209.1,198.4z"/>
			<circle class="st1" cx="53.9" cy="193.4" r="2.3"/>
			<circle class="st1" cx="54.9" cy="184.5" r="2.3"/>
			<circle class="st1" cx="44.3" cy="188.6" r="2.3"/>
			<circle class="st1" cx="46.6" cy="180.7" r="2.3"/>
			<g>
				<path class="st1" d="M99.5,198.6c-1.3,0-2.7-0.1-4-0.4c-3.3-0.6-5.9-2.1-8.4-3.6c-2.2-1.3-4.2-2.5-6.5-2.9
					c-0.8-0.1-1.7-0.2-2.6-0.2c-4.4,0-9.1,1.4-9.2,1.5l-0.2,0l-0.1-0.2c0-0.1-0.9-2.1-0.4-4.5c0.2-0.9,1-2.4,2-4.2
					c1.6-2.9,3.6-6.5,4.3-10c0.6-3.3,0-6.8-0.5-9.8c-0.4-2.2-0.7-4.2-0.5-5.6c0.6-3.3,2.6-4.5,2.7-4.6l0.1,0l0.1,0
					c0.1,0,9.1,3.9,15.7,5c1.2,0.2,2.6,0.3,4.2,0.3c5.9,0,12.3-1.6,12.4-1.6l0.3-0.1l-0.1,0.3c0,0-1.9,5,1,8.3
					c3.1,3.4,3.4,3.9,3.4,3.9l0,0.1l-2.2,12.1l-0.1,0c-0.1,0-7.7,1.9-8.7,7.9c-0.4,2-0.1,3.6,0.8,4.7c1.2,1.6,3.1,1.8,3.1,1.8
					l0.7,0.1l-0.6,0.3C106,197.5,103.5,198.6,99.5,198.6z"/>
				<path class="st0" d="M76.1,154.3c0,0,9,3.9,15.7,5.1c1.3,0.2,2.7,0.3,4.2,0.3c6,0,12.4-1.6,12.4-1.6s-2,5.1,1.1,8.5
					s3.4,3.9,3.4,3.9l-2.1,12c0,0-7.8,1.9-8.9,8.1s4.1,6.8,4.1,6.8s-2.6,1.1-6.5,1.1c-1.2,0-2.6-0.1-4-0.4c-6.2-1.1-10-5.6-14.9-6.5
					c-0.8-0.2-1.7-0.2-2.7-0.2c-4.4,0-9.2,1.5-9.2,1.5s-0.8-2.1-0.4-4.4s5.2-8.4,6.3-14.3c1-5.9-1.5-12.2-1-15.4
					C74.1,155.5,76.1,154.3,76.1,154.3 M76.1,153.9l-0.2,0.1c-0.1,0.1-2.2,1.3-2.8,4.7c-0.3,1.4,0.1,3.4,0.5,5.7
					c0.5,3,1.1,6.4,0.5,9.7c-0.6,3.5-2.6,7.1-4.2,10c-1,1.8-1.8,3.3-2,4.3c-0.4,2.4,0.4,4.5,0.4,4.6l0.1,0.3l0.3-0.1
					c0,0,4.8-1.4,9.1-1.4c1,0,1.8,0.1,2.6,0.2c2.3,0.4,4.3,1.6,6.5,2.9c2.5,1.5,5.1,3,8.5,3.6c1.4,0.2,2.7,0.4,4.1,0.4
					c4,0,6.6-1,6.7-1.1l1.3-0.5l-1.4-0.2c0,0-1.9-0.2-3-1.8c-0.8-1.1-1.1-2.7-0.7-4.6c1-5.9,8.5-7.8,8.6-7.8l0.2-0.1l0-0.2l2.1-12
					l0-0.1l-0.1-0.1c0-0.1-0.4-0.6-3.4-4c-2.9-3.2-1-8.1-1-8.1l0.3-0.6l-0.7,0.2c-0.1,0-6.5,1.6-12.4,1.6c-1.5,0-2.9-0.1-4.1-0.3
					c-6.6-1.2-15.6-5-15.7-5L76.1,153.9L76.1,153.9z"/>
			</g>
			<g>
				
					<rect x="96.2" y="170.9" transform="matrix(0.1754 -0.9845 0.9845 0.1754 -86.892 246.2017)" class="st1" width="14.7" height="8.1"/>
				<path class="st0" d="M101,167.2l7.6,1.4l-2.5,14.1l-7.6-1.4L101,167.2 M100.7,166.8l-0.1,0.4l-2.5,14.1l-0.1,0.4l0.4,0.1
					l7.6,1.4l0.4,0.1l0.1-0.4l2.5-14.1l0.1-0.4l-0.4-0.1l-7.6-1.4L100.7,166.8L100.7,166.8z"/>
			</g>
			<g>
				
					<rect x="78.4" y="167.8" transform="matrix(0.1753 -0.9845 0.9845 0.1753 -98.4343 226.0946)" class="st1" width="14.7" height="8.1"/>
				<path class="st0" d="M83.2,164.1l7.6,1.4l-2.5,14.1l-7.6-1.4L83.2,164.1 M82.9,163.7l-0.1,0.4l-2.5,14.1l-0.1,0.4l0.4,0.1
					l7.6,1.4l0.4,0.1l0.1-0.4l2.5-14.1l0.1-0.4l-0.4-0.1l-7.6-1.4L82.9,163.7L82.9,163.7z"/>
			</g>
			<path class="st1" d="M64.1,158.8l-3.2,17.8c-0.2,0.9,0.4,1.8,1.3,1.9l0.4,0.1c0.9,0.2,1.8-0.4,1.9-1.3l3.2-17.8
				c0.2-0.9-0.4-1.8-1.3-1.9l-0.4-0.1C65.1,157.3,64.2,157.9,64.1,158.8z"/>
		</g>
		<path class="st1" d="M58.2,109.6c0.1,0,0.3,0,0.4,0C58.5,109.6,58.4,109.6,58.2,109.6z"/>
		<path class="st1" d="M169.9,192.9c0,0-0.2-5,3.8-6c2.6-0.7,3.3,1.7,3.1,3c0,0,0.1-3.9,3.3-3.7c3.2,0.2,3.8,2.2,3.7,4.2
			c0,0,0.6-3.3,2.8-2.9s3.9,1.4,4.5,6.2c0.3,2,0.3,3.1,0.3,3.1l-9.5-0.4l-8.9-1.9l-3-0.8L169.9,192.9z"/>
		<g>
			<g>
				<path class="st1" d="M92.2,172.8c-2,0-6-1.8-6.2-1.9l-0.3-0.1l0-0.3c0-0.1,0.3-3.5-2.8-5.9c-0.5-0.4-0.8-0.8-0.7-1.2
					c0-0.1,0.2-0.4,0.6-0.4c1.7,0,9.4,3.8,10.6,8.4c0.1,0.5,0,0.8-0.1,0.9C93.1,172.6,92.7,172.8,92.2,172.8L92.2,172.8z"/>
				<path class="st0" d="M82.9,163.4c1.4,0,9.1,3.7,10.2,8.1c0.2,0.6-0.2,0.8-0.9,0.8c-1.9,0-6-1.8-6-1.8s0.4-3.7-2.9-6.3
					C82.6,163.7,82.5,163.4,82.9,163.4 M82.9,162.6c-0.7,0-1,0.5-1,0.6c-0.3,0.7,0.5,1.3,0.8,1.6c2.9,2.3,2.6,5.4,2.6,5.6l-0.1,0.6
					l0.5,0.2c0.4,0.2,4.3,1.9,6.3,1.9c0.7,0,1.2-0.2,1.5-0.6c0.2-0.2,0.4-0.7,0.2-1.3C92.7,166.4,84.7,162.6,82.9,162.6L82.9,162.6z
					"/>
			</g>
			<g>
				<path class="st1" d="M64,176.8c-1.9,0-3.4-0.6-4.6-1.9c-4.2-4.5-6-11-6-15.3c-9.1-1.2-16.9-2.6-23-4.2l-0.6-0.1l0.3-0.5
					c0.7-1.1,1.5-2.1,2.2-3.2c0.9-1.2,1.7-2.5,2.6-3.7l0.2-0.3l0.3,0.1c6.6,3,14.5,5.6,20,6.7c1.7-1.1,4.3-1.3,6.2-1.3
					c1.1,0,2,0.1,2.4,0.1c0.6-0.7,3.1-3.2,5.5-3.2c0.7,0,1.4,0.2,2,0.7c1.3,1,3.4,1.6,5.2,2.2c2.3,0.6,4.2,1.2,4.8,2.4
					c0.9,1.9,3.9,5.1,3.9,5.1l0.1,0.1l0,0.2c-0.1,2.5-1.6,2.6-1.8,2.6h-0.1l-0.1-0.1c-1.7-1.1-2.9-1.7-3.7-1.9
					c2.5,2.3,5.3,5.4,5.2,7.7c0,0.9-0.4,1.6-1.2,2.1c-0.9,0.6-1.8,1-2.9,1l0,0c-1.9,0-3.7-1-4.3-1.5C75.3,171.8,69.2,176.8,64,176.8
					z"/>
				<path class="st0" d="M35.4,148c6.3,2.8,14.4,5.6,20.2,6.8c1.6-1.1,4.2-1.4,6.1-1.4c1.5,0,2.6,0.1,2.6,0.1s2.8-3.2,5.3-3.2
					c0.6,0,1.2,0.2,1.7,0.6c2.8,2.3,8.9,2.4,9.9,4.5c0.9,2,4,5.2,4,5.2c-0.1,2.1-1.2,2.2-1.4,2.2c0,0,0,0,0,0c-3.1-2-4.6-2.2-5-2.2
					c-0.1,0-0.2,0-0.2,0c3.4,3,8.2,7.9,5,10.2c-0.9,0.7-1.8,0.9-2.7,0.9c-2.3,0-4.4-1.6-4.4-1.6c-1.1,1-7.4,6.3-12.6,6.3
					c-1.6,0-3.1-0.5-4.3-1.8c-4.1-4.4-6-10.9-5.8-15.4c-9.9-1.3-17.5-2.8-23.3-4.3C32.2,152.6,33.8,150.3,35.4,148 M35.1,146.9
					l-0.4,0.6c-0.8,1.2-1.7,2.5-2.6,3.7c-0.8,1.1-1.5,2.1-2.2,3.2l-0.7,1l1.1,0.3c6.1,1.6,13.7,3,22.7,4.2
					c0.1,4.4,1.9,10.8,6.1,15.2c1.3,1.4,2.9,2,4.9,2c5.1,0,10.8-4.5,12.6-6c0.8,0.5,2.5,1.4,4.3,1.4c1.2,0,2.2-0.4,3.2-1.1
					c0.8-0.6,1.3-1.5,1.3-2.5c0.1-1.7-1.1-3.8-3.6-6.4c0.4,0.2,0.9,0.5,1.5,0.9l0.2,0.1l0.2,0l0,0l0,0c0.2,0,2.1-0.1,2.2-3l0-0.4
					l-0.2-0.3c0,0-3-3.1-3.8-5c-0.6-1.4-2.7-2-5-2.7c-1.8-0.5-3.9-1.1-5.1-2.1c-0.6-0.5-1.4-0.8-2.2-0.8c-2.4,0-4.8,2.3-5.6,3.1
					c-0.5,0-1.3-0.1-2.2-0.1c-1.9,0-4.5,0.2-6.3,1.3c-5.4-1.1-13.3-3.8-19.7-6.7L35.1,146.9L35.1,146.9z"/>
			</g>
		</g>
		<g>
			<path class="st1" d="M93.1,171.5c-1.4-5.6-13.1-9.9-9.8-7.3c3.3,2.6,2.9,6.3,2.9,6.3S93.7,173.9,93.1,171.5z"/>
			<path class="st1" d="M78.6,160.6c0,0,1.3-0.3,5.2,2.2c0,0,1.3,0.1,1.4-2.2c0,0-3-3.2-4-5.2c-0.9-2-7.1-2.2-9.9-4.5
				c-2.8-2.3-7,2.6-7,2.6s-5.9-0.7-8.7,1.2c-5.8-1.2-13.9-4-20.2-6.8c-4.2-1.9-7.7-3.8-9-5.3c6.5-5.6,20.7-15.3,26.7-18.8
				c0.6-0.3,1-0.8,1.4-1.2c0.5-0.1,1.6-12.2,3.7-13.1c-3.6,0.1-4.9,2.5-4.5,3.2c-9.3,5.9-39.8,24.3-40.5,30.9
				c-0.3,3,2.5,7.3,17.4,11.2c5.8,1.5,13.4,3,23.3,4.3c-0.1,4.4,1.8,11,5.8,15.4c5.1,5.4,15.4-3.2,16.8-4.5c0,0,3.9,3.1,7,0.7
				C86.7,168.5,82,163.7,78.6,160.6z"/>
		</g>
		<path class="st27" d="M141.7,56.6c0.2,0,0.3-0.1,0.5-0.1c1,1.4,2,2.9,3,4.3c-2.4-8-7.6-13.5-14.9-17.4c2.1,0.7,4.1,1.4,6.2,2.2
			c-2.6-3.4-6.1-5-10.1-5.9c0-0.2,0.1-0.4,0.1-0.5c2.9,0.5,5.7,1,8.6,1.4c-1.9-2.4-4.7-3.7-8-5c1.5,0.1,2.6,0.1,3.7,0.2
			c0-0.2,0-0.4,0.1-0.5c-2.6-0.6-5.1-1.3-7.7-1.9c0-0.1,0-0.2,0-0.3c2.5,0.1,5.1,0.3,7.6,0.4c-5.5-3.6-11.6-3.8-18.3-2.9
			c1.3-0.9,2.3-1.5,3.6-2.4c-4.5,0.5-8,2.2-11,5c-0.2-0.2-0.3-0.4-0.5-0.6c2.4-2.7,4.8-5.3,7-7.8c-4.7,1.6-8.3,5.3-11.3,9.5
			c0.9-5,4.3-7.9,8.4-10.7c-2.6,0.3-4.9,1.6-6.7,3.5c-2.9,3.1-5.8,6.2-8.7,9.2c-0.3,0.3-0.7,0.6-1,0.8c-0.2-0.1-0.3-0.2-0.5-0.3
			c1.2-2.4,2.3-4.8,3.5-7.2c-2.1,1.8-4,3.9-5.8,6.1c-1.3,1.5-2.4,3.1-4.6,3.3c-5.2,0.5-9.5,3-13.7,5.8c-0.8,0.5-1.4,1.3-2.1,1.9
			c0.1,0.1,0.2,0.2,0.3,0.3c1.1-0.5,2.1-1,3.2-1.5c-3.2,2.7-6.1,5.7-8.3,9.2c-2.3,3.7-4.2,9.2-3.8,11.7c0.8-1.5,1.6-3,2.4-4.5
			c-0.7,5-1.5,10-2.1,15c-0.8,6.6-1.1,13.2,0.7,19.8c0.8,2.8,1.9,5.5,2.8,8.2c0.2,0,0.4-0.1,0.6-0.1c0-1.1,0-2.1,0-3.2
			c1.4,6.6,3.2,13.1,6,19.5c-0.7-4.8-1.3-9.4-1.9-13.9c0.1,0,0.3,0,0.4-0.1c0.8,1.9,1.5,3.9,2.3,5.8c0.1,0,0.3-0.1,0.4-0.1
			c-0.4-3.3-0.6-6.6,0.2-9.8c-0.6-2.2-1.3-4.2-0.4-5.5c1-1.2,2.5-1.3,4.1-1c0.5-2.5,1.2-5,2-7.4c1-3.1,2.4-6,3.6-9
			c0.1,0.1,0.3,0.1,0.4,0.2c0,3.5,0,7,0,10.6c0.2,0,0.3,0.1,0.5,0.1c2.7-10.5,6.8-20.2,16.8-26.1c-2.8,5.6-5.6,11.2-8.3,16.8
			c0.1,0.1,0.2,0.1,0.3,0.2c3.7-5.2,7.3-10.3,11.1-15.7c-0.4,3-0.7,5.6-1,8.3c0.1,0,0.2,0,0.3,0.1c1.2-3.8,2.4-7.6,3.6-11.4
			c0.1,0,0.3,0.1,0.4,0.1c-0.7,4.3-1.4,8.5-2.2,12.8c3.2-6.8,5-13.9,5.6-21.4c0.2,0.1,0.4,0.1,0.4,0.2c1.2,4.4,4.4,6.8,8.3,8.7
			c3.6,1.8,6.9,4.2,10.3,6.3c-0.2-0.3-0.3-0.6-0.5-1c3.6,1.6,5.8,4.7,8.4,7.5c-0.5-1.5-1.1-3-1.6-4.5c1.8,0.8,3.3,3.2,3.2,6.2
			c-0.1,3-0.7,6.1-1.2,9.1c-0.7,4.2-1.4,8.3-2.2,12.4c0.2,0.5,0.5,1.1,0.7,1.6c0,0,0,0,0,0c0.1,0,0.2,0,0.3,0.1
			c0.1,0.3,0.1,0.5,0.2,0.8c0.3,0.6,0.6,1.1,0.9,1.7c1.1-4.1,2.2-8.3,3.3-12.5c0.2,0.1,0.5,0.1,0.7,0.2c-0.3,2.7-0.7,5.5-1,8.2
			c0.2,0,0.5,0.1,0.7,0.1c0.7-2.6,1.7-5.2,2.2-7.9c0.5-2.7,0.5-5.4,0.7-8.2c0.1,0,0.2,0,0.4,0c0.2,1.3,0.3,2.6,0.5,3.8
			C146.6,77.1,146.8,66.6,141.7,56.6z"/>
		<g>
			<path class="st28" d="M64.2,54c1.1-0.4,23.1-19.1,54.4-14c0,0,23,9.1,23,10.9c0,0-4-18.2-14.2-25.9s-23.7-7.3-23.7-7.3
				s-21.5,0.7-31,13.1S64.2,54,64.2,54z"/>
			<path class="st28" d="M76,46.9c0,0,17.8,3.3,32.3,2.6c14.5-0.7,33.3,8.7,33.3,8.7s0.9,1.3,3.3,0.8c2.5-0.5-1-6-3.3-8
				c-5.9-5-23-10.9-23-10.9S98,35.9,76,46.9z"/>
		</g>
		<path class="st29" d="M98.4,18.4c0,0-23,8-22.4,28.5"/>
		<path class="st29" d="M106.8,18.4c0,0-7.5,8.9-4.3,20.5"/>
		<path class="st29" d="M111.8,18.6c0,0,21.1,16.5,14,24.1"/>
	</g>
	<g>
		<g>
			<path class="st1" d="M127.5,207.3c0,0.6-0.1,1-0.3,1.4c-0.2,0.4-0.6,0.6-1,0.8l1.1,1.1h-0.8l-0.9-1l-0.2,0
				c-0.7,0-1.2-0.2-1.5-0.6c-0.4-0.4-0.5-1-0.5-1.7c0-0.7,0.2-1.3,0.5-1.7c0.4-0.4,0.9-0.6,1.5-0.6c0.6,0,1.1,0.2,1.5,0.6
				C127.3,206,127.5,206.5,127.5,207.3z M123.9,207.3c0,0.6,0.1,1.1,0.4,1.4c0.3,0.3,0.6,0.5,1.1,0.5c0.5,0,0.9-0.2,1.1-0.5
				c0.3-0.3,0.4-0.8,0.4-1.4c0-0.6-0.1-1.1-0.4-1.4c-0.3-0.3-0.6-0.5-1.1-0.5c-0.5,0-0.9,0.2-1.1,0.5
				C124,206.2,123.9,206.7,123.9,207.3z"/>
			<path class="st1" d="M132.6,205v2.9c0,0.5-0.2,0.9-0.5,1.2c-0.3,0.3-0.7,0.4-1.3,0.4c-0.5,0-1-0.1-1.3-0.4
				c-0.3-0.3-0.4-0.7-0.4-1.2V205h0.5v2.9c0,0.4,0.1,0.7,0.3,0.9c0.2,0.2,0.5,0.3,0.9,0.3c0.4,0,0.7-0.1,0.9-0.3
				c0.2-0.2,0.3-0.5,0.3-0.9V205H132.6z"/>
			<path class="st1" d="M137.4,209.5l-0.6-1.4H135l-0.6,1.4h-0.5l1.8-4.5h0.4l1.8,4.5H137.4z M136.6,207.6l-0.5-1.4
				c-0.1-0.2-0.1-0.4-0.2-0.6c0,0.2-0.1,0.4-0.2,0.6l-0.5,1.4H136.6z"/>
			<path class="st1" d="M139.8,207.6v1.9h-0.5V205h1.2c0.6,0,1,0.1,1.2,0.3c0.3,0.2,0.4,0.5,0.4,0.9c0,0.6-0.3,1-0.9,1.2l1.2,2h-0.6
				l-1.1-1.9H139.8z M139.8,207.2h0.7c0.4,0,0.6-0.1,0.8-0.2c0.2-0.1,0.3-0.4,0.3-0.7c0-0.3-0.1-0.5-0.3-0.6
				c-0.2-0.1-0.5-0.2-0.8-0.2h-0.7V207.2z"/>
			<path class="st1" d="M147.2,209.5h-0.6l-1.6-2.2l-0.5,0.4v1.7h-0.5V205h0.5v2.2l2-2.2h0.6l-1.8,1.9L147.2,209.5z"/>
			<path class="st1" d="M151.9,205v2.9c0,0.5-0.2,0.9-0.5,1.2c-0.3,0.3-0.7,0.4-1.3,0.4s-1-0.1-1.3-0.4c-0.3-0.3-0.4-0.7-0.4-1.2
				V205h0.5v2.9c0,0.4,0.1,0.7,0.3,0.9c0.2,0.2,0.5,0.3,0.9,0.3c0.4,0,0.7-0.1,0.9-0.3c0.2-0.2,0.3-0.5,0.3-0.9V205H151.9z"/>
			<path class="st1" d="M156.4,208.3c0,0.4-0.1,0.7-0.4,0.9c-0.3,0.2-0.7,0.3-1.2,0.3c-0.5,0-0.9-0.1-1.2-0.2v-0.5
				c0.2,0.1,0.4,0.1,0.6,0.2c0.2,0,0.4,0.1,0.6,0.1c0.3,0,0.6-0.1,0.8-0.2c0.2-0.1,0.3-0.3,0.3-0.5c0-0.2,0-0.3-0.1-0.4
				c-0.1-0.1-0.2-0.2-0.3-0.3c-0.1-0.1-0.4-0.2-0.7-0.3c-0.4-0.1-0.7-0.3-0.9-0.5c-0.2-0.2-0.3-0.5-0.3-0.8c0-0.3,0.1-0.6,0.4-0.8
				c0.3-0.2,0.6-0.3,1-0.3c0.4,0,0.9,0.1,1.2,0.2l-0.2,0.5c-0.4-0.2-0.7-0.2-1.1-0.2c-0.3,0-0.5,0.1-0.6,0.2
				c-0.2,0.1-0.2,0.3-0.2,0.5c0,0.2,0,0.3,0.1,0.4c0.1,0.1,0.2,0.2,0.3,0.3c0.1,0.1,0.3,0.2,0.6,0.3c0.5,0.2,0.8,0.3,1,0.5
				C156.3,207.8,156.4,208,156.4,208.3z"/>
		</g>
		<polygon class="st3" points="141.5,192.6 139.9,193.5 141.5,194.5 		"/>
		<polygon class="st4" points="138.2,192.6 138.2,194.5 139.9,193.5 		"/>
		<polygon class="st1" points="141.5,194.5 139.9,193.5 138.2,194.5 139.9,195.4 		"/>
		<polygon class="st3" points="136.5,195.6 138.1,196.5 138.1,194.6 		"/>
		<polygon class="st4" points="138.1,198.4 139.8,197.5 138.1,196.5 		"/>
		<polygon class="st1" points="138.1,194.6 138.1,196.5 139.8,197.5 139.8,195.6 		"/>
		<polygon class="st3" points="141.6,198.4 141.6,196.5 140,197.5 		"/>
		<polygon class="st4" points="143.3,195.6 141.6,194.6 141.6,196.5 		"/>
		<polygon class="st1" points="140,197.5 141.6,196.5 141.6,194.6 140,195.6 		"/>
		<path class="st3" d="M143.4,190.7h-7.2c-1,0-1.8,0.8-1.8,1.8v7.2c0,1,0.8,1.8,1.8,1.8h4.9l-1.3-3.2l-1,2h-2.6
			c-0.3,0-0.6-0.3-0.6-0.6v-7.2c0-0.3,0.3-0.6,0.6-0.6h7.2c0.3,0,0.6,0.3,0.6,0.6v7.2c0,0.3-0.3,0.6-0.6,0.6h-1.6l0.5,1.2h1.1
			c1,0,1.8-0.8,1.8-1.8v-7.2C145.2,191.5,144.4,190.7,143.4,190.7z"/>
	</g>
</g>
</svg>
