<?xml version="1.0" encoding="utf-8"?>
<!-- Generator: Adobe Illustrator 27.6.1, SVG Export Plug-In . SVG Version: 6.00 Build 0)  -->
<svg version="1.1" id="Layer_1" xmlns="http://www.w3.org/2000/svg" xmlns:xlink="http://www.w3.org/1999/xlink" x="0px" y="0px"
	 viewBox="0 0 256 256" style="enable-background:new 0 0 256 256;" xml:space="preserve">
<style type="text/css">
	.st0{fill:#FFFFFF;}
	.st1{fill:#010101;}
	.st2{fill:#ED1C24;}
	.st3{fill:#0081C3;}
	.st4{fill:#FB5058;}
	.st5{fill:#EA5B24;}
	.st6{fill:#89483E;}
	.st7{fill:#C03A26;}
	.st8{fill:#F89420;}
	.st9{fill:#F47D20;}
	.st10{fill:#F36D21;}
	.st11{fill:#F78D1E;}
	.st12{fill:#DF5126;}
	.st13{fill:#ED6A22;}
	.st14{fill:#DCBC83;}
	.st15{fill:#BACCD5;}
	.st16{fill:#5F3722;}
	.st17{fill:#0081C3;stroke:#FFFFFF;stroke-width:0.2754;stroke-miterlimit:10;}
	.st18{fill:#FBAB18;}
	.st19{fill:#2F1F11;}
	.st20{clip-path:url(#SVGID_00000179608700236342028660000016024559929077715378_);}
	.st21{clip-path:url(#SVGID_00000179608700236342028660000016024559929077715378_);fill:#010101;}
	.st22{clip-path:url(#SVGID_00000179608700236342028660000016024559929077715378_);fill:#FFFFFF;}
	.st23{clip-path:url(#SVGID_00000087370747267549803590000013618781157420470968_);fill:#FB5058;}
	.st24{clip-path:url(#SVGID_00000087370747267549803590000013618781157420470968_);fill:#FFFFFF;}
	.st25{clip-path:url(#SVGID_00000087370747267549803590000013618781157420470968_);fill:#010101;}
	.st26{fill:#8C786D;}
	.st27{fill:#8C786D;stroke:#FFFFFF;stroke-width:0.826;stroke-miterlimit:10;}
	.st28{fill:#0081C3;stroke:#091313;stroke-width:0.826;stroke-miterlimit:10;}
	.st29{fill:none;stroke:#091313;stroke-width:0.826;stroke-miterlimit:10;}
</style>
<g>
	<path class="st0" d="M163.8,101.2c3.2-2.5,6.5-5.1,9.7-7.6l0.1,0.2c3.9,4.2,5.9,6.1,7.6,6.9l0,0c0,0,0.1,0,0.1,0.1
		c0.2,2.5,0.6,5.7,1,9C176.9,107.5,170.1,104.3,163.8,101.2z"/>
	<circle class="st1" cx="33.7" cy="106.4" r="5.5"/>
	<path class="st1" d="M198.4,117.9c-4.1-10.3-7.7-22.5-9.6-24.4c-1.1,0.1-1.6,1.2-2.7,1.3c0.4,0.3,1.1,13.5,3,23
		c-6.4-1.6-20.7-8.2-31.5-13.7c-1.1-2.7-3.8-4.4-6.8-4.1c-0.4-1.6-0.7-3.2-1.1-4.8c-3.2,2.2-5.6,4.9-5.9,7.3
		c-0.9,6.3,3.9,9.7,10,12.5c-0.1-0.7-0.2-1.4-0.3-2.1c0.6-0.2,1.1-0.4,1.6-0.7c15.9,8,26.9,12.6,32.7,13.8c6.8,1.4,8.6-0.2,9.5-1
		C198,124.3,200,121.9,198.4,117.9z"/>
	<g>
		<path class="st0" d="M40.5,234.8c-1.3,0-2.6-0.1-3.9-0.2l-0.4,0c-7.4-1-17.3-5.1-22.8-18.9c-6.8-17.1-1.6-53.4,12.6-88.4
			c1.1-2.5,1.8-4.2,2.4-5.8c1.1-2.9,2-5.4,5.1-10.7c6.6-13.1,14-24.1,21.9-32.8c22.2-24.5,30.1-29.4,37.1-30.1
			c0.4,0,0.9-0.1,1.3-0.1c2.8,0,5.4,0.8,7.9,2.4c0.2,0.2,24.3,16.2,48.7,49.1c6.4,7.6,12.4,16.8,17,25.9
			c15.2,26.8,17.5,50.9,16.7,66.4c-0.9,18.4-6.5,31.5-11.6,35c-6,5.1-14,7.9-22.5,7.9c0,0,0,0,0,0c-0.9,0-1.8,0-2.6-0.1
			c-11.6-0.7-22.6-6.7-33-17.6c-6.9-7.3-13.6-11-19.9-11l-0.2,0c-8.9,0.1-15.8,7.2-19.2,11.5C68.4,225.7,54.7,234.8,40.5,234.8z"/>
		<path class="st1" d="M93.8,49c2.5,0,4.9,0.7,7.2,2.2c0.3,0.2,24,16,48.4,48.8c5.8,6.9,12,16,16.8,25.7
			c27.5,48.5,14.9,93.5,5.6,99.6c-5.7,4.9-13.5,7.7-21.7,7.7c-0.8,0-1.7,0-2.5-0.1c-11.4-0.7-22.1-6.6-32.1-17.2
			c-7.1-7.6-14.1-11.4-20.9-11.4c-0.1,0-0.2,0-0.2,0c-9.4,0.1-16.7,7.6-20.2,12c-7.1,9-20.4,17.2-33.5,17.2c-1.3,0-2.5-0.1-3.7-0.2
			c-0.1,0-0.3,0-0.4-0.1c-7-1-16.5-4.9-21.7-18c-6.8-16.9-1.1-53.7,12.6-87.4c3.1-6.9,2.7-8.1,7.4-16.4C40.9,99,48.3,87.7,56.4,78.7
			c21.9-24.1,29.6-29,36.2-29.6C93,49,93.4,49,93.8,49 M93.8,46.3c-0.5,0-0.9,0-1.4,0.1c-4.3,0.4-8.4,2.3-13.8,6.5
			c-5.8,4.6-13.5,12.2-24.2,24c-8,8.8-15.4,19.9-22.1,33.1c-3.1,5.4-4,8-5.2,10.9c-0.6,1.6-1.3,3.3-2.4,5.7l0,0l0,0
			C10.3,162,5.2,198.8,12.1,216.2c5.8,14.3,16.2,18.6,23.9,19.7l0.2,0l0.2,0c1.3,0.2,2.7,0.3,4.1,0.3c14.7,0,28.5-9.1,35.6-18.2
			c3.2-4.1,9.8-10.9,18.1-11l0.2,0c6,0,12.4,3.6,18.9,10.6c10.6,11.2,22,17.3,33.9,18.1c0.9,0.1,1.8,0.1,2.7,0.1
			c8.8,0,17-2.9,23.3-8.2c6.3-4.4,11.3-19.1,12.1-36c0.8-15.6-1.6-40-16.9-67.1c-4.6-9.1-10.6-18.3-17.1-26.1
			c-24.6-33.1-48.8-49.2-49-49.4C99.7,47.2,96.8,46.3,93.8,46.3L93.8,46.3z"/>
	</g>
	<path class="st1" d="M151.2,102.3c-0.6-0.8-1.3-1.6-1.9-2.3c-24.3-32.7-48.1-48.6-48.4-48.8c-2.6-1.7-5.4-2.4-8.3-2.2
		c-6.6,0.6-14.3,5.5-36.2,29.6c-6.8,7.5-13,16.6-18.5,26.5C51.8,102,97.7,93.3,151.2,102.3z"/>
	<path class="st16" d="M153.1,99.2c-0.1,0.1-0.2,0.1-0.3,0.2c-0.2,0.2-0.3,0.5-0.5,0.6c-0.7,0.5-1.4,0.4-2.2,0.2
		c0.3-0.1,0.5-0.2,0.8-0.2c0.6-0.2,0.9-0.5,1-1.1c0-0.1-0.1-0.3-0.2-0.4c-0.1,0.1-0.3,0.1-0.3,0.2c-0.3,0.7-0.8,1-1.7,0.8
		c0.1-0.2,0.2-0.4,0.3-0.6c0.2-0.3,0.4-0.5,0.6-0.8c0.7-1.3,0.8-2.6,0.3-3.9c-0.2-0.5-0.1-1,0.2-1.2c1.6-0.7,2.1-2.3,1.9-3.7
		c-0.2-1.5-0.8-2.8-1.6-4.1c-0.1-0.2-0.1-0.4,0-0.6c0.7-1.7,0.7-3.8-0.9-5.2c-0.3-0.3-0.4-0.5-0.3-0.9c0.2-1.8-0.2-3.5-1.3-4.9
		c-0.3-0.4-0.7-0.7-0.9-1.2c-0.4-0.9-0.9-1.8-1.7-2.5c0.1-0.2,0.2-0.4,0.3-0.6c0.7-1.7,0.5-3.5-1.4-4.4c-0.1-0.1-0.2-0.3-0.2-0.4
		c-0.2-1.5-0.7-2.7-2-3.6c-0.4-0.3-0.8-0.5-1.3-0.7c0-0.1,0.1-0.2,0.1-0.3c0.4-1,0.5-2,0.2-3.1c-0.2-0.7-0.4-1.5-0.6-2.2
		c-0.4-1.8-1.4-3.2-3-4.2c-0.6-0.4-1.2-1-1.3-1.8c-0.2-1.2-0.6-2.4-1.5-3.3c-0.1-0.1-0.1-0.3-0.2-0.4c-0.3-1.4-1.1-2.5-2.6-2.8
		c-0.1,0-0.3-0.1-0.4-0.1c-0.9-0.9-2.1-1.3-3-2.3c-1.1-1.2-2.1-2.5-3.5-3.4c-0.8-0.6-1.7-1.1-2.7-1.3c-1-0.3-2.1-0.5-3.1-0.7
		c-0.3-0.1-0.7-0.2-1-0.2c0,0-7.3-3.8-8.8-4.6s-1.8-1.8-3.2-2.4c-1.4-0.6-2.4-2.4-3.8-2.3c-1.4,0.1,0.2-0.1-2.7,1.1
		c-0.6,0.2-0.9,0.4-1,0.5c0.1-0.3-0.1-1.1-2.2-2.4c-4.4-2.8-4.9-0.5-6.1-1c-1.2-0.5-1.8,0.8-4.4,1.4c-2.6,0.6-3.3,1.7-3.3,1.7
		l-3.3,1.8c0,0-1-1.6-3.3-1.2c-2.3,0.4-4.4,2.2-4.4,2.2l-3.6,4.5c0,0-1.2,0-2.4,1.7c-0.3,0.4-0.6,1.1-0.9,1.7c-0.1,0-0.2,0-0.3,0
		c-1.7,0.1-3.4,0.3-5.2,0.5c-1.2,0.1-2.2,0.7-2.7,1.9c-0.1,0.3-0.3,0.4-0.6,0.4c-0.4,0-0.8,0-1.3,0.1c-1.2,0.2-2.4,0.6-3.2,1.7
		c-0.2,0.3-0.5,0.5-0.9,0.7c-1.1,0.6-1.9,1.4-2,2.7c-0.1,0.9-0.1,1.7-0.2,2.6c0,0.2-0.1,0.4-0.3,0.5c-0.8,0.6-1.6,1.3-2,2.2
		c-0.6,1.1-1,2.4-1.6,3.5c-0.2,0.5-0.6,0.9-0.9,1.4c-0.2,0.4-0.5,0.6-0.8,0.7c-1.2,0.3-1.8,1.2-1.9,2.4c-0.1,0.7,0,1.4,0,2.2
		c0,1-0.4,2-1.4,2.2c-1,0.2-1.7,0.9-1.9,1.9c-0.2,0.7-0.2,1.5-0.2,2.2c0,1.2-0.3,2.2-1.5,2.8c-0.2,0.1-0.4,0.3-0.6,0.4
		c-0.5,0.4-0.8,0.8-0.7,1.5c0,0.2-0.1,0.4-0.2,0.6c-0.2,0.5-0.4,1.1-0.6,1.6c-0.1,0.6-0.2,1.3-0.2,1.9c-0.8,0.3-1.6,0.5-2.4,0.8
		c-1.3,0.6-2.2,1.5-2.5,2.9c-0.3,1.6,0,3.1,0.6,4.6c0.3,0.8,0.6,1.5,0.9,2.3c0.2,0.6-0.2,1.3-0.7,1.5c-0.6,0.2-1.4,0.2-2,0.1
		c-0.3,0-0.5-0.5-0.7-0.8c-0.1-0.1-0.1-0.1-0.1-0.2c-0.1-0.1-0.2-0.1-0.2-0.1c0,0.1-0.1,0.2-0.1,0.3c0.1,0.2,0.2,0.4,0.3,0.7
		c-0.3-0.1-0.5-0.1-0.7-0.2c-0.4-0.2-0.8-0.5-1.2-0.7c-0.1-0.1-0.3-0.1-0.4-0.1c0,0.1,0,0.3,0.1,0.4c0,0.1,0.1,0.2,0.2,0.2
		c0.6,0.3,1.3,0.6,1.9,0.9c0.2,0.1,0.5,0.2,0.7,0.2c0,0,0,0.1,0,0.1c-0.5,0-0.9-0.1-1.4-0.1c0,0.1,0,0.1,0,0.2
		c0.3,0.1,0.5,0.2,0.8,0.3c0.9,0.2,1.9,0.3,2.7,1c-0.1,0-0.2,0-0.3,0c-0.7-0.1-1.4-0.2-2.2-0.3c-0.1,0-0.2,0-0.3,0.1
		c0.1,0.1,0.1,0.2,0.2,0.2c0.2,0.1,0.5,0.2,0.7,0.2c1.2,0.3,2.3,0.4,3.6,0.2c0.2,0.9,0.7,1.6,1.3,2.2c0.1,0.1,0.1,0.2,0.1,0.3
		c-0.2,0.6-0.4,1.3-0.7,2c-0.3,0-0.5,0-0.8,0c-1.3-0.1-2.5-0.7-3.6-1.4c-0.5-0.3-1-0.7-1.6-1c-0.1-0.1-0.2,0-0.4,0
		c0,0.1,0,0.3,0.1,0.3c0.1,0.2,0.2,0.3,0.4,0.4c0.9,0.6,1.8,1.3,2.8,1.8c1,0.5,2.1,0.7,3.3,1c0,0.2,0.1,0.6,0.2,1
		c0.1,0.3,0,0.5-0.2,0.7c-0.6,0.6-1.3,1.3-1.8,2c-0.8,1.2-0.8,3.1,0.7,4c0.3,0.2,0.5,0.3,0.8,0.5c0.1,0.1,0.2,0.3,0.2,0.5
		c0.1,0.5,0,1.1,0.2,1.6c0.4,0.7,0.4,1.3,0.1,2.1c-0.4,1.1-0.4,2.3-0.6,3.5c0,0.1,0,0.2,0,0.3c0.2,0.7,0.4,1.3,0.6,2
		c0.1,0.2,0,0.5,0.2,0.6c0.6,0.5,1.1,1,1.7,1.5c0.1,0.1,0.3,0.2,0.4,0.3c0.5,0.8,1,1.6,1.5,2.5c-1.1,1.2-0.8,2.6-0.2,4
		c-0.2,0.1-0.3,0.1-0.4,0.2c-0.1,0.1-0.2,0.2-0.3,0.3c0.1,0.1,0.3,0.2,0.4,0.2c0.8-0.2,1.1,0.4,1.6,0.9c-0.8,0.1-1.5,0-2.2,0.1
		c-0.2,0-0.3,0.1-0.5,0.2c0.1,0.1,0.2,0.3,0.4,0.3c1.2,0.4,2.4,0.6,3.7,0c-0.1,0.2-0.2,0.4-0.3,0.5c-0.2,0.1-0.4,0.2-0.6,0.3
		c0,0.1,0,0.1,0.1,0.2c0.2,0,0.4,0,0.5-0.1c0.1,1.1,0.1,2.2,0.3,3.2c0.1,0.7,0.1,1.3,0,2c-0.1,0.9,0,1.8,0,2.7
		c0,0.2,0.2,0.5,0.3,0.7c0.1,0,0.1,0,0.2-0.1c-0.3-1.1-0.3-2.2,0-3.3c0.1,0.2,0.2,0.3,0.3,0.4c0.4,0.4,0.8,0.7,1.2,1.1
		c0.1,0.1,0.2,0,0.3,0c0-0.1-0.1-0.3-0.1-0.3c-0.8-0.7-1-1.6-1.3-2.5c0-0.1,0-0.1,0-0.2c0.2-0.5,0.5-1,0.7-1.5
		c0.4,1.4,0.8,2.8,1.8,3.9c-0.5,0.5-0.7,1-0.8,1.7c0,0.1,0,0.2-0.1,0.3c-0.8,0.8-0.9,1.7-0.7,2.8c0.2,0.8,0.3,1.6,0.8,2.3
		c0.1,0.1,0.3,0.2,0.4,0.2c0-0.2,0-0.3,0-0.5c0-0.1-0.1-0.2-0.1-0.3c-0.2-0.8-0.4-1.6-0.5-2.5c-0.1-0.4,0.1-0.8,0.2-1.2
		c0.5,0.8,0.9,1.4,1.4,2.1c0.1,0.1,0.3,0.1,0.5,0.2c0-0.2,0-0.4-0.1-0.6c0-0.1-0.2-0.2-0.2-0.3c-0.3-0.5-0.6-1-0.9-1.6
		c-0.1-0.1,0-0.4,0.2-0.5c0.7-0.4,1.3-0.8,2-1.2c0.1,0.4,0.2,0.9,0.3,1.3c0,0.3,0.1,0.5,0.1,0.8c0,0.7-0.2,1.4-0.1,2
		c0,1.1,0.4,2,1.2,2.8c-0.7,0.9-1.2,1.9-1.3,3.1c-0.1,1.1,0.3,2.1,1.1,2.8c0.1,0.1,0.3,0.1,0.5,0.1c0-0.2-0.1-0.3-0.1-0.5
		c-0.2-0.4-0.4-0.7-0.5-1c-0.5-1.8,0.6-3.5,2-4.6c0,0.1,0,0.1,0,0.2c0.4,1.9,1.1,3.7,2.5,5.1c0.1,0.1,0.3,0.1,0.5,0.2
		c0-0.2,0-0.3-0.1-0.5c-1-1.6-1.7-3.3-1.9-5.2c-0.1-0.8,0-0.9,0.8-1.3c-0.1,0.1-0.1,0.3-0.2,0.4c-0.4,0.6-0.4,1.3-0.1,1.9
		c0.5,1,1.3,1.9,2.3,2.5c0.1,0.1,0.4,0,0.5,0c-0.1-0.2-0.1-0.4-0.2-0.5c-0.5-0.6-1.1-1.2-1.7-1.9c-0.3-0.4-0.5-0.8-0.4-1.3
		c0.5-0.3,0.8-0.1,1.1,0.3c0.4,0.6,1,1.1,1.8,1.4c0.1,0,0.3,0.2,0.4,0.3c0.3,0.5,0.6,1.1,1,1.6c0.1,0.1,0.2,0.3,0.1,0.5
		c-0.2,0.7-0.6,1.1-1.3,1.3c-0.1,0-0.2,0.1-0.4,0.2c0,0.1,0,0.1,0.1,0.2c0.8,0.3,1.4-0.1,2-0.6c0.2,0.4,0.3,0.7,0.6,1.1
		c0.4,0.6,0.8,1.2,1.3,1.7c0.3,0.4,0.3,0.7,0,1.2c-0.3,0.4-0.6,0.8-0.9,1.3c0,0,0.1,0.1,0.1,0.1c0.5-0.4,1-0.8,1.5-1.2
		c0.5,0.5,0.8,1.3,1.7,1.3c-0.4-0.6-0.8-1.1-1.2-1.6c-0.1-0.1-0.1-0.3-0.1-0.4c0.2-0.5,0.4-0.9,0.6-1.4c0.3,1.4,1.4,2.5,2.5,2.6
		c-1.3-1.8-1.5-3.2-0.5-4.2c0.3,1.1,0.7,2.1,1.5,2.9c0.8,0.9,2.2,1.5,2.9,1.3c-1.6-1.4-2.6-3.2-2.8-5.4c-0.2-2.1,0.1-4.1,1.1-5.9
		c0.5-0.8,1.1-1.5,1.7-2.3c0.2-0.3,0.5-0.5,0.9-0.6c1.8-0.5,3.1-1.7,3.8-3.4c0.9-2.3,0.3-4.9-1.7-6.6c-0.4-0.3-0.5-0.7-0.5-1.1
		c0.3-2.2-0.2-4.2-1-6.2c-0.7-1.7-1.1-3.4-0.9-5.3c0.2-1.8,0.6-3.6,0.9-5.4c0,0,0,0,0.1,0c0-0.4,0-0.7,0-1.1
		c-0.3-0.3-0.5-0.5-0.7-0.8c0.5-0.5,1-0.9,1.5-1.4c0.4,0.3,0.8,0.5,1.1,0.8c0.2,0.1,0.3,0.4,0.3,0.6c-0.1,1-0.6,1.7-1.3,2.4
		c0.2,0.1,0.5,0.3,0.7,0.4c0.3-0.4,0.6-0.8,1-1.2c-0.1,0.5-0.2,1-0.4,1.4c0,0,0,0,0,0c0.2,0.1,0.4,0.2,0.6,0.3
		c0.2-0.6,0.4-1.2,0.6-1.9c0-0.1,0-0.2,0-0.4c-0.2-1.2-0.3-2.5-0.7-3.6c-0.3-0.8-0.3-1.4,0.1-2.2c0.2-0.5,0.2-1.1,0.3-1.6
		c0-0.2,0.1-0.4,0.2-0.5c0.2-0.2,0.5-0.4,0.8-0.6c1.7-1,1.7-2.9,0.8-4.2c-0.5-0.8-1.3-1.4-2-2.1c-0.2-0.2-0.3-0.4-0.2-0.7
		c0.1-0.4,0.2-0.8,0.2-1c1.2-0.3,2.5-0.6,3.6-1c1.1-0.5,2-1.2,3-1.8c0.2-0.1,0.3-0.3,0.4-0.5c0.1-0.1,0-0.2,0.1-0.4
		c-0.1,0-0.3,0-0.4,0c-0.6,0.3-1.1,0.7-1.7,1c-1.2,0.8-2.5,1.4-3.9,1.5c-0.3,0-0.6,0-0.9,0c-0.3-0.7-0.5-1.4-0.7-2.1
		c0-0.1,0-0.3,0.1-0.3c0.8-0.6,1.2-1.4,1.5-2.3c1.3,0.2,2.6,0.1,3.9-0.2c0.3-0.1,0.5-0.1,0.8-0.3c0.1,0,0.2-0.2,0.2-0.3
		c-0.1,0-0.3-0.1-0.4-0.1c-0.8,0.1-1.6,0.2-2.4,0.3c-0.1,0-0.2,0-0.3,0c0.9-0.7,1.9-0.8,2.9-1c0.3-0.1,0.6-0.2,0.9-0.3
		c0-0.1,0-0.1,0-0.2c-0.5,0-1,0.1-1.5,0.1c0,0,0-0.1,0-0.1c0.3-0.1,0.5-0.1,0.8-0.2c0.7-0.3,1.4-0.6,2-0.9c0.1,0,0.2-0.1,0.2-0.2
		c0.1-0.1,0.1-0.3,0.1-0.4c-0.1,0-0.3,0-0.4,0.1c-0.5,0.2-0.9,0.5-1.3,0.7c-0.2,0.1-0.5,0.1-0.7,0.2c0.1-0.3,0.2-0.5,0.3-0.7
		c0-0.1,0-0.2-0.1-0.3c-0.1,0-0.2,0.1-0.3,0.1c-0.1,0.1-0.1,0.1-0.2,0.2c-0.3,0.3-0.5,0.8-0.8,0.8c-0.7,0.1-1.5,0.1-2.2-0.1
		c-0.6-0.1-1-0.9-0.8-1.5c0.3-0.8,0.6-1.6,1-2.4c0.6-1.6,1-3.1,0.6-4.8c-0.1-0.3-0.1-0.5-0.2-0.7c0,0,0.1-0.1,0.2-0.1
		c0,0,0.1-0.1,0.1-0.1c0.2-0.3,0.6-0.6,1-0.7c0.6-0.3,0.9-0.8,1.1-1.4c0.1-0.5,0.2-0.9,0.4-1.4c0-0.2,0.1-0.3,0.2-0.5
		c0.2-0.3,0.4-0.5,0.6-0.7c-0.2,0.4-0.4,0.8-0.1,1.2c0,0,0.1,0,0.1-0.1c0-0.5,0.2-0.9,0.5-1.3c0.3-0.6,0.6-1.2,0.6-1.8
		c0,0,0,0,0.1-0.1c0,0,0,0,0,0c0,0,0,0,0.1,0c0.1,0,0.2,0,0.3,0.1c0,0,0,0,0,0c0.2,0,0.3,0.1,0.4,0.1c0.5,0,0.9,0.1,1.4,0
		c0.8-0.1,1.5-0.4,1.9-1.1c0.3-0.6,0.4-1.2,0.5-1.9c0-0.3,0-0.6,0.1-0.9c0.1-0.4,0.2-0.9,0.3-1.3c0.2-0.1,0.5-0.2,0.7-0.3
		c0.3-0.1,0.6-0.3,0.8-0.6c0.3-0.4,0.6-0.8,0.8-1.3c0.1-0.2,0.2-0.4,0.3-0.6c0.3-0.3,0.4-0.7,0.5-1.1c0.1-0.7,0.5-1.1,1.2-1.3
		c0.7-0.2,1.4-0.2,2.1-0.1c0.6,0,1.3,0,1.8-0.3c0.4-0.2,0.7-0.4,1-0.7c1-0.7,1.7-1.5,2.3-2.5c0.4-0.7,0.9-1.3,1.4-1.9
		c0.2-0.2,0.4-0.2,0.5,0.1c0,0.1,0.1,0.1,0.1,0.2c0.2,0.5,0.6,0.8,1.2,0.8c0.3,0,0.7,0,1,0c0.4,0,0.7,0.1,0.8,0.3
		c0,0.1,0.1,0.2,0.1,0.2c0,0.2,0,0.4-0.1,0.6c-0.1,0.3-0.1,0.6,0,0.9c0.2-0.2,0.3-0.4,0.5-0.6c0.9,1.9,1.7,3.2,2.2,3.6
		c0.6,0.4,1,0.9,1.6,1.4c0.9,0.8,2,0.9,3.1,0.4c0.1-0.1,0.3-0.1,0.4-0.1c0.6-0.2,1,0.1,0.9,0.7c-0.1,1.7-0.2,3.4-0.5,5.1
		c-0.4,2.4-0.5,4.9,0.1,7.3c0.2,0.8,0.3,1.7,0.6,2.5c0.5,1.3,1.5,2.1,2.5,3c1.1,1,2.3,1.9,3.1,3.2c0.7,1.3,0.8,2.5,0,3.8
		c-0.5,0.8-0.8,1.6-0.8,2.5c0,0.5-0.2,0.9-0.3,1.4c-0.2,1.1-0.3,2.1-0.5,3.2c-0.1,0.7,0.1,1.4,0.3,2.1c0.2,0.5,0.5,1,0.7,1.5
		c-0.5,0.9-0.9,1.7-1.5,2.5c-0.3,0.5-0.8,1-1.2,1.5c-0.9,1.1-1.7,2.3-2,3.7c-0.4,1.8,0.2,3.3,1.4,4.6c0.7,0.7,1.5,1.3,2.3,1.9
		c0.2,0.2,0.4,0.3,0.8,0.5c0,0,0,0,0,0c0.2,0.1,0.5,0.2,0.6,0.4c0,0.1,0,0.1,0.1,0.2c0,0,0,0,0,0c-0.1,0.2-0.1,0.2-0.1,0.3
		c-0.8,1.1-1.3,2.4-1.6,3.8c-0.2,1-0.3,2-1.1,2.7c0,0,0,0.1,0,0.2c1-0.4,1.3-1.2,1.5-2.1c0,0.7-0.1,1.3-0.2,1.9
		c-0.1,0.4-0.1,0.8-0.3,1.1c-0.4,0.9-1,1.8-1.4,2.7c-0.6,1.2-0.9,2.5-0.3,3.8c0.4,0.8,0.6,1.6,0.5,2.5c0,0.1,0,0.2,0,0.3
		c0.3,0.8-0.1,1.3-0.7,1.8c-1.4,1.3-1.7,3-0.9,4.6c0.6,1.2,1.5,1.9,2.7,2.3c0.1,0,0.3,0.2,0.4,0.3c0.1,0.3,0.1,0.7,0.2,1
		c-0.7,0-1.4,0.1-2.1,0.1c-0.3,0-0.6,0-0.9,0c-1-0.2-2-0.3-2.9,0.3c-0.1,0.1-0.2,0.2-0.3,0.3c0,0,0.1,0.1,0.1,0.1
		c0.4-0.1,0.8-0.2,1.2-0.3c0.4,0,0.8,0,1.3,0c-1.8,1.2-2.5,2.3-2.1,3.1c0.1-0.1,0.2-0.2,0.2-0.3c0.4-1.2,1.3-1.8,2.4-2.3
		c0.4-0.2,0.8-0.1,1.2,0.1c1.1,0.5,2.3,1,3.5,1.5c0.1,0.1,0.2,0.2,0.3,0.4c0.4,1.1,1,2,1.9,2.7c0.2,0.1,0.4,0.4,0.4,0.4
		c-0.1,0.3-0.3,0.6-0.6,0.7c-1,0.4-2.1,0.5-3.1,0.4c-0.7-0.1-1.5,0-1.9-0.9c0,0-0.1,0-0.1,0c-0.1,0.5,0,0.8,0.5,1
		c1.1,0.5,2.2,0.6,3.3,0.5c0.4,0,0.8-0.1,1.2-0.2c-0.2,1-0.3,1-1.2,1c-0.1,0-0.3,0-0.4,0c-1,0.1-1.9,0.1-2.8-0.2
		c-0.1,0-0.2,0.1-0.4,0.1c0,0.1,0,0.1,0,0.2c1.4,0.4,2.8,0.8,4.3,0.6c-0.1,1.4,0,2.7,0.8,4c0.1-0.1,0.1-0.2,0.1-0.3
		c-0.3-1.1-0.3-2.3-0.2-3.4c0-0.3,0.1-0.5,0.5-0.7c1.3-0.6,2.3-1.5,3-2.8c0.2-0.4,0.7-0.7,1-1.1c0.4,0.8,0.7,1.6,1.2,2.3
		c0.5,0.7,0.8,1.4,0.8,2.3c0,0.7-0.2,1.1-0.9,1.4c-0.2,0.1-0.4,0.1-0.7,0.3c0.6,0.3,1,0.2,1.5,0.1c0.1,0,0.3,0,0.3,0.1
		c0.1,0.1,0,0.3,0,0.4c0,0,0,0.1,0,0.1c0.3,0.3,0.5,0.5,0.7,0.8c0.4,0.5,0.8,1.1,1.2,1.6c0.1,0.1,0.2,0.1,0.4,0.1
		c0-0.1,0-0.3-0.1-0.4c0-0.1-0.1-0.1-0.2-0.2c-0.4-0.5-0.7-1.1-1.1-1.7c2.1-0.6,3.4-1.9,4.5-3.5c0.8,1.2,0.6,2.2-0.5,2.9
		c-0.1,0-0.1,0.2-0.1,0.3c0.1,0,0.2,0.2,0.3,0.1c0.3-0.2,0.7-0.4,1-0.6c0.2-0.2,0.3-0.6,0.5-0.9c0.2,0.1,0.3,0.2,0.5,0.3
		c0.2,0.1,0.4,0.2,0.5,0.2c0.1,0,0.2,0,0.3-0.1c0-0.1,0-0.3-0.1-0.3c-0.2-0.2-0.4-0.3-0.6-0.4c-0.5-0.4-0.6-0.6-0.3-1.2
		c0.7,0.7,1.2,1.5,1.3,2.5c0.1,1-0.1,2-1,2.7c-0.1,0.1-0.1,0.2-0.1,0.4c0.1,0,0.2,0,0.3-0.1c0.1,0,0.1-0.1,0.2-0.1
		c1.1-1.1,1.5-2.9,0.9-4.3c-0.4-0.9-1-1.6-1.8-2.3c-0.2-0.1-0.3-0.4-0.3-0.6c0.1-0.3,0.3-0.6,0.6-1.1c0.1,1.7,1.1,2.9,2.1,3.8
		c-0.1,0.4-0.1,0.6-0.1,0.8c0.3-0.1,0.5-0.2,0.8-0.3c0.7,0.6,1.6,0.8,2.6,0.5c0.7-0.2,1.2-0.7,1.3-1.4c0-0.1-0.1-0.3-0.2-0.5
		c-0.1,0.1-0.3,0.2-0.3,0.3c-0.1,0.4-0.4,0.7-0.9,0.8c-0.6,0.2-1.8-0.1-2.2-0.6c0-0.1-0.1-0.1-0.1-0.2c-0.1-0.8-0.2-1.5-0.3-2.4
		c0.1-0.1,0.4-0.2,0.6-0.4c0.1,0,0.1,0.1,0.2,0.1c1.1,0.6,2.3,1.3,3.4,1.9c0.1,0.1,0.3,0,0.5-0.1c-0.1-0.1-0.2-0.3-0.3-0.4
		c-0.4-0.3-0.8-0.5-1.2-0.7c-0.5-0.3-0.9-0.6-1.4-0.9c0,0,0-0.1,0-0.1c0.1,0,0.3,0,0.4,0c0.2,0,0.3,0.1,0.5,0.1
		c0.2,0,0.3-0.1,0.5-0.1c-0.1-0.1-0.3-0.2-0.4-0.3c-0.1,0-0.1-0.1-0.2-0.1c0.4-0.4,0.6-0.4,1-0.1c0.7,0.6,1.5,1,2.4,1
		c0.2,0,0.5-0.1,0.7-0.1c0.1,0,0.2,0,0.3,0.1c0.5,0.5,0.7,1.3,0.4,1.9c-0.3,0.6-0.9,0.8-1.7,0.6c-0.1,0-0.2-0.1-0.3-0.1
		c-0.1,0-0.2,0-0.3,0.1c0,0,0,0.2,0,0.3c0.1,0.1,0.2,0.2,0.3,0.3c1.2,0.8,2.9-0.1,3-1.6c0.1-1.2-0.6-2.3-1.9-2.8
		c-0.7-0.3-1.3-0.5-2-0.7c0.3-0.2,0.6-0.4,0.9-0.6c1.1-0.8,1.6-1.9,1.2-3.1c-0.1-0.5-0.5-1-0.7-1.4c-0.1-0.1-0.1-0.3-0.1-0.4
		c0.6,0.2,1,0.4,1.4,0.7c0.8,0.5,1.3,1.5,1.1,2.4c-0.2,0.9-0.8,1.3-1.8,1.5c-0.1,0-0.2,0.1-0.3,0.2c0.1,0.1,0.2,0.2,0.3,0.2
		c0.9,0.2,1.6-0.2,2.2-0.8c0.9-1.1,0.6-2.9-0.7-3.9c-0.4-0.3-0.8-0.5-1.2-0.8c-0.3-0.2-0.6-0.4-0.4-0.8c0.1-0.3,0-0.6,0-0.9
		c0-0.2,0-0.4,0.1-0.4c0.7-0.6,1.2-1.4,1.1-2.3c1.9,0,2.7-1,1.8-2.5c0.2-0.3,0.5-0.3,0.7,0c0.4,0.4,0.8,0.8,1,1.3
		c0.6,1.1,0.3,2.4-1,2.9c-0.3,0.1-0.5,0.2-0.7,0.4c-0.5,0.3-0.9,0.8-0.9,1.5c0,0.4,0.2,0.7,0.5,0.7c-0.1-1.1,0-1.4,1.1-1.9
		c0.2-0.1,0.5-0.2,0.7-0.3c0.9-0.4,1.4-1.1,1.5-2c0.1-1-0.2-1.8-0.7-2.6c-0.6-1-0.4-2,0.6-2.5c0.8-0.4,1.6-0.9,1.8-2
		c0.4,0.3,0.9,0.6,1,1c0.2,0.8,0.1,1.7-0.7,2.3c-0.1,0.1-0.1,0.2-0.2,0.4c0.1,0,0.4,0.1,0.4,0c0.3-0.4,0.8-0.7,0.9-1.2
		c0.2-0.8,0.3-1.7,0.3-2.5c0-2-0.9-3.5-2.8-4.2c-0.7-0.3-1.2-0.8-1.8-1.2c0,0,0-0.1,0.1-0.1c0.3,0,0.5,0.1,0.8,0.1
		c0.5,0,1,0.2,1.4,0.6c0.7,0.8,1.7,1.2,2.6,1.7c0.1,0.1,0.3,0,0.4,0c-0.1-0.1-0.1-0.3-0.3-0.4c-0.5-0.4-1.1-0.8-1.7-1.3
		c1,0,1.9,0.4,2.6,1c0.6,0.4,0.7,0.8,0.4,1.5c0,0.1-0.1,0.1-0.1,0.2c0,0.1,0,0.2,0.1,0.3c0.1,0,0.3,0,0.3-0.1
		c0.1-0.2,0.3-0.4,0.4-0.6c0.1,0.1,0.1,0.1,0.1,0.1c0.1,0.1,0.1,0.2,0.2,0.2c0.7,1.1,0.8,2.4,0.8,3.7c0,0.1,0.1,0.2,0.1,0.4
		c0.1-0.1,0.2-0.2,0.3-0.3c0.3-1,0.2-2-0.1-3c-0.4-1.2-1.3-2.2-1.6-3.5c0,0,0,0,0,0c-0.5-0.7-1-1.3-1.5-2c0,0,0.1-0.1,0.2-0.2
		c0.4-0.4,0.7-0.8,0.6-1.4c0-0.1-0.2-0.3-0.2-0.4c-0.1,0.1-0.2,0.2-0.2,0.3c-0.2,0.6-0.6,0.9-1.2,1c0.2-1.1-0.4-2-0.8-3
		c0.3-0.1,0.7-0.3,1-0.5c0.3-0.2,0.5-0.2,0.8,0c0.2,0.2,0.5,0.3,0.7,0.4c0.1,0,0.3-0.1,0.4-0.1c0-0.1,0-0.3-0.1-0.3
		c-0.2-0.2-0.4-0.4-0.7-0.6c0.8-0.5,1.4-1.2,1.5-2.1c0.1-0.8,0.1-1.7,0.1-2.5c0-1.3-0.6-2.4-1.4-3.3c-0.1-0.1-0.2-0.3-0.2-0.5
		c0.1-0.6,0.3-1.2,0.5-1.8c0.8,0.1,1.7,0.2,2.5-0.2c0.5-0.2,0.8-0.5,0.9-1.1C153.3,99.5,153.2,99.3,153.1,99.2z M44,56.5
		c-0.1,1.2-0.5,1.9-1.6,3.1C42.3,57.6,42.7,56.8,44,56.5z M43.3,59.7c-0.2,0.4-0.2,1-0.6,1.3c-0.1,0-0.1-0.1-0.2-0.1
		c0.2-0.4,0.5-0.8,0.7-1.2C43.2,59.7,43.3,59.7,43.3,59.7z M42.2,111c0.1,0,0.1,0,0.2,0.1c0.1,0.3,0.3,0.6-0.4,0.8
		C42.1,111.5,42.2,111.2,42.2,111z M42.7,126.5c0.3,0.6-0.3,0.8-0.6,1.1C42,127.1,42,127.1,42.7,126.5z M40.9,118
		c0.4,0.5,0.4,0.5,0.1,1C40.4,118.7,40.9,118.4,40.9,118z M41.3,123c0.3,0.6,0.1,1-0.7,1.5C40.8,123.9,41,123.5,41.3,123z
		 M40.7,119.7c-0.2,0.2-0.1,0.8-0.7,0.5C40.4,119.5,40.4,119.5,40.7,119.7z M40.1,114.4c-0.4-0.4-0.9-0.7-1.4-1.1
		c0.4-0.1,0.6-0.2,1-0.3C39.8,113.6,40.6,113.7,40.1,114.4z M40,110.2c-0.1,0.5,0.1,1.1-0.2,1.7c-0.5-1-0.3-2.8,0.5-3.5
		C40.2,109,40.1,109.6,40,110.2z M39.5,105c-0.2-0.3-0.3-0.6-0.5-0.9c0.3,0,0.5,0,0.8,0C39.8,104.4,39.7,104.6,39.5,105z M40.1,63.5
		c-0.4,0.8-0.7,1.5-1.1,2.3C39,64.9,39.2,64.1,40.1,63.5z M39.7,101.7c0-0.1,0.2-0.1,0.3-0.1c0.1,0.2,0.2,0.4,0.2,0.5
		c0,0.3-0.8,1-1.2,1C39.2,102.6,39.5,102.2,39.7,101.7z M39,101.3c-0.2,0.3-0.3,0.6-0.5,0.8c0,0-0.1,0-0.1,0c0-0.3-0.1-0.6-0.1-0.9
		C38.6,101.3,38.7,101.3,39,101.3z M39.2,106.1c-0.2,0.3-0.4,0.4-0.7,0c-0.3-0.5-0.6-0.9-0.8-1.4c0-0.1,0.1-0.3,0.1-0.4
		c0.1,0.1,0.3,0.1,0.4,0.2C38.5,105,38.8,105.5,39.2,106.1z M37.7,112.4c-0.1,0-0.1,0-0.2,0.1c-0.1-0.3-0.2-0.6-0.3-1.1
		C37.8,111.7,37.6,112.1,37.7,112.4z M35.3,108.1c0-0.6,0-1.2,0-1.7c0-0.1,0.1-0.3,0.1-0.3c0.5-0.4,1-0.7,1.4-1
		c0.4,0.6,0.9,1.2,1.3,1.8C37.5,107.7,36.7,108,35.3,108.1z M36.7,108.7c-0.1,0.3-0.2,0.5-0.3,0.8c-0.2-0.2-0.4-0.4-0.7-0.6
		C36.1,108.9,36.4,108.8,36.7,108.7z M33.9,106.4c-0.2-0.5-0.4-0.9-0.5-1.3c0.1,0,0.1-0.1,0.2-0.1c0.3,0.3,0.5,0.6,0.8,0.9
		C34.2,106.1,34.1,106.2,33.9,106.4z M34.3,108.5c-0.3,0.2-0.4,0.3-0.6,0.4c0,0-0.1,0-0.1-0.1c0.1-0.3,0.2-0.6,0.3-1
		C34,108.2,34.1,108.3,34.3,108.5z M34,104.4c0.7-0.3,0.9-0.2,1.4,0.6c-0.2,0.1-0.4,0.3-0.5,0.4C34.6,105.1,34.3,104.8,34,104.4z
		 M35.5,103.3c0-0.7,0.1-1.4,0.1-2.1c0.4,0,0.7,0,1-0.1c0,0.7-0.1,1.4-0.1,2.1C36.2,103.3,35.9,103.3,35.5,103.3z M36.5,104.3
		c-0.3,0.2-0.5,0.3-0.7,0.5c-0.1-0.2-0.2-0.3-0.3-0.5C35.9,104.3,36.2,104.3,36.5,104.3z M35.7,78c-0.4-0.8-0.2-1.1,1.6-2
		C36.7,76.7,36.2,77.4,35.7,78z M37.6,110.6c-0.1-0.2-0.2-0.4-0.2-0.5c0.3-0.6,0.6-1.1,0.9-1.7c0-0.1,0.2-0.1,0.2-0.1
		C38.2,109.1,37.9,109.8,37.6,110.6z M36.2,72c0.5-0.6,1-1.2,1.5-1.8c0.1,0.6,0.1,1-0.2,1.5c-0.4,0.6-0.6,1.2-0.9,1.9
		c-0.2-0.5-0.3-0.9-0.5-1.4C36.1,72.2,36.1,72.1,36.2,72z M35.6,73c0.1,0,0.1,0,0.2,0c0.2,0.5,0.4,1,0.6,1.4
		c0.1,0.3,0.1,0.4-0.2,0.5c-0.3,0.1-0.5,0.3-0.9,0.5C35.3,74.5,35.5,73.7,35.6,73z M34.8,95.2C34.8,95.2,34.9,95.3,34.8,95.2
		c-0.3,0.6-0.7,1-1.1,1.5c0,0-0.1,0-0.1-0.1c0-0.3,0-0.6,0-0.8c0-0.1,0.1-0.2,0.2-0.2C34.1,95.4,34.4,95.3,34.8,95.2z M33.5,94.5
		c0.2-0.5,0.4-1,0.6-1.5C34.6,94.1,34.6,94.1,33.5,94.5z M34.1,91.5c-0.1,0-0.1,0-0.2,0c-0.2-0.6-0.4-1.1-0.6-1.7
		c0.3-0.2,0.6-0.3,0.9-0.4C34.5,90.2,34.4,90.9,34.1,91.5z M34,79.1c-0.1,0.4-0.1,0.9-0.2,1.3c-0.1,0-0.2,0-0.2,0
		c0.1-0.4,0.2-0.9,0.3-1.3C33.9,79.1,33.9,79.1,34,79.1z M31.7,89.4c-0.6-0.1-1.1-0.3-1.7-0.4c0,0,0-0.1,0-0.1
		c0.3-0.1,0.6-0.1,0.9-0.3c0.3-0.1,0.6-0.3,0.8-0.4C31.7,88.6,31.7,89,31.7,89.4z M32.6,85.2C32.6,85.2,32.5,85.2,32.6,85.2
		c-0.1-0.6-0.1-1.1-0.1-1.7c0.1,0,0.1,0,0.2,0C32.7,84.1,32.6,84.6,32.6,85.2z M32.4,80.2c-0.2,0.6-0.1,1.2-0.2,1.8
		c0,0.2,0,0.3,0,0.5c-0.1,0.8-0.3,1.5-0.5,2.2c-0.6-1.5-1.3-3.2-1-5.1c0.1-0.7,0.4-1.3,1-1.7c0.6-0.4,1.3-0.7,1.9-1
		c0,0.1,0.1,0.1,0.1,0.2C33.3,78.1,32.8,79.2,32.4,80.2z M33,103.6c-0.5-0.3-0.9-0.6-1.4-1c-0.6-0.6-0.8-1.4-0.5-2.2
		c0.3-0.8,0.8-1.5,1.5-2c0.8-0.6,1.5-1.4,2.3-2.1c0.2,0.4,0.3,0.7,0.5,1.1c0,0.1,0,0.2-0.1,0.4c-0.2,0.8-0.5,1.7-0.6,2.5
		c-0.1,0.3-0.1,0.4-0.4,0.5c-0.3,0.1-0.5,0.3-0.7,0.4c-0.1,0.1-0.1,0.2-0.1,0.3c0.1,0,0.2,0.1,0.3,0.1c0.3,0,0.5-0.1,0.9-0.2
		c0,0.7,0.1,1.3,0.1,1.8c-0.5,0.2-1,0.3-1.5,0.4C33.2,103.7,33.1,103.7,33,103.6z M33.5,113.5c-0.2-0.4-0.3-0.9-0.4-1.4
		c0.3,0.4,0.6,0.8,0.9,1.1c0.3,0.4,0.7,0.7,1,1C34,114.4,33.9,114.5,33.5,113.5z M35.1,115.5c-0.2-0.2-0.4-0.4-0.7-0.6
		c0.3,0,0.5,0,0.7,0C35.1,115,35.1,115.2,35.1,115.5z M33.5,110.6c0-0.2,0.1-0.5,0.2-0.6c0.3-0.3,0.7-0.5,1-0.8
		c0.5,0.5,1,0.9,1.4,1.4c0.1,0.1,0.1,0.2,0.1,0.3c0.1,0.6,0.2,1.2,0.3,1.9c-0.3,0.3-0.7,0.6-1.1,0.9
		C34.5,112.8,33.7,111.9,33.5,110.6z M37.3,119.4c-0.1,0.4-0.3,0.8-0.4,1.3c0,0,0,0.1,0.1,0.2c0.2-0.2,0.4-0.3,0.6-0.5
		c0.1,0.3,0.2,0.5,0.3,0.8c-0.3,0.1-0.6,0.3-0.9,0.4C36.6,120.9,36.8,119.8,37.3,119.4z M37.1,122.1c1.4-0.4,1.1-0.4,1.4,0.1
		C37.6,122.8,37.2,122.8,37.1,122.1z M37.9,123.4c0.9-0.5,1.1-0.5,1.6,0C38.8,124.3,38.8,124.3,37.9,123.4z M39.1,122
		c-0.2-0.2-0.3-0.4-0.4-0.5c0.2-0.2,0.4-0.4,0.7-0.6c0.1,0.1,0.3,0.2,0.5,0.3C39.6,121.5,39.4,121.7,39.1,122z M38.6,119.1
		c0.3-0.4,0.6-0.4,0.9-0.2c0.4,0.3,0,0.5-0.1,0.8C39.1,119.5,38.8,119.3,38.6,119.1z M39.7,116.2c-0.4,0.4-0.8,0.9-1.2,1.4
		c-0.2-0.1-0.3-0.2-0.5-0.3c-0.6-0.3-1-0.6-1-1.3c0-0.5-0.3-0.9-0.5-1.3c0.4-0.2,0.9-0.4,1.3-0.6c0.6,0.2,1.1,0.5,1.6,0.7
		C40.2,115.1,40.3,115.6,39.7,116.2z M40,128.4c-0.2-1,0-2,0.2-2.9c0-0.1,0.2-0.2,0.3-0.3c0.3-0.3,0.7-0.5,1.1-0.8
		C41.4,125.8,41,127.2,40,128.4z M41.4,117c0.1-0.3,0.2-0.6,0.3-0.8c0.1,0,0.1,0,0.2,0.1C42,116.6,42,116.7,41.4,117z M42.3,130.3
		c-0.1-0.7-0.3-1.5-0.4-2.2c0.3,0,0.5-0.1,0.8-0.1c0.1,0.6,0.3,1.1,0.3,1.7c0,0.2-0.4,0.4-0.6,0.7C42.5,130.4,42.4,130.3,42.3,130.3
		z M42.6,130.9c0.7-0.5,0.8-0.5,1.1-0.1c0.2,0.3,0,0.7-0.6,1.1C42.9,131.5,42.8,131.2,42.6,130.9z M44.8,132.1
		c-0.6,0.5-1.2,1-1.7,1.4c-0.1-0.1-0.1-0.1-0.2-0.2c0.6-0.6,1.1-1.2,1.7-1.8C45,131.6,45.1,131.8,44.8,132.1z M47.8,50.2
		c0,0,0.1,0.1,0.1,0.1c0,0.2,0,0.4-0.1,0.5c-0.1,0.8-0.1,0.8-1,1.1C47.2,51.3,47.5,50.7,47.8,50.2z M46.7,134.7
		c0.2-0.5,0.5-0.9,0.7-1.4c0,0,0.1,0,0.1,0c0,0.3,0,0.7,0,1c0.1,0.6,0.1,1.2,0.2,1.8c0.1,0.6-0.1,0.9-0.5,1.4
		c-0.2-0.8-0.5-1.5-0.7-2.3C46.5,135,46.6,134.8,46.7,134.7z M47.6,139.1c-0.3,0.2-0.6,0.6-0.9,0.8c-0.7-1-0.9-2-0.7-3.3
		c0.3,0.5,0.5,0.8,0.8,1.2c-0.2,0.1-0.3,0.2-0.4,0.3c-0.1,0.1-0.1,0.2-0.2,0.3c0.1,0,0.2,0.1,0.3,0.1c0.5-0.2,0.9-0.5,1.3-0.8
		c0.1-0.1,0.2-0.2,0.3-0.3C48.2,138,48.3,138.6,47.6,139.1z M49.2,137.6c0.1-0.5,0.2-0.8,0.2-1.2C49.9,136.9,49.9,137,49.2,137.6z
		 M48.6,51.3c-0.2-1,0.2-1.9,0.9-2.3C50.1,50.6,49.9,51.3,48.6,51.3z M50.8,45.5c-0.1,0.4-0.1,0.8-0.1,1.2c0,0.4-0.2,0.6-0.6,0.6
		c-0.2-1.5,0.1-3.5,1.3-4.1C51.2,44,50.9,44.7,50.8,45.5z M52.9,140.9c-0.4-0.5-0.8-1-1.3-1.5c0.3-0.2,0.5-0.3,0.8-0.4
		c0.2,0.6,0.5,1.2,0.7,1.8C53,140.8,52.9,140.9,52.9,140.9z M118,87.4c-0.6,0.9-1.3,1.9-1.9,2.8c-0.1,0-0.1-0.1-0.2-0.1
		c0.2-2,0.6-3.4,1.3-4.3c0.3,0.4,0.6,0.8,0.8,1.3C118,87.2,118,87.3,118,87.4z M114.9,72.1c0.6,0.4,1.4,1.5,1.1,1.9
		C115.5,73.4,114.5,73.2,114.9,72.1z M115.7,74.5c-0.1,0.2-0.2,0.4-0.4,0.7c-0.2-0.5-0.4-0.9-0.6-1.3c0,0,0.1-0.1,0.1-0.1
		C115.2,74,115.4,74.2,115.7,74.5z M114.9,66.4c0.6,0.4,0.2,0.7,0.2,1.1c0,0-0.1,0-0.1,0C114.9,67.1,114.9,66.8,114.9,66.4z
		 M113.6,70.1c0.6,0.6,0.9,1.4,0.6,2.3C113.2,71.8,113.7,70.9,113.6,70.1z M114,67.7c0.4,0.2,0.6,1.4,0.5,2.3
		C114,69.3,113.5,68.6,114,67.7z M113.7,66.2c0-0.4,0-0.9,0-1.3c0.6,0.6,0.6,0.6,0.1,1.3C113.8,66.2,113.7,66.2,113.7,66.2z
		 M112,62.3c-0.6,2-0.1,3.8,0.6,5.5c0.1,0.2,0.1,0.5,0.2,0.8c0,0.7,0,1.4,0,2.1C109.8,67.9,110,64.7,112,62.3z M110.1,62.8
		c-0.1,0-0.1,0-0.2-0.1c0.2-0.7,0.4-1.3,0.5-2c0.4,0.2,0.5,0.5,0.3,0.8C110.5,61.9,110.3,62.4,110.1,62.8z M113.4,73.7
		c-0.8-0.5-1.9-2.4-2.1-3.4C112.1,71.4,113.2,72.2,113.4,73.7z M112.9,63.1c0.4,0.2,0.5,0.6,0.1,1.4C113,64,112.9,63.5,112.9,63.1z
		 M93.2,49.3c-0.2,0.3-0.3,0.6-0.5,0.9c0,0-0.1,0-0.1,0c0.1-0.2,0.1-0.4,0.2-0.6C92.8,49.3,92.9,49.3,93.2,49.3z M91.6,49.4
		c-0.2,0.2-0.3,0.3-0.5,0.4C91.2,49.4,91.4,49.3,91.6,49.4z M90.7,49.7c-0.2,0.2-0.3,0.3-0.4,0.5c0,0,0,0-0.1,0
		C90.3,49.8,90.3,49.8,90.7,49.7z M88.2,52.2c0.2-0.4,0.5-0.6,0.9-0.6C88.9,51.9,88.7,52.3,88.2,52.2z M89.9,52.4
		c-0.4,0.3-1.3,0.6-1.8,0.5C88.6,52.5,89.2,52.5,89.9,52.4z M88.8,51.3c0.2-0.4,0.7-0.7,0.9-0.7C89.6,51.1,89.2,51.2,88.8,51.3z
		 M89.5,50.3C89.5,50.2,89.4,50.2,89.5,50.3c0.1-0.2,0.1-0.4,0.4-0.4C89.7,50.1,89.6,50.2,89.5,50.3z M88,51.9
		c-0.2,0.5-0.6,0.2-1,0.3C87.1,52,87.7,51.9,88,51.9z M80.9,56.8c-0.1,0.5-0.5,1.4-0.8,1.6C80.2,57.9,80.7,56.9,80.9,56.8z
		 M78.8,59.3c0.3-0.5,0.6-1.1,0.9-1.6C79.7,58.3,79.3,58.8,78.8,59.3z M78.9,60c-0.1,0.2-0.2,0.6-0.6,0.4
		C78.5,60.3,78.7,60.2,78.9,60z M65.4,97.9c0-0.7-0.1-1.4-0.1-2.2c0.4,0,0.7,0,1.1,0.1c0,0.7,0.1,1.4,0.1,2.2
		C66.1,97.9,65.7,97.9,65.4,97.9z M66.5,98.9c-0.1,0.2-0.2,0.3-0.3,0.5c-0.3-0.2-0.5-0.3-0.8-0.5C65.8,98.9,66.1,98.9,66.5,98.9z
		 M63.5,95.8c0,0.4-0.1,0.7-0.1,1c0,0-0.1,0-0.1,0c-0.2-0.3-0.3-0.5-0.5-0.9C63,95.8,63.2,95.8,63.5,95.8z M68.3,73.2
		C68.3,73.2,68.3,73.2,68.3,73.2C68.3,73.2,68.3,73.2,68.3,73.2C68.3,73.2,68.3,73.2,68.3,73.2C68.3,73.2,68.3,73.2,68.3,73.2z
		 M69.3,72.3c0.1-0.1,0.2-0.1,0.3,0c0,0.1-0.1,0.2-0.2,0.2C69.3,72.5,69.3,72.4,69.3,72.3z M70.2,72.9c0.4,0,0.7,0,0.9-0.1
		c-0.2,0.4-0.7,0.6-1.2,0.8C70.1,73.3,70.2,73.1,70.2,72.9z M70.9,72.2c0.1-0.1,0.2-0.1,0.3-0.2c0,0.1,0.1,0.1,0.1,0.2
		C71.3,72.3,71.1,72.3,70.9,72.2z M67.3,89.5c0.4,0.1,0.8,0.2,1.2,0.3c0.1,0,0.2,0.2,0.2,0.3c0,0.3,0,0.6,0,0.9c0,0-0.1,0-0.1,0.1
		c-0.4-0.5-0.9-1-1.3-1.4C67.2,89.5,67.3,89.5,67.3,89.5z M68,87.1c0.2,0.6,0.4,1,0.6,1.6C67.5,88.3,67.5,88.3,68,87.1z M68.3,85.6
		c-0.1,0-0.1,0-0.2,0c-0.3-0.7-0.5-1.4-0.1-2.2c0.3,0.1,0.6,0.3,0.9,0.4C68.7,84.5,68.5,85.1,68.3,85.6z M69.9,73.9c0,0,0.1,0,0.1,0
		c0.1,0,0.2-0.1,0.3-0.1c0.5-0.2,0.9-0.5,1.1-1c0,0,0-0.1,0.1-0.1c0.1,0.2,0.1,0.3,0.1,0.5c0,0.2,0.1,0.5,0.1,0.7
		c0,0.1-0.1,0.1-0.1,0.2c-0.5,0.4-1,0.5-1.6,0.4C70,74.3,70,74.1,69.9,73.9z M57.3,147.5c-0.6-1.5-1.1-2.9-1.2-4.5
		c0-0.1,0-0.3,0.1-0.4c0.1-0.2,0.3-0.5,0.5-0.5c0.1,0,0.4,0.2,0.5,0.3C58.4,143.8,58.4,146.1,57.3,147.5z M61.4,96.6
		c0-0.2,0.2-0.4,0.3-0.6c0.1,0.1,0.2,0.1,0.3,0.2c0.3,0.5,0.5,1,0.8,1.5C62.3,97.7,61.4,97,61.4,96.6z M61.8,98.8c0.3,0,0.6,0,0.9,0
		c-0.2,0.3-0.3,0.6-0.5,0.9C62,99.3,61.9,99,61.8,98.8z M63.3,100.8c-0.3,0.4-0.5,0.3-0.7,0c0.4-0.6,0.7-1.1,1.1-1.6
		c0.1-0.1,0.3-0.1,0.5-0.2c0,0.1,0.2,0.3,0.1,0.4C63.9,99.9,63.6,100.4,63.3,100.8z M67.8,126.6c2,2,1.9,6.3-1.8,8
		C67.7,132.2,68,129.5,67.8,126.6z M66.5,119.5c0.3,0.8,0.4,1.7,0.6,2.6c0,0-0.1,0-0.1,0c-0.4-1.1-0.8-2.1-1.3-3.2
		c-0.3-0.6-0.7-1.2-0.9-1.8c-0.5-1.2-0.2-2.5,0.1-3.7C64.8,115.6,65.8,117.5,66.5,119.5z M65.5,104.5c-0.1-0.3-0.2-0.6-0.3-0.9
		c0.4,0.1,0.7,0.1,1.1,0.2C66,104.1,65.8,104.3,65.5,104.5z M63.6,101.6c0.5-0.6,0.9-1.3,1.4-1.9c0.5,0.3,1,0.7,1.5,1.1
		c0.1,0.1,0.1,0.2,0.2,0.3c0,0.6,0,1.2,0,1.8C65.2,102.9,64.4,102.5,63.6,101.6z M67.2,100.2c-0.2-0.2-0.4-0.3-0.6-0.4
		c0.6-0.9,0.8-1,1.6-0.6C67.8,99.5,67.5,99.8,67.2,100.2z M68.6,103.8c-0.2-0.1-0.4-0.3-0.7-0.5c0.2-0.2,0.3-0.4,0.5-0.6
		c0.1,0.4,0.2,0.7,0.3,1C68.7,103.8,68.6,103.8,68.6,103.8z M68.3,101.2c-0.2-0.2-0.4-0.4-0.5-0.5c0.3-0.3,0.6-0.6,0.9-0.9
		c0.1,0,0.1,0.1,0.2,0.1C68.7,100.3,68.5,100.7,68.3,101.2z M69.6,92.9c0.7,0.5,1.3,1.2,1.6,2.1c0.3,0.8,0.2,1.7-0.5,2.3
		c-0.5,0.4-1,0.7-1.5,1.1c-0.1,0-0.2,0.1-0.2,0c-0.5-0.1-1.1-0.3-1.6-0.4c0-0.6,0.1-1.2,0.1-1.9c0.4,0.1,0.6,0.2,0.9,0.2
		c0.1,0,0.2-0.1,0.3-0.1c0-0.1-0.1-0.2-0.1-0.3c-0.2-0.2-0.5-0.3-0.8-0.4c-0.3-0.1-0.4-0.3-0.4-0.6c-0.2-0.9-0.5-1.7-0.7-2.6
		c0-0.1-0.1-0.3-0.1-0.4c0.1-0.4,0.3-0.7,0.5-1.1C67.9,91.4,68.7,92.2,69.6,92.9z M69.8,79c0,0-0.1,0-0.1,0c0-0.6-0.1-1.2-0.1-1.7
		c0.1,0,0.2,0,0.2,0C69.8,77.8,69.8,78.4,69.8,79z M71.5,82.6c0.3,0.1,0.7,0.2,1,0.3c0,0,0,0.1,0,0.1c-0.6,0.1-1.2,0.3-1.8,0.4
		c0-0.5-0.1-0.9-0.1-1.2C70.9,82.4,71.2,82.5,71.5,82.6z M70.6,78.5c-0.1-0.4-0.2-0.9-0.3-1.3c0-0.3,0-0.6-0.1-1
		c0.2,0.2,0.3,0.3,0.4,0.4c0.1,0.1,0.2,0.3,0.3,0.5c0,0,0,0,0.1,0c0-0.1,0-0.1,0-0.2c-0.1-0.5-0.5-0.7-0.9-1c0,0,0-0.1,0-0.1
		c0-0.3,0-0.7,0-1c0.4,0.1,0.9,0.1,1.3-0.1c0.2-0.1,0.3-0.1,0.4-0.2C71.7,75.9,71.1,77.2,70.6,78.5z M72.5,71.7
		c0-0.1-0.1-0.2-0.1-0.2c0.1-0.2,0.4-0.4,0.8-0.5C72.9,71.3,72.7,71.5,72.5,71.7z M73.5,71C73.5,71,73.5,70.9,73.5,71
		c0.2-0.3,0.5-0.5,0.9-0.8C74.1,70.6,73.9,70.8,73.5,71z M73.7,70.3c0-0.1,0-0.2,0.1-0.2c0.3-0.4,0.5-0.9,0.8-1.3
		c0.1-0.1,0.2-0.2,0.3-0.3C74.8,69.3,74.4,69.9,73.7,70.3z M75.8,66.6C75.8,66.6,75.8,66.6,75.8,66.6c0-0.2,0.1-0.4,0.2-0.5
		c0,0,0,0,0.1,0.1C76,66.3,75.9,66.5,75.8,66.6z M77.5,64c0.1-0.7,0.2-1.3,0.3-2c0-0.1,0.1-0.1,0.1-0.1c0.4-0.2,0.7-0.5,1-0.9
		c0-0.1,0.1-0.1,0.2-0.2c0.4-0.1,0.9-0.3,1.3-0.4c0,0.2,0.1,0.4,0.1,0.6c0,0.4,0.1,0.8,0.1,1.2c0,0.2-0.1,0.4-0.3,0.6
		c-0.3,0.2-0.5,0.5-0.8,0.6c-0.3,0.2-0.6,0.4-0.9,0.5C78.3,64.1,77.9,64,77.5,64z M81.3,63.1c-0.2,0.9-0.8,1.5-1.7,1.6
		c-0.6,0.1-1.2,0.1-1.8-0.1c0.3,0,0.5-0.1,0.7-0.1c0.3-0.1,0.5-0.1,0.8-0.2c0.8-0.2,1.4-0.6,1.6-1.4c0.1-0.4,0.3-0.6,0.5-0.9
		C81.4,62.4,81.4,62.7,81.3,63.1z M81,60.2c0.1,0,0.3-0.1,0.4-0.1c-0.1,0.6-0.2,1.2-0.4,1.7c0,0,0,0-0.1,0c-0.1-0.5-0.1-0.9-0.2-1.4
		C80.8,60.4,80.8,60.3,81,60.2z M81.1,59.8C81.1,59.8,81.1,59.8,81.1,59.8c0.1-0.1,0.2-0.3,0.4-0.4C81.5,59.7,81.3,59.7,81.1,59.8z
		 M81.7,58.7c0,0.1-0.1,0.3-0.2,0.3c-0.4,0.2-0.8,0.5-1,1c0,0-0.1,0.1-0.1,0.1c-0.4,0.1-0.7,0.3-1.1,0.4c0.1-0.3,0.2-0.6,0.3-0.9
		c0.1-0.2,0.2-0.4,0.3-0.5c0.6-0.6,1.1-1.4,1.3-2.3c0.1-0.3,0.3-0.4,0.6-0.5C81.6,57.1,81.7,57.9,81.7,58.7z M82,57.8
		c0.1-0.5,0.1-1,0.2-1.6c0,0,0-0.1,0.1-0.1c0.2-0.1,0.4-0.1,0.7-0.2C82.9,56.5,82.6,57.1,82,57.8C82,57.8,82,57.8,82,57.8z
		 M83.1,57.7c0,0,0,0.1-0.1,0.1c-0.3,0.2-0.6,0.3-0.9,0.5c0,0,0,0,0,0c0.3-0.5,0.6-1.1,0.9-1.6c0,0,0,0,0.1,0
		C83.1,57.1,83.1,57.4,83.1,57.7z M83.3,58.4c0-0.3,0.2-0.3,0.4-0.4c0,0,0,0,0,0.1C83.6,58.1,83.4,58.2,83.3,58.4z M84,57
		c0,0.4-0.3,0.5-0.6,0.6c0-0.6,0-1.2,0-1.8c0.3,0,0.5-0.1,0.8-0.1C84.1,56.2,84,56.6,84,57z M84.5,56.6
		C84.5,56.6,84.4,56.6,84.5,56.6c0-0.3,0-0.6,0-0.8c0,0,0,0,0.1,0C84.5,56.1,84.5,56.3,84.5,56.6z M87,52.4c0.2,0,0.4,0,0.5,0
		c0,0,0,0,0,0.1c-0.2,0.1-0.4,0.2-0.6,0.3C87,52.7,87,52.6,87,52.4z M90.8,53.5c-1,0.7-2.1,0.5-3.2,0.5c1.2-0.1,2.4-0.2,3.5-0.8
		C91,53.3,90.9,53.4,90.8,53.5z M87,53.4c0.3-0.1,0.5-0.2,0.8-0.2c0.9,0,1.6-0.2,2.4-0.6c0.4-0.3,0.8-0.4,1.3-0.5
		C90.5,52.8,88.1,53.5,87,53.4z M89.2,52.1c0.2-0.2,0.4-0.5,0.7-0.7c0.1-0.1,0.2-0.2,0.3-0.2c0.8-0.4,1.5-0.8,1.9-1.7
		C92.1,50.8,91.1,52,89.2,52.1z M91.9,52.7c0.2-0.4,0.3-0.7,0.4-1c0.2-0.4,0.5-0.8,0.8-1.1c0.4-0.4,0.7-0.8,1.1-1.1
		c0.1-0.1,0.2-0.1,0.2-0.2c0,0,0,0,0,0.1C93.5,50.4,93.1,51.7,91.9,52.7z M107.7,67.8c-0.5-3.1,0.7-5.9,0.7-8.8c0.1,0,0.1,0,0.2,0
		c0.1,0.2,0.2,0.4,0.2,0.6c0,1.1,0,2.2,0.1,3.3c0.1,1,0,1.9-0.3,2.8C108.2,66.3,107.9,67,107.7,67.8z M108.3,70.7
		c-0.1-0.3-0.1-0.6-0.1-1c0.9,2.5,2.7,4.4,4.4,6.3C110.9,74.5,108.9,73.1,108.3,70.7z M109.4,67.5c0.5,0.8,1.1,1.6,1.3,2.6
		c0.5,1.8,1.4,3.2,2.8,4.4c0.4,0.4,0.6,1,0.9,1.5C112.4,74.6,109.7,70.1,109.4,67.5z M114.8,83.3c0,0,0.1,0.1,0.1,0.1
		c-0.3,0.5-0.7,0.9-1,1.4c0,0-0.1-0.1-0.1-0.1C114.1,84.2,114.5,83.7,114.8,83.3z M114,86c0.5-0.7,1-1.5,1.5-2.2
		c0.4,0.5,0.7,0.9,1.1,1.3c-0.9,0.9-1.7,1.8-2.6,2.8C113.6,87.3,113.5,86.7,114,86z M114.3,88.7c0-0.1,0-0.2,0.1-0.3
		c0.5-0.5,0.9-1.1,1.4-1.6c0,0,0.1,0.1,0.1,0.1c-0.3,1.3-0.5,2.6-0.8,3.9c0,0-0.1,0-0.1,0C114.7,90.1,114.5,89.4,114.3,88.7z
		 M114.7,94.5c0,0-0.1,0-0.1,0c-0.1-0.3-0.6-0.6-0.1-1.2C114.6,93.8,114.6,94.2,114.7,94.5z M113.1,88c0.1,0.3,0.4,0.6,0,1.2
		c-0.1-0.5-0.1-0.8-0.2-1.2C113,88.1,113.1,88,113.1,88z M113.6,94.6c0.2,0.3,0.3,0.6,0.5,0.9c0.2,0.2,0.1,0.4-0.1,0.6
		c-0.7,0.6-1.5,1.3-2.2,1.9c0,0-0.1-0.1-0.1-0.1C112.3,96.8,113,95.7,113.6,94.6z M109.9,104.5c-1.2-1.6-1.3-3.3-0.3-5
		c0.4-0.7,0.8-1.3,1.3-1.9c0,0.8,0,1.5-0.4,2.2c-0.9,1.5-0.6,3,0.5,4.4c0.3,0.5,0.7,1,1,1.4c0.3,0.4,0.6,0.8,1,1.3
		C111.7,106.3,110.7,105.5,109.9,104.5z M113.3,111.8c0.1,0,0.1,0,0.2,0c0,0.4-0.1,0.8-0.1,1.2c-0.1,0-0.1,0-0.2,0
		C113.2,112.6,113.2,112.2,113.3,111.8z M112.6,127.7c0.1,0.4,0.2,0.7,0.4,1.1C112.2,128.5,112.1,128.1,112.6,127.7z M113,130.9
		c-0.1,0.3-0.4,0.9-0.6,1.6c-0.6-1-1-2.1-0.8-3C112,129.9,112.4,130.4,113,130.9z M111.1,126.2c0-0.8,0-1.6,0-2.5
		C111.9,124.9,111.9,125.8,111.1,126.2z M112,117.2c0,0.3,0,0.6,0,0.9c-0.2,1.1-0.4,2.2-0.6,3.3c0,0.2-0.1,0.3-0.2,0.5
		C110.8,120.2,111,118.6,112,117.2z M110.3,120.7c0.1,0.9,0.3,1.7,0.4,2.5c0,0-0.1,0-0.1,0C110.2,122.4,110.1,121.7,110.3,120.7z
		 M111.8,134c-1.3-0.8-2.5-1.7-2.7-3.3c-0.1-1.4,0.7-2.4,1.7-3.2c0.4,0.4,0.4,0.8,0.2,1.4c-0.4,1.1-0.1,2.2,0.4,3.2
		c0.1,0.2,0.2,0.5,0.4,0.7C112.2,133.2,112.2,133.4,111.8,134z M110.8,136.4c1.2-0.3,2.5,0.2,2.8,1.2
		C112.6,137.2,111.7,136.8,110.8,136.4z M112.5,104.7c-0.4-0.6-0.5-1.4-0.7-2.1c-0.2-0.7-0.2-1.5-0.3-2.2c-0.1-0.5,0-0.9,0.4-1.3
		c0.7-0.6,1.3-1.2,2-1.8c0.3-0.3,0.6-0.5,1-0.8c0.5,0.8,1,1.6,1.5,2.5c0.1,0.1,0,0.3,0,0.5c0,1,0.1,1.9,0.4,2.8c0,0.1,0.1,0.3,0,0.4
		c-0.8,1.2-1.6,2.4-2.4,3.6C113.7,105.9,112.9,105.4,112.5,104.7z M116,135.7c-0.2,0-0.3,0-0.6,0.1c0.1-0.6,0.2-1.1,0.2-1.7
		c0,0,0,0,0.1,0C115.8,134.7,115.9,135.2,116,135.7z M115.3,131.7c0,0.1-0.3,0.1-0.3,0.1c-0.2-0.2-0.3-0.5,0-0.8
		C115.3,131.1,115.5,131.3,115.3,131.7z M114.5,138.5c0.7-0.1,1,0.6,1.4,0.9c0.7,0.4,0.3,1.1,0.5,1.7
		C115.6,140.6,114.8,139.5,114.5,138.5z M115.5,136.5c0.2,0,0.5-0.1,0.7-0.1c0.2,0.3,0.3,0.6,0.5,1
		C116,137.8,115.9,137.7,115.5,136.5z M117.1,135.5c-0.1,0-0.1,0-0.2-0.1c-0.1-0.5-0.1-1-0.2-1.6c0,0,0.1,0,0.1,0
		c0.2,0.4,0.3,0.9,0.5,1.3C117.4,135.2,117.2,135.4,117.1,135.5z M117.2,96.3c-0.2,0.6-0.5,1.2-0.7,1.8c-0.4-0.8-0.8-1.5-1.2-2.2
		c0-0.1-0.1-0.2,0-0.3c0.5-1,0.2-2-0.2-2.9c-0.2-0.3-0.1-0.6,0.1-0.9c1.2-1.2,2.4-2.4,3.2-3.9c0.3,0.5,0.6,0.9,0.2,1.5
		c-1,1.7-1.2,3.5-1.2,5.5C117.5,95.4,117.4,95.9,117.2,96.3z M117.8,98.1c0.1,0.5,0.2,1,0.3,1.6C117.2,99.3,117.7,98.7,117.8,98.1z
		 M118.2,93.8c-0.1-0.8,0.5-2.9,1.1-3.7C119.4,90.6,118.8,92.8,118.2,93.8z M118.9,97c-0.1-1.4,0-2.7,0.8-3.9
		C119.5,94.3,119.2,95.7,118.9,97z M121.9,140.4c-0.1,0.3,0,0.7,0,1.1c-0.1,0-0.1,0-0.2,0c-0.1-0.5-0.2-1-0.4-1.6
		C121.8,139.8,122,140,121.9,140.4z M123.4,147.2c-0.2-0.3-0.2-0.5,0.1-0.7c0.9-0.4,1.6-1,1.9-1.9c0-0.1,0.1-0.2,0.1-0.2
		c0.6-0.3,1-0.8,1.2-1.5c0.2,0.1,0.4,0.2,0.6,0.3C126.4,144.8,125.2,146.3,123.4,147.2z M135.5,46.5c0.5,0.7,0.7,1.4,0.8,2.2
		c-0.3-0.1-0.6-0.2-0.9-0.3C135.5,47.7,135.5,47.1,135.5,46.5z M130.6,41.3C130.6,41.3,130.6,41.3,130.6,41.3
		c0.3,0.1,0.6,0.3,0.9,0.5C130.9,42.1,130.8,41.5,130.6,41.3z M131.2,142.8c0.2,0.5,0.4,0.9,0.6,1.4
		C131.1,143.7,131,143.5,131.2,142.8z M131.8,142.1c-0.1-0.4-0.6-0.7-0.1-1.1c0.2,0.2,0.4,0.4,0.6,0.7
		C132.2,141.8,132.1,141.9,131.8,142.1z M132.5,47c-0.3-0.5-0.7-1-1-1.5c0.1,0,0.1-0.1,0.2-0.1c0.3,0.5,1,0.8,1,1.5
		C132.6,47,132.6,47,132.5,47z M132.9,46c-0.6-0.6-1-1.1-1.6-1.6c0.6,0.2,1.1,0.3,1.5,0.4c0.1,0,0.1,0.2,0.1,0.4
		C133,45.4,132.9,45.6,132.9,46z M131.4,43.7c-0.2-0.1-0.2-0.6-0.3-1c1.4,0,1.6,0.1,1.9,1.6C132.4,44.1,131.8,44,131.4,43.7z
		 M133.1,43.1c0.7,0.3,1.1,0.8,1.3,1.5C133.3,44.7,133.4,43.8,133.1,43.1z M133.5,45C133.5,45,133.5,45,133.5,45
		c1.1,0.3,1.2,0.4,1.3,1.4c0,0.6,0,1.2,0,1.8c0,0-0.1,0-0.1,0c-0.2-0.3-0.4-0.6-0.6-0.8C133.2,46.7,133.3,45.9,133.5,45z M134.6,141
		c-0.2,0.1-0.4,0-0.6-0.1c-0.1-0.1-0.2-0.3-0.2-0.5c0-0.4,0.1-0.8,0.2-1.1c0.3,0.4,0.7,0.9,1.1,1.3C135,140.8,134.8,141,134.6,141z
		 M137.5,139.1c-0.3,0.3-0.6,0.5-1,0.7c-0.5,0.3-0.8,0.3-1.2-0.2c-0.2-0.3-0.4-0.6-0.4-0.9c0-0.3,0-0.7,0.2-0.9
		c0.5-0.5,1.1-0.9,1.6-1.4c0.2-0.2,0.4-0.4,0.7-0.5C138.5,136.9,138.5,138.2,137.5,139.1z M146.8,121.1c0.1,0.5,0.2,1.1,0.4,1.6
		C146.2,122.4,146.6,121.7,146.8,121.1z M151,92c-0.2-0.7-0.4-1.4-0.6-2c0-0.1,0-0.1,0-0.2c0.4-1.1,0.7-2.1,0.4-3.4
		C152.1,88.2,152.6,91.3,151,92z M151.1,82.6c-0.7-0.7-0.9-1.6-1-2.6C150.8,80.8,151.1,81.5,151.1,82.6z M150.9,83
		c0.1,0.1,0.2,0.3,0.1,0.4c0,0.3-0.1,0.5-0.2,0.9c-0.4-0.6-0.8-1.1-1.3-1.6c-0.6-0.7-1-1.4-0.9-2.3c0-0.5-0.1-0.9-0.2-1.4
		c0.6,0.3,1,0.6,1,1.3C149.6,81.3,150.1,82.2,150.9,83z M150.3,92.4c-0.1,0-0.1,0.1-0.2,0.1c-0.3-0.3-0.5-0.6-0.8-1
		c0.2-0.2,0.4-0.4,0.7-0.8C150.1,91.4,150.2,91.9,150.3,92.4z M148,100.4c0.2,0,0.3-0.1,0.5-0.2c0.3,0.2,0.4,0.8,0,1.6
		c-1.1-0.6-1.2-1.6-1.3-2.6c0.3,0.3,0.8,0.4,0.6,1C147.8,100.2,147.9,100.4,148,100.4z M148.1,77.4c0.1-1.1,0.2-2.3,0.4-3.4
		c1,1.3,1.3,2.9,1.1,4.6c-0.5-0.3-0.9-0.5-1.4-0.8C148.1,77.7,148,77.5,148.1,77.4z M147.9,78.6c0.1,0.7,0.2,1.4,0.4,2.2
		C147.4,80.2,147.3,79.8,147.9,78.6z M147.3,89.7c0.3-0.5,0.6-0.9,0.9-1.4c0,0,0.1,0,0.1,0c0,0.8,0,1.6,0,2.5
		c-0.4-0.3-0.7-0.4-0.9-0.6C147.3,90.1,147.2,89.9,147.3,89.7z M147.6,94.3c-0.3-0.3-0.5-0.5-0.7-0.8
		C147.4,93.5,147.6,93.8,147.6,94.3z M147.3,102.6c0.5,0.3,0.6,0.7,0.3,1.1c-0.1,0.2-0.2,0.3-0.4,0.5c-0.1,0.1-0.3,0.2-0.4,0.2
		c-0.1,0-0.2-0.2-0.3-0.3C147.4,103.7,147.1,103,147.3,102.6z M148.7,106.6c-0.6-0.2-1.2-0.5-1.9-0.7
		C147.1,105.5,147.8,105.8,148.7,106.6z M146.5,102.1C146.6,102.1,146.6,102.1,146.5,102.1c0.1,0.4,0.1,0.9,0.1,1.3
		c-0.1,0-0.1,0-0.2,0C146.5,103,146.5,102.5,146.5,102.1z M146,113.1c0.8,0.6,0.9,0.7,0.6,1.3c-0.3-0.2-0.7-0.4-1-0.6
		C145.7,113.6,145.9,113.3,146,113.1z M145.2,113.6c-0.1-0.3-0.2-0.4-0.3-0.6c0.3-0.1,0.5-0.2,0.8-0.3
		C145.5,113,145.4,113.3,145.2,113.6z M146.4,109.6c0.1,0,0.1,0,0.2,0c-0.1,0.6-0.2,1.3-0.3,2c-0.3-0.1-0.4-0.1-0.6-0.2
		C146,110.8,146.2,110.2,146.4,109.6z M144.9,65.7c1.3,0.6,1.7,2.2,0.8,3.6c-0.3-0.2-0.5-0.3-0.8-0.5c-0.1,0-0.1-0.1-0.1-0.2
		C144.8,67.6,144.9,66.7,144.9,65.7z M145.1,109.5c0,0,0.1,0,0.1,0c-0.1,0.4-0.2,0.8-0.3,1.3c-0.3-0.2-0.5-0.3-0.8-0.5
		C144.5,110,144.8,109.7,145.1,109.5z M143.8,66.1c0,0.6-0.1,1.3-0.2,1.9c0.1-1-0.2-2-0.7-2.8C143.7,65.1,143.8,65.3,143.8,66.1z
		 M142.4,113.8c0,0,0.1,0,0.1,0c0.1,0.4,0.2,0.9,0.3,1.3C142.6,115.1,142.5,115,142.4,113.8z M142.6,118.6c-0.1,0.3-0.2,0.5-0.3,0.7
		c-0.3-0.2-0.5-0.2-0.4-0.6C142.1,118.4,142.3,118.5,142.6,118.6z M141.3,65.6c-0.1-0.2,0.2-0.5,0.4-0.7c0.1-0.1,0.4,0,0.5,0.2
		c0.5,0.8,0.9,1.6,0.8,2.7C142.2,67.2,141.6,66.5,141.3,65.6z M141.5,115.2c-0.2-0.4-0.4-0.7-0.6-1.2
		C141.4,114.1,141.7,114.5,141.5,115.2z M140.9,62c1,0.6,1.7,1.4,2.3,2.3C141.9,64.2,140.9,63.2,140.9,62z M143.5,63.3
		c-0.8-0.7-1.6-1.3-2.4-2C142,61.3,143.3,62.4,143.5,63.3z M140.4,59.4c-0.1-0.3-0.1-0.6-0.2-0.8c-0.1-0.3-0.2-0.5-0.4-0.8
		c-0.1-0.2-0.1-0.3,0.1-0.5c0.3-0.4,0.6-0.8,0.9-1.3C141.1,57.1,141,58.2,140.4,59.4z M139.5,56.4c0.2-0.5,0.4-1,0.6-1.6
		C140.3,55.3,140.1,55.8,139.5,56.4z M138.9,131c-0.1,0-0.1,0-0.2,0c-0.1-0.4-0.2-0.8-0.4-1.4c0.4,0.1,0.8,0.2,0.8,0.3
		C139.1,130.3,139,130.6,138.9,131z M139.3,118.3c-0.6-0.3-0.7-0.8,0-1.5C139.6,117.3,139.3,117.8,139.3,118.3z M138.6,51.5
		c0.9,0.6,1.4,1.2,1.2,1.7C139.5,52.6,138.7,52.3,138.6,51.5z M139.7,120.3c0.2,0.1,0.4,0.2,0.7,0.3c-0.2,0.2-0.5,0.4-0.5,0.4
		C139.6,120.8,139.4,120.6,139.7,120.3z M141.2,129.1c-0.2,0.1-0.3,0.1-0.5,0.2c-0.8,0.2-0.8,0.1-0.9-0.6c-0.1-0.4-0.2-0.8-0.2-1.2
		c0.5,0,1-0.1,1.3,0c0.3,0.1,0.6,0.5,0.8,0.8C141.7,128.6,141.5,128.9,141.2,129.1z M140.5,126.2c0.4,0.2,0.8,0.3,1.2,0.5
		C141.3,126.9,141.3,126.9,140.5,126.2z M140.1,125c1.1-0.2,1.3-0.1,1.7,0.7C141.2,125.5,140.7,125.3,140.1,125z M140.3,123.3
		c-0.1-0.4-0.2-0.7-0.1-1.1c0-0.2,0.3-0.4,0.5-0.4c0.5-0.1,0.9-0.1,1.4,0c0.5,0,0.5,0.5,0.6,0.9c0.1,0.4-0.2,0.4-0.5,0.4
		C141.5,123.2,140.9,123.2,140.3,123.3z M143.1,125.2c-0.1,0.3-0.1,0.7-0.2,1.2c-0.3-0.5-0.5-1-0.8-1.6c0.5-0.2,1-0.4,1.6-0.5
		C143.4,124.5,143.2,124.8,143.1,125.2z M144.9,122.3c-0.4,0.2-0.7,0.4-1.1,0.7c-0.1-0.4-0.1-0.7-0.2-1c0.5,0.1,0.9,0.1,1.3,0.2
		C144.9,122.1,144.9,122.2,144.9,122.3z M144.1,120.3c0,0,0,0.1-0.1,0.1c-0.5-0.2-0.9-0.5-1.4-0.7c0.1-0.3,0.2-0.5,0.4-0.8
		C143.4,119.4,143.8,119.8,144.1,120.3z M143.2,109.6c-0.2-0.7-0.1-0.9,0.5-1.3C144,109,143.9,109.2,143.2,109.6z M144.5,115.1
		c-0.3-0.5-0.6-1-1-1.6c0,0,0-0.1,0.1-0.1c0.6,0.7,1.2,1.3,1.9,2C145.1,115.5,144.8,115.5,144.5,115.1z M147.5,116
		c0.7,0.4,1.4,0.9,1.8,1.6c-1.3-0.4-2.6-0.8-4-1.2c0.7-0.2,1.3-0.3,1.8-0.4C147.3,116,147.4,116,147.5,116z M146.9,111.3
		c0.1-0.4,0.1-0.7,0.2-1.1c0.3,0.2,0.5,0.4,0.7,0.7C147.5,111,147.3,111.1,146.9,111.3z M148.6,110.4c-1.3-0.8-1.9-2-2-3.6
		c0.8,0.2,1.5,0.5,2.3-0.1C150.3,107.8,150.2,109.4,148.6,110.4z M150.3,106.5c-0.7-0.6-1.5-1.1-2.2-1.7c0.3-0.4,0.6-0.8,0.9-1.3
		C149.7,104.4,150.2,105.3,150.3,106.5z M149.3,93.5c0.6,0.4,0.7,0.9,0.3,1.4C149.4,94.4,149.4,94,149.3,93.5z M150.2,95.3
		c0.2,1.1,0,2.2-0.5,3.2C149.4,97.4,148.9,96.2,150.2,95.3z"/>
	<g>
		<path class="st1" d="M82.1,86.5L82.1,86.5L82.1,86.5c2.4-0.9,4.9-1.5,7.4-1.8c5.6-0.6,11.1,0.5,15.6,2.9c4.8,2.6,7.8,6.8,8.3,11.3
			c0.7,6.9-4.5,13.7-13,17c-2.4,0.9-4.9,1.5-7.5,1.8c-5.6,0.6-11.1-0.5-15.6-2.9c-4.8-2.6-7.8-6.8-8.3-11.3
			C68.4,96.6,73.6,89.8,82.1,86.5L82.1,86.5z"/>
		<path class="st2" d="M92.6,114.2c10.1-1,18-7.9,17.3-14.9c-0.7-7.1-9.9-12.1-20-11.1c-10.1,1.1-18,7.9-17.3,14.9
			C73.3,110.2,82.5,115.3,92.6,114.2z"/>
	</g>
	<g>
		<g>
			<path class="st1" d="M199.5,55.3c-0.4,0.6-1.2,1.2-2.3,1.8c-28.1,20.1-56.1,40.4-84.1,60.8c-0.2,0.2-0.5,0.4-0.8,0.5l-5.3,3.4
				c0,0.2-0.2,0.4-0.3,0.5c-1,0.7-1.9,1.4-2.9,2.2c-0.6,0.5-1.2,1.1-1.8,1.6c-0.6,0.5-1.3,0.9-2,1.3c-0.4,0.3-0.8,0.6-1.2,0.9
				c-0.7,0.5-0.9,1.2-0.6,2c0.1,0.3,0.7,1.8,1.1,2.3c1,1.4,1.9,2.7,3,4c0.6,0.7,1.2,1.4,1.9,2c0.6,0.6,1.3,0.9,2.1,0.5
				c0.2-0.1,0.4-0.2,0.7-0.4c0.2-0.1,0.3-0.3,0.4-0.4c0.1,0,0.1,0.1,0.1,0.1l4.9-3.9c0.2-0.1,0.3-0.3,0.5-0.4c0.8-0.7,1.7-1.3,2.5-2
				c6.4-5,12.7-10.1,19.2-15.1c18.3-14.3,65.3-50.9,70.5-54.9c0.1-0.2,0.3-0.3,0.4-0.5C203.5,59.6,201.5,57.5,199.5,55.3z"/>
			<path class="st3" d="M105.9,141l-4.9-1.9l-5.4-10.5l6.4-4.6l5-2.2l5.3-3.4c-0.1,0-0.2,0.1-0.3,0.1c-3.2,0.5-5.1-3.3-4-6
				c1.6-6.3,10.1-9.1,10.5-14.8c0.1-2.2-1.9-3-2.6-3.4c-5.1-2.2-10.6,1-14.9,3.7c-7.7,4.9-12.2,13-17.8,19.9
				c-2.1,2.6-5.1,4.4-7.8,6.2c-8.8,4.8-19.6,4-28.2,9.2c-10.2,5.9-14.2,19.5-9.3,30.2c1.7,4.8,14.1,27.6,30,31.8
				c11.7,3.1,21.9-7.6,27.3-17.3c3.9-5.8,5.6-15.2,13.1-17.3c7-1.5,14.3-3.8,19.2-9.3c2.7-2.6,4.5-9,0-10.5c-2.7-0.7-5,1.5-7.5,2.2
				c-3.7,1.2-6.5,0.4-8.9-2.8c-0.6-0.7-0.8-1.6-0.5-2.6c0.4-1.3,1.1-2.2,2-3l-4.9,3.9L105.9,141z"/>
			<path class="st1" d="M205.5,45.8c0.4-0.3,0.5-0.8,0.5-1.3c-0.1,0-0.2,0.1-0.3,0.1c-0.4-1.1,0.2-2.3,0.9-3.2
				c0.5-0.7,0.5-1.4,0.1-2.1c-0.9-1.7-2.2-0.5-3.5-1.2c-1.4-0.6-2.6,0.1-2.9,1.5c-0.1,0.4-0.2,0.7-0.6,0.9c-0.6,0.4-1,1.7-0.7,2.4
				c0.7,2.2,3.5,0.8,4.8,2.5c-0.3,0.2-0.5,0.3-0.8,0.5C203.8,46.2,204.7,46.4,205.5,45.8z"/>
			<path class="st1" d="M215,41.5c0.7-0.4,0.6-1.1,0.7-1.7c-0.3,0.1-0.5,0.2-0.8,0.4c-0.7-2.4,2.1-3.2,1-5.3
				c-0.9-1.6-2.2-0.5-3.4-1.1c-1.4-0.7-3,0.2-3.2,1.7c0,0.2-0.2,0.4-0.3,0.5c-0.7,0.5-1.2,1.6-0.9,2.3c1,2.5,3.1,0.9,4.9,2.7
				c-0.3,0.1-0.6,0.3-0.9,0.4C213,42,214,42,215,41.5z"/>
			<path class="st1" d="M225,35.4c-0.3,0.1-0.6,0.3-0.9,0.4c-0.2-1.3,0-2.1,0.8-3c0.6-0.8,0.6-1.8,0-2.6c-1.1-1.2-2-0.3-2.9-0.6
				c-1.1-0.9-3-0.2-3.2,1c-0.1,0.6-0.4,1.1-0.9,1.5c-0.6,0.6-0.8,1.4-0.5,2.2c1.1,2.6,3.2,0.4,4.8,2.5c-0.2,0.1-0.4,0.2-0.6,0.3
				C222.9,37.3,224.3,36.6,225,35.4z"/>
			<path class="st1" d="M233.9,31.8c0.1-0.3,0.3-0.6,0.3-0.9c-0.3,0.1-0.6,0.3-0.9,0.4c-0.5-1.9,1.2-2.6,1.3-4.2c0-1.5-1-2.2-2.6-2
				c-0.3,0-0.7,0-0.9-0.1c-1.3-0.8-3.2-0.1-3.4,1.7c-0.1,1-1.7,1.3-1.3,2.9c0.9,2.7,3.4,0.6,4.8,2.7c-0.2,0.1-0.4,0.2-0.6,0.3
				C232,33.1,233.5,32.9,233.9,31.8z"/>
			<path class="st0" d="M127.9,144.6c0-0.2-0.1-0.6-0.2-0.7c-0.1-0.1-0.5,0-0.7,0.1c-0.7,0.4-1.4,0.8-2.1,1.2
				c-4.3,2.1-8.6,2.1-12.6-0.6c-2.2-1.5-4-3.3-4.6-6.1c0,0-0.1,0-0.1-0.1c-0.1,0.1-0.3,0.3-0.4,0.4c-0.2,0.1-0.4,0.3-0.7,0.4
				c-0.8,0.4-1.5,0-2.1-0.5c-0.7-0.6-1.3-1.3-1.9-2c-1-1.3-2-2.6-3-4c-0.4-0.5-1-2-1.1-2.3c-0.4-0.8-0.2-1.5,0.6-2
				c0.4-0.3,0.8-0.6,1.2-0.9c0.7-0.4,1.3-0.8,2-1.3c0.6-0.5,1.2-1.1,1.8-1.6c1-0.7,1.9-1.5,2.9-2.2c0.2-0.1,0.3-0.3,0.3-0.5
				c0-0.9-0.1-1.8-0.1-2.8c-0.1-0.7-0.3-1.3-1-1.6c-0.8-0.3-1.4-0.1-2,0.5c-0.5,0.5-1,1-1.4,1.5c-2.3,3.1-5.2,5.7-8.4,7.8
				c-4.4,2.9-9.1,5-14.1,6.5c-2.6,0.8-5.2,1.7-7.5,3.2c-2,1.3-3.6,2.9-4.8,5c-1.4,2.5-1.2,5,0.5,7.3c0.5,0.6,0.9,1.2,1.4,1.8
				c0.1,0.1,0.2,0.3,0.3,0.4c-0.4,0.3-0.7,0.5-1.1,0.8c0.4,2.4,1.3,4.7,3.4,6.1c1.4,1,2.7,2,4,3.1c0.2-0.1,0.3-0.2,0.5-0.3
				c0.3-0.2,0.5-0.3,0.7,0.1c1.2,1.7,2.6,3.3,3.7,5.1c1.4,2.1,2,4.4,1.3,6.9c-0.5,1.8-1.4,3.3-2.5,4.6c-1.8,2.1-4.2,3.6-6.7,4.7
				c-2.3,1.1-4.6,1.9-7.2,1.8c-0.7,0-1.4-0.1-2,0c-1.3,0.1-1.8,1.2-1.1,2.2c0.3,0.5,0.8,0.9,1.3,1.2c1.1,0.6,2.1,1.2,3.3,1.7
				c3.1,1.3,6.3,1.8,9.6,0.9c2.4-0.7,4.6-1.8,6.6-3.2c2.7-1.9,4.9-4.4,6.9-7.1c2.7-3.6,4.8-7.6,6.6-11.7c1-2.1,2-4.2,3.3-6.2
				c2.5-3.5,5.7-5.7,9.9-6.6c2.5-0.5,5-1.2,7.4-2c3.2-1.1,6-3,8.3-5.5C127,147.1,127.8,146,127.9,144.6z"/>
			<path class="st3" d="M201.8,46.3c-0.7,0.4-1.4,0.8-1.9,1.3c-0.7,0.7-0.8,1.6-0.5,2.5c0.3,1,0.2,0.7,0.6,1.7l0.2,0.5
				c0.4,1.3,0.2,2.4-0.8,3.2c-0.2,0.2-0.5,0.3-0.2,0.7c0,0.1,4.5,6.1,4.5,6.2c0.1,0,0.2,0,0.3,0c0.2,0,0.4,0.2,0.5,0.1
				c0.3-0.2,0.6-0.4,0.8-0.7c1-1.3,2.3-2.2,3.9-2.6c1-0.3,2-0.3,3-0.1l0,0c0.6,0.2,0.8,0.3,1.5,0.6c0.7,0.3,1.3,0.7,1.9,1
				c0.3,0.2,0.6,0.2,0.8,0c1.9-1.5,3.8-3.1,5.4-4.9c1.4-1.6,2.7-3.3,4-5c1.4-1.9,2.7-3.8,4.5-5.3c1.3-1.1,2.7-1.9,4.5-1.3
				c0.6,0.2,1.2,0.2,1.9,0.2c1.6,0.1,2.9-0.6,4.2-1.5c2.7-1.7,4.4-5.6,2.5-9.2c-1.4-2.7-4.4-4.2-7.3-3.7c-0.9,0.2-1.7,0.5-2.6,0.9
				L201.8,46.3z"/>
			<g>
				<path class="st1" d="M54.3,175.8c-2-2.6-4-5.2-6-7.7c0,0,0,0,0.1,0C50.4,170.6,52.4,173.2,54.3,175.8
					C54.3,175.8,54.3,175.8,54.3,175.8z"/>
				<path class="st1" d="M56.5,168.8c-0.3,0.5-0.4,0.2-0.6,0c-0.2-0.2-0.3-0.3-0.5-0.1c-0.7,0.6-1.5,1.2-2.2,1.9
					c1-0.1,1.3,0.4,0.8,1.6c1-0.7,1.9-1.4,2.8-2c0.3-0.2,0.4-0.4,0.1-0.8c-0.1-0.1-0.1-0.3-0.1-0.5c0.1,0,0.3,0,0.4,0.1
					c0.1-0.1,0.1-0.3,0.2-0.4c0,0-0.1-0.1-0.1-0.1C57,168.6,56.6,168.6,56.5,168.8z"/>
				<path class="st1" d="M56.1,167.6c-0.1-0.1-0.2,0-0.3,0c0,0.1,0,0.3,0,0.3c0.1,0.2,0.3,0.3,0.4,0.5
					C56.5,168.1,56.3,167.8,56.1,167.6z"/>
				<path class="st1" d="M55.2,177.1c0.5,0.5,1,1,1.6,1.5C56.3,178.7,55.4,177.8,55.2,177.1z"/>
				<path class="st1" d="M55.5,162c-0.3-0.5-0.6-0.9-0.9-1.3c-0.3-0.5-0.6-0.4-1-0.1c-1.8,1.4-3.7,2.9-5.5,4.3
					c-0.1,0.1-0.1,0.1-0.2,0.2c0,0,0.1,0.1,0.1,0.1c0.1-0.1,0.3-0.2,0.4-0.3c0.3-0.1,0.6-0.3,0.8-0.2c0.2,0.1,0.4,0.4,0.4,0.7
					c0,0.3-0.3,0.5-0.5,0.8c-0.1,0.2-0.3,0.3-0.5,0.5c0,0,0.1,0.1,0.1,0.1c1.4-0.9,2.7-1.9,4.1-2.8c0,0.1,0.1,0.1,0.1,0.2
					c-0.4,0.3-0.8,0.5-1.3,0.8c0,0.1,0,0.1,0,0.2c0.7-0.9,1.1-0.1,1.5,0.3c0.3-0.4-0.1-0.5-0.2-0.8c-0.1-0.1,0-0.3,0-0.4
					c0.1,0,0.3,0.1,0.4,0.1c0.2,0.2,0.4,0.5,0.6,0.7c0,0,0.1-0.1,0.1-0.1c-0.2-0.2-0.3-0.5-0.5-0.7c-0.3-0.3-0.2-0.5,0.1-0.6
					c0.4-0.3,0.8-0.6,1.2-0.8c0.2-0.2,0.5-0.4,0.7,0c0.2,0.3-0.1,0.5-0.3,0.6c-0.2,0.2-0.4,0.3-0.2,0.6c0.2,0.3,0.3,0.6,0.8,0.3
					c0.1-0.1,0.3,0,0.4,0c0.3,0.4,0.6,0.8,0.9,1.2c-0.8,0.6-1.5,1.1-2.2,1.7c-0.2,0.2-0.4,0.1-0.5-0.1c-0.3-0.5-0.7-0.9-1-1.4
					c-0.1,0.1-0.1,0.3-0.2,0.4c-0.1-0.1-0.2-0.2-0.4-0.2c-0.2-0.1-0.4-0.2-0.5-0.1c-0.8,0.6-1.6,1.2-2.4,1.9c-0.2,0.2-0.2,0.4,0,0.5
					c0.7-0.6,1.1-0.7,1.5-0.3c0.1,0.2,0.2,0.5,0.2,0.6c-0.2,0.3-0.5,0.6-0.7,0.9c0,0.2,0,0.5,0,0.9c0.7-0.5,1.3-1.1,2-1.6
					c0.2-0.1,0.4-0.3,0.6-0.3c0.5,0,0.7-0.2,1-0.5c0.6-0.5,1.3-1,1.9-1.4c0.3-0.2,0.7-0.4,1-0.6c0.3-0.1,0.6,0.1,0.5,0.3
					c-0.4,0.6,0.3,0.8,0.4,1.3c0.4-0.3,0.7-0.2,0.9,0.2c0.1,0.2,0.2,0.4,0.4,0.6c0.2,0.2,0.2,0.4-0.1,0.6c-0.5,0.4-1,0.9-1.5,1.3
					c-1.3,1-2.5,2.1-3.8,3.1c-0.2,0.2-0.4,0.3-0.5,0.4c0.3,0.1,0.5,0.2,0.8,0.3c0.5-0.6,1-0.6,1.4-0.2c0.4,0.4,0.3,0.8-0.5,1.5
					c0.1,0.3,0.3,0.4,0.5,0.2c1.1-0.8,2.3-1.6,3.4-2.4c0.1-0.1,0.3-0.3,0.2-0.5c-0.1-0.3-0.3-0.6-0.5-0.9c-0.1,0.2-0.1,0.4-0.1,0.5
					c0,0-0.1,0.1-0.1,0.1c-0.3-0.4-0.5-0.7-0.8-1.1c-0.2-0.3-0.2-0.5,0.1-0.7c0.5-0.4,1-0.8,1.5-1.1c0.7-0.4,0.8-0.4,1.2,0.3
					c0.2,0.4,0.4,0.8,1,0.7c0.1,0.2,0.3,0.4,0.4,0.6c0.5,0.8,0.5,0.8-0.7,1.6c-0.3-0.5-0.6-0.9-1-1.4c0,0-0.1,0.1-0.1,0.1
					c0.2,0.3,0.3,0.5,0.5,0.8c0.4,0.5,0.3,0.9-0.2,1.3c-0.6,0.4-1.2,0.8-1.7,1.2c-0.6,0.5-1.2,1.2-1.8,1.8c-0.2,0.2-0.5,0.4-0.8,0.6
					c0.2,0,0.4,0.1,0.5,0.1c0,0,0,0,0.1-0.1c0.2-0.4,0.6-0.6,1-0.5c0.2,0.1,0.5,0.3,0.6,0.6c0.1,0.4-0.2,0.7-0.5,0.9
					c-0.1,0.1-0.2,0.2-0.3,0.3c0,0,0.1,0.1,0.1,0.1c2.1-1.6,4.2-3.2,6.3-4.8c-0.3-0.5-0.6-0.9-0.9-1.2C63,172,56.1,161.6,55.5,162z"
					/>
				<path class="st1" d="M58.5,170.6c0.1,0.1,0.3,0.1,0.3,0.2c0.3,0.3,0.3,0.5,0,0.9c-0.1-0.3-0.3-0.4-0.4-0.7
					C58.5,170.9,58.5,170.7,58.5,170.6z"/>
				<path class="st1" d="M59.1,170.2c0.3,0.6,0.6,1.1,0.9,1.6C60.2,171.5,59.8,170.7,59.1,170.2z"/>
				<path class="st1" d="M60.1,172.3c0.5-0.1,0.6-0.1,0.9,0.6C60.6,173.2,60.4,173.1,60.1,172.3z"/>
				<path class="st1" d="M57.2,169.5c0.2,0.2,0.3,0.3,0.5,0.5c0.1,0.1,0.2,0.1,0.3,0c0.1,0,0.1-0.2,0.1-0.2
					C58.1,169.4,57.8,169.2,57.2,169.5z"/>
				<path class="st1" d="M57.7,168.3c0.3,0.4,0.6,0.8,0.9,1.2c0,0,0.1-0.1,0.1-0.1c-0.3-0.4-0.6-0.8-0.8-1.2
					C57.8,168.2,57.8,168.3,57.7,168.3z"/>
				<path class="st1" d="M50.4,166.2c0.1-0.1,0.2-0.2,0.3-0.2c0.3-0.2,0.5-0.5,0.8-0.7c0,0,0.1,0.1,0.1,0.1
					c-0.3,0.2-0.6,0.4-0.9,0.6C50.6,166.1,50.5,166.2,50.4,166.2C50.4,166.3,50.4,166.2,50.4,166.2z"/>
				<path class="st1" d="M55.3,166.5c0,0.1,0,0.2,0,0.3c-0.1,0-0.3,0-0.4,0c-0.2-0.2-0.3-0.4-0.5-0.6C55,166,55.2,166.2,55.3,166.5z
					"/>
				<path class="st1" d="M55,165.3c0.3,0.4,0.6,0.7,0.9,1.1c0,0,0,0,0,0C55.6,166,55.3,165.7,55,165.3C55,165.3,55,165.3,55,165.3z"
					/>
				<path class="st1" d="M50.4,166.2C50.4,166.2,50.4,166.3,50.4,166.2c0.1-0.1,0.2-0.1,0.3-0.2C50.6,166.1,50.5,166.1,50.4,166.2z"
					/>
				<path class="st1" d="M53.4,163.7c-0.4-0.5-0.7-0.9-1-1.2c-0.2-0.2-0.1-0.4,0.2-0.5c0.3-0.1,0.6-0.3,1-0.4c0.2,0.3,0.5,0.7,0.7,1
					c0.1,0.1,0,0.3-0.1,0.4C54,163.2,53.7,163.4,53.4,163.7z"/>
				<path class="st1" d="M51.7,163.3c0.2,0.2,0.4,0.4,0.5,0.7c0.1,0.1,0,0.2,0,0.4c-0.1,0-0.3,0-0.3-0.1c-0.2-0.3-0.5-0.6-0.7-0.9
					c-0.2-0.2-0.1-0.4,0.2-0.4c0.2,0,0.3-0.1,0.4-0.3c0.2-0.3,0.4-0.2,0.6,0c0.2,0.3,0.4,0.5,0.5,0.8c0.1,0.1,0,0.3,0,0.4
					c-0.1-0.1-0.3-0.1-0.3-0.2C52.4,163.4,52.2,163,51.7,163.3z"/>
				<path class="st1" d="M61.8,173.2c0.2,0.3,0.5,0.6,0.6,1c0.1,0.1,0.1,0.4,0,0.4c-0.2,0.2-0.6,0.2-0.6,0.6c-0.1,0-0.3,0-0.3-0.1
					c-0.3-0.3-0.5-0.7-0.7-1.1c-0.2-0.3,0-0.5,0.2-0.6c0.5-0.4,1.1-0.8,1.6-1.2c0.1-0.1,0.4,0,0.5,0.1c0.2,0.3,0.4,0.6,0.6,0.9
					c0,0.1,0,0.3-0.1,0.4c-0.7,0.9-0.7,0.9-1.4,0c-0.1-0.2-0.2-0.3-0.4-0.5C61.9,173.1,61.8,173.2,61.8,173.2z M61.6,174.6
					c0.4-0.6,0-0.8-0.3-1.2C60.9,174,61.5,174.2,61.6,174.6z"/>
			</g>
			<path class="st1" d="M81.3,150.5l-4.6-6c-0.8-1.1-0.6-2.7,0.5-3.5l0.4-0.3c1.1-0.8,2.7-0.6,3.5,0.5l4.6,6
				c0.8,1.1,0.6,2.7-0.5,3.5l-0.4,0.3C83.7,151.8,82.2,151.6,81.3,150.5z"/>
			<path class="st1" d="M80.7,159.7l-4.6-6c-0.8-1.1-0.6-2.7,0.5-3.5l0.4-0.3c1.1-0.8,2.7-0.6,3.5,0.5l4.6,6
				c0.8,1.1,0.6,2.7-0.5,3.5l-0.4,0.3C83.1,161.1,81.5,160.8,80.7,159.7z"/>
		</g>
		<g>
			<path class="st0" d="M230.1,24.7c0.4,0,0.8,0.1,1.2,0.3c0.2,0.1,0.4,0.1,0.6,0.1c0.1,0,0.2,0,0.3,0c0.2,0,0.4,0,0.6,0
				c1.2,0,2,0.7,2,2c-0.2,1.6-1.7,2.2-1.4,4l0.2-0.1c0.8-0.3,1.7-0.7,2.6-0.9c0.4-0.1,0.8-0.1,1.2-0.1c2.5,0,4.9,1.5,6.1,3.8
				c1.9,3.6,0.2,7.4-2.5,9.2c-1.3,0.8-2.5,1.5-4.1,1.5c-0.1,0-0.1,0-0.2,0c-0.6,0-1.3-0.1-1.9-0.2c-0.4-0.1-0.8-0.2-1.2-0.2
				c-1.3,0-2.4,0.6-3.4,1.5c-1.8,1.5-3.1,3.4-4.5,5.3c-1.2,1.7-2.6,3.4-4,5c-1.6,1.8-3.5,3.4-5.4,4.9c-0.1,0.1-0.3,0.2-0.4,0.2
				c-0.1,0-0.3,0-0.4-0.1c-0.6-0.4-1.2-0.8-1.9-1c-0.7-0.3-0.9-0.4-1.5-0.6l0,0c-0.4-0.1-0.8-0.1-1.2-0.1c-0.6,0-1.2,0.1-1.8,0.2
				c-1.5,0.4-2.7,1.2-3.7,2.4c0,0,0,0,0,0c-0.1,0.1-0.3,0.3-0.4,0.5c-5.2,4-52.1,40.5-70.5,54.9c-6.4,5-12.8,10-19.2,15.1
				c-0.8,0.7-1.7,1.3-2.5,2c-0.2,0.1-0.3,0.3-0.5,0.4c-0.9,0.8-1.7,1.8-2,3c-0.3,1-0.1,1.9,0.5,2.6c1.7,2.3,3.6,3.3,5.9,3.3
				c0.9,0,1.9-0.2,3-0.5c2.1-0.6,4.1-2.3,6.4-2.3c0.4,0,0.7,0,1.1,0.1c4.6,1.5,2.7,7.9,0,10.5c-4.9,5.6-12.1,7.9-19.2,9.3
				c-7.5,2-9.2,11.5-13.1,17.3c-4.8,8.5-13.3,17.8-23.2,17.8c-1.4,0-2.7-0.2-4.1-0.5c-15.9-4.2-28.3-26.9-30-31.8
				c-4.9-10.7-0.9-24.3,9.3-30.2c8.6-5.3,19.5-4.4,28.2-9.2c2.8-1.8,5.7-3.6,7.8-6.2c5.6-6.9,10.1-14.9,17.8-19.9
				c3.3-2.1,7.3-4.4,11.2-4.4c1.2,0,2.4,0.2,3.6,0.7c0.7,0.4,2.7,1.2,2.6,3.4c-0.4,5.7-8.9,8.5-10.5,14.8c-1,2.5,0.6,6.1,3.5,6.1
				c0.2,0,0.3,0,0.5,0c0.1,0,0.2,0,0.3-0.1c0.3-0.1,0.5-0.3,0.8-0.5c28-20.4,56-40.6,84.1-60.8c0.8-0.4,1.3-0.8,1.8-1.2
				c0-0.1,0.2-0.2,0.3-0.3c0.1-0.1,0.1-0.1,0.2-0.2c0,0,0,0,0,0c0.8-0.8,0.9-1.8,0.6-3l-0.2-0.5c-0.3-1-0.2-0.7-0.6-1.7
				c-0.3-0.9-0.2-1.9,0.5-2.5c0.5-0.5,1.2-0.9,1.9-1.3l1.9-0.9c-1.2-1.6-4.1-0.2-4.7-2.4c-0.2-0.8,0.1-2,0.7-2.4
				c0.3-0.2,0.5-0.5,0.6-0.9c0.2-1.1,1-1.8,1.9-1.8c0.3,0,0.6,0.1,1,0.2c0.4,0.2,0.8,0.3,1.2,0.3c0.2,0,0.5,0,0.7,0
				c0.6,0,1.2,0.1,1.7,1c0.4,0.7,0.5,1.4-0.1,2.1c-0.6,0.9-1.3,2-0.9,3.1l7.1-3.4c-1.7-1.6-3.8-0.1-4.7-2.6
				c-0.3-0.7,0.2-1.8,0.9-2.3c0.2-0.1,0.3-0.4,0.3-0.6c0.1-1.2,1.1-2,2.1-2c0.3,0,0.7,0.1,1,0.3c0.4,0.2,0.7,0.2,1.1,0.2
				c0.2,0,0.5,0,0.7,0c0.6,0,1.2,0.1,1.6,0.9c1.1,2-1.5,2.8-1.1,5.1l7.2-3.5c-1.7-1.9-3.7,0.2-4.7-2.4c-0.3-0.8-0.1-1.6,0.5-2.2
				c0.5-0.4,0.7-0.9,0.9-1.5c0.2-0.8,1.1-1.4,2.1-1.4c0.4,0,0.8,0.1,1.2,0.4c0.2,0.1,0.3,0.1,0.5,0.1c0.3,0,0.7-0.1,1.1-0.1
				c0.4,0,0.9,0.1,1.4,0.6c0.6,0.8,0.6,1.8,0,2.6c-0.7,0.9-0.9,1.6-0.8,2.8l7.2-3.5c-1.4-1.8-3.8,0.1-4.6-2.5
				c-0.5-1.6,1.1-1.9,1.3-2.9C228.1,25.4,229.1,24.7,230.1,24.7 M107,121.8c0,0.2-0.2,0.4-0.3,0.5c-1,0.7-1.9,1.4-2.9,2.2
				c-0.6,0.5-1.2,1.1-1.8,1.6c0.6-0.5,1.2-1.1,1.8-1.6c1-0.7,1.9-1.5,2.9-2.2C106.9,122.2,107,122,107,121.8
				C107,121.8,107,121.8,107,121.8C107,121.8,107,121.8,107,121.8 M100.5,127c0.5-0.3,1-0.6,1.4-1C101.5,126.4,101,126.7,100.5,127
				 M98.1,129.5c0,0.2,0.1,0.5,0.2,0.8c0.1,0.3,0.7,1.8,1.1,2.3c1,1.4,1.9,2.7,3,4c0.3,0.3,0.6,0.7,0.9,1c-0.3-0.3-0.6-0.6-0.9-1
				c-1-1.3-2-2.6-3-4c-0.4-0.5-1-2-1.1-2.3C98.1,130,98.1,129.8,98.1,129.5c0-0.5,0.3-0.9,0.7-1.3c0.4-0.3,0.7-0.6,1.1-0.8
				c-0.4,0.3-0.8,0.6-1.1,0.8C98.3,128.6,98.1,129,98.1,129.5 M107.6,138.4L107.6,138.4c0,0-0.1,0-0.1-0.1
				C107.5,138.4,107.6,138.4,107.6,138.4L107.6,138.4 M230.1,24.1L230.1,24.1c-1.5,0-2.6,1-2.8,2.5c0,0.2-0.2,0.4-0.4,0.6
				c-0.5,0.5-1.2,1.2-0.8,2.6c0.6,1.9,2,2,2.9,2c0.5,0,0.8,0.1,1.1,0.2l-5.4,2.6c0.1-0.5,0.3-1,0.7-1.5c0.8-1,0.8-2.4,0-3.4
				c-0.6-0.6-1.1-0.9-1.8-0.9c-0.2,0-0.4,0-0.6,0.1c-0.1,0-0.3,0-0.4,0c-0.1,0-0.1,0-0.2,0c-0.4-0.3-0.9-0.5-1.5-0.5
				c-1.2,0-2.4,0.8-2.7,1.9c-0.1,0.5-0.3,0.8-0.7,1.2c-0.8,0.7-1.1,1.8-0.7,2.8c0.7,1.8,1.9,1.8,2.9,1.8c0.5,0,0.9,0,1.2,0.2
				l-5.4,2.6c0.1-0.4,0.3-0.8,0.6-1.3c0.5-0.8,1.1-1.8,0.4-3.2c-0.6-1.1-1.4-1.2-2.2-1.2c-0.1,0-0.2,0-0.3,0c-0.1,0-0.2,0-0.3,0
				c-0.4,0-0.6,0-0.8-0.1c-0.4-0.2-0.9-0.3-1.3-0.3c-1.4,0-2.6,1.1-2.8,2.5c0,0-0.1,0.1-0.1,0.1c-1,0.7-1.5,2.1-1.1,3
				c0.7,1.7,1.9,1.9,2.9,2.1c0.4,0.1,0.8,0.1,1.1,0.2l-5.3,2.6c0.1-0.5,0.4-1.1,0.9-1.7c0.6-0.8,0.7-1.8,0.1-2.7
				c-0.6-1.1-1.4-1.3-2.2-1.3c-0.1,0-0.2,0-0.4,0c-0.1,0-0.2,0-0.3,0c-0.3,0-0.6,0-0.9-0.2c-0.5-0.2-0.9-0.3-1.3-0.3
				c-1.3,0-2.3,0.9-2.5,2.3c0,0.3-0.1,0.4-0.3,0.5c-0.8,0.6-1.3,2.1-0.9,3.1c0.5,1.6,1.8,1.7,2.9,1.9c0.4,0.1,0.8,0.1,1.2,0.2
				l-1,0.5l0,0l0,0l-0.3,0.2c-0.6,0.4-1.2,0.7-1.8,1.3c-0.8,0.8-1,1.9-0.6,3.2c0.2,0.7,0.2,0.7,0.3,1l0.2,0.7l0.2,0.5
				c0.2,0.8,0.2,1.4,0,1.9l0,0L199,55c0,0-0.1,0.1-0.1,0.1c-0.1,0.1-0.3,0.2-0.4,0.4c-0.4,0.4-0.9,0.7-1.6,1.1l0,0l0,0
				c-25.3,18.1-52.8,38-84.1,60.8l-0.1,0.1c-0.2,0.1-0.4,0.3-0.5,0.3c-0.1,0-0.1,0-0.1,0c-0.2,0-0.3,0-0.5,0c-1,0-1.8-0.5-2.4-1.4
				c-0.8-1.1-0.9-2.7-0.5-3.8l0,0l0,0c0.7-2.9,3.1-5.1,5.3-7.2c2.5-2.4,5-4.6,5.2-7.8c0.1-2.3-1.8-3.3-2.6-3.8
				c-0.1-0.1-0.2-0.1-0.3-0.2l0,0l0,0c-1.2-0.5-2.5-0.8-3.9-0.8c-4,0-7.9,2.2-11.6,4.5c-5.7,3.7-9.7,9.1-13.6,14.3
				c-1.4,1.9-2.9,3.9-4.4,5.7c-1.8,2.3-4.4,3.9-6.8,5.5l-0.9,0.6c-4.1,2.3-8.8,3.3-13.4,4.3c-5,1.1-10.3,2.2-14.8,5
				c-10.4,6-14.7,19.9-9.6,31c2,5.7,14.6,27.9,30.4,32.1c1.4,0.4,2.9,0.6,4.3,0.6c4.7,0,9.4-2,13.9-5.9c3.6-3.1,7.1-7.4,9.8-12.2
				c1.2-1.8,2.2-3.9,3.2-5.9c2.3-4.8,4.6-9.7,9.6-11.1c6.7-1.4,14.3-3.7,19.4-9.5c1.9-1.8,3.4-5.4,2.8-8.2c-0.4-1.6-1.4-2.8-3-3.3
				c-0.5-0.1-0.9-0.2-1.3-0.2c-1.5,0-2.9,0.7-4.2,1.3c-0.8,0.4-1.6,0.8-2.4,1c-1,0.3-2,0.5-2.8,0.5c-2.1,0-3.8-1-5.4-3.1
				c-0.5-0.7-0.6-1.3-0.4-2.1c0.3-1,0.9-1.9,1.8-2.7c0.2-0.1,0.3-0.3,0.5-0.4l2.5-2l3.9-3.1c5-3.9,10.1-8,15.3-12
				c17.8-13.9,65.3-50.9,70.4-54.9l0.1,0l0,0c0.1-0.2,0.3-0.3,0.4-0.4l0.4-0.4l-0.1-0.1c0.9-0.9,1.9-1.5,3-1.8
				c0.6-0.2,1.1-0.2,1.6-0.2c0.4,0,0.7,0,1.1,0.1c0.4,0.1,0.6,0.2,0.9,0.4c0.1,0.1,0.3,0.1,0.5,0.2c0.5,0.2,1,0.5,1.6,0.8l0.2,0.1
				c0.2,0.1,0.5,0.2,0.7,0.2c0.3,0,0.6-0.1,0.8-0.3c1.9-1.5,3.9-3.1,5.5-5c1.5-1.7,2.8-3.4,4-5l0.4-0.5c1.2-1.7,2.4-3.3,4-4.7
				c1.1-0.9,2-1.4,3-1.4c0.3,0,0.7,0,1,0.1c0.7,0.2,1.4,0.2,2,0.3c0.1,0,0.1,0,0.2,0c1.8,0,3.2-0.8,4.4-1.6c2.9-1.9,4.8-6,2.7-10
				c-1.3-2.5-3.9-4.1-6.7-4.1c-0.4,0-0.9,0-1.3,0.1c-0.7,0.1-1.4,0.4-2,0.6c0.1-0.4,0.3-0.7,0.5-1c0.3-0.5,0.7-1.1,0.8-1.9l0,0l0,0
				c0-1.6-1-2.6-2.6-2.6c-0.2,0-0.4,0-0.7,0.1c-0.1,0-0.1,0-0.2,0c-0.2,0-0.3,0-0.3,0C231.1,24.3,230.6,24.1,230.1,24.1L230.1,24.1
				L230.1,24.1z"/>
		</g>
	</g>
	<path class="st1" d="M183.7,95.9c-1.5-0.8-5.2-4.8-6.3-6c-2.3-2.5-4.5-5-6.9-7.3c-1.5-1.4-1.8-3.3-2.4-5.1
		c-0.4-1.3,1.3-2.7,2.9-2.6c1.3,0.1,2.5,0.5,3.7,0.9c1.4,0.5,2.6,1.3,4,1.9c0.1-0.1,0.2-0.2,0.2-0.3c-0.8-1.2-1.6-2.3-2.5-3.5
		c-0.3-0.4-0.6-0.8-0.9-1.2c-1.4-2.1-1.5-3.2-0.5-4.3c1.1-1,3.5-1.1,5,0.1c1.6,1.4,2.9,2.9,4.3,4.5c1,1.2,1.6,2,2.6,3.2
		c0,0,2.4-1.9,2.8-2.2c0.6-0.4,5.2,5.4,3.3,8.4c-1.2,1.8-0.8,6.6-1.7,8.6c-0.5,1.1-0.4,2.6-1.2,3.3c-1.2,1.1-2.3,1.6-3.3,1.8
		C185.2,96.5,183.7,95.9,183.7,95.9z"/>
	<path class="st1" d="M28.5,108C28.6,108,28.6,108,28.5,108C28.5,108,28.5,108,28.5,108z"/>
	<g>
		<path class="st0" d="M71.7,118.9c-1.3,0-2.5,0.6-3.5,1.8c-0.3,0.4-0.6,0.8-0.9,1.3c-0.2,0.4-0.5,0.8-0.7,1.1
			c-0.3,0.3-1.1,1.2-1.8,1.3c-2.5,0.5-5,0.9-8,1.3c-0.1,0-0.3,0-0.5,0c-0.3,0-0.7,0-1-0.1c-0.4,0-0.8-0.1-1.2-0.1
			c-0.6,0-1.4,0.1-2.1,0.5c-2.2,1.4-3.5,3-4.1,4.9c-4.9,2.4-11.6,4.4-16.5,4.9l-0.6,0.1l-0.3,0.5c-1.5,2.6-2.3,5.3-2.5,8L28,146
			l1.5-0.5c4.7-1.5,10.9-4.3,19.1-8.4c0.2,0.5,0.5,0.9,0.7,1.2c0.1,0.2,0.3,0.5,0.3,0.6c0.5,1.4,1.3,2.6,2.1,3.8
			c0.3,0.5,0.7,1,1,1.5c0.6,1,1.3,2.1,1.9,3.1c1.5,2.5,3.1,5,4.4,7.6c1.1,2.1,2.8,3.2,4.4,4.2c0.4,0.3,0.8,0.5,1.1,0.8
			c0.5,0.3,1,0.5,1.6,0.5c1.9,0,3.8-1.7,4.2-3.7c0.4-1.8,0.3-3.8,0.2-5c-0.1-0.7-0.2-1.4-0.3-2.1c0.4,0.5,0.7,0.9,1.1,1.4
			c0.2,0.2,0.3,0.4,0.5,0.6c0.2,0.3,0.4,0.6,0.7,0.9c1.6,2,2.9,2.9,4.4,2.9c0.6,0,1.3-0.2,1.9-0.6c1-0.6,1.9-1.7,2.3-3.2
			c0.4-1.4,0.3-2.9-0.3-4.2c-1.1-2.5-2.6-4.8-3.9-6.8c-0.8-1.3-1.8-2.5-2.6-3.8c-0.8-1.1-1.7-2.3-2.4-3.5c-0.5-0.8-0.7-1.1-0.7-1.3
			c0.1-0.1,0.6-0.4,1.3-0.8c2.1-1.1,3.5-2.7,4.1-4.7c0.5-1.8,0.2-3.8-0.9-5.5C74.6,119.7,73.2,118.9,71.7,118.9L71.7,118.9z"/>
		<path class="st1" d="M79.8,147.9c-1.1-2.3-2.4-4.5-3.8-6.7c-1.6-2.5-3.4-4.8-5.1-7.2c-1.4-2.1-1.2-2.5,1-3.6
			c3.6-1.8,4.7-5.4,2.7-8.6c-1.5-2.3-3.8-2.6-5.6-0.5c-0.6,0.7-1,1.7-1.6,2.4c-0.7,0.7-1.5,1.4-2.4,1.6c-2.7,0.6-5.4,1-8.1,1.3
			c-1.4,0.2-3.2-0.5-4.3,0.3c-2.4,1.6-3.4,3.2-3.8,4.7c-5,2.5-12.1,4.7-17.3,5.2c-2.1,0.2-3.9,0.2-5.2-0.2
			c1.6-5.8,3.9-16.4,6.5-22.2c-1.3-3.8-4.2-8.1-4.7-8.2c-2.6,5.9-8.7,23.3-10.1,30.2c-0.6,2.9-0.7,5.3,0,6.6c1,2,2.2,4.2,11.1,1.3
			c4.4-1.5,10.8-4.2,19.9-8.8c0.5,1.4,1.3,2.4,1.5,2.9c0.7,1.9,2,3.5,3,5.2c2.1,3.6,4.4,7,6.3,10.7c1.2,2.3,3.3,3.3,5.2,4.6
			c1.3,0.9,3.7-0.6,4.1-2.6c0.3-1.5,0.3-3.2,0.2-4.7c-0.2-1.8-0.6-3.6-0.9-5.4c0.1-0.1,0.3-0.1,0.4-0.2c1.1,1.4,2.2,2.8,3.3,4.1
			c0.4,0.5,0.7,1,1.1,1.5c2,2.4,3.3,3,4.9,2C79.9,152.9,80.8,150.1,79.8,147.9z"/>
	</g>
	<g>
		<g>
			<path class="st1" d="M145,204.3c0,0.6-0.1,1-0.3,1.4c-0.2,0.4-0.5,0.6-1,0.8l1.1,1.1H144l-0.9-1l-0.2,0c-0.7,0-1.2-0.2-1.5-0.6
				c-0.4-0.4-0.5-1-0.5-1.7c0-0.7,0.2-1.3,0.5-1.7c0.4-0.4,0.9-0.6,1.5-0.6c0.6,0,1.1,0.2,1.5,0.6C144.8,203.1,145,203.6,145,204.3z
				 M141.5,204.3c0,0.6,0.1,1,0.4,1.4c0.3,0.3,0.6,0.5,1.1,0.5c0.5,0,0.9-0.2,1.1-0.5c0.2-0.3,0.4-0.8,0.4-1.4c0-0.6-0.1-1-0.4-1.3
				c-0.2-0.3-0.6-0.5-1.1-0.5c-0.5,0-0.9,0.2-1.1,0.5C141.6,203.3,141.5,203.8,141.5,204.3z"/>
			<path class="st1" d="M150.1,202.2v2.8c0,0.5-0.2,0.9-0.5,1.2c-0.3,0.3-0.7,0.4-1.3,0.4c-0.5,0-0.9-0.1-1.2-0.4
				c-0.3-0.3-0.4-0.7-0.4-1.2v-2.8h0.5v2.9c0,0.4,0.1,0.6,0.3,0.8c0.2,0.2,0.5,0.3,0.9,0.3c0.4,0,0.7-0.1,0.9-0.3
				c0.2-0.2,0.3-0.5,0.3-0.8v-2.9H150.1z"/>
			<path class="st1" d="M154.8,206.5l-0.5-1.4h-1.8l-0.5,1.4h-0.5l1.7-4.4h0.4l1.7,4.4H154.8z M154.1,204.7l-0.5-1.4
				c-0.1-0.2-0.1-0.4-0.2-0.6c0,0.2-0.1,0.4-0.2,0.6l-0.5,1.4H154.1z"/>
			<path class="st1" d="M157.2,204.7v1.8h-0.5v-4.4h1.2c0.5,0,0.9,0.1,1.2,0.3c0.3,0.2,0.4,0.5,0.4,0.9c0,0.6-0.3,1-0.9,1.2l1.2,2
				h-0.6l-1.1-1.8H157.2z M157.2,204.3h0.7c0.4,0,0.6-0.1,0.8-0.2c0.2-0.1,0.3-0.4,0.3-0.6c0-0.3-0.1-0.5-0.3-0.6
				c-0.2-0.1-0.4-0.2-0.8-0.2h-0.7V204.3z"/>
			<path class="st1" d="M164.4,206.5h-0.6l-1.6-2.1l-0.5,0.4v1.7h-0.5v-4.4h0.5v2.2l2-2.2h0.6l-1.8,1.9L164.4,206.5z"/>
			<path class="st1" d="M169.1,202.2v2.8c0,0.5-0.2,0.9-0.5,1.2c-0.3,0.3-0.7,0.4-1.3,0.4c-0.5,0-0.9-0.1-1.2-0.4
				c-0.3-0.3-0.4-0.7-0.4-1.2v-2.8h0.5v2.9c0,0.4,0.1,0.6,0.3,0.8c0.2,0.2,0.5,0.3,0.9,0.3c0.4,0,0.7-0.1,0.9-0.3
				c0.2-0.2,0.3-0.5,0.3-0.8v-2.9H169.1z"/>
			<path class="st1" d="M173.5,205.4c0,0.4-0.1,0.7-0.4,0.9c-0.3,0.2-0.7,0.3-1.1,0.3c-0.5,0-0.9-0.1-1.2-0.2v-0.5
				c0.2,0.1,0.4,0.1,0.6,0.2c0.2,0,0.4,0.1,0.6,0.1c0.3,0,0.6-0.1,0.8-0.2c0.2-0.1,0.3-0.3,0.3-0.5c0-0.2,0-0.3-0.1-0.4
				c-0.1-0.1-0.2-0.2-0.3-0.3c-0.1-0.1-0.4-0.2-0.7-0.3c-0.4-0.1-0.7-0.3-0.9-0.5c-0.2-0.2-0.3-0.5-0.3-0.8c0-0.3,0.1-0.6,0.4-0.8
				c0.3-0.2,0.6-0.3,1-0.3c0.4,0,0.8,0.1,1.2,0.2l-0.2,0.4c-0.4-0.2-0.7-0.2-1.1-0.2c-0.3,0-0.5,0.1-0.6,0.2
				c-0.2,0.1-0.2,0.3-0.2,0.5c0,0.2,0,0.3,0.1,0.4c0.1,0.1,0.2,0.2,0.3,0.3c0.1,0.1,0.3,0.2,0.6,0.3c0.5,0.2,0.8,0.3,1,0.5
				C173.4,204.8,173.5,205.1,173.5,205.4z"/>
		</g>
		<polygon class="st3" points="158.8,189.9 157.2,190.8 158.8,191.8 		"/>
		<polygon class="st4" points="155.6,189.9 155.6,191.8 157.2,190.8 		"/>
		<polygon class="st1" points="158.8,191.8 157.2,190.8 155.6,191.8 157.2,192.7 		"/>
		<polygon class="st3" points="153.9,192.9 155.5,193.8 155.5,191.9 		"/>
		<polygon class="st4" points="155.5,195.7 157.1,194.7 155.5,193.8 		"/>
		<polygon class="st1" points="155.5,191.9 155.5,193.8 157.1,194.7 157.1,192.9 		"/>
		<polygon class="st3" points="158.9,195.7 158.9,193.8 157.3,194.7 		"/>
		<polygon class="st4" points="160.6,192.9 158.9,191.9 158.9,193.8 		"/>
		<polygon class="st1" points="157.3,194.7 158.9,193.8 158.9,191.9 157.3,192.9 		"/>
		<path class="st3" d="M160.7,188h-7c-1,0-1.7,0.8-1.7,1.7v7c0,1,0.8,1.7,1.7,1.7h4.8l-1.3-3.2l-0.9,2h-2.6c-0.3,0-0.6-0.3-0.6-0.6
			v-7c0-0.3,0.3-0.6,0.6-0.6h7c0.3,0,0.6,0.3,0.6,0.6v7c0,0.3-0.3,0.6-0.6,0.6h-1.5l0.5,1.2h1c1,0,1.7-0.8,1.7-1.7v-7
			C162.5,188.8,161.7,188,160.7,188z"/>
	</g>
</g>
</svg>
