<?xml version="1.0" encoding="utf-8"?>
<!-- Generator: Adobe Illustrator 27.6.1, SVG Export Plug-In . SVG Version: 6.00 Build 0)  -->
<svg version="1.1" id="Layer_1" xmlns="http://www.w3.org/2000/svg" xmlns:xlink="http://www.w3.org/1999/xlink" x="0px" y="0px"
	 viewBox="0 0 256 256" style="enable-background:new 0 0 256 256;" xml:space="preserve">
<style type="text/css">
	.st0{fill:#FFFFFF;}
	.st1{fill:#010101;}
	.st2{fill:#ED1C24;}
	.st3{fill:#0081C3;}
	.st4{fill:#FB5058;}
	.st5{fill:#EA5B24;}
	.st6{fill:#89483E;}
	.st7{fill:#C03A26;}
	.st8{fill:#F89420;}
	.st9{fill:#F47D20;}
	.st10{fill:#F36D21;}
	.st11{fill:#F78D1E;}
	.st12{fill:#DF5126;}
	.st13{fill:#ED6A22;}
	.st14{fill:#DCBC83;}
	.st15{fill:#BACCD5;}
	.st16{fill:#5F3722;}
	.st17{fill:#0081C3;stroke:#FFFFFF;stroke-width:0.2754;stroke-miterlimit:10;}
	.st18{fill:#FBAB18;}
	.st19{fill:#2F1F11;}
	.st20{clip-path:url(#SVGID_00000136391902574807195210000004100003604203356038_);}
	.st21{clip-path:url(#SVGID_00000136391902574807195210000004100003604203356038_);fill:#010101;}
	.st22{clip-path:url(#SVGID_00000136391902574807195210000004100003604203356038_);fill:#FFFFFF;}
	.st23{clip-path:url(#SVGID_00000098927380336760700730000000835043608735156353_);fill:#FB5058;}
	.st24{clip-path:url(#SVGID_00000098927380336760700730000000835043608735156353_);fill:#FFFFFF;}
	.st25{clip-path:url(#SVGID_00000098927380336760700730000000835043608735156353_);fill:#010101;}
	.st26{fill:#8C786D;}
	.st27{fill:#8C786D;stroke:#FFFFFF;stroke-width:0.826;stroke-miterlimit:10;}
	.st28{fill:#0081C3;stroke:#091313;stroke-width:0.826;stroke-miterlimit:10;}
	.st29{fill:none;stroke:#091313;stroke-width:0.826;stroke-miterlimit:10;}
</style>
<g>
	<path class="st1" d="M176.2,133.6c-1.3-3.8-3.1-2.6-6.5-0.7c-3.3,2-8.8,3.4-14,0c-5.2-3.3-10,2.7-10,2.7c-0.3,0.5-0.7,1.4-1.1,2.9
		c-0.4,1.8-0.1,3.1,0.7,3.5c0.9,0.4,1.4,2.1,1.4,4.2c6-1.2,12.2-1.4,18.4-2.2c0.2-1.3,1.4-2.3,4.2-1.7
		C173.2,143.2,177.4,137.4,176.2,133.6z"/>
	<path class="st1" d="M102,97.7c0.2,0.4-11.2,2.3-10.2,2.5c5,4.8,30.5,28.1,56.5,39.8c0.1-2.2,0.2-4.4,1-6.3
		C129.4,124.3,110.2,106.1,102,97.7z"/>
	<path class="st1" d="M12.9,116.4c-1.9,2.3-3.1,4.4-3.1,5.9c0,0.2,2,4,2.3,4.5c2.5,1.6,6.5,0.8,8.7-1.4c-0.1-0.1-1.7-4.6-1.7-4.6
		c4.2-4.4,12.5-13.3,17.6-17.2c0.7-4,0.1-9.3-0.3-9.6C31.3,98.1,17.5,110.8,12.9,116.4z"/>
	<g>
		<path class="st0" d="M35.5,230.6c-1.4,0-2.8-0.6-4-1.8c-4.7-4.7-5.9-17.8-4.1-45.4c0.5-7.9,1.2-16,2.2-24.8L33,133
			c0.8-5,1.5-9.5,2.2-13.8l3.8-20C46.4,63.4,54.5,41.9,54.8,41l0.2-0.4c2.6-5.7,6.8-8.6,12.4-8.6c5.1,0,10.3,2.4,13.7,4.1
			c0.6,0.3,1.2,0.6,1.7,0.8c7.1,3.2,12.7,34.5,16.7,93c0.1,1.5,0.2,2.3,0.2,2.5c7.4,61.5,6.1,77.2,1.4,83.6
			c-1.4,1.9-3.1,2.9-5.1,2.9c-4.1,0-8.3-4.1-13.2-8.9c-5.4-5.3-11.5-11.2-16.7-11.2c-0.5,0-1,0.1-1.4,0.2c-3,0.7-8.6,9-12.7,15.1
			c-5.9,8.7-10.9,16.1-15.8,16.7C36,230.6,35.7,230.6,35.5,230.6z"/>
		<path class="st1" d="M67.4,33.4c5.7,0,11.7,3.3,14.9,4.7c10.9,4.9,15.8,92.4,16.1,94.5c7.3,60.8,6.1,76.7,1.7,82.6
			c-1.2,1.6-2.5,2.3-4,2.3c-3.5,0-7.7-4.1-12.3-8.6c-5.6-5.5-11.8-11.6-17.7-11.6c-0.6,0-1.2,0.1-1.7,0.2
			c-3.5,0.8-8.8,8.7-13.5,15.7c-5.5,8.2-10.5,15.5-14.8,16c-0.2,0-0.3,0-0.5,0c-1,0-2.1-0.4-3-1.4c-4.4-4.3-5.5-17.5-3.7-44.3
			c0.6-8.6,1.3-16.8,2.2-24.8l3.3-25.6c0.7-4.7,1.4-9.3,2.2-13.7l3.8-20c7.4-35.2,15.3-56.5,15.8-57.9l0.2-0.4
			C59,35.2,63.1,33.4,67.4,33.4 M67.4,30.6c-6.1,0-10.8,3.2-13.6,9.4l0,0.1l0,0.1l-0.2,0.4l0,0l0,0c-0.3,0.9-8.4,22.5-15.9,58.3l0,0
			l0,0l-3.8,20c-0.7,4.3-1.5,8.8-2.2,13.8l0,0l0,0l-3.3,25.6l0,0l0,0c-1,8.8-1.7,16.9-2.2,24.9c-1.9,28.4-0.6,41.4,4.5,46.4
			c1.5,1.4,3.1,2.2,5,2.2c0.3,0,0.5,0,0.8-0.1c5.5-0.7,10.5-8,16.7-17.2l0,0l0-0.1c3.3-4.9,9.4-13.9,11.9-14.5
			c0.3-0.1,0.7-0.1,1.1-0.1c4.7,0,10.8,6,15.7,10.8l0,0c5.1,5,9.5,9.3,14.2,9.3c1.7,0,4.1-0.6,6.2-3.4c2.9-3.9,4.2-10.6,4.1-22.4
			c-0.1-13.2-1.7-32.9-5.3-62.2c0-0.2-0.1-1.2-0.2-2.5c-0.5-7.3-2-29.4-4.6-50c-1.5-11.7-3.1-21.2-4.8-28.2
			c-2.4-9.6-4.8-14.6-8.1-16c-0.5-0.2-1.1-0.5-1.7-0.8C78.2,33.1,72.8,30.6,67.4,30.6L67.4,30.6z"/>
	</g>
	<path class="st1" d="M92.4,92.5c-4.9-29.6-3.8-51.6-10.1-54.4c-5.6-2.5-19.6-10.8-26,3l-0.2,0.4c-0.5,1.4-7.6,20.6-14.6,52.5
		C53.8,93.1,74.4,91.8,92.4,92.5z"/>
	<path class="st16" d="M117.8,123c-0.1-0.2-0.1-0.5-0.1-0.8c-0.4,0.2-0.6,0-0.9-0.3c-0.4-0.3-0.6-0.7-0.7-1.1
		c-0.1-0.3-0.4-0.6-0.6-0.9c-0.5-0.5-0.2-1-0.1-1.4c0-0.3,0.3-0.6,0.6-0.8c0.2-0.2,0.4-0.2,0.6,0c0.1,0.1,0.2,0.3,0.4,0.5
		c0.1-0.2,0.1-0.2,0.1-0.3c-0.1-0.5-0.1-1.1-0.3-1.6c-0.1-0.3,0-0.4,0.3-0.5c0.2,0,0.3-0.1,0.5-0.2c0.4-0.4,0.4-0.4-0.1-0.7
		c-0.1-0.1-0.3-0.2-0.4-0.3c-0.1-0.2-0.1-0.4-0.2-0.5c0.2,0,0.4,0,0.6,0.1c0.3,0.1,0.5,0.3,0.7,0c0.2-0.3,0.1-0.5-0.2-0.7
		c-0.4-0.3-0.7-0.7-1-1.1c-0.2-0.3-0.1-0.5,0.3-0.6c0.4-0.2,0.5-0.3,0.1-0.6c-0.4-0.4-0.9-0.7-1.2-1.1c-0.4-0.6-1.2-0.9-1.2-1.7
		c0-0.1-0.1-0.2-0.2-0.3c-0.3-0.3-0.6-0.7-0.8-1.1c-0.1-0.2-0.1-0.5,0-0.6c0.2-0.3,0.1-0.4-0.2-0.6c-0.2-0.1-0.5-0.2-0.7-0.3
		c-0.3-0.2-0.4-0.4-0.3-0.7c0.1-0.3-0.1-0.5-0.2-0.8c-0.3-0.8-1-1.4-1.4-2.1c-0.2-0.4-0.1-0.9-0.2-1.3c0-0.2-0.2-0.4-0.2-0.7
		c0-0.1,0-0.3,0-0.4c0.2,0.1,0.4,0.1,0.5,0.2c0.1,0.2,0.2,0.4,0.3,0.6c0.1,0.1,0.1,0.3,0.2,0.4c0.2,0.2,0.5,0.4,0.7,0.2
		c0.3-0.2,0-0.4-0.2-0.6c-0.2-0.3-0.5-0.5-0.7-0.8c-0.3-0.5-0.1-0.8,0.5-0.8c0.2,0,0.4,0,0.6-0.1c0.1,0,0.3-0.2,0.3-0.2
		c0-0.1-0.1-0.3-0.2-0.4c-0.1-0.1-0.3-0.1-0.4-0.2c-0.5-0.1-0.7-0.4-0.9-0.9c-0.2-0.5-0.2-1.2-0.9-1.4c-0.1,0-0.2-0.1-0.2-0.2
		c-0.1-0.2-0.1-0.4-0.1-0.5c0.1-0.1,0.4-0.2,0.5-0.1c0.4,0.2,0.7,0.5,1.1,0.7c0.1,0.1,0.1,0.2,0.2,0.3c0.2-0.4,0-0.7-0.1-0.9
		c-0.1-0.2-0.1-0.4-0.1-0.6c0-0.2,0-0.5-0.1-0.6c-0.6-0.5-0.9-1.3-1.7-1.6c-0.1,0-0.3-0.1-0.4-0.1c-0.6-0.6-1.5-1.4-2.4-2.3
		c0,0-0.1-0.1-0.1-0.1c0,0,0,0,0,0c-0.2-0.2-0.4-0.4-0.6-0.6c0-0.1,0-0.1,0-0.2c-0.1-0.1-0.2-0.3-0.3-0.4c-0.1,0-0.2-0.1-0.3,0
		c-0.7-0.7-1.4-1.5-2-2.3c-2.8-3.4-4.5-17.5-4.1-20c0.4-2.5-2.3-13-4.1-18.9c-1.8-5.9-9.4-13.4-9.4-13.4s0,0,0,0
		c-0.2-0.3-0.5-0.5-0.8-0.6c-0.1,0-0.1-0.1-0.1-0.1c-0.7-1.1-1.8-1.7-2.8-2.4c-0.8-0.6-1.7-1.2-2.6-1.6c-1.4-0.6-2.8-1.1-4.2-1.5
		c-1-0.3-2-0.4-3-0.6c-0.5-0.1-1,0-1.5,0.1c-0.8,0.2-1.6,0.3-2.2,0.9c-0.4,0.4-1.6,0.3-2.2-0.1c-0.4-0.3-0.8-0.3-1.3-0.3
		c-0.4,0.1-0.8,0-1.2-0.1c-0.2,0-0.3,0-0.5,0c-0.5,0-1,0.1-1.5,0.1c-0.6,0-1.1,0-1.3,0.6c0,0.1-0.1,0.1-0.2,0.1
		c-0.5,0.2-1,0.3-1.5,0.5c0,0-4.9,2.3-8.5,8.4c-3.6,6.1-7.3,8.1-10.8,18.6c-2.4,7.1-3.8,15.7-5.2,22.9c0.1,0.1,0.3,0.2,0.4,0.3
		c0,0-0.1,0.2-0.2,0.3C35.1,79.1,35,79,35,79c-0.6,3.2-1.3,6.1-2,8.5c-2.5,7.8-9.1,16.2-10.5,29c0,0.3-0.2,0.4,0.1,0.5
		c0.3,0.1,0.4,0.3,0.2,0.5c-0.2,0.3-0.4,0.6-0.7,0.9c-0.2,0.2-0.3,0.3-0.2,0.5c0.2,0.3,0.3,0.1,0.5,0c0.1-0.1,0.3,0,0.4-0.1
		c0,0.1,0,0.3-0.1,0.4c-0.1,0.1-0.2,0.2-0.3,0.2c-0.4,0.2-0.4,0.2-0.1,0.5c0.1,0.1,0.2,0.1,0.3,0.2c0.2,0,0.3,0.1,0.2,0.3
		c-0.1,0.4-0.1,0.8-0.2,1.2c0,0,0,0.1,0.1,0.2c0.1-0.1,0.2-0.2,0.3-0.3c0.1-0.2,0.3-0.2,0.5,0c0.2,0.2,0.4,0.4,0.4,0.6
		c0,0.3,0.2,0.7-0.1,1.1c-0.2,0.2-0.4,0.4-0.5,0.7c-0.1,0.4-0.2,0.6-0.5,0.8c-0.2,0.2-0.4,0.4-0.7,0.2c0,0.2,0,0.4-0.1,0.6
		c-0.4,0.6-0.2,1.3-0.3,2c0,0,0,0,0.1,0.1c0.3-0.1,0.5-0.3,0.5-0.6c0-0.2,0-0.3,0.1-0.5c0.1-0.1,0.2-0.1,0.3-0.2
		c0,0.1,0.2,0.2,0.1,0.3c0,0.3-0.1,0.6-0.2,0.8c0,0.1-0.1,0.2-0.1,0.3c-0.2,0.3-0.5,0.6-0.7,1c-0.1,0.1,0,0.3,0,0.4
		c0,0.2,0.1,0.5,0.1,0.7c0,0.1,0.2,0.3,0.2,0.4c0.1-0.1,0.2-0.2,0.3-0.2c0,0,0-0.1,0.1-0.1c0.2-0.1,0.4-0.3,0.5-0.4
		c0.1,0.2,0.2,0.3,0.2,0.5c0,0.1,0.1,0.1,0.1,0.2c0.1,0,0.2-0.1,0.2-0.1c0.1-0.1,0.2-0.3,0.3-0.4c0.2-0.2,0.4-0.3,0.6-0.4
		c0.1,0.2,0.3,0.4,0.4,0.6c0.1,0.2,0,0.3-0.2,0.2c-0.1,0-0.2,0-0.3,0c0,0,0,0.1,0,0.1c0.2,0.2,0.5,0.3,0.3,0.6c0,0.1,0,0.2,0,0.3
		c0.1,0,0.2,0,0.3,0c0.1,0,0.3,0,0.5,0c0,0.2,0,0.3,0,0.4c-0.1,0.1-0.2,0.2-0.3,0.2c-0.1,0-0.2,0-0.3,0.1c0.1,0.1,0.1,0.2,0.2,0.3
		c0.2,0.2,0.5,0.3,0.4,0.6c-0.3,0.8,0.1,1.5,0.3,2.2c0.1,0.5,0.3,0.9,0.4,1.4c0.1,0.3,0.1,0.7,0.3,0.9c0.4,0.3,0.3,0.7,0.3,1.1
		c0,0.2,0,0.4,0,0.6c0.1,0.3,0.2,0.5,0.3,0.8c0.1,0.2,0.3,0.3,0.5,0.1c0.1-0.1,0.1-0.2,0.2-0.3c0-0.1,0.2-0.1,0.2-0.1
		c0.2,0.1,0.4,0.2,0.4,0.4c0.1,0.3,0.2,0.7,0.1,1.1c-0.1,0.6,0.2,1.2,0.3,1.8c0.1,0.3,0.2,0.6,0.2,0.9c0,0.1,0,0.3,0.1,0.4
		c0.1,0,0.1,0,0.2,0c0.2-0.3,0.3-0.5,0.5-0.8c0-0.1,0.2-0.2,0.2-0.2c0,0.6,0,1.1,0,1.7c0.1-0.1,0.2-0.1,0.4-0.2
		c0.3-0.1,0.5,0,0.6,0.3c0,0.4,0.1,0.7,0.7,0.8c0.2,0,0.4,0.4,0.4,0.6c0,0.7,0.7,1.3,1.4,1.2c0.1,0.1,0.1,0.3,0.2,0.4
		c0.2,0.4,0.5,0.6,1.1,0.5c0.6-0.1,0.8,0.1,1,0.6c0,0.1,0.4,0.2,0.5,0.1c0.8-0.6,1.5-0.2,2.2,0.2c0.1,0.1,0.2,0.1,0.3,0.1
		c0.4-0.1,0.6,0.1,0.8,0.4c0.2,0.3,0.4,0.5,0.7,0.7c0.6,0.4,1,0.9,1.1,1.7c0.1,0.6,0.3,1.3,0.4,1.9c0.6,0,1.2,0,1.8,0
		c-0.1-0.4-0.2-0.9-0.3-1.3c-0.1-0.4-0.3-0.7-0.4-1.1c-0.2-0.6-0.4-1.3-0.5-1.9c0-0.1-0.1-0.2,0-0.3c0.1-0.2,0.2-0.4,0.2-0.6
		c0.2,0.1,0.4,0.2,0.5,0.3c0.5,0.4,1,0.9,1.5,1.3c0.1,0.1,0.3,0.2,0.5,0.2c0.9,0,1.6,0.4,2.4,0.8c0.5,0.3,1,0.4,1.7,0.4
		c0.7,0,1.6-0.1,2.2,0.5c0.4,0.4,0.8,0.4,1.2,0c0.2-0.1,0.4-0.2,0.6-0.2c0.2-0.1,0.4-0.1,0.5-0.2c0.2-0.2,0.4-0.4,0.8-0.3
		c0.1,0,0.3-0.1,0.3-0.2c0.2-0.3,0.4-0.2,0.5,0c0.1,0.1,0.2,0.3,0.3,0.4c0.2,0.3,0.5,0.5,0.9,0.4c0.6-0.2,1.1,0.1,1.6,0.3
		c0.4,0.2,0.7,0.2,1.1,0c0.2-0.1,0.5-0.1,0.7,0c0.3,0.2,0.6,0.2,0.8,0c0.4-0.4,0.8-0.5,1.3-0.4c0.2,0,0.4,0,0.6,0
		c0.4-0.2,0.9-0.1,1.3,0c0.2,0,0.4,0,0.6-0.1c0.6-0.5,1-0.6,1.6-0.2c0.5,0.3,0.9,0.3,1.4,0.1c0.2-0.1,0.5-0.1,0.7-0.1
		c0.5,0,0.9-0.2,0.9-0.7c0-0.3,0-0.4,0.4-0.4c0.3,0,0.5-0.3,0.2-0.6c-0.5-0.4-0.5-1-0.8-1.5c-0.3-0.6-0.4-1.1-0.4-1.7
		c0-0.5,0.1-1.1,0.1-1.6c0-0.1,0.1-0.1,0.1-0.2c-0.1-0.8-0.2-1.6,0-2.3c0.1-0.2,0-0.5,0.1-0.7c0.3-0.5,0.2-0.7-0.3-1
		c-0.1-0.1-0.3-0.2-0.3-0.4c-0.1-0.4-0.2-0.8-0.2-1.1c0-0.1,0.1-0.2,0.2-0.2c0.2,0,0.5,0.1,0.5,0.4c0,0.3,0,0.5,0.1,0.8
		c0,0.1,0.3,0.2,0.4,0.3c0.1-0.1,0.2-0.3,0.2-0.4c0.1-0.6,0.2-1.2,0.3-1.8c0.5,0.2,0.8,0.5,0.8,1c0,0.1,0,0.2,0,0.2
		c0,0.2,0.1,0.5,0.2,0.7c0,0,0.2,0,0.2,0c0.1-0.2,0.1-0.5,0.1-0.7c0-0.1-0.1-0.3-0.1-0.4c-0.1-0.4,0-0.5,0.4-0.5
		c0.1,0,0.2,0,0.4-0.1c-0.1-0.1-0.1-0.2-0.2-0.3c-0.4-0.3-0.4-0.8,0-1c0.4-0.3,0.3-0.6,0.2-0.9c-0.2-0.5-0.4-1.1-0.6-1.6
		c-0.2-0.5-0.3-1-0.4-1.4c-0.1-0.5-0.2-1-0.4-1.5c-0.1-0.4-0.3-0.8-0.5-1.2c-0.1-0.3-0.2-0.5,0.2-0.5c0.5-0.1,0.5-0.2,0.2-0.6
		c-0.5-0.7-1-1.3-1.5-2c-0.1-0.1-0.1-0.3-0.2-0.5c-0.1-0.3-0.2-0.5-0.3-0.8c-0.1-0.1-0.1-0.3-0.1-0.5c0.1,0,0.3,0,0.4,0
		c0.2-0.1,0.4-0.2,0.4-0.3c0.1-0.1,0-0.4-0.1-0.4c-0.4-0.2-0.4-0.3-0.2-0.7c0.1-0.1,0-0.3,0-0.5c-0.1-0.3-0.2-0.6-0.3-1
		c-0.1-0.3,0.1-0.4,0.4-0.2c0.2,0.1,0.4,0.3,0.6,0.4c0.1,0.1,0.3,0.2,0.4,0.1c0.1-0.1,0.2-0.3,0.2-0.4c-0.2-0.6-0.5-1.3-0.7-1.9
		c-0.1-0.3-0.3-0.6-0.5-0.9c-0.5-0.6-0.7-1.1-0.2-1.8c0-0.1-0.2-0.4-0.3-0.4c-0.5-0.1-0.5-0.4-0.5-0.8c0-0.3,0-0.6,0-1
		c0-0.1-0.1-0.2,0-0.3c0.4-1.1,0-2.2-0.2-3.3c0-0.3,0.1-0.6,0.1-0.9c0-0.1,0.1-0.2,0.1-0.3c-0.1-0.9-0.4-1.8-0.8-2.7
		c-0.1-0.2-0.1-0.4-0.1-0.6c0-0.6,0.1-1.2,0.1-1.8c0-0.2-0.1-0.5-0.2-0.7c-0.1-0.2-0.3-0.3-0.4-0.5c-0.4-0.8,0.2-1.7,1.1-1.7
		c0.4,0,0.6-0.1,0.5-0.4c-0.1-0.4-0.2-0.8-0.4-1c-0.3-0.4-0.5-0.8-0.3-1.3c0.1-0.2-0.1-0.5-0.2-0.7c-0.4-0.8-1.1-1.5-1.4-2.4
		c-0.1-0.2-0.2-0.4-0.4-0.6c-0.3-0.3-0.5-0.6-0.4-1c0-0.1,0-0.2-0.1-0.3c-0.3-0.3-0.3-0.5-0.1-0.9c0.1-0.1-0.1-0.5-0.3-0.6
		c-0.4-0.3-0.5-0.6-0.5-1.1c0-0.4-0.2-0.7-0.3-1.1c-0.1-0.4-0.3-0.9-0.4-1.3c-0.1-0.5-0.2-1-0.5-1.5c-0.5-0.8-0.8-1.7-1.2-2.5
		c0,0,0-0.1-0.1-0.1c-0.5-0.4-0.5-0.9-0.5-1.3c-0.1-0.1-0.2-0.3-0.3-0.5c-0.7-1.9-0.2-4-1.3-5.9c-0.7-1.2-0.1-2.9-0.5-4.3
		c-0.9-3.1-2.4-6-3.1-9.2c-0.5-2.8,0-6.1,0.4-6.7c0.5-0.6,1.1-1.2,1.7-1.8c0,0,0.1-0.1,0.1-0.1c0.6-0.5,0.9-1.1,1.2-1.8
		c0.1-0.3,0.3-0.5,0.5-0.7c0.2-0.2,0.3-0.4,0.4-0.6c0.4-0.8,0.7-1.5,0.9-2.3c-0.2-0.2-0.2-0.4,0-0.7c0,0,0,0,0,0
		c0.5-0.7,0.6-1.5,0.5-2.3c0-0.2,0.1-0.5,0.1-0.7c0-0.2,0-0.4-0.1-0.6c-0.1-0.2-0.2-0.5-0.2-0.7c0-0.2,0-0.5,0-0.7
		c-0.1-0.6-0.2-1.1,0.2-1.6c0.1-0.2,0-0.4,0-0.6c0-0.4-0.1-0.9,0-1.3c0.1-0.4,0.3-0.8,0.6-1.2c0.3-0.4,0.7-0.7,1.1-1
		c0.1-0.1,0.2-0.1,0.3-0.1c0.9-0.1,1.7-0.1,2.6-0.3c0.4-0.1,0.9-0.3,1.3-0.5c0.2-0.1,0.5-0.3,0.7-0.5c0.3-0.2,0.5-0.3,0.9-0.1
		c0.1,0.1,0.2,0,0.4,0.1c0.4,0.1,0.8,0.1,1.2,0.3c0.7,0.4,1.4,0.9,2.1,1.3c0.5,0.3,1,0.7,1.4,1.1c0,0,1.5,2.9,1.8,7.3
		c0,0.2,0,0.3,0,0.5c0,0,0,0,0,0c0,0,0,0,0,0c0,0.2,0,0.4,0.1,0.5c0,0,0,0,0,0c0.8,3,2.8,6.2,6.1,7.4c0.3,0.1,0.6,0.3,0.9,0.5
		c0.3,0.1,0.6,0.3,0.9,0.4c0.8,0.4,1.6,0.9,2.4,1.3c0.8,0.4,1,2,1,2.6c-0.1,1-0.2,1.9-0.3,2.9c0,0.2,0,0.4-0.1,0.6
		c-0.5,1.7-0.9,3.3-1.5,5c-0.4,1.1-0.9,2.2-1.6,3.1c-0.5,0.6-0.8,1.4-1.2,2c0,0,0,0.1,0,0.1c0.3,0.8-0.1,1.5-0.3,2.3
		c0,0.2-0.1,0.4-0.2,0.6c-0.8,0.9-1.1,2-0.9,3.2c0.1,0.6,0,1.2-0.5,1.8c-0.3,0.3-0.3,0.9-0.4,1.4c0,0.7,0.1,1.3,0,2
		c-0.1,1.5,0.4,2.9,0.6,4.3c0.1,0.7,0.2,1.4,0.2,2.2c0,0.3-0.1,0.6-0.2,0.9c0,0.1-0.1,0.3-0.1,0.4c-0.1,0.8-0.3,1.5-0.4,2.3
		c0,0.3,0.1,0.6,0.1,1c0.1,1.3,0.4,2.7,0.8,4c0,0,0,0.1,0.1,0.1c0.4,0.3,0.7,0.7,0.6,1.1c0.5,0,0.8,0,1.2,0c0.5,0,0.5-0.2,0.4-0.6
		c0.1,0,0.3-0.1,0.4-0.1c0.2,0,0.3,0,0.5,0c0,0.2,0,0.4-0.2,0.5c-0.2,0.2-0.5,0.3-0.7,0.4c-0.3,0.1-0.3,0.3-0.1,0.6
		c0.4,0.6,0.4,0.6-0.1,1.1c-0.1,0.2-0.2,0.5-0.2,0.7c0,0.1,0.3,0.2,0.5,0.3c0.1,0.1,0.2,0.1,0.4,0.2c-0.2,0.1-0.3,0.1-0.3,0.2
		c-0.1,0.1-0.1,0.2-0.2,0.3c0.1,0.1,0.2,0.1,0.3,0.2c0.6,0.1,0.7,0.3,0.6,0.8c0,0.1,0,0.1,0,0.2c0.3-0.2,0.6-0.3,0.9-0.5
		c0.2-0.1,0.4,0,0.6,0c0,0.2,0,0.4,0,0.6c-0.1,0.2-0.2,0.3-0.4,0.4c-0.4,0.4-0.4,1,0,1.4c0.3,0.3,0.6,0.4,0.9,0.1
		c0.1-0.1,0.3-0.1,0.4-0.1c0,0.1,0.1,0.3,0.1,0.4c-0.3,0.6-0.1,1.1,0.1,1.7c0.1,0.4,0,1-0.2,1.4c-0.2,0.6-0.6,1.1-1,1.6
		c-0.2,0.4-0.5,0.8-0.7,1.2c-0.1,0.2-0.1,0.4,0.2,0.5c0.2,0.1,0.4,0.2,0.5,0.3c0.4,0.4,0.9,0.8,1.3,1.2c0.4,0.4,0.5,0.5,0,0.8
		c-0.3,0.2-0.4,0.4-0.2,0.7c0.1,0.2,0.1,0.3,0.2,0.5c0.1,0.3,0.2,0.5,0.7,0.4c0.1,0,0.4,0.1,0.5,0.2c0.1,0.2,0.1,0.4,0.1,0.6
		c0,0.4,0.1,0.6,0.5,0.9c0.3,0.2,0.4,0.7,0.5,1.1c0.1,0.5,0.2,1-0.5,1.3c-0.4,0.2-0.5,0.9-0.3,1.3c0.1,0.3,0.2,0.6,0.3,0.9
		c0.1,0.3,0.1,0.5-0.2,0.7c-0.2,0.1-0.3,0.3-0.1,0.5c0.3,0.2,0.2,0.4,0.1,0.6c-0.2,0.4-0.3,0.7-0.4,1.1c0,0.2,0,0.6,0.2,0.8
		c0.3,0.3,0.6,0.6,0.9,0.8c0,0,0.3-0.1,0.4-0.2c0-0.1-0.1-0.3,0-0.5c0-0.2,0-0.4,0.1-0.5c0.2-0.4,0.5-0.7,0.8-1
		c0.1-0.1,0.2-0.1,0.3-0.2c0,0.1,0.1,0.3,0.1,0.4c-0.2,0.6-0.4,1.2-0.6,1.8c-0.1,0.2-0.1,0.5-0.1,0.7c0.1,0.4,0,0.5-0.4,0.6
		c-0.2,0-0.4,0.3-0.4,0.4c-0.1,0.5-0.2,1-0.2,1.6c0,0.2,0.1,0.4,0.3,0.5c0.1,0.1,0.3,0,0.5-0.1c0.2,0,0.3-0.1,0.4-0.1
		c-0.1,0.1-0.2,0.4-0.3,0.4c-0.8,0.1-1,0.7-1.3,1.2c-0.1,0.1-0.1,0.3-0.1,0.3c0.3,0.5,0,0.6-0.4,0.6c0,0.4-0.1,0.8,0,1.1
		c0.1,0.4,0.4,0.8,0.7,1c0.5,0.4,0.5,0.4,0.2,0.9c-0.3,0.6-0.2,1,0.2,1.5c0.2,0.2,0.3,0.5,0.3,0.8c0,1.1-0.2,2.2,0.4,3.2
		c0.3,0.6,0.4,1.4,0.8,2c0.4,0.7,0.7,1.5,1.1,2.3c0.1,0.1,0.3,0.3,0.4,0.3c0.1,0,0.2-0.2,0.3-0.3c0.1-0.1,0-0.2,0.1-0.3
		c0.1-0.1,0.2-0.2,0.4-0.3c0.1,0.1,0.2,0.2,0.3,0.3c0.2,0.6,0.2,0.6,0.8,0.3c0.1-0.1,0.4-0.1,0.5,0c0.4,0.6,1,0.4,1.6,0.4
		c0.2,0,0.4,0,0.6,0.1c0.6,0.4,1.3,0.6,2.1,0.7c0.2,0,0.4,0.2,0.7,0.3c0.1,0.1,0.3,0.1,0.4,0.2c0.1,0,0.3,0,0.3,0.1
		c0.4,0.4,0.9,0.3,1.4,0.4c0.1,0,0.3,0,0.3-0.1c0.7-0.5,1.6-0.9,1.7-1.8c0-0.1,0.1-0.3,0.2-0.3c0.4-0.2,0.4-0.5,0.3-0.8
		c0-0.3,0.1-0.6,0.2-0.9c0.2-0.5,0.5-1,1.1-1.3c0.3-0.2,0.5-0.2,0.7,0.1c0.1,0.3,0.4,0.4,0.7,0.4c0.1,0,0.2,0.1,0.3,0.2
		c0.2,0.3,0.4,0.7,0.7,1.1c0.1,0,0.1,0,0.2-0.1c0-0.2,0-0.4,0.1-0.6c0.1-0.4,0.2-0.8,0.3-1.3c0.1-0.8,0.6-1.5,0.5-2.4
		c-0.1-0.5,0.1-1,0.2-1.4c0.1-0.2,0.4-0.4,0.6-0.5c0,0,0.2,0.1,0.3,0.1c0.1,0.1,0.1,0.3,0.2,0.4c0.2,0.3,0.5,0.2,0.6-0.1
		c0.1-0.3,0.3-0.7,0.4-1c0.1-0.2,0.1-0.5,0-0.8c-0.1-0.5-0.1-1,0.3-1.4c0.3-0.3,0.3-0.8,0.4-1.2c0.2-0.6,0.4-1.3,0.6-1.9
		c0.3-1,0.8-1.9,0.4-3c-0.1-0.4,0.2-0.5,0.5-0.8c0.1-0.1,0.2-0.3,0.3-0.4c-0.1,0-0.3,0-0.4-0.1c-0.2-0.1-0.4-0.2-0.5-0.3
		c-0.1-0.2,0-0.4,0-0.6c0.2,0,0.4,0,0.6,0c0.2,0,0.3,0,0.4,0c0-0.1,0.1-0.3,0-0.4c-0.3-0.4,0.1-0.6,0.4-0.8c0,0,0-0.1-0.1-0.1
		c-0.2,0-0.3,0-0.5,0c-0.3,0-0.4-0.1-0.3-0.3c0.1-0.3,0.3-0.5,0.5-0.7c0.3,0.2,0.5,0.3,0.7,0.5c0.2,0.1,0.2,0.4,0.4,0.5
		c0.1,0.1,0.2,0.1,0.3,0.2c0-0.1,0.1-0.2,0.1-0.3c0.1-0.2,0.2-0.5,0.3-0.7c0.2,0.2,0.5,0.4,0.7,0.6c0,0,0,0.1,0.1,0.2
		c0.1,0.1,0.3,0.2,0.4,0.3c0.1-0.2,0.3-0.4,0.3-0.6c0.1-0.3,0.1-0.6,0.2-0.9c0-0.2,0.1-0.4,0-0.6c-0.3-0.5-0.6-0.9-0.9-1.3
		c-0.1-0.1-0.1-0.3-0.2-0.5c-0.1-0.4-0.2-0.7-0.2-1.1c0-0.1,0.1-0.3,0.2-0.4c0.2,0.1,0.4,0.2,0.5,0.3c0.1,0.2,0.1,0.4,0.1,0.6
		c0,0.5,0.3,0.7,0.7,0.8c0,0,0.1-0.1,0.1-0.1C118,124.8,118.4,123.8,117.8,123z"/>
	<g>
		<path class="st1" d="M63.6,73.4L63.6,73.4L63.6,73.4c1.9-0.5,3.9-0.8,6-0.9c4.4,0,8.7,1.2,12,3.5c3.6,2.4,5.6,5.9,5.7,9.5
			c0.1,5.5-4.6,10.4-11.5,12.4c-1.9,0.5-3.9,0.8-6,0.8c-4.4,0-8.7-1.2-12-3.5c-3.6-2.4-5.6-5.9-5.7-9.5C52,80.3,56.6,75.3,63.6,73.4
			L63.6,73.4z"/>
		<path class="st2" d="M69.8,95.9c8.1-0.1,14.8-4.9,14.7-10.5c-0.1-5.6-6.9-10.3-14.9-10.2c-8,0.1-14.8,4.9-14.7,10.5
			C54.9,91.3,61.7,96,69.8,95.9z"/>
	</g>
	<g>
		<g>
			<path class="st0" d="M22.3,201.7c-4.7,0-8.5-1.5-11.4-4.4c-7-7-7.8-21-7.8-32.5c-0.2-6.8,0.7-29.8,20.5-38c3-1.3,6.2-1.9,9.7-1.9
				c6.6,0,13.2,2.2,19.6,4.3c2.8,0.9,5.5,1.8,8.2,2.5c1.2,0.3,2.5,0.5,3.8,0.5c4.9,0,9.6-2.2,14.1-4.4c3-1.4,6.2-2.9,9.3-3.7
				c2.6-0.9,6.4-1.5,9.9-1.5c8,0,13,2.8,13.7,7.7c0,0.1,0.4,3.3-6.2,5.3c-1,0.3-2,0.5-3,0.8c-3.6,0.9-7.3,1.7-9.6,4.8
				c-1,1.2-0.6,2.9,0.2,3.9c33.8-4,109.6-12.9,109.6-12.9c0.9-0.2,1.5-0.9,1.8-2.2l0.1-0.5l0.3-1.8c0.2-1.1,0.9-1.9,1.9-2.2
				c0.7-0.2,1.4-0.2,2.1-0.2l0.3,0l1.8,0.1c-0.2-0.6-0.8-1-1.4-1.4c-0.9-0.6-1.8-1.4-1.5-2.8c0.2-0.9,1.2-1.9,2.1-2
				c0.3,0,0.5-0.2,0.8-0.4c0.5-0.6,1.2-1,1.9-1c0.7,0,1.4,0.4,1.9,1c0.3,0.5,0.7,0.7,1.2,0.9c0.7,0.4,1.5,0.8,1.4,2.1
				c0,1-0.4,1.7-1.2,2c-1.1,0.5-1.8,1.1-2.1,1.8l7.3,0.4c-0.3-0.6-0.8-1-1.3-1.4c-0.8-0.6-1.7-1.3-1.5-2.9c0.1-0.9,1.1-1.7,2.2-1.9
				c0.1,0,0.3-0.1,0.4-0.2c0.5-0.7,1.2-1.1,2.1-1.1c0.8,0,1.6,0.4,2.1,1.1c0.3,0.4,0.6,0.6,1.1,0.8c0.7,0.4,1.4,0.8,1.4,2
				c0,1.4-0.9,1.9-1.7,2.3c-0.6,0.4-1.3,0.7-1.6,1.4l7.4,0.4c-0.3-0.8-0.8-1.1-1.4-1.5c-0.8-0.5-1.7-1-1.5-2.7
				c0.1-0.9,0.8-1.7,1.8-1.9c0.6-0.1,1-0.4,1.4-0.8c0.4-0.4,0.9-0.6,1.5-0.6c0.8,0,1.9,0.4,2.3,1.4c0.1,0.1,0.4,0.2,0.7,0.4
				c0.6,0.2,1.3,0.5,1.6,1.7c0.2,1.1-0.4,2.2-1.4,2.6c-0.9,0.4-1.4,0.8-1.8,1.6l7.3,0.4c-0.2-0.7-0.8-1-1.3-1.4
				c-0.8-0.5-1.8-1.2-1.4-2.9c0.3-1.2,1.1-1.4,1.7-1.6c0.4-0.1,0.7-0.2,0.9-0.4c0.5-0.7,1.3-1.1,2.1-1.1c0.9,0,1.8,0.5,2.2,1.3
				c0.1,0.2,0.3,0.3,0.6,0.4c0.8,0.3,1.4,0.8,1.6,1.4c0.2,0.6,0.2,1.3-0.2,2c-0.5,0.6-1,0.9-1.6,1.2c-0.6,0.3-1.1,0.6-1.4,1.2l0.2,0
				c0.8,0.1,1.6,0.2,2.4,0.5c2.9,1,4.9,3.9,4.9,7.2c-0.1,4.4-3.7,7-7,7.2c-0.4,0-0.7,0-1.1,0c-1.5,0-2.6-0.3-3.6-0.9
				c-0.5-0.3-1.1-0.7-1.6-1.2c-0.8-0.8-1.7-1.2-2.9-1.2c-0.5,0-1,0.1-1.6,0.2c-2.1,0.4-4,1.3-5.9,2.2l-0.6,0.3
				c-1.9,0.9-3.8,1.7-6,2.5c-2.4,0.9-4.9,1.3-7.3,1.7c-0.1,0-0.2,0-0.2,0c-0.4,0-0.6-0.2-0.8-0.5c-0.3-0.6-0.6-0.9-1-1.4l-0.4-0.6
				c-0.2-0.3-0.4-0.5-0.7-0.8c-0.7-0.6-1.6-1.1-2.6-1.4c-0.4-0.1-0.9-0.1-1.5-0.1c-1.4,0-2.9,0.2-2.9,0.2L90.3,159.1
				c-1.4,0.4-2.6,0.8-3.2,1.4c-2.6,1.3-4.3,3.9-4.2,6.4c0.1,2.2,1.4,4.1,3.8,5.1c1.4,0.8,3.4,0.9,5.3,1.1c3,0.3,5.7,0.5,6.2,2.8
				c1.4,6.3-7.5,9.2-11.3,10.1c-2.6,0.8-5.3,1.2-8.2,1.2c-3.7,0-7.2-0.6-10.6-1.2c-3.3-0.6-6.3-1.1-9.4-1.1
				c-5.7,0-10.3,1.9-14.6,6.2l-0.4,0.3c-4.5,3.5-9.1,7.2-14.3,9.4C26.7,201.4,24.4,201.7,22.3,201.7z"/>
			<path class="st0" d="M213.2,118c0.6,0,1.2,0.3,1.7,0.9c0.8,1.3,2.6,0.9,2.5,2.8c0,0.8-0.3,1.5-1.1,1.8c-1,0.4-2.1,1.1-2.3,2.3
				l8.1,0.5c-0.8-2.3-3.3-2-2.9-4.6c0.1-0.8,1-1.5,2-1.6c0.2,0,0.5-0.2,0.6-0.3c0.5-0.7,1.2-1,1.8-1c0.7,0,1.4,0.3,1.8,1
				c0.8,1.1,2.5,0.8,2.4,2.7c-0.1,2.3-2.8,1.7-3.5,4l8.1,0.5c-0.5-2.5-3.4-1.6-3-4.4c0.1-0.8,0.7-1.5,1.5-1.7
				c0.6-0.2,1.1-0.4,1.5-0.9c0.3-0.3,0.8-0.5,1.3-0.5c0.8,0,1.7,0.4,2,1.2c0.6,0.7,1.9,0.4,2.3,2c0.2,1-0.3,1.9-1.3,2.3
				c-1.1,0.4-1.6,1-2.1,2.1l8.1,0.5c-0.4-2.3-3.4-1.7-2.9-4.5c0.4-1.7,1.9-1.2,2.6-1.9c0.5-0.7,1.2-1,1.8-1c0.8,0,1.6,0.4,2,1.2
				c0.1,0.2,0.5,0.4,0.8,0.5c1.5,0.5,2,1.7,1.3,3c-0.9,1.3-2.6,1.1-3.2,2.8l0.2,0c0.9,0.1,1.8,0.2,2.7,0.5c2.9,1,4.7,3.8,4.7,6.9
				c-0.1,4.1-3.5,6.7-6.8,6.9c-0.3,0-0.7,0-1,0c-1.2,0-2.4-0.2-3.4-0.8c-0.5-0.3-1.1-0.7-1.5-1.1c-0.9-0.9-2-1.2-3.1-1.2
				c-0.5,0-1.1,0.1-1.6,0.2c-2.3,0.5-4.5,1.5-6.6,2.5c-2,0.9-4,1.7-6,2.5c-2.4,0.8-4.8,1.3-7.3,1.7c-0.1,0-0.1,0-0.2,0
				c-0.3,0-0.4-0.1-0.6-0.4c-0.4-0.6-0.7-1-1.1-1.6c-0.4-0.6-0.6-0.8-1-1.3l0,0c-0.8-0.7-1.7-1.1-2.7-1.4c-0.4-0.1-1-0.2-1.6-0.2
				c-1.4,0-2.9,0.2-2.9,0.2L90.3,158.8c-1.3,0.3-2.6,0.8-3.4,1.4c-5.1,2.5-6.3,9.4-0.4,12c3.6,1.9,10.6,0.1,11.4,3.7
				c1.2,5.9-6.6,8.7-11.1,9.8c-2.8,0.8-5.5,1.1-8.1,1.1c-7.2,0-13.7-2.3-20-2.3c-5,0-9.8,1.4-14.8,6.3c-4.5,3.6-9.3,7.4-14.7,9.7
				c-2.5,0.6-4.8,0.9-6.8,0.9c-17.4,0-19-20.6-19-36.7c-0.3-11.8,3.2-30.6,20.3-37.7c3.2-1.3,6.4-1.8,9.6-1.8
				c9.4,0,18.9,4.4,27.8,6.8c1.3,0.3,2.6,0.5,3.8,0.5c8.2,0,15.7-6.1,23.6-8.1c2.4-0.9,6.1-1.5,9.9-1.5c6.2,0,12.6,1.8,13.4,7.5
				c0,0,0.4,3.1-6,5c-4.4,1.3-9.8,1.6-12.7,5.7c-1,1.3-0.7,3.1,0.3,4.4c33.7-4,109.8-12.9,109.8-12.9c1.1-0.3,1.7-1.2,2-2.4l0.1-0.5
				c0.2-1.1,0.1-0.7,0.3-1.8c0.2-1,0.8-1.7,1.7-2c0.7-0.2,1.6-0.2,2.4-0.2l2.2,0.1c-0.3-2-3.5-2.2-3-4.5c0.2-0.8,1.1-1.7,1.8-1.8
				c0.4-0.1,0.7-0.2,0.9-0.5C212,118.3,212.6,118,213.2,118 M213.2,117.4v0.6V117.4c-0.8,0-1.5,0.4-2.1,1.1
				c-0.2,0.2-0.3,0.3-0.6,0.3c-1,0.1-2.1,1.2-2.3,2.2c-0.4,1.6,0.7,2.4,1.6,3c0.4,0.3,0.8,0.6,1,0.9l-1.3-0.1l0,0l0,0l-0.3,0
				c-0.7,0-1.5,0-2.2,0.2c-1.1,0.3-1.8,1.2-2.1,2.4c-0.1,0.7-0.2,0.8-0.2,1.1l-0.1,0.7l-0.1,0.5c-0.3,1.1-0.8,1.7-1.6,1.9
				c-1.8,0.2-75.9,8.9-109.4,12.8c-0.6-1-0.9-2.4-0.1-3.4c2.2-3,5.9-3.9,9.4-4.7c1-0.2,2-0.5,3-0.8c6.8-2,6.4-5.4,6.4-5.6
				c-0.7-5.1-5.8-8-14-8c-3.5,0-7.4,0.6-10,1.5c-3.2,0.8-6.3,2.3-9.4,3.7c-4.5,2.1-9.2,4.3-14,4.3c-1.3,0-2.5-0.2-3.7-0.4
				c-2.7-0.7-5.4-1.6-8.2-2.5c-6.4-2.1-13.1-4.3-19.7-4.3c-3.6,0-6.8,0.6-9.8,1.9c-19.9,8.3-20.8,31.4-20.7,38.3
				c0,22,4.2,29,7.9,32.7c3,3,6.9,4.5,11.6,4.5c2.1,0,4.5-0.3,7-0.9l0,0l0,0c5.3-2.2,9.9-5.9,14.4-9.4l0.4-0.3l0,0l0,0
				c4.3-4.2,8.8-6.1,14.4-6.1c3.1,0,6.1,0.5,9.4,1.1c3.4,0.6,7,1.2,10.7,1.2c2.9,0,5.7-0.4,8.3-1.2c3.9-0.9,12.9-3.8,11.5-10.4
				c-0.5-2.5-3.6-2.8-6.5-3.1c-1.9-0.2-3.8-0.3-5.2-1.1c-2.3-1-3.6-2.7-3.6-4.9c-0.1-2.4,1.6-4.9,4-6.1l0,0l0,0
				c0.6-0.5,1.7-0.9,3.1-1.3l114.9-17.8c0,0,1.5-0.2,2.8-0.2c0.6,0,1.1,0,1.4,0.1c1,0.3,1.8,0.7,2.5,1.3c0.3,0.3,0.4,0.5,0.7,0.8
				c0.1,0.1,0.2,0.3,0.3,0.4l0.1,0.2c0.4,0.5,0.6,0.8,0.9,1.3c0.3,0.4,0.6,0.7,1.1,0.7c0.1,0,0.2,0,0.3,0c2.4-0.4,5-0.8,7.4-1.7
				c2.2-0.8,4.2-1.6,6.1-2.5l0.6-0.3c2-0.9,3.8-1.8,5.9-2.2c0.6-0.1,1.1-0.2,1.5-0.2c1.1,0,2,0.3,2.7,1.1c0.5,0.5,1.1,0.9,1.7,1.2
				c1,0.6,2.2,0.9,3.7,0.9c0.3,0,0.7,0,1.1,0c3.5-0.2,7.2-2.9,7.3-7.4c0.1-3.3-2-6.4-5-7.4c-0.7-0.2-1.5-0.4-2.2-0.5
				c0.3-0.3,0.7-0.5,1.1-0.8c0.5-0.3,1.2-0.6,1.6-1.3l0,0l0,0c0.4-0.8,0.5-1.6,0.2-2.2c-0.3-0.7-0.9-1.2-1.8-1.6
				c-0.2-0.1-0.4-0.2-0.5-0.3c-0.5-0.9-1.5-1.4-2.5-1.4c-0.9,0-1.7,0.4-2.3,1.2c-0.1,0.2-0.4,0.2-0.7,0.3c-0.6,0.2-1.6,0.5-1.9,1.8
				c-0.4,1.9,0.7,2.6,1.6,3.2c0.4,0.3,0.8,0.5,1,0.9l-6.4-0.4c0.3-0.5,0.8-0.8,1.4-1.1c1.2-0.5,1.8-1.7,1.6-2.9
				c-0.3-1.3-1.1-1.6-1.7-1.9c-0.2-0.1-0.5-0.2-0.6-0.3c-0.5-1-1.6-1.5-2.5-1.5c-0.7,0-1.3,0.3-1.7,0.7c-0.3,0.4-0.7,0.6-1.2,0.7
				c-1,0.3-1.8,1.1-2,2.1c-0.2,1.9,0.8,2.5,1.6,3c0.4,0.3,0.8,0.5,1.1,0.9l-6.4-0.4c0.3-0.4,0.8-0.7,1.3-0.9c0.8-0.5,1.9-1,1.9-2.6
				c0-1.5-0.9-1.9-1.6-2.3c-0.4-0.2-0.7-0.4-1-0.7c-0.5-0.8-1.4-1.3-2.3-1.3c-0.9,0-1.7,0.4-2.3,1.2c0,0-0.1,0.1-0.2,0.1
				c-1.2,0.2-2.3,1.1-2.4,2.1c-0.2,1.8,0.7,2.6,1.6,3.2c0.4,0.3,0.7,0.5,1,0.9l-6.3-0.4c0.3-0.5,0.9-0.9,1.7-1.3
				c0.9-0.4,1.4-1.2,1.4-2.3c0-1.5-0.9-2-1.6-2.3c-0.4-0.2-0.8-0.4-1-0.8C214.7,117.8,214,117.4,213.2,117.4L213.2,117.4z"/>
		</g>
		<path class="st1" d="M93.5,145.5c-1.1-1.3-1.5-3.2-0.4-4.6c2.9-4,8.2-4.4,12.7-5.7c6.4-1.9,6-5,6-5c-1.3-9.1-16.9-8.2-23.3-6
			c-9.1,2.3-17.6,10.1-27.4,7.6c-12-3.2-25-10.1-37.4-4.9c-17.1,7.1-20.6,25.9-20.3,37.7c0,18,2,41.6,25.8,35.8
			c5.4-2.2,10.1-6.1,14.7-9.7c13.8-13.5,26.6-0.2,43-5.1c4.6-1.1,12.4-3.9,11.1-9.8c-0.8-3.6-7.8-1.8-11.4-3.7
			c-5.9-2.6-4.7-9.4,0.4-12c1.2-0.9,3.5-1.5,5.2-1.8C95,158.1,94.3,146.4,93.5,145.5z"/>
		<path class="st1" d="M45.3,162C45.3,162,45.3,162.1,45.3,162c0,0.1,0,0.1,0,0.1C45.3,162.1,45.3,162.1,45.3,162
			C45.3,162.1,45.3,162.1,45.3,162z"/>
		<path class="st0" d="M86.4,146.7c0.6-1.2,1.2-2,1.5-2.8c0.2-0.8,0.4-2,0-2.5c-0.4-0.5-1.7-0.8-2.4-0.5c-2.3,0.7-4.5,1.6-6.7,2.5
			c-3.9,1.6-7.8,1.5-11.7,0.5c-3.9-1-7.7-2.2-11.6-2.8c-2.2-0.4-4.6-0.3-6.8,0.2c-3.9,0.9-5.8,3.8-5.9,7.8c0,1,0.2,2.1-0.1,3
			c-0.2,0.7,0.2,19-6.3,25.6c-2.7,2.7-5.5,5.4-8,8.3c-1.8,2.1-3.3,4.4-4.5,6.9c-1.2,2.6,0.3,4.4,3.1,3.8c2.2-0.5,4.4-1.4,6.3-2.7
			c3.2-2.2,6.1-4.9,9.2-7.3c6.2-5,12.8-7.5,20.9-5.1C69,183.1,75,184,81,183.1c3.4-0.5,6.7-1.7,9.9-2.9c1.4-0.5,3.7-2.1,3.5-2.9
			c-0.1-0.6-2-0.8-2.9-0.9c-2.6-0.5-5.4-0.6-7.8-1.6c-4.5-1.9-6.8-8.1-4.7-12.3C79.1,162.4,83.5,152.2,86.4,146.7z"/>
		<path class="st15" d="M7.9,170.3c0.1,1.3,0.5,2.2,2.1,1.9c3.9-0.6,7.9-1.1,12.2-1.7c-0.4-2.9-2-14.2-2.3-17.1
			c-4.4,0.6-8.3,1.2-12.2,1.7c-1.6,0.2-1.7,1.1-1.5,2.4C6.6,159.8,7.7,168,7.9,170.3z"/>
		<circle class="st1" cx="44.8" cy="176.6" r="2.8"/>
		<circle class="st1" cx="39.6" cy="181.6" r="2.8"/>
		<circle class="st1" cx="33.6" cy="186.4" r="2.8"/>
		<g>
			<path class="st1" d="M213.1,126.8c0.5-0.1,0.8-0.5,1.1-0.9c-0.1,0-0.2,0-0.3,0c0.2-1.2,1.3-2,2.4-2.4c0.8-0.3,1.1-1,1.1-1.8
				c0-1.9-1.7-1.6-2.5-2.8c-0.9-1.2-2.4-1.2-3.3-0.1c-0.3,0.3-0.5,0.5-0.9,0.5c-0.8,0.1-1.7,1-1.8,1.8c-0.5,2.3,2.7,2.5,3,4.5
				c-0.3,0-0.6,0-0.9,0C211.4,126.4,212.2,127,213.1,126.8z"/>
			<path class="st1" d="M223.6,127.8c0.8-0.1,1.1-0.6,1.4-1.2c-0.3,0-0.6,0-0.9-0.1c0.6-2.5,3.5-1.8,3.5-4.2c0-1.8-1.7-1.5-2.4-2.7
				c-0.9-1.4-2.8-1.4-3.7,0c-0.1,0.2-0.4,0.3-0.6,0.3c-0.9,0.1-1.8,0.9-2,1.6c-0.3,2.7,2.3,2.4,3,4.8c-0.3,0-0.7,0-1-0.1
				C221.6,127.2,222.6,127.7,223.6,127.8z"/>
			<path class="st1" d="M235.6,127.3c-0.3,0-0.7,0-1-0.1c0.5-1.2,1.1-1.8,2.2-2.3c0.9-0.4,1.5-1.3,1.3-2.3c-0.4-1.6-1.7-1.3-2.3-2
				c-0.6-1.3-2.6-1.6-3.4-0.7c-0.4,0.5-0.9,0.7-1.5,0.9c-0.8,0.2-1.4,0.8-1.5,1.7c-0.3,2.9,2.6,1.9,3.1,4.6c-0.2,0-0.4,0-0.6,0
				C232.8,128,234.4,128,235.6,127.3z"/>
			<path class="st1" d="M245.3,128.5c0.3-0.2,0.5-0.4,0.7-0.6c-0.3,0-0.7,0-1,0c0.6-1.9,2.3-1.7,3.2-3c0.7-1.4,0.2-2.5-1.3-3
				c-0.3-0.1-0.6-0.3-0.8-0.5c-0.8-1.4-2.7-1.7-3.9-0.2c-0.6,0.8-2.2,0.3-2.6,1.9c-0.6,2.9,2.7,2.2,2.9,4.8c-0.2,0-0.4,0-0.6,0
				C242.9,128.7,244.3,129.3,245.3,128.5z"/>
			<path class="st14" d="M248.1,128.2c-0.9-0.3-1.8-0.4-2.7-0.5l-35.8-2.2c-0.8,0-1.6,0-2.4,0.2c-0.9,0.3-1.5,1-1.7,2
				c-0.2,1.1-0.1,0.7-0.3,1.8l-0.1,0.5c-0.3,1.2-0.9,2.1-2,2.4c0,0-125.1,14.7-125.6,14.7c-0.9,0.1-1.4,0.6-1.5,1.5
				c0,0.3-0.2,1.9-0.1,2.6c0.2,1.7,0.4,3.4,0.7,5c0.2,0.9,0.4,1.8,0.7,2.7c0.2,0.8,0.7,1.4,1.6,1.5c0.3,0,0.5,0,0.8,0l125.6-19.4
				c0,0,3-0.5,4.5-0.1c1,0.3,2,0.7,2.7,1.4l0,0c0.4,0.4,0.6,0.7,1,1.3c0.4,0.6,0.8,0.9,1.1,1.6c0.2,0.3,0.4,0.4,0.8,0.4
				c2.5-0.4,4.9-0.8,7.3-1.7c2-0.7,4.1-1.5,6-2.5c2.1-1,4.2-2.1,6.6-2.5c1.7-0.3,3.3-0.3,4.7,1.1c0.4,0.4,1,0.8,1.5,1.1
				c1.4,0.8,2.9,0.9,4.5,0.8c3.2-0.2,6.7-2.8,6.8-6.9C252.8,132,251,129.2,248.1,128.2z"/>
		</g>
	</g>
	<path class="st0" d="M63.3,161.5c-1.1-2.5-2.6-4.8-4-6.9c-0.9-1.3-1.8-2.6-2.7-3.8c-0.8-1.1-1.7-2.3-2.5-3.5
		c-0.7-1-0.8-1.4-0.8-1.5c0-0.2,0.5-0.5,1.4-0.9c2-1,3.5-2.7,4-4.6c0.5-1.8,0.2-3.7-0.9-5.4c-0.9-1.5-2.2-2.3-3.7-2.3
		c-1.2,0-2.4,0.6-3.3,1.8c-0.3,0.4-0.6,0.8-0.8,1.3c-0.3,0.4-0.5,0.8-0.8,1.2c-0.5,0.5-1.3,1.3-2,1.4c-2.5,0.6-5.1,0.9-8.1,1.3
		c-0.3,0-0.6,0.1-1.1,0.1c-0.2,0-0.4,0-0.6,0c-0.2,0-0.4,0-0.6,0c-0.7,0-1.5,0-2.2,0.3c-0.8,0.2-1.4,0.6-2,1
		c-3.5-3.4-6.8-7.6-8.7-11.1c-0.5-1-1-1.9-1.3-2.7c-2.6,1.4-6,2.3-7.6,4.9c3.3,3.7,8.3,8.3,15.2,14c-0.1,1.1,0,2.3,0.3,3.6l0,0.1
		l0,0.1c1,2.6,2.6,5.1,3.8,6.9c0.4,0.6,0.7,1.1,0.9,1.5c0.6,1.1,1.3,2.1,1.9,3.1c1.5,2.5,3.1,5.1,4.5,7.7c1.1,2.1,2.7,3.1,4.4,4.2
		c0.4,0.3,0.8,0.5,1.2,0.8c0.4,0.3,0.9,0.4,1.4,0.4c1.8,0,3.6-1.6,4-3.6c0.4-1.8,0.3-3.8,0.2-5.1c-0.1-1.1-0.3-2.1-0.5-3.2
		c0.6,0.8,1.2,1.5,1.8,2.3c0.2,0.2,0.3,0.4,0.5,0.6c0.2,0.3,0.4,0.6,0.7,0.9c1.6,2,2.9,2.8,4.2,2.8c0.6,0,1.2-0.2,1.8-0.5
		C63.5,167.4,64.4,163.9,63.3,161.5z"/>
	<path class="st1" d="M62.5,161.8c-1.1-2.4-2.5-4.6-3.9-6.8c-1.6-2.5-3.5-4.8-5.1-7.3c-1.4-2.1-1.2-2.5,1-3.7
		c3.6-1.9,4.8-5.5,2.8-8.8c-1.5-2.4-3.9-2.6-5.7-0.5c-0.6,0.8-1,1.8-1.7,2.5c-0.7,0.7-1.5,1.5-2.4,1.7c-2.7,0.6-5.5,1-8.2,1.3
		c-1.5,0.2-3.1-0.1-4.4,0.3c-0.9,0.3-1.7,0.8-2.3,1.4c-3.7-3.5-7.3-8-9.4-11.8c-1-1.7-2.4-4.6-2.4-4.6c-3.1,0.4-5.7,0.6-8.7,1.4
		c0.7,1.1,1.7,2.5,3.2,4.1c3.1,3.5,8,8.1,15.8,14.6c-0.1,1.1,0,2.4,0.2,3.8c1.2,3.4,3.6,6.5,4.6,8.2c2.2,3.6,4.5,7.2,6.4,10.9
		c1.2,2.3,3.4,3.3,5.3,4.7c1.4,1,3.8-0.6,4.2-2.6c0.3-1.5,0.3-3.2,0.2-4.8c-0.2-1.8-0.6-3.6-1-5.5c0.1-0.1,0.3-0.1,0.4-0.2
		c1.1,1.4,2.2,2.8,3.4,4.2c0.4,0.5,0.7,1,1.1,1.5c2,2.4,3.4,3,5,2.1C62.6,166.9,63.5,164,62.5,161.8z"/>
	<g>
		<path class="st1" d="M155.4,159.3c-2,0-3.9-1.3-4.6-3.2c-0.3,0-0.5,0.1-0.8,0.1c-1.8,0-3.5-1-4.3-2.6h0l-0.1-0.2
			c-0.2-0.4-0.3-0.8-0.4-1.2c0-0.1-0.1-0.3-0.1-0.4c-0.2-1.3-0.3-3.7,1.4-5.3c0.3-0.3,0.7-0.6,1.1-0.8c0.5-0.3,1.1-0.5,1.5-0.5
			c0.8,0,1.5,0.5,2,1.1c0.1-1.2,0.6-2.7,2.5-3.1c0.4-0.1,0.9-0.1,1.3-0.1c1.5,0,2.6,0.7,3.3,2c0.2-1.1,0.8-2.2,2.1-2.4
			c0.3,0,0.6-0.1,0.8-0.1c2.1,0,3.6,1.2,5,4.1c0.1,0.3,0.3,0.6,0.4,0.9c0.6,1.4,1,2.3,1.1,2.7c0,0.1,0,0.3,0,0.3
			c0.3,2.5-1.4,4.9-3.9,5.4c-0.3,0.1-0.6,0.1-1,0.1l0,0c-0.9,0-1.8-0.3-2.6-0.7c-0.4,1.9-1.9,3.4-3.8,3.7
			C156.1,159.3,155.7,159.3,155.4,159.3z"/>
		<path class="st0" d="M161.1,142.9c1.7,0,3.2,0.8,4.8,3.9c0.1,0.3,0.3,0.6,0.4,0.9c0,0,0,0,0,0c0.5,1,0.9,2.2,1,2.6
			c0,0.1,0,0.3,0,0.3c0.3,2.4-1.3,4.7-3.7,5.1c-0.3,0.1-0.6,0.1-0.9,0.1c-1,0-2-0.3-2.8-0.9c-0.3,1.9-1.7,3.5-3.7,3.9
			c-0.3,0.1-0.6,0.1-0.9,0.1c-2,0-3.8-1.3-4.4-3.3l0,0c-0.3,0.1-0.6,0.1-0.9,0.1c-1.8,0-3.4-1-4.2-2.6l0,0l0-0.1
			c-0.2-0.3-0.3-0.7-0.4-1.1c0-0.1,0-0.3-0.1-0.4c-0.2-1.3-0.3-3.5,1.3-5.1c0.3-0.3,0.6-0.5,1-0.8c0.5-0.3,1-0.4,1.4-0.4
			c1.3,0,2.1,1.2,2.3,2.2c-0.2-0.9-0.4-3.7,2.2-4.2c0.4-0.1,0.8-0.1,1.2-0.1c2.2,0,3.1,1.5,3.5,3.2c0,0-0.3-3.3,1.9-3.5
			C160.6,142.9,160.9,142.9,161.1,142.9 M161.1,142.4c-0.3,0-0.6,0-0.9,0.1c-1.2,0.1-1.9,1-2.2,1.9c-0.7-1-1.8-1.6-3.2-1.6
			c-0.4,0-0.9,0-1.3,0.1c-1.6,0.3-2.4,1.4-2.6,2.7c-0.5-0.4-1.1-0.7-1.8-0.7c-0.5,0-1.1,0.2-1.7,0.5c-0.4,0.2-0.8,0.5-1.1,0.8
			c-1.7,1.7-1.7,4.2-1.4,5.6c0,0.1,0,0.3,0.1,0.4c0.1,0.4,0.2,0.8,0.4,1.2l0,0l0.1,0.3l0,0c0.9,1.6,2.6,2.6,4.5,2.6
			c0.2,0,0.4,0,0.6,0c0.8,1.9,2.7,3.2,4.8,3.2c0.3,0,0.7,0,1-0.1c1.9-0.4,3.4-1.8,3.9-3.6c0.7,0.4,1.6,0.6,2.4,0.6
			c0.3,0,0.7,0,1-0.1c2.7-0.5,4.5-3.1,4.1-5.7c0,0,0,0,0,0s0-0.2-0.1-0.3c-0.1-0.4-0.4-1.3-1.1-2.8c-0.1-0.3-0.3-0.6-0.4-0.9
			C164.9,143.6,163.4,142.4,161.1,142.4L161.1,142.4z"/>
	</g>
	<path class="st17" d="M79.4,63.7c-2.7,0-4.9,1.6-5.4,3.8c-0.9-0.7-2-1.2-3.2-1.2c-1.2,0-2.3,0.4-3.2,1.2c-0.5-2.2-2.8-3.9-5.4-3.9
		c-3.1,0-5.6,2.2-5.6,4.9c0,2.7,2.5,4.9,5.6,4.9c3.1,0,5.6-2.2,5.6-4.9c0-0.1,0-0.3,0-0.4l0,0c0.8-0.8,1.9-1.3,3.1-1.3
		c1.2,0,2.3,0.5,3.1,1.3c0,0.1,0,0.3,0,0.4c0,2.7,2.5,4.9,5.6,4.9c3.1,0,5.6-2.2,5.6-4.9C85,65.9,82.5,63.7,79.4,63.7z"/>
</g>
</svg>
