<?xml version="1.0" encoding="utf-8"?>
<!-- Generator: Adobe Illustrator 27.6.1, SVG Export Plug-In . SVG Version: 6.00 Build 0)  -->
<svg version="1.1" id="Layer_1" xmlns="http://www.w3.org/2000/svg" xmlns:xlink="http://www.w3.org/1999/xlink" x="0px" y="0px"
	 viewBox="0 0 256 256" style="enable-background:new 0 0 256 256;" xml:space="preserve">
<style type="text/css">
	.st0{fill:#FFFFFF;}
	.st1{fill:#010101;}
	.st2{fill:#ED1C24;}
	.st3{fill:#0081C3;}
	.st4{fill:#FB5058;}
	.st5{fill:#EA5B24;}
	.st6{fill:#89483E;}
	.st7{fill:#C03A26;}
	.st8{fill:#F89420;}
	.st9{fill:#F47D20;}
	.st10{fill:#F36D21;}
	.st11{fill:#F78D1E;}
	.st12{fill:#DF5126;}
	.st13{fill:#ED6A22;}
	.st14{fill:#DCBC83;}
	.st15{fill:#BACCD5;}
	.st16{fill:#5F3722;}
	.st17{fill:#0081C3;stroke:#FFFFFF;stroke-width:0.2754;stroke-miterlimit:10;}
	.st18{fill:#FBAB18;}
	.st19{fill:#2F1F11;}
	.st20{clip-path:url(#SVGID_00000026138225603755419240000003256225762905125285_);}
	.st21{clip-path:url(#SVGID_00000026138225603755419240000003256225762905125285_);fill:#010101;}
	.st22{clip-path:url(#SVGID_00000026138225603755419240000003256225762905125285_);fill:#FFFFFF;}
	.st23{clip-path:url(#SVGID_00000044882504980168936320000011371266907916055438_);fill:#FB5058;}
	.st24{clip-path:url(#SVGID_00000044882504980168936320000011371266907916055438_);fill:#FFFFFF;}
	.st25{clip-path:url(#SVGID_00000044882504980168936320000011371266907916055438_);fill:#010101;}
	.st26{fill:#8C786D;}
	.st27{fill:#8C786D;stroke:#FFFFFF;stroke-width:0.826;stroke-miterlimit:10;}
	.st28{fill:#0081C3;stroke:#091313;stroke-width:0.826;stroke-miterlimit:10;}
	.st29{fill:none;stroke:#091313;stroke-width:0.826;stroke-miterlimit:10;}
</style>
<g>
	<path class="st1" d="M113.7,134.6c-2.9,0.3-1.5,4.8-1.3,5.4c0,0,0,0,0,0.1c-0.6,1-14.1,25.2-48.2,22.1c-1.2-0.9-2.8-1.4-4.8-0.9
		c-5.5,1.5-9.9-1.3-12.3-4c-2.4-2.7-3.7-4.3-5.9-1.3c-2.2,3-0.1,9.2,3.6,9.6c3.7,0.4,3.8,2.6,2.4,4.2c-0.5,0.5-2.5,2.7-2.9,3.4
		c-1.1,2.1-0.4,4.7,1.7,5.8c1.1,0.6,2.4,0.7,3.5,0.3c-0.3,1.8,0.5,3.6,2.1,4.5c1.9,1.1,4.3,0.5,5.6-1.3l0,0c2.1,1.1,4.7,0.4,5.8-1.7
		c0.7-1.3,0.7-2.7,0.1-3.9c0.6-2.5,1.7-4.7,2.9-4.9c0.8-0.1,1.5-1.2,1.6-2.8c0-0.3,0-0.5,0-0.7c36.4,1.7,51.5-21.3,52.8-23.5
		c3.3-0.5,6.1-2.8,6.4-6.9C130,138.5,121.5,133.9,113.7,134.6z"/>
	<path class="st1" d="M250.7,51.1c-1.5-0.5-3.2-0.8-4.8-0.9c-2.9-0.1-5.7,0-8.6,0c-0.2-0.3-0.3-0.6-0.5-0.9c2.1-0.9,4.2-1.9,6.4-2.7
		c1.6-0.6,3.6-0.5,5-1.3c1.2-0.7,2.5-2.2,2.5-3.4c-0.1-1.8-2.3-3-4.3-2.8c-2.5,0.1-4.9,0.7-7.1,1.4c-2,0.7-3.8,1.8-5.7,2.8
		c-0.4-0.3-0.8-0.6-1.2-0.8c0.8-0.9,1.7-1.8,2.6-2.7c1.7-1.7,3.5-3.3,5.2-5c2-1.9,1.2-4.2-1.8-4.9c-1.4-0.4-3.6-0.4-4.5,0.3
		c-2.4,1.9-4.7,4-6.4,6.4c-1.6,2.2-2.4,4.8-3.5,7.1c-2.1-1.7-4-3.5-6.3-4.9c-2.7-1.7-6-1.3-7.1,0.4c-1.1,1.6-0.1,3.6,2.8,5.5
		c1,0.6,2.1,1.1,2.8,1.9c0.9,1.1,2,2.4,2.1,3.5c0.3,2.7,1.5,5,3.6,7.1c0.4,0.4,0.6,0.8,0.8,1.3c0.1,0.3,0.3,0.5,0.4,0.8
		c-2.1,22.5-19,48.2-24.2,55.6c-0.4,0-0.8,0-1.1,0.1c-1.3-2.9-2.6-5.8-3.9-8.5c-5.6,5.2-8.1,13.4-3.5,17.3c3.3,4.4,8.5,7.3,14.4,9
		c-0.2-0.5-0.3-1-0.5-1.6c-0.4-1.2-0.9-2.4-1.4-3.6c3.3-1.1,4.9-4,3.9-7.1c3.7-6.4,17.8-32.7,20.2-57.6c2.4-0.9,4.9-1.7,7.3-2.7
		c1.3-0.5,2.6-1.2,3.5-2.1c2.3-2.4,5.3-2.3,8.7-1.3c1.1,0.3,2.4,0.9,3.3,0.7c1.5-0.4,3.4-1.2,3.8-2.3
		C254.2,53.5,252.8,51.8,250.7,51.1z"/>
	<g>
		<path class="st1" d="M177.8,31.3C177.8,31.3,177.8,31.2,177.8,31.3C177.8,31.2,177.8,31.2,177.8,31.3L177.8,31.3z"/>
		<path class="st1" d="M177.8,31.3c0.1,0.3,0.3,0.5,0.5,0.9c-0.6,0.6-1.3,1.2-1.9,1.8c0.1-0.6,0.1-1.1,0.2-1.5
			c0.1-0.7,0-1.5,0.9-1.9C177.9,30.6,176.9,31.4,177.8,31.3L177.8,31.3z"/>
		<path class="st1" d="M211.7,68.9c-1.2-0.9-2.7-1.7-3.6-3.1c-0.1-0.1-0.3-0.2-0.4-0.2c-0.8,0.4-0.8-0.3-1-0.7c1.2-0.3,1.7-1,2-2.1
			c0.6-2.1,0.7-2.1,0.2-2.7c-0.1,0.4-0.1,0.7-0.2,1.3c-0.5-0.3-0.8-0.5-1.1-0.7c-0.4-0.2-0.7-0.5-1-0.7c0.2-0.6,0.3-1,0.5-1.5
			c1.2-0.1,1.2-0.1,1-1.4c0-0.1-0.1-0.3,0-0.4c0.2-0.8,0.4-1.5,0.6-2.3c0.1-0.3,0-0.7-0.1-0.8c-0.5-0.4-0.6-0.8-0.5-1.3
			c0.1-0.5,0.1-0.9,0-1.4c-0.2-1.4-0.3-2.8,0.4-4.1c-0.6,0.2-1.1,0.4-1.7,0.6c0.7,0.9-0.1,1.1-0.4,1.6c-1.4-0.9-2.7-1.8-4-2.6
			c-0.6-0.3-1.4-0.6-2.1-0.6c-1,0-2,0.2-3,0.4c-0.9,0.2-1.8,0.2-2.5,0.6c-1.2,0.6-1.1,0.7-2-0.5c0.4-0.1,0.7-0.1,1-0.3
			c0.2-0.1,0.4-0.2,0.7-0.3c-0.8-0.1-1.5,0-2.1-0.1c-0.8-0.2-1.6-0.3-2.3,0.3c-0.1,0.1-0.3,0.1-0.4,0.1c-0.1-0.2-0.3-0.3-0.6-0.7
			c0.1,1.3-0.8,1.1-1.4,1.2c-0.6,0.1-1.1,0.3-1.7,0.4c0-0.1-0.1-0.1-0.1-0.2c0.3-0.2,0.6-0.5,0.9-0.7c0-0.7-0.4-1.4,0.7-1.8
			c0.2-0.1,0.3-0.7,0.5-1.2c-0.5,0.1-0.8,0.2-1.1,0.2c0-0.1-0.1-0.2-0.1-0.3c0.4-0.1,0.8-0.3,1.2-0.4c0.2-0.5,0.3-1,0.5-1.5
			c-0.1-0.1-0.3-0.1-0.4-0.2c-0.1,1.4-1.7,1.6-2.1,2.7c-0.5-0.5-1.1-0.9-1.4-1.4c-0.3-0.6-0.2-1.3-0.3-2.3c-0.2,0.5-0.3,0.7-0.4,1
			c-0.1,0.3,0,0.5-0.1,0.8c-0.1,0-0.1,0-0.2,0c0.1-0.7,0.2-1.5,0.3-2.2c-0.2,0-0.4,0-0.4,0c-0.1-0.6-0.2-1-0.3-1.5
			c0.2-0.1,0.4-0.1,0.6-0.2c-0.2-0.4-1.5-0.3-0.6-1.2c-0.4-0.5-0.3-1,0-1.5c-0.4-0.3-0.8-0.5-1.2-0.7c-1.2-0.5-1.2-0.8-0.6-1.9
			c0.3-0.5,0.4-1.1,0.7-1.8c-0.6,0.3-0.9,0.5-1.3,0.7c0.1,0.2,0.3,0.5,0.4,0.8c-0.1,0.1-0.2,0.2-0.3,0.3c-0.8-0.9-2.3-0.6-2.9-2
			c0.3,0,0.6,0.1,0.9,0.1c-0.2-0.3-0.3-0.4-0.5-0.6c0.3-0.3,1.4-0.3,0.5-1c0.6-0.3-0.4-0.8,0.1-1.1c1.2,0.2,2.1,0.7,2.3,2.1
			c1.1-1.2,0.5-2.4,0.5-3.6c-0.7,0.7-1,0.8-1.1,0.3c0.2-0.3,0.3-0.6,0.5-1c-0.7-0.2-1.4-0.3-2-0.5c-0.7-0.2-1.5-0.6-2.2-0.9
			c-0.9-0.3-1.7-0.1-2.8-0.1c0.3,0.3,0.4,0.3,0.5,0.4c-0.1,0.1-0.1,0.1-0.2,0.2c-0.3-0.3-0.7-0.6-1.1-0.9c-1-0.3-2.1,0.7-3.2,0
			c-0.1-0.1-0.5,0.3-0.7,0.4c0.2,0.2,0.4,0.4,0.6,0.6c-1.8,1.1-3.6,2.2-5.2,3.3c-0.8-0.5-1.4-0.9-2-1.3c-0.1-0.3-0.2-0.7-0.3-1
			c-0.3,0.1-0.7,0.3-1,0.4c-0.5,0.3-1,0.5-1.5,0.8c-0.3,0.2-0.5,0.5-0.7,0.7c0,0.2-0.1,0.3-0.1,0.5c-0.2,0.5-0.3,1-0.5,1.5
			c-1.4,0.1-1.4,0.1-1.8-1.1c-0.2-0.5-0.5-1-0.7-1.5c-0.4,0.2-0.7,0.3-1,0.5c-0.5-0.5,0.2-1.4-0.4-2c-0.4,0.6-0.6,1.5-1,1.6
			c-1,0.3-1.4,1.2-2.3,1.5c0,0.1,0.1,0.2,0.1,0.3c0.6-0.3,1.2-0.6,1.9-0.9c-0.4,0.8-0.7,1.5-1,2.2c-0.4,0.7-1.6,1.3-1.9,0.8
			c-0.5-0.7-1.4-1.2-1.2-2.2c-0.4,0-0.8,0-1.4,0c0.1,0.6,0.1,1.1,0.2,1.7c-0.7,0.2-1-0.3-1.2-0.8c-0.2-0.3-0.5-0.5-0.8-0.7
			c-0.1,0.1-0.2,0.1-0.2,0.2c0.2,0.2,0.3,0.5,0.5,0.7c0,0.1-0.1,0.1-0.1,0.2c-0.5-0.2-0.9-0.4-1.4-0.5c0.8-1.5,2-1.2,3.3-1.2
			c-0.5-1.1,0.8-0.7,1.3-1.3c-0.7,0.1-1.1,0.1-1.6,0.2c0-0.3,0-0.5,0-0.8c-0.3,0.9-1,1.3-1.9,1.4c-0.3,0.1-0.6,0.3-1,0.5
			c-0.4,0.2-0.8,0.5-1.2,0.6c-0.6,0.1-0.6-0.5-0.7-0.9c0-0.1-0.1-0.1-0.2-0.1c-0.5-0.2-1.1-0.3-1.6-0.4c-0.7-0.2-0.8-0.6-0.2-1.5
			c0.1,0.2,0.3,0.3,0.5,0.5c0.1-0.5,0.7-0.9-0.1-1.3c-0.1,0.1-0.2,0.3-0.4,0.4c-0.8,0.1-1,1.4-2.1,0.9c-0.3-0.1-0.9,0.3-1.2,0.5
			c-0.2,0.2-0.3,0.6-0.3,0.9c0,0.2,0.3,0.5,0.4,0.7c0,0.1,0,0.2,0,0.3c-1.8-0.7-2.9,0.7-4.6,1.2c1.2,0.2,1.3,1,1,1.6
			c-0.3,0.7-0.2,1.6-1.1,2c-0.3,0.1-0.3,0.6-0.5,0.9c-0.1,0.2-0.3,0.3-0.4,0.4c-0.1,0-0.1-0.1-0.2-0.1c0.1-0.5,0.3-1,0.4-1.5
			c-0.8,1-1.6,1.3-3.5,1c-0.3,0.4-0.6,0.8-0.9,1.2c-0.3,0-0.6,0-1-0.1c0.4,0.5,0.7,0.9,0.9,1.3c0.3,0.6,0.1,1.3-0.5,1.3
			c-0.7,0-1.2,0.3-1.8,0.5c-0.3,0.1-0.8,0-1.1-0.1c0-0.1,0-0.1,0-0.2c0.2-0.1,0.4-0.2,0.7-0.3c-0.7-0.3-1.3-0.6-1.9-0.8
			c-0.1,0.6-0.2,1.2-1.2,1.1c1.2-0.8-0.7-0.4-0.2-1c-1,0.3-1.8-0.2-2.7-0.9c0.1,1,0.1,1.8,0.2,2.7c-2.1-0.1-1.8-1.9-2.5-2.9
			c-0.3,0-0.5,0.1-0.6,0.1c-0.7,1.1,0.8,1.7,0.5,2.6c-1,0.8-1,0.8-1.4,0.8c0.1-0.3,0.2-0.6,0.3-1c0-0.3-0.1-0.7-0.3-0.7
			c-0.3-0.1-0.7,0-1,0.1c-0.3,0.1-0.5,0.4-0.8,0.5c-0.5,0.3-0.9,0.6-1.4,0.7c-0.4,0-0.9-0.3-1.4-0.4c-0.2,1-0.9,1.4-1.8,1.5
			c-1,0.2-2-0.1-3.1,0.3c-0.8,0.3-1.5,0.9-2.3,1.1c-0.6,0.1-1.6,1.5-1.6,2.1c-0.1,0.5-0.3,1-0.5,1.7c0,0.1,0.2,0.3,0.4,0.7
			c-0.4-0.1-0.6-0.1-0.8-0.2c-0.1,0.3-0.2,0.5-0.4,0.7c-0.3-0.2-0.5-0.3-0.7-0.4c-0.5,0.4-0.9,0.7-1.4,1c0.5,2.2,0.5,2.2-0.7,3.4
			c-0.9-0.7,0.9-1.8-0.6-2.5c-0.1,0.8,0,1.5-0.2,2.2c-0.5,2,0.3,2.4-2.5,2.4c-0.4,0-0.8,0-1.2,0c-0.7-0.1-1.3,0-1.6,0.3
			c-0.1,0.9-0.1,1.5-0.1,2.1c0,1,0.9,1.4,1.8,1c-0.2,0.3-0.5,0.6-0.7,0.9c0.1,0.4,0.2,0.8,0.3,1.1c-0.8,0.5-1.4,0.8-2.2,0.2
			c-0.2,0.4-0.3,0.6-0.5,0.9c0.3,0,0.5-0.1,0.7-0.1c-0.1,0.6-0.2,1.1-0.2,1.6c0.5,0.4,1.1,0.8,1.6,1.2c-0.1,0.3-0.1,0.6-0.2,0.8
			c0.7,0.2,1.4,0.4,2,0.6c0,0.1,0,0.2,0,0.2c-0.4,0.1-0.7,0.2-1.1,0.3c0,0.1,0,0.1,0,0.2c0.6,0,1.2,0,1.8,0c-0.6,1-1.2,2.1-2,3.3
			c-0.6-1.4-1.2-2.5-1.7-3.6c-0.3,0.3-0.7,0.6-1.1,1c0.5,0.2-0.3,0.9,0.5,1.2c0.2,0.1-0.6,1,0.3,1.2c0.1-0.2,0.2-0.5,0.2-0.7
			c0.1,0,0.2,0,0.2,0c0,1.7,0.1,3.4,0.1,5.2c-1.8-0.9-3.6-0.2-4,1.4c1.2-1,1.2-1,1.8-0.5c-2.7,1.5-2.6,4.7-1.4,6.6
			c0.4,0.7,0.3,1.3-0.3,1.9c1.3,0.6,1.3,1.8,1.8,2.9c-0.6-0.1-1-0.1-1.6-0.2c0.5,0.5,0.9,0.9,1.3,1.3c-0.1,0.4-0.2,0.8-0.4,1.4
			c0.6-0.3,0.9-0.5,1.2-0.7c0.1,0.1,0.1,0.2,0.2,0.2c-0.3,0.4-0.7,0.7-0.9,1c0,0.5,0,0.9-0.1,1.3c-0.1,0.4-0.4,0.7-0.6,1
			c-0.7,1-1.5,2-2.2,3.1c-0.2,0.3-0.2,0.7-0.4,1.3c1.3-1.7,2.3-3.2,3.4-4.6c0.5-0.7,0.6-0.7,1.3,0.1c-0.7,0.8-1.5,1.7-2.2,2.5
			c-0.2,0.2-0.6,0.5-0.5,0.7c0.4,1.1-0.6,1.7-1,2.6c1-0.4,1.4-1.2,1.8-2.3c0.4,0.2,0.8,0.3,1.3,0.5c-1.3,0.9-1.9,1.5-2,2
			c0.3,0.2,0.6,0.3,0.8,0.5c0.3,0.2,0.7,0.4,0.8,0.7c0.3,0.6-0.3,2.1-1.1,2.7c0.2-0.5,0.3-1,0.5-1.5c-0.3,0.1-0.4,0.3-0.5,0.4
			c-0.4,0.9-0.7,1.7-1.2,2.6c-0.2,0.3-0.6,0.5-1,0.8c-0.1,0.2-0.1,0.9-0.4,1.2c-0.8,0.6-0.9,1.5-1.5,2.2c-0.2,0.2-0.3,0.4-0.4,0.6
			c-1,1.1-2,2.2-3,3.3c-0.1,0.2-0.3,0.4-0.3,0.6c0.3,0.8,0.6,1.6,0.9,2.3c0.3,0.7,1,0.5,1.7,0.5c-0.3,1-0.3,1,0.7,1.3
			c0.6,0.2,1,0.3,1.5-0.3c0.3-0.3,1.3-0.1,2,0c0.5,0.1,0.9,0.4,1.4,0.6c-0.3,0.3-0.5,0.4-0.8,0.7c0.7-0.1,1.1-0.2,1.6-0.3
			c-0.1,0.4-0.1,0.6-0.2,0.9c0.3-0.1,0.6-0.4,0.8-0.4c0.7,0.2,1.4,0.5,2.1,0.9c0.4,0.2,0.8,0.5,1.3,0.7c0.7,0.2,0.9,0.7,1,1.3
			c0.1,0.6,0.2,1.3,0.3,1.9c0.1,0,0.2,0,0.3,0c0.1-0.4,0.2-0.7,0.3-1.1c0.2,0.2,0.2,0.3,0.2,0.4c-0.4,1,0,1.9,0.1,2.9
			c0,0.7,0.5,0.9,1,0.8c0.5,1.6,1,3.2,1.5,4.9c-0.6,1.3-1.7,2.5-2.9,3.5c-2.2,1.7-4.9,2.1-7.7,2.2c0.5,0.1,1,0.1,1.5,0.1
			c0.3,0,0.7,0.1,0.7,0.2c0.1,0.5-0.3,0.5-0.7,0.5c-0.6,0.1-1.1,0.1-1.7,0.2c0.4,0.2,0.7,0.3,1.1,0.2c1-0.1,2-0.4,3,0
			c0.4,0.2,1.2,0.1,1.5-0.7c0.4,0.2,0.8,0.4,1.1,0.5c-0.5,0.4-0.9,0.7-1.4,1.1c2.1-0.2,3.4-1.6,5-2.3c0.1,0.1,0.1,0.1,0.2,0.2
			c-0.2,0.3-0.4,0.6-0.7,0.9c0.4-0.2,0.6-0.3,0.9-0.4c0.1,0.5,0.3,0.9,0.3,1.3c0.1,1.4,0.6,2.5,1.8,3.3c0.4,0.2,0.7,0.6,0.9,0.9
			c1,1.5,2.6,2.2,4.2,2.9c1,0.4,2.1,0.5,3.1,0c-2.1-0.2-4-0.6-5.7-2.1c0.3-0.4,0.7-0.8,1.1-1.2c-0.5,0.1-1,0.3-1.4,0.1
			c-0.4-0.2-0.6-0.7-0.9-1.1c0.3-0.3,0.5-0.4,0.6-0.5c0.2-0.2,0.3-0.4,0.5-0.5c-0.4,0-0.7,0.2-0.9,0.2c-0.3,0-0.6-0.2-0.9-0.4
			c0.1-0.2,0.1-0.4,0.2-0.6c-1.2-0.4-1.2-0.6-1-1.8c0.1-0.5,0-1.1,0.1-1.6c0.1-0.3,0.3-0.5,0.5-0.8c0.3,0.8,0.3,1.5,0.8,2.2
			c0.5,0.7,0.7,1.4,1.7,1.5c0.1-0.5,0.3-1,0.5-1.6c0.7,0.4,1.3,0.9,2,1.1c0.8,0.2,1.6,0,2.5,0c-0.1,0.3-0.2,0.7-0.4,0.7
			c-1.2,0.3-1.5,1.3-1.8,2.4c1.1-0.3,2.2-1.1,3.2,0.3c-0.3,0.3-0.7,0.7-1,1.1c-0.3,0.3-0.2,0.8,0.2,0.7c0.8-0.2,1.7,0.1,2.3-0.8
			c0.7-1,1.7-1.2,2.9-1.1c0-0.2,0-0.4,0.1-0.9c1.5,1.4,2.8,2.5,4.1,3.7c0-0.3-0.1-0.5-0.1-0.8c0-1,0.3-1.1,1.3-0.9
			c1,0.2,1.3,0.1,2.2-1c0.5,0.2,1,0.6,1.5,0.6c0.5,0.1,1.1-0.2,1.7-0.3c0.9-0.1,1.6,0.3,1.8,1.1c1.2-0.4,2.3-1,3.4-1.6
			c1.4-0.9,2.7-1.9,4-3c-0.1-0.1-0.2-0.3-0.3-0.5c-0.1-0.2-0.3-0.3-0.5-0.4l42.6-10.3c2.9,1,5.8,2.1,8.8,2.8
			c0.8,0.2,1.6,0.4,2.4,0.7c0.1-0.1,0.1-0.3,0.2-0.4c0.5,0.2,0.8,0.4,1.3,0.6c0.4-0.8,1.8-0.4,1.8-1.7c-0.4,0-0.7,0-1.2-0.1
			c0.6-0.6,1.1-1.1,1.6-1.5c0.1,0.1,0.1,0.1,0.2,0.2c-0.1,0.3-0.2,0.5-0.3,0.8c0.7,0.5,1.8-0.8,2.4,0.6c-0.1,0.2-0.4,0.6-0.7,1
			c1.3-0.7,2.1-2,3.5-2.4c0.1,0,0.1-0.2,0.2-0.3c0.2-0.2,0.5-0.5,0.7-0.7c0.9-0.8,1.5-0.8,2.4,0c0.3,0.3,0.7,0.6,1.2,0.7
			c0.5,0.2,1.1,0.2,1.7,0.2c0.8,0.1,1.6,0.3,2.2,0.1c1.8-0.5,3.6-1.1,5.2-1.9c1.3-0.6,2.4-1.7,3.5-2.5c-0.1-0.4-0.1-1-0.4-1.4
			c-0.4-0.6-1.5-0.6-2.4-0.3c-0.3,0.1-0.7,0.1-1,0c-1-0.5-2.1-1-3.1-1.6c-0.1,0.1-0.3,0.4-0.6,0.7c-0.5-0.8-1-1.5-1.4-2.2
			c0.1-0.1,0.2-0.2,0.2-0.2c0.3,0.2,0.5,0.4,1,0.7c-0.3-0.6-0.5-1.1-0.8-1.4c-1.5-1.4-0.6-3.1-0.6-4.7c0-0.3,0.1-0.6,0.3-0.8
			c0.2-0.3,0.6-0.6,0.8-0.6c1.2,0,2.5,0,3.7,0.3c1.7,0.4,3.3,0.5,5,0.3c1-0.1,1.4-0.5,1.5-1.5c-0.7,0.4-1.2,0.7-1.6,0.9
			c-0.5-0.1-0.9-0.3-1.3-0.2c-1,0.1-2-0.2-2.9-0.7c0.3-0.3,0.6-0.5,0.9-0.5c0.6,0,0.6,0.1,0.7-0.5c-0.9-0.3-1.8-0.7-3-1.1
			c0.6,0.6,0.9,1,1.3,1.4c-0.8,0.8-2,0.5-3.2-1.1c0.4,0.2,0.9,0.3,1.5,0.5c-0.5-0.9-2.2-1-1.4-2.5c0.7-0.1,1.5-0.1,1.7-1
			c-0.2-0.1-0.4-0.2-0.5-0.4c-0.6-0.5-0.7-1-0.1-1.6c0.4-0.4,0.7-0.9,1.2-1.3c1.7-1.5,2.5-3.5,3.1-5.6c0.2-0.8,0.3-1.9-0.5-2.7
			c-0.6-0.6-1.3-1.2-1.5-2c-0.2-0.7-0.6-1.2-1.1-1.6c-0.1-0.1-0.1-0.5-0.2-1c0.6,0.5,0.9,0.7,1.4,1.1c-0.1-0.5-0.2-0.7-0.2-0.9
			c2.9-1.2,3.7-1.8,4-2.7c-0.4,0.3-0.8,0.6-1.2,0.8c-0.4,0.2-0.9,0.3-1.4,0.5c-1.4,0.5-2.1,0.1-2.7-1.4c0.4,0.1,0.8,0.3,1-0.2
			c0.1-0.2,0.4-0.2,0.6-0.3c0.6-0.3,1.2-0.6,1.3-1.3c0.1-0.3,0.6-0.6,0.9-0.8c0.3-0.3,0.8-0.4,1-0.7c0.5-0.8,0.9-1.7,1.3-2.5
			c-0.2-0.5-0.5-0.9-0.5-1.3c-0.1-1.9-0.4-3.7-1.3-5.5c0.4,0.1,0.6,0.2,0.8,0.3C213,70.4,212.6,69.6,211.7,68.9z M85.4,110.6
			c-0.6-0.3-1.3-0.7-2.3-1.2c1.7-1.8,3.8-2.7,5.6-4.1c0.3,1.7-0.9,2.7-1.9,3.9C86.5,109.7,86,110,85.4,110.6z M92.5,105.1
			c-0.1,0.4-0.1,0.9-0.4,1.2c-1,1.3-0.2,2.5,0.3,3.6c0.1,0.2,0.2,0.3,0.4,0.6c-0.4,0.3-0.8,0.6-1.1,1c-0.4,0.4-0.8,0.7-1.2,0.4
			c-0.3-0.2-0.3-0.7-0.4-1c-0.3,0.2-0.6,0.7-1.1,0.9c-0.5,0.1-1-0.1-1.7-0.2c1.5-3.3,3-6.4,4.5-9.5c0.9,0.6,0.4,1.3,0.1,2.1
			C92.1,104.6,92.3,104.8,92.5,105.1z M91.1,75c-0.3,0.7-0.4,1.4-0.8,2c-0.4,0.8-1.1,0.8-1.5,0c-0.6-1.1-1-2.1,0.8-3.1
			c0.3-0.2,0.4-0.7,0.5-1C91.5,73.6,91.6,73.8,91.1,75z M168.6,26.7c0.5-0.3,0.1-0.3-0.1-0.5c0.2-0.1,0.3-0.4,0.5-0.4
			c0.8,0,1.6,0,2.6,0c-0.1,0.2-0.1,0.5-0.2,0.8c0,0,0,0,0,0c0,0,0,0,0,0c0.3,0,0.7,0,1,0c0.5,0,1,0.1,1.4,0.2
			c-0.1,0.5-0.3,0.7-0.9,0.6c-0.6-0.1-1.5,0.2-1.5-0.8c0,0,0,0,0,0c0,0,0,0,0-0.1c-0.6-0.2-1.1-0.1-1.5,0.4c-0.4,0.4-0.9,0.7-1.4,1
			C168.2,27.5,168,27.1,168.6,26.7z M171.9,29.5c-0.7-0.4-1.3-0.7-2.2-1.2C172.3,27.8,172.4,27.9,171.9,29.5z M172.9,33.4
			c0,0.5,0.1,1,0.1,1.6c-0.5,0.1-0.8,0.2-1.1,0.3c-0.9-1.1,0.7-1.2,0.7-1.9C172.8,33.4,172.8,33.4,172.9,33.4z M173.9,33.6
			c0.3-0.1,0.6-0.1,0.9-0.2c0.5,0.5,1.1,1,1.9,1.7c-1.1,0.3-2.1,0.5-3.2,0.8C173.6,35,173.7,34.3,173.9,33.6z M166.8,32.1
			c0.5-0.3,0.8-0.8,1.2-1.3c0.1,0.5,0.2,1,0.2,1.3c-0.6,0.5-1.1,0.9-1.6,1.3C166,32.7,166,32.6,166.8,32.1z M161.5,27.6
			c-0.3-0.1-0.6-0.2-1-0.3c0.2-0.1,0.3-0.3,0.3-0.2c0.5,0,1,0.1,1.6,0.1c0.3,0.9,0.3,0.9-2.1,3.7C159.9,29.5,161.6,28.9,161.5,27.6z
			 M123.6,39.5c0.6,0.2,1.1,0.6,1.7,0c0.1-0.1,0.8,0,1,0.2c0.2,0.3,0.1,0.7,0.1,1.1c-0.7,0.1-1-0.9-1.7-0.2
			C124.4,40.7,123.6,40.3,123.6,39.5z M106.4,42c0.2-0.1,0.6,0.2,0.9,0.2c0.9-0.1,1.8-0.2,2.7-0.3c0.3,0,0.6,0,0.9,0.1
			c0,0.1,0,0.2,0,0.3c-0.7,0.2-1.3,0.3-2.2,0.5c0.5,0.2,0.9,0.4,1.3,0.6c-0.1,0.1-0.3,0.3-0.3,0.3c-1-0.5-1.9,0.1-2.8,0.2
			c-0.4,0.1-0.6,0-1-0.1c-0.5-0.2-1.1-0.2-2-0.4C104.9,42.9,105.6,42.4,106.4,42z M176.4,37.4c0.3,0.1,0.4,0.2,0.6,0.2
			c0,0.1,0,0.2,0,0.2c-0.4,0-0.8,0-1.4-0.1c0.4-0.7,0.6-1.2,1-1.8c0.2,0.1,0.4,0.2,0.6,0.3c0.1,0.1,0.1,0.3,0.2,0.5
			C177,36.9,176.7,37.1,176.4,37.4z M177.4,28.7c0,0.2,0.1,0.4,0.2,0.6c-1.6,0.2-2.8-1.4-4.5-0.9c0.5-0.5,1.1-1,1.7-1.6
			c1.1,0,2.5-0.4,3.8,0.6C178.3,27.9,178.6,28.8,177.4,28.7z M209.6,119.1c-0.2,0.2-0.3,0.4-0.3,0.4c-1.1-0.2-1.9-0.7-2.6-1.8
			C207.7,118.2,208.6,118.6,209.6,119.1z M200.5,50.7c0.8,0.4,1.5,0.8,2.1,1.1c0.2,1,0.5,2,0.7,3c-1.2,0.1-1.4-0.1-1.6-2
			c-1,0.8-1.4-0.1-2-0.6C200,51.7,200.3,51.3,200.5,50.7z M205.7,70.8c1,0,2,0.1,3.1,0.2c0.1,0,0.2,0.3,0.4,0.6
			c-0.4,0.1-0.6,0.2-1,0.2c0.1,0.2,0.1,0.5,0.2,0.7c-0.1,0.1-0.2,0.1-0.2,0.2c-0.4-0.4-0.8-0.7-1.1-1.1c-0.9,0.1-1.9,0.3-2.9-0.3
			C204.6,71.2,205.1,70.9,205.7,70.8z M208.4,73.7c-1.5,1.2-2.4,1.1-4.1-0.4C205.9,72.8,207.3,72.6,208.4,73.7z M210,76.2
			c0.2,0.2,1.2,0.2,1,1.4c-0.4-0.2-0.8-0.5-1.2-0.5c-0.3,0-0.7,0.3-1.2,0.5c0.2-0.5,0.2-0.7,0.3-1c-0.7,0.2-1.4,0.4-2.2,0.5
			c-0.3,0-0.7-0.1-0.3-0.5c-1,0-1,0-1.8-0.9c0.9-0.3,1.8-0.6,2.9-0.4c0,0.2-0.1,0.4-0.1,0.6c0.2-0.3,0.3-0.5,0.5-0.8
			c0.1-0.2,0.2-0.4,0.3-0.6c0.1,0.1,0.3,0.2,0.4,0.3c0.1,0,0.2,0,0.3,0c0.5-0.7,1.3-0.4,2.1-0.8C210.6,74.9,210.3,75.5,210,76.2z"/>
	</g>
	<path class="st1" d="M135.9,143.7c9.4,1.5,23.3,2,36.1-4.4c20.6-10.3,24.4-17.4,25.1-19.1c-0.9-1.7-1.9-3.4-3-5.2
		c-5.9-10-15.1-24.5-25.6-36.9c-6.5-6.1-12.7-9.4-17.8-9.4c-1.2,0-2.4,0.2-3.4,0.5l-0.2,0.1l-0.2,0c-3.5,0.6-6.8,3.1-9.9,7.3
		c-2.9,4-5.5,9.6-7.8,16.6c-4.5,13.3-7,29.1-8.5,38.5c-0.4,2.5-0.9,4.9-1.5,7.3C121.5,140,127.7,142.4,135.9,143.7z"/>
	<path class="st1" d="M150.7,65.5c-1.5,0-3,0.2-4.4,0.7c-18.7,3.3-25.6,44.6-28.9,65.1c-3.1,19.2-11.8,36.1-16.5,42.3
		c-32.1,40.4-31.6,58.9-8.8,58.9c10.3,0,25.1-3.8,43.5-10.9c15.6-5.2,31.7-10.6,40.9-10.7c11.8,0.3,33.8,21.2,46.2,21.2
		c0.3,0,0.7,0,1,0c13.4-2.8,11.5-15.6,5.7-40.5c-5.6-21.7-13.2-40.9-21.1-57.1c0.1-0.1-16.3-33.7-37.4-58.5
		C163.7,69.1,156.8,65.5,150.7,65.5L150.7,65.5z"/>
	<path class="st0" d="M226.2,192.3c-5-19.2-12-38.2-20.9-56.5l-1.3-2.6l0,0c-1.1-2.1-2.8-5.5-5.1-9.6c-2.4,3.8-8.8,10.3-25.5,18.6
		c-5.6,2.8-14.2,5.7-25.8,5.7c-3.8,0-8-0.3-12.4-1.1c-8-1.3-14.2-3.5-16.9-4.6c-1.8,6.6-3.9,12.2-5.6,16.3c-2.9,6.8-6.4,13.2-9.3,17
		l0,0l0,0c-10.1,12.7-17.2,23.5-21,32.2c-3.3,7.4-4.2,13.2-2.6,16.6c1.5,3.2,5.6,4.8,12.2,4.8c9.7,0,24.3-3.7,42.3-10.7l0.1,0l0.1,0
		c15.8-5.3,32.1-10.8,41.9-10.9l0.1,0l0.1,0c6.7,0.2,15.1,5.4,23.9,10.9c7.9,4.8,16.8,10.3,22.1,10.3c0.2,0,0.3,0,0.5,0
		c3.7-0.8,5-2.3,5.7-3.4C232.3,220,229.8,207.8,226.2,192.3z"/>
	<g>
		<path class="st1" d="M170.9,126.6L170.9,126.6L170.9,126.6c-2.4,0-4.8,0.3-7.1,1c-5.1,1.4-9.6,4.2-12.7,7.9
			c-3.3,4-4.5,8.6-3.4,12.7c1.7,6.3,8.6,10.5,17.1,10.5c2.4,0,4.8-0.3,7.1-1c5.1-1.4,9.6-4.2,12.6-7.9c3.3-4,4.5-8.6,3.4-12.7
			C186.3,130.8,179.4,126.6,170.9,126.6L170.9,126.6z"/>
		<path class="st2" d="M171.1,154.4c-9.2,2.5-18.5-0.8-20.3-7.2c-1.8-6.4,4.5-14,13.8-16.5c9.2-2.5,18.5,0.8,20.3,7.2
			C186.6,144.3,180.3,151.9,171.1,154.4z"/>
	</g>
	<path class="st1" d="M120.4,128C120.4,128,120.4,128,120.4,128C120.4,128,120.4,128,120.4,128z"/>
	<path class="st1" d="M62.7,181.5c0,0,2.7-3.8,0.1-6.6c-1.7-1.8-3.4-0.4-3.9,0.7c0,0,1.9-3.1-0.6-4.5c-2.6-1.4-4.1-0.2-5,1.3
		c0,0,1.2-2.8-0.7-3.6s-3.7-0.9-6.6,2.5c-1.2,1.4-1.8,2.3-1.8,2.3l7.6,4.4l7.8,3l2.8,0.9L62.7,181.5z"/>
	<g>
		<g>
			<g>
				<path class="st0" d="M159.1,225.2c-1,0-2-0.1-3-0.3c-6.4-1.1-11.6-4.9-16.6-8.7c-4-3-8.2-6.1-12.9-7.7c-1-0.3-2.1-0.4-3.4-0.4
					c-1.2,0-2.4,0.1-3.6,0.2c-0.7,0.1-1.3,0.1-2,0.2c-2.6,0.4-5.2,0.6-7.7,0.6c-3.6,0-6.3-0.5-6.9-0.7l0,0c-4.8-1.2-10.5-3.3-11-8.4
					c0.2-1.6,1.2-2.3,3-2.3c1,0,2,0.2,3,0.4c0.7,0.1,1.4,0.2,1.9,0.3c0.3,0.1,0.5,0.1,0.8,0.1c1.8,0,4.9-1.1,6.7-2.9
					c0.9-0.9,1.3-1.8,1.3-2.8c0.2-2.4-0.4-4-1.9-4.6l-4-1.1c-16.9-4.6-68.4-18.8-68.4-18.8l-0.2-0.1c-0.4-0.1-0.7-0.1-1-0.1
					c-0.7,0-1.3,0.2-1.8,0.8c-0.6,0.6-1.2,0.9-1.9,0.9c-0.6,0-1.3-0.2-2-0.8c-0.1-0.1-0.2-0.1-0.3-0.1s-0.2-0.1-0.2-0.1
					c-0.1,0-0.1,0-0.2,0.1c-0.1,0.1,0,0.3,0.2,0.6c0.2,0.5,0.1,1.2-0.2,1.7c-0.2,0.3-0.5,0.5-0.8,0.5c-0.1,0-0.2,0-0.3,0
					c-0.1-0.1-0.3-0.1-0.4-0.2c-0.8-0.3-1.7-0.6-2-1.3c-0.1-0.3-0.1-0.7,0.1-1.1c0.3-0.8,0.7-0.8,1.1-0.9c0.2,0,0.4,0,0.6-0.3
					c0-0.1-0.1-0.3-0.1-0.4l-0.2-0.1c-0.1-0.1-0.3-0.2-0.4-0.3c-0.4-0.3-0.8-0.6-1.2-0.7c-0.1,0-0.2,0-0.2,0c0,0-0.1,0-0.1,0
					c-0.1,0.3,0,0.4,0.1,0.6c0.2,0.4,0.3,0.7-0.3,1.5c-0.1,0.4-0.5,0.6-1,0.6c-0.9,0-2.1-0.7-2.5-1.4c-0.2-0.4-0.2-0.7,0-1l0.1-0.1
					c0.2-0.4,0.5-1,1.1-1c0.1,0,0.3,0,0.5,0.1c0,0,0.1,0,0.1-0.1c0.1-0.1,0-0.4,0-0.4c-0.1,0-0.3-0.2-0.5-0.3
					c-0.4-0.3-0.7-0.5-1-0.6c-0.1,0-0.2,0-0.2,0c-0.1,0-0.1,0-0.1,0c-0.1,0.3,0,0.4,0.1,0.6c0.2,0.4,0.4,0.8-0.3,1.7
					c-0.2,0.3-0.5,0.5-1,0.5c-0.7,0-1.4-0.5-1.8-0.7c-0.6-0.5-0.8-1.4-0.6-2c0.2-0.5,0.6-0.8,1.1-0.8c0.1,0,0.2,0,0.3,0
					c0.1,0,0.2-0.1,0.2-0.2c0.1-0.2,0-0.3,0-0.4l-0.2-0.1l-0.4-0.3c-0.2-0.2-0.5-0.3-0.8-0.5c-0.3-0.2-0.5-0.2-0.6-0.2
					c-0.1,0-0.2,0.1-0.1,0.5c0.7,0.8,0,1.4-0.3,1.8l-0.1,0.1c-0.2,0.2-0.6,0.3-0.9,0.3c-0.8,0-1.8-0.5-2.2-1.1
					c-0.2-0.4-0.3-0.8-0.1-1.1c0.3-0.9,0.6-1.2,1.1-1.2c0.1,0,0.1,0,0.2,0c0,0,0.1,0,0.2,0c0.1,0,0.2,0,0.3-0.1
					c0-0.3-0.1-0.5-0.4-0.7c-0.2-0.1-0.3-0.2-0.5-0.3l-0.2-0.1c-0.3-0.1-0.5-0.3-0.8-0.4c0,0-0.1,0.1-0.1,0.1c-0.1,0.3,0,0.4,0,0.5
					c0.6,0.6,0.3,1.2,0,1.5c-0.1,0.1-0.1,0.2-0.2,0.3c-0.2,0.4-0.5,0.5-0.9,0.5c-0.5,0-1.1-0.3-1.6-0.6c-0.2-0.1-0.3-0.2-0.5-0.2
					c-0.7-0.4-0.9-1-0.6-1.6l0.1-0.2c0.2-0.4,0.4-0.9,1.1-0.9c0.1,0,0.2,0,0.3,0c0.1,0,0.2-0.1,0.2-0.1c0.1-0.5-0.4-0.8-1.2-1.1
					c-0.3-0.1-0.6-0.3-0.8-0.4c0,0-0.1,0.1-0.1,0.1c0,0.1,0,0.3,0,0.3c0.2,0.2,0.4,0.5,0.4,0.8c0,0.5-0.3,0.8-0.6,1.1l-0.1,0.1
					c-0.3,0.2-0.6,0.3-0.9,0.3c-0.8,0-1.7-0.6-2.2-1c-0.7-0.6-0.3-1.4-0.1-1.7c0.2-0.4,0.5-0.6,0.8-0.6c0.1,0,0.2,0,0.3,0
					c0.1,0,0.1,0,0.2,0c0.1,0,0.1,0,0.2-0.1c0.1-0.4,0-0.6-0.3-0.9c-0.1-0.1-0.3-0.2-0.4-0.3c-1.9-1.3-2.6-3.2-1.9-5.5
					c0.7-2.1,2.5-3.4,4.7-3.4c2.7,0,5.7,1.9,6.1,5.2c0.3,0.9,0.5,1,1.5,1c0.5,0.1,1.3,0.1,2.1,0.1l2.7,0c5,0,9.8,0.3,10,2.2
					c0.8,2.3,2,3.7,3.6,3.9l0.1,0l0.1,0.1c0.2,0.3,0.5,0.5,0.9,0.6l0.2,0c0.1,0,0.2,0.1,0.4,0.1c0.1,0,0.3,0.1,0.4,0.1
					c0.5,0.1,53.7,13.2,75.4,18.2c1.5,0.4,2.9,0.7,4.1,0.9c1.1,0.3,2.1,0.5,2.9,0.6c0.1,0,0.3,0,0.4,0c2.5,0,3.3-4.1,3.3-6.1
					c0.1-4.4-3.6-5.8-7.1-7.3l-0.3-0.1c-1-0.5-1.6-1.3-1.7-2.2c-0.1-1,0.4-2.1,1.5-3c1.4-1.1,2.9-1.6,4.9-1.6c1.1,0,2.2,0.2,3.3,0.3
					c3.7,0.8,6.7,2.9,9.7,4.9c1.1,0.7,2.2,1.5,3.3,2.2c1.9,1.1,4.1,1.7,6.8,1.7c3,0,6.1-0.7,9.2-1.3c1.5-0.3,3-0.6,4.4-0.8
					c2.3-0.4,4.6-0.6,6.8-0.6c7.3,0,13.3,2.4,16.8,6.8c3.6,4.4,4.7,10.7,3.1,18.2c-0.3,1.3-0.5,2.7-0.8,4
					c-1.7,8.9-3.4,18.2-9.9,24.9C167.9,223.1,163.5,225.2,159.1,225.2C159.1,225.2,159.1,225.2,159.1,225.2z"/>
				<path class="st0" d="M7,146.6c2.7,0,5.5,1.9,5.9,4.9c0.4,1.1,0.6,1.2,1.8,1.2c0.5,0,1.2,0.1,2.1,0.1c0.8,0,1.7,0,2.7,0
					c4.2,0,9.5,0.2,9.8,2c0.6,1.9,1.7,3.8,3.8,4.2c0.3,0.4,0.6,0.6,1,0.7l0.2,0.1c0.3,0.1,0.5,0.1,0.8,0.2c0,0,53.4,13.1,75.4,18.2
					c1.5,0.4,2.9,0.7,4.1,0.9l0,0c1.1,0.3,2.1,0.5,2.9,0.6c0.2,0,0.3,0,0.4,0c2.7,0,3.6-4.1,3.6-6.3c0.1-4.6-3.9-6.2-7.5-7.6
					c-2-1-2.1-3.1-0.1-4.7c1.5-1.2,3.1-1.5,4.7-1.5c1.1,0,2.2,0.2,3.2,0.3c4.9,1,8.7,4.5,12.9,7.1c2.1,1.3,4.4,1.7,6.9,1.7
					c4.4,0,9.2-1.4,13.7-2.2l0,0c2.3-0.4,4.6-0.6,6.8-0.6c13.8,0,23.1,8.6,19.7,24.7c-2,10-3.1,21.1-10.6,28.8
					c-3.1,3.4-7.4,5.6-11.9,5.6c-1,0-1.9-0.1-2.9-0.3c-11.5-1.9-18.8-12.7-29.5-16.4c-1.2-0.3-2.3-0.4-3.5-0.4
					c-1.9,0-3.8,0.2-5.6,0.4c-2.9,0.5-5.5,0.6-7.7,0.6c-4.3,0-6.8-0.6-6.8-0.6c-4.3-1.1-10.3-3-10.8-8.2c0.2-1.6,1.4-2,2.8-2
					c1.7,0,3.7,0.6,4.9,0.6c0.2,0.1,0.5,0.1,0.8,0.1c2.8,0,8.3-2.4,8.2-6c0.2-1.9-0.1-4-2-4.8c-0.2,0-0.4-0.1-0.6-0.2l2.2,0.6
					l4.1,1.1l2.8,0.7l-2.8-0.7l-4.1-1.1l-2.2-0.6c-0.9-0.2-2-0.6-3.4-0.9C85.9,182.2,34.4,168,34.4,168l-0.2-0.1
					c-0.4-0.1-0.8-0.1-1.1-0.1c-0.7,0-1.4,0.2-2,0.8c-0.6,0.6-1.1,0.8-1.7,0.8c-0.6,0-1.3-0.3-1.9-0.7c-0.1-0.1-0.2-0.1-0.3-0.2
					c-0.1,0-0.2-0.1-0.3-0.1c-0.5,0-0.6,0.5-0.2,1.1c0.2,0.5-0.1,1.7-0.8,1.7c-0.1,0-0.1,0-0.2,0c-0.9-0.4-2.9-0.8-2.1-2.2
					c0.5-1.3,1.1-0.3,1.7-1.2c0.1-0.2,0-0.6-0.2-0.7c0,0,0,0,0,0c0,0,0,0,0,0l-0.1-0.1c-0.5-0.3-1.1-0.8-1.7-1c-0.1,0-0.2,0-0.3,0
					c-0.1,0-0.2,0-0.3,0.1c-0.5,1.1,0.8,0.9-0.2,2.1c-0.1,0.4-0.4,0.5-0.8,0.5c-1.1,0-2.8-1.2-2.2-2c0.2-0.5,0.4-1,1-1
					c0.1,0,0.2,0,0.4,0.1c0,0,0.1,0,0.1,0c0.5,0,0.5-0.7,0.3-1c-0.2-0.1-0.3-0.2-0.5-0.4c-0.3-0.3-0.7-0.5-1.1-0.7
					c-0.1,0-0.2-0.1-0.3-0.1c-0.1,0-0.2,0-0.4,0.1c-0.4,1.1,0.9,1-0.2,2.4c-0.2,0.3-0.5,0.4-0.8,0.4c-0.6,0-1.2-0.4-1.6-0.7
					c-0.8-0.7-0.8-2.4,0.4-2.4c0.1,0,0.2,0,0.3,0c0,0,0,0,0,0c0.5,0,0.7-0.7,0.4-1c-0.1-0.1-0.4-0.3-0.6-0.4
					c-0.3-0.2-0.5-0.3-0.8-0.5c-0.3-0.1-0.5-0.2-0.7-0.2c-0.3,0-0.5,0.2-0.3,0.8c0.6,0.7,0,1.2-0.3,1.6c-0.2,0.2-0.5,0.2-0.8,0.2
					c-1.1,0-2.5-0.9-2.2-1.9c0.4-0.9,0.6-1.1,0.9-1.1c0.1,0,0.2,0,0.3,0c0.2,0,0.4,0,0.6-0.3c0.1-0.4-0.1-0.7-0.4-1
					c-0.2-0.1-0.4-0.2-0.5-0.3c-0.3-0.2-0.7-0.3-0.9-0.5c0,0-0.1,0-0.1,0c-0.1,0-0.4,0.1-0.4,0.2c-0.1,0.3-0.2,0.7,0,0.8
					c0.7,0.6,0,1.1-0.2,1.5c-0.2,0.3-0.4,0.4-0.7,0.4c-0.6,0-1.5-0.6-2-0.8c-0.4-0.3-0.7-0.7-0.4-1.2c0.2-0.4,0.4-1,1-1
					c0.1,0,0.2,0,0.3,0c0,0,0,0,0,0c0.2,0,0.5-0.2,0.5-0.3c0.2-1.1-1.4-1.4-2-1.9c0,0-0.1,0-0.1,0c-0.1,0-0.3,0.1-0.4,0.1
					c-0.1,0.2-0.1,0.5,0,0.6c0.7,0.7,0.1,1.3-0.3,1.7c-0.2,0.2-0.5,0.2-0.7,0.2c-0.7,0-1.5-0.5-2-1c-0.5-0.4-0.3-0.9-0.1-1.4
					c0.2-0.4,0.4-0.5,0.6-0.5c0.2,0,0.3,0.1,0.5,0.1c0.2,0,0.3,0,0.5-0.2c0.1-0.5,0-0.9-0.4-1.2c-0.1-0.1-0.3-0.2-0.5-0.3
					c-1.8-1.3-2.4-3-1.8-5.2C3.3,147.5,5.1,146.6,7,146.6 M7,146c-2.3,0-4.2,1.3-4.9,3.5c-0.7,2.4,0,4.4,2,5.8l0,0l0,0
					c0.2,0.1,0.3,0.1,0.4,0.2c0.2,0.1,0.2,0.3,0.2,0.5c0,0,0,0,0,0c-0.1,0-0.1,0-0.2,0c-0.1,0-0.2,0-0.4,0c-0.7,0-1,0.6-1,0.8
					c-0.6,1-0.2,1.6,0.2,2c0.5,0.5,1.4,1.1,2.3,1.1c0.4,0,0.7-0.1,1-0.3l0,0l0,0l0.1-0.1c0.2-0.2,0.5-0.5,0.6-0.9
					c0.1-0.3,0.1-0.7-0.2-1.2c0.1,0.1,0.3,0.2,0.5,0.2c0.7,0.3,1,0.5,1,0.8c0,0,0,0,0,0c-0.1,0-0.2,0-0.3,0c-0.8,0-1.1,0.7-1.3,1.1
					c0,0.1-0.1,0.1-0.1,0.2c-0.3,0.7-0.1,1.4,0.6,1.9l0,0l0,0c0.1,0.1,0.3,0.1,0.4,0.2c0.5,0.3,1.1,0.6,1.7,0.6
					c0.4,0,0.8-0.2,1.1-0.5c0,0,0,0.1-0.1,0.1c-0.2,0.4-0.1,0.9,0.2,1.3c0.5,0.7,1.5,1.2,2.5,1.2c0.5,0,0.8-0.1,1.1-0.4l0.1-0.1
					c0.3-0.3,1.1-1.1,0.3-2c0,0,0-0.1,0-0.1c0.1,0,0.2,0.1,0.3,0.1c0.2,0.1,0.4,0.2,0.7,0.4c0.1,0.1,0.2,0.2,0.4,0.2
					c0.1,0.1,0.1,0.1,0.2,0.1c0,0,0,0.1,0,0.2c-0.1,0-0.2,0-0.3,0c-0.6,0-1.1,0.4-1.4,0.9c-0.3,0.8,0,1.8,0.7,2.3
					c0.4,0.4,1.2,0.8,1.9,0.8c0.4,0,0.8-0.2,1.1-0.5c-0.1,0.3-0.1,0.7,0.1,1.1c0.4,0.8,1.7,1.5,2.7,1.5c0.6,0,1.1-0.3,1.3-0.8
					c0.6-0.7,0.5-1.2,0.2-1.7c-0.1-0.1-0.1-0.2-0.1-0.2c0,0,0,0,0.1,0c0.3,0.1,0.7,0.4,1.1,0.6c0.2,0.1,0.3,0.2,0.4,0.3l0.1,0.1
					c0,0,0,0.1,0,0.1c-0.1,0.1-0.1,0.1-0.3,0.1c-0.5,0-1,0.1-1.3,1c-0.2,0.5-0.3,0.9-0.1,1.3c0.3,0.8,1.3,1.2,2.1,1.4
					c0.2,0.1,0.3,0.1,0.4,0.2c0.2,0,0.3,0.1,0.4,0.1c0.4,0,0.8-0.2,1-0.6c0.4-0.5,0.5-1.3,0.3-1.8l0-0.1l0-0.1
					c-0.1-0.1-0.1-0.2-0.1-0.3c0,0,0,0,0.1,0c0.1,0,0.1,0.1,0.2,0.1c0.8,0.5,1.5,0.8,2.2,0.8c0.7,0,1.5-0.3,2.1-0.9
					c0.5-0.5,1-0.7,1.7-0.7c0.3,0,0.6,0,1,0.1l0.2,0.1c0.5,0.1,51.7,14.3,68.4,18.8l3.4,0.9l0.5,0.1c1.3,0.6,1.9,2.1,1.7,4.3l0,0
					l0,0c0,0.9-0.4,1.8-1.2,2.6c-1.6,1.7-4.7,2.8-6.5,2.8c-0.3,0-0.5,0-0.7-0.1l-0.1,0l-0.1,0c-0.5,0-1.1-0.1-1.9-0.3
					c-1-0.2-2-0.4-3-0.4c-2,0-3.1,0.8-3.3,2.5l0,0.1l0,0.1c0.6,5.9,8,7.8,11.2,8.6l0,0c0.8,0.3,3.5,0.7,6.9,0.7
					c2.5,0,5.1-0.2,7.7-0.6c0.6,0,1.3-0.1,1.9-0.1c1.2-0.1,2.4-0.2,3.6-0.2c1.3,0,2.4,0.1,3.4,0.4c4.7,1.6,8.8,4.7,12.8,7.7
					c5,3.8,10.3,7.6,16.8,8.7c1,0.2,2,0.3,3,0.3c4.5,0,8.9-2.1,12.3-5.8c6.6-6.8,8.3-16.1,9.9-25c0.3-1.4,0.5-2.7,0.8-4
					c1.6-7.6,0.5-13.9-3.1-18.4c-3.6-4.4-9.6-6.9-17-6.9c-2.2,0-4.5,0.2-6.8,0.6l-0.1,0c-1.4,0.2-2.9,0.5-4.3,0.8
					c-3.1,0.6-6.3,1.3-9.2,1.3c-2.6,0-4.8-0.5-6.6-1.7c-1.1-0.7-2.2-1.4-3.3-2.2c-3-2.1-6.1-4.2-9.8-5c-1.1-0.2-2.2-0.3-3.4-0.3
					c-2,0-3.6,0.5-5.1,1.7c-1.2,0.9-1.7,2.1-1.6,3.2c0.1,1,0.8,1.8,1.9,2.4l0.3,0.1c3.5,1.4,7,2.9,7,7c0,1.9-0.8,5.8-3.1,5.8
					c-0.1,0-0.2,0-0.4,0c-0.8-0.2-1.7-0.4-2.9-0.6c-1.2-0.3-2.6-0.6-4.1-0.9c-21.7-5-74.8-18.1-75.4-18.2c-0.1,0-0.3-0.1-0.4-0.1
					c-0.1,0-0.2,0-0.4-0.1l-0.2,0c-0.4-0.1-0.6-0.2-0.7-0.5l-0.1-0.2l-0.2,0c-1.5-0.3-2.6-1.5-3.4-3.8c-0.4-1.9-4.4-2.3-10.3-2.3
					c-0.5,0-1,0-1.5,0c-0.4,0-0.8,0-1.2,0c-0.7,0-1.6,0-2-0.1c-1,0-1,0-1.3-0.8C12.9,148,9.8,146,7,146L7,146z M11.2,159.7
					C11.2,159.7,11.2,159.7,11.2,159.7c0.2,0,0.4,0.1,0.5,0.2l0.2,0.1c0.1,0.1,0.3,0.2,0.5,0.3c0.2,0.1,0.2,0.2,0.2,0.3
					c0,0-0.1,0-0.1,0c0,0-0.1,0-0.1,0c-0.1,0-0.1,0-0.2,0c-0.3,0-0.6,0.1-0.8,0.3C11.6,160.6,11.6,160.2,11.2,159.7L11.2,159.7z
					 M19.3,165.6c0.1-0.4,0-0.7-0.2-1c-0.1-0.1-0.1-0.2-0.1-0.3c0,0,0.1,0,0.1,0c0.3,0.1,0.6,0.4,1,0.6c0.2,0.1,0.3,0.3,0.5,0.3
					c0,0,0,0,0,0c-0.1,0-0.3,0-0.4,0C19.7,165.2,19.5,165.4,19.3,165.6L19.3,165.6z"/>
			</g>
			<path class="st14" d="M122.1,183.3l-1.5,5.8c-0.3,1.2-1.6,2-2.8,1.7l-5.2-1.4l-4.1-1.1l-2.2-0.6c0.2,0.1,0.4,0.1,0.6,0.2
				c1.9,0.9,2.2,2.9,2,4.8c0.1,3.9-6.8,6.5-9,5.9c-2.3-0.1-7.3-2-7.7,1.4c0.6,5.1,6.6,7.1,10.8,8.2c0,0,5.7,1.4,14.5,0
				c3-0.2,6.1-0.7,9.1,0c10.7,3.6,18,14.5,29.5,16.4c5.6,1.2,11.1-1.2,14.8-5.3c7.5-7.7,8.6-18.8,10.6-28.8
				c3.9-18.7-9.1-27.2-26.4-24.1l0,0c-7,1.1-14.8,4-20.6,0.4c-4.2-2.6-8-6.1-12.9-7.1c-2.8-0.5-5.5-0.7-8,1.2
				c-2,1.6-1.9,3.7,0.1,4.7c3.6,1.5,7.6,3,7.5,7.6c0,2.3-1,6.8-4,6.3c-0.8-0.2-1.8-0.4-2.9-0.6l5.9,1.5
				C121.6,180.8,122.4,182.1,122.1,183.3z"/>
			<g>
				<path class="st0" d="M165.6,168.9c-0.2-0.1-0.5-0.1-0.8-0.2c-0.4-0.1-0.8-0.1-1.3-0.1c-0.5,0-1.1-0.1-1.6-0.1
					c-1,0-1.9,0.1-2.9,0.1c-0.6,0.1-1.3,0.1-2,0.2l-1.4,0.2c-0.9,0.1-1.8,0.3-2.7,0.5c-0.5,0.1-1,0.2-1.5,0.3
					c-3.2,0.7-6.6,1.4-9.9,1.4c-3.3,0-6-0.7-8.4-2.1c-1.2-0.7-2.3-1.5-3.4-2.3c-2.8-2-5.5-3.8-8.5-4.4c-0.9-0.1-1.9-0.3-2.7-0.3
					c-1.3,0-2.2,0.3-3,0.9c0,0-0.1,0.1-0.1,0.1c1.8,0.7,3.9,1.6,5.6,3c2.2,1.8,3.3,4.2,3.3,7.1c0,1.7-0.4,3.6-1,5.1
					c0,0.1-0.1,0.2-0.2,0.3c0,0,0,0,0,0c-0.5,1.5-2.5,2.4-3,2.3c-2.4,5.1-5.4,10.4-5.5,10.5c-0.3,0.4-0.6,0.7-0.8,1.1
					c-0.2,0.2-0.3,0.5-0.5,0.7c-0.9,1.4-0.1,2.8,1.6,2.9c1,0,2,0,3.1,0c3.3,0.1,6.5,0.5,9.6,1.6c2.8,1.1,5.2,2.7,7.7,4.3
					c2.3,1.5,4.6,3.1,7.4,3.9c2.5,0.7,4.9,0.9,7.4,0.1c2.2-0.8,3.3-2.3,3.5-4.7c-0.4-0.3,3.7-16.1,3.7-16.1c2.8-9.7,6.9-10,8.9-11.7
					C168.1,171.9,167.2,169.5,165.6,168.9z"/>
			</g>
			<path class="st1" d="M30.7,167l3.4,0.9l0.2,0.1c0,0,51.5,14.2,68.4,18.8c1.4,0.4,2.6,0.7,3.4,0.9l2.2,0.6l4.1,1.1l5.2,1.4
				c1.2,0.3,2.5-0.4,2.8-1.7l1.5-5.8c0.3-1.2-0.4-2.5-1.7-2.8l-5.9-1.5c-1.2-0.3-2.6-0.6-4.1-0.9C88.5,172.9,35,159.8,35,159.8
				c-0.3-0.1-0.5-0.1-0.8-0.2l-0.2-0.1l-1.4-0.4L30.7,167z"/>
			<path class="st1" d="M25,167.9c-0.6,0.9-1.2-0.1-1.7,1.2c-0.8,1.4,1.2,1.8,2.1,2.2c0.9,0.2,1.3-1.1,1-1.7c-0.5-0.7-0.1-1.3,0.5-1
				l-2.2-1.3C25,167.3,25.1,167.7,25,167.9z"/>
			<path class="st1" d="M16.6,163.6c-1.5-0.3-1.5,1.6-0.6,2.3c0.5,0.4,1.8,1.1,2.4,0.3c1.1-1.4-0.2-1.3,0.2-2.4
				c0.2-0.1,0.4-0.1,0.7-0.1l-2.8-1.7c0.3,0.2,0.5,0.3,0.6,0.4C17.3,162.9,17.1,163.6,16.6,163.6z"/>
			<path class="st1" d="M20.5,165.8c-0.9-0.3-1.1,0.4-1.3,0.9c-0.8,1.1,2.6,2.9,3,1.5c1-1.2-0.3-1,0.2-2.1c0.2-0.1,0.4-0.1,0.6,0
				l-2.7-1.6c0.2,0.1,0.4,0.3,0.5,0.4C21.1,165.1,21,165.9,20.5,165.8z"/>
			<path class="st1" d="M13.1,160.9c-0.8,0.7-1.1-0.5-1.8,1.3c-0.5,1.2,2.1,2.4,2.9,1.6c0.4-0.4,1-0.9,0.3-1.6c-0.2-1,0.4-1,1-0.6
				l-2.9-1.7C13,160.2,13.2,160.5,13.1,160.9z"/>
			<path class="st1" d="M5.2,156.4c-0.6,0.6-1.1-0.4-1.6,0.7c-0.3,0.5-0.4,1,0.1,1.4c0.6,0.6,1.9,1.3,2.7,0.7c0.4-0.4,1.1-1,0.3-1.7
				c-0.1-0.1,0-0.4,0-0.6c0-0.1,0.4-0.2,0.5-0.1c0.7,0.5,2.3,0.8,2,1.9c0,0.1-0.4,0.3-0.5,0.3c-0.8-0.2-1,0.5-1.3,1
				c-0.3,0.6,0,1,0.4,1.2c0.7,0.3,2.1,1.4,2.6,0.4c0.2-0.5,0.9-0.9,0.2-1.5c-0.1-0.1,0-0.5,0-0.8c0-0.1,0.4-0.2,0.5-0.1
				c0.2,0.2,0.6,0.3,0.9,0.5l-7.3-4.3C5.2,155.5,5.3,155.9,5.2,156.4z"/>
			<g>
				<path class="st0" d="M142.5,199c-0.3,0-0.6-0.1-0.8-0.3l-0.3-0.3c-0.5-0.4-0.6-1.2-0.2-1.7l7.3-9.2c0.2-0.3,0.6-0.5,1-0.5
					c0.3,0,0.6,0.1,0.8,0.3l0.3,0.3c0.3,0.2,0.4,0.5,0.5,0.8c0,0.3-0.1,0.7-0.3,0.9l-7.3,9.2C143.2,198.8,142.9,199,142.5,199z"/>
				<path class="st1" d="M149.5,187.3L149.5,187.3c0.2,0,0.4,0.1,0.6,0.2l0.3,0.3c0.4,0.3,0.5,1,0.2,1.4l-7.3,9.2
					c-0.2,0.2-0.5,0.4-0.8,0.4c-0.2,0-0.4-0.1-0.6-0.2l-0.3-0.3c-0.4-0.3-0.5-1-0.2-1.4l7.3-9.2
					C148.9,187.5,149.2,187.3,149.5,187.3 M149.5,186.8c-0.4,0-0.9,0.2-1.2,0.6l-7.3,9.2c-0.5,0.6-0.4,1.6,0.2,2.1l0.3,0.3
					c0.3,0.2,0.6,0.3,0.9,0.3c0.4,0,0.9-0.2,1.2-0.6l7.3-9.2c0.5-0.6,0.4-1.6-0.2-2.1l-0.3-0.3C150.1,186.9,149.8,186.8,149.5,186.8
					L149.5,186.8z"/>
			</g>
			<g>
				<path class="st0" d="M135.2,196.4c-0.1,0-0.2,0-0.4,0c-0.8-0.2-1.2-1-1-1.8l2.5-9.8c0.2-0.6,0.7-1.1,1.4-1.1c0.1,0,0.2,0,0.4,0
					c0.8,0.2,1.2,1,1,1.8l-2.5,9.8C136.5,195.9,135.9,196.4,135.2,196.4z"/>
				<path class="st1" d="M137.7,183.9L137.7,183.9c0.1,0,0.2,0,0.3,0c0.6,0.2,1,0.8,0.9,1.5l-2.5,9.8c-0.1,0.5-0.6,0.9-1.2,0.9
					c-0.1,0-0.2,0-0.3,0c-0.6-0.2-1-0.8-0.9-1.5l2.5-9.8C136.7,184.3,137.2,183.9,137.7,183.9 M137.7,183.4c-0.8,0-1.5,0.5-1.7,1.3
					l-2.5,9.8c-0.2,0.9,0.3,1.8,1.2,2.1c0.1,0,0.3,0.1,0.4,0.1c0.8,0,1.5-0.5,1.7-1.3l2.5-9.8c0.2-0.9-0.3-1.8-1.2-2.1
					C138,183.4,137.9,183.4,137.7,183.4L137.7,183.4z"/>
			</g>
			<g>
				<path class="st0" d="M122.3,193c-0.1,0-0.2,0-0.4,0c-0.8-0.2-1.2-1-1-1.8l2.5-9.8c0.2-0.6,0.7-1.1,1.4-1.1c0.1,0,0.2,0,0.4,0
					c0.8,0.2,1.2,1,1,1.8l-2.5,9.8C123.6,192.6,123,193,122.3,193z"/>
				<path class="st1" d="M124.8,180.6L124.8,180.6c0.1,0,0.2,0,0.3,0c0.3,0.1,0.6,0.3,0.7,0.6s0.2,0.6,0.1,0.9l-2.5,9.8
					c-0.1,0.5-0.6,0.9-1.2,0.9c-0.1,0-0.2,0-0.3,0c-0.3-0.1-0.6-0.3-0.7-0.6s-0.2-0.6-0.1-0.9l2.5-9.8
					C123.8,181,124.3,180.6,124.8,180.6 M124.8,180.1c-0.8,0-1.5,0.5-1.7,1.3l-2.5,9.8c-0.2,0.9,0.3,1.8,1.2,2.1
					c0.1,0,0.3,0.1,0.4,0.1c0.8,0,1.5-0.5,1.7-1.3l2.5-9.8c0.2-0.9-0.3-1.8-1.2-2.1C125.1,180.1,125,180.1,124.8,180.1L124.8,180.1z
					"/>
			</g>
			<path class="st14" d="M4.3,154.9c0.2,0.1,0.4,0.2,0.5,0.3l7.3,4.3c0.2,0.1,0.4,0.2,0.5,0.3l2.9,1.7c0.3,0.1,0.5,0.3,0.8,0.5
				l2.8,1.7c0.4,0.1,0.8,0.4,1.1,0.7l2.7,1.6c0.6,0.2,1.2,0.7,1.7,1l0.1,0.1c0,0,0,0,0,0c0,0,0,0,0,0l2.2,1.3c0.1,0,0.2,0.1,0.3,0.2
				c1.2,0.9,2.5,1.1,3.6-0.1c0.9-0.9,2-1,3.1-0.7l-3.4-0.9l2-7.8l1.4,0.4c-0.4-0.1-0.8-0.3-1-0.7c-2.1-0.3-3.2-2.3-3.8-4.2
				c-0.4-2.7-12-1.7-14.6-2c-1.2,0-1.4-0.2-1.8-1.2c-0.7-5.2-8.6-7-10.3-1.8C1.9,151.9,2.5,153.7,4.3,154.9z"/>
			<g>
				<path class="st15" d="M156.1,204.1c-0.1,0-0.3,0-0.4-0.1l-4-1c-0.9-0.2-1.4-1.1-1.2-2l3.6-13.8c0.2-0.7,0.8-1.2,1.6-1.2
					c0.1,0,0.3,0,0.4,0.1l4,1c0.9,0.2,1.4,1.1,1.2,2l-0.1,0.4l2.8,0.7c1,0.3,1.6,1.3,1.3,2.2l-2.5,9.8c-0.2,0.8-1,1.4-1.8,1.4
					c-0.2,0-0.3,0-0.5-0.1l-2.7-0.7l0,0C157.5,203.6,156.9,204.1,156.1,204.1L156.1,204.1z"/>
				<path class="st1" d="M155.7,186.1c0.1,0,0.3,0,0.4,0l4,1c0.8,0.2,1.3,1,1.1,1.8l-0.1,0.5l2.9,0.7c0.9,0.2,1.5,1.2,1.2,2.1
					l-2.5,9.8c-0.2,0.8-0.9,1.3-1.7,1.3c-0.1,0-0.3,0-0.4-0.1l-2.9-0.7l0,0.1c-0.2,0.7-0.8,1.1-1.5,1.1c-0.1,0-0.3,0-0.4,0l-4-1
					c-0.8-0.2-1.3-1-1.1-1.8l3.6-13.8C154.4,186.6,155,186.1,155.7,186.1 M155.7,185.9c-0.8,0-1.5,0.5-1.7,1.3l-3.6,13.8
					c-0.2,0.9,0.3,1.9,1.3,2.2l4,1c0.1,0,0.3,0.1,0.4,0.1c0.8,0,1.4-0.5,1.7-1.2l2.6,0.7c0.2,0,0.3,0.1,0.5,0.1
					c0.9,0,1.7-0.6,1.9-1.5l2.5-9.8c0.3-1-0.4-2.1-1.4-2.4l-2.6-0.7l0.1-0.3c0.1-0.5,0.1-0.9-0.2-1.3c-0.2-0.4-0.6-0.7-1.1-0.8l-4-1
					C156,185.9,155.8,185.9,155.7,185.9L155.7,185.9z"/>
			</g>
			<g>
				<path class="st0" d="M160.5,173.9c-0.9,0-1.6-0.7-1.6-1.6s0.7-1.6,1.6-1.6s1.6,0.7,1.6,1.6S161.4,173.9,160.5,173.9z"/>
				<path class="st1" d="M160.5,170.9c0.7,0,1.3,0.6,1.3,1.3s-0.6,1.3-1.3,1.3c-0.7,0-1.3-0.6-1.3-1.3S159.7,170.9,160.5,170.9
					 M160.5,170.4c-1,0-1.9,0.8-1.9,1.9c0,1,0.8,1.9,1.9,1.9s1.9-0.8,1.9-1.9C162.3,171.3,161.5,170.4,160.5,170.4L160.5,170.4z"/>
			</g>
			<g>
				<path class="st0" d="M155.7,177.6c-0.9,0-1.6-0.7-1.6-1.6s0.7-1.6,1.6-1.6s1.6,0.7,1.6,1.6S156.6,177.6,155.7,177.6z"/>
				<path class="st1" d="M155.7,174.7c0.7,0,1.3,0.6,1.3,1.3s-0.6,1.3-1.3,1.3s-1.3-0.6-1.3-1.3S154.9,174.7,155.7,174.7
					 M155.7,174.1c-1,0-1.9,0.8-1.9,1.9c0,1,0.8,1.9,1.9,1.9s1.9-0.8,1.9-1.9C157.5,175,156.7,174.1,155.7,174.1L155.7,174.1z"/>
			</g>
		</g>
	</g>
	<g>
		<path class="st1" d="M53.6,184.9c-0.8,0-1.6-0.2-2.3-0.6c-1.6-0.9-2.5-2.6-2.4-4.3c-0.3,0.1-0.6,0.1-1,0.1c-0.8,0-1.6-0.2-2.3-0.6
			c-2.1-1.2-3-3.8-2-6.1c0,0,0.1-0.2,0.1-0.3c0.2-0.3,0.7-1,1.7-2.1c0.2-0.2,0.4-0.5,0.6-0.7c1.6-1.7,3-2.4,4.3-2.4
			c0.6,0,1.3,0.2,2.1,0.5c1.1,0.5,1.3,1.5,1.3,2.5c0.6-0.6,1.3-0.8,2.1-0.8c0.7,0,1.5,0.2,2.3,0.7c1.4,0.8,1.7,2,1.5,3.2
			c0.4-0.2,0.8-0.3,1.2-0.3c0.7,0,1.4,0.3,2,1c0.3,0.3,0.5,0.7,0.7,1c1,2,0.3,4.1-0.3,5.2c0,0.1-0.1,0.2-0.2,0.4
			c-0.2,0.3-0.4,0.6-0.7,0.9l-0.2,0.2l0,0c-0.9,0.8-2,1.3-3.2,1.3c-0.7,0-1.4-0.2-2-0.4C56.3,184.2,55,184.9,53.6,184.9z"/>
		<path class="st0" d="M50.6,168.3c0.7,0,1.3,0.2,1.9,0.5c1.9,0.8,0.7,3.6,0.7,3.6c0.6-1.1,1.5-2,2.9-2c0.6,0,1.3,0.2,2.1,0.6
			c2.2,1.2,1.1,3.6,0.8,4.3c0.4-0.7,1.2-1.4,2.1-1.4c0.5,0,1.1,0.2,1.7,0.9c0.3,0.3,0.5,0.6,0.7,0.9c0.9,1.8,0.2,3.8-0.3,4.8
			c-0.1,0.1-0.1,0.2-0.2,0.4c-0.2,0.3-0.4,0.6-0.6,0.8l0,0.1l0,0c-0.8,0.9-1.9,1.3-3.1,1.3c-0.7,0-1.4-0.2-2.1-0.5l0,0
			c-0.8,1.2-2.1,1.8-3.5,1.8c-0.7,0-1.4-0.2-2.1-0.5c-1.6-0.9-2.4-2.7-2.1-4.5c-0.4,0.2-0.9,0.2-1.4,0.2c-0.7,0-1.4-0.2-2.1-0.5
			c-2-1.1-2.7-3.5-1.8-5.6c0,0,0,0,0,0c0-0.1,0.1-0.2,0.1-0.2c0.2-0.4,1-1.3,1.7-2c0,0,0,0,0,0c0.2-0.2,0.4-0.5,0.6-0.7
			C48.2,168.9,49.4,168.3,50.6,168.3 M50.6,167.5L50.6,167.5c-1.5,0-3,0.8-4.6,2.6c-0.2,0.2-0.4,0.4-0.6,0.7l0,0
			c-1,1.1-1.5,1.8-1.7,2.2c0,0.1-0.1,0.1-0.1,0.2l0,0l0,0.1l0,0.1c-1.1,2.4-0.2,5.2,2.1,6.5c0.7,0.4,1.6,0.6,2.4,0.6
			c0.2,0,0.4,0,0.6,0c0.1,1.7,1,3.3,2.6,4.2c0.7,0.4,1.6,0.6,2.4,0.6c1.4,0,2.8-0.6,3.7-1.6c0.6,0.2,1.2,0.4,1.9,0.4
			c1.2,0,2.4-0.4,3.3-1.2l0.1,0l0.3-0.4l0-0.1c0.3-0.3,0.5-0.6,0.7-0.9c0.1-0.1,0.1-0.3,0.2-0.4c0.6-1.1,1.4-3.4,0.3-5.5
			c-0.2-0.4-0.5-0.8-0.8-1.1c-0.7-0.7-1.4-1.1-2.2-1.1c-0.3,0-0.5,0-0.8,0.1c0-1.1-0.4-2.2-1.7-3c-0.9-0.5-1.7-0.7-2.5-0.7
			c-0.6,0-1.2,0.2-1.8,0.5c-0.1-0.8-0.5-1.6-1.5-2.1C52,167.7,51.3,167.5,50.6,167.5L50.6,167.5z"/>
	</g>
	<path class="st3" d="M193.3,84.9l3.8,15.1c0,0-45.9-3.5-84.9,15.2l-1.4-15.2C110.9,100,156.5,66.7,193.3,84.9z"/>
	<g>
		<g>
			<path class="st1" d="M196.4,201.2c0,0.5-0.1,1-0.3,1.3c-0.2,0.3-0.5,0.6-0.9,0.7l1,1h-0.7l-0.8-0.9l-0.2,0
				c-0.6,0-1.1-0.2-1.4-0.6c-0.3-0.4-0.5-0.9-0.5-1.6c0-0.7,0.2-1.2,0.5-1.6c0.3-0.4,0.8-0.6,1.4-0.6c0.6,0,1.1,0.2,1.4,0.6
				C196.2,200,196.4,200.5,196.4,201.2z M193.1,201.2c0,0.6,0.1,1,0.4,1.3c0.2,0.3,0.6,0.4,1,0.4c0.5,0,0.8-0.1,1-0.4
				c0.2-0.3,0.4-0.7,0.4-1.3c0-0.6-0.1-1-0.4-1.3s-0.6-0.4-1-0.4c-0.5,0-0.8,0.1-1,0.4C193.2,200.2,193.1,200.6,193.1,201.2z"/>
			<path class="st1" d="M201.1,199.1v2.7c0,0.5-0.1,0.8-0.4,1.1c-0.3,0.3-0.7,0.4-1.2,0.4c-0.5,0-0.9-0.1-1.2-0.4
				c-0.3-0.3-0.4-0.6-0.4-1.1v-2.7h0.5v2.7c0,0.3,0.1,0.6,0.3,0.8c0.2,0.2,0.5,0.3,0.8,0.3c0.4,0,0.6-0.1,0.8-0.3
				c0.2-0.2,0.3-0.5,0.3-0.8v-2.7H201.1z"/>
			<path class="st1" d="M205.6,203.3l-0.5-1.3h-1.7l-0.5,1.3h-0.5l1.6-4.1h0.4l1.6,4.1H205.6z M204.9,201.5l-0.5-1.3
				c-0.1-0.2-0.1-0.4-0.2-0.6c0,0.2-0.1,0.4-0.2,0.6l-0.5,1.3H204.9z"/>
			<path class="st1" d="M207.8,201.5v1.7h-0.5v-4.1h1.1c0.5,0,0.9,0.1,1.1,0.3c0.2,0.2,0.4,0.5,0.4,0.9c0,0.5-0.3,0.9-0.8,1.1
				l1.1,1.9h-0.6l-1-1.7H207.8z M207.8,201.1h0.7c0.3,0,0.6-0.1,0.7-0.2c0.2-0.1,0.2-0.3,0.2-0.6c0-0.3-0.1-0.5-0.2-0.6
				c-0.2-0.1-0.4-0.2-0.8-0.2h-0.6V201.1z"/>
			<path class="st1" d="M214.6,203.3H214l-1.5-2l-0.4,0.4v1.6h-0.5v-4.1h0.5v2l1.9-2h0.6l-1.7,1.8L214.6,203.3z"/>
			<path class="st1" d="M219,199.1v2.7c0,0.5-0.1,0.8-0.4,1.1c-0.3,0.3-0.7,0.4-1.2,0.4c-0.5,0-0.9-0.1-1.2-0.4
				c-0.3-0.3-0.4-0.6-0.4-1.1v-2.7h0.5v2.7c0,0.3,0.1,0.6,0.3,0.8c0.2,0.2,0.5,0.3,0.8,0.3c0.4,0,0.6-0.1,0.8-0.3
				c0.2-0.2,0.3-0.5,0.3-0.8v-2.7H219z"/>
			<path class="st1" d="M223.2,202.2c0,0.4-0.1,0.6-0.4,0.8c-0.3,0.2-0.6,0.3-1.1,0.3c-0.5,0-0.9-0.1-1.1-0.2v-0.5
				c0.2,0.1,0.4,0.1,0.6,0.2c0.2,0,0.4,0.1,0.6,0.1c0.3,0,0.6-0.1,0.7-0.2c0.2-0.1,0.2-0.3,0.2-0.5c0-0.1,0-0.3-0.1-0.4
				c-0.1-0.1-0.2-0.2-0.3-0.3c-0.1-0.1-0.3-0.2-0.6-0.3c-0.4-0.1-0.7-0.3-0.8-0.5c-0.2-0.2-0.2-0.4-0.2-0.7c0-0.3,0.1-0.6,0.4-0.8
				c0.2-0.2,0.6-0.3,1-0.3c0.4,0,0.8,0.1,1.1,0.2l-0.2,0.4c-0.3-0.1-0.7-0.2-1-0.2c-0.3,0-0.5,0.1-0.6,0.2c-0.1,0.1-0.2,0.3-0.2,0.5
				c0,0.1,0,0.3,0.1,0.4c0.1,0.1,0.1,0.2,0.3,0.3c0.1,0.1,0.3,0.2,0.6,0.3c0.4,0.2,0.7,0.3,0.9,0.5
				C223.1,201.6,223.2,201.9,223.2,202.2z"/>
		</g>
		<polygon class="st3" points="209.4,187.6 207.9,188.5 209.4,189.4 		"/>
		<polygon class="st4" points="206.3,187.6 206.3,189.4 207.9,188.5 		"/>
		<polygon class="st1" points="209.4,189.4 207.9,188.5 206.3,189.4 207.9,190.2 		"/>
		<polygon class="st3" points="204.7,190.4 206.3,191.3 206.3,189.5 		"/>
		<polygon class="st4" points="206.3,193 207.8,192.1 206.3,191.3 		"/>
		<polygon class="st1" points="206.3,189.5 206.3,191.3 207.8,192.1 207.8,190.4 		"/>
		<polygon class="st3" points="209.5,193 209.5,191.3 207.9,192.1 		"/>
		<polygon class="st4" points="211,190.4 209.5,189.5 209.5,191.3 		"/>
		<polygon class="st1" points="207.9,192.1 209.5,191.3 209.5,189.5 207.9,190.4 		"/>
		<path class="st3" d="M211.2,185.9h-6.6c-0.9,0-1.6,0.7-1.6,1.6v6.6c0,0.9,0.7,1.6,1.6,1.6h4.5l-1.2-3l-0.9,1.9h-2.4
			c-0.3,0-0.5-0.3-0.5-0.5v-6.6c0-0.3,0.3-0.5,0.5-0.5h6.6c0.3,0,0.5,0.3,0.5,0.5v6.6c0,0.3-0.3,0.5-0.5,0.5h-1.4l0.5,1.1h1
			c0.9,0,1.6-0.7,1.6-1.6v-6.6C212.8,186.6,212.1,185.9,211.2,185.9z"/>
	</g>
</g>
</svg>
