<?xml version="1.0" encoding="utf-8"?>
<!-- Generator: Adobe Illustrator 27.6.1, SVG Export Plug-In . SVG Version: 6.00 Build 0)  -->
<svg version="1.1" id="Layer_1" xmlns="http://www.w3.org/2000/svg" xmlns:xlink="http://www.w3.org/1999/xlink" x="0px" y="0px"
	 viewBox="0 0 256 256" style="enable-background:new 0 0 256 256;" xml:space="preserve">
<style type="text/css">
	.st0{fill:#FFFFFF;}
	.st1{fill:#010101;}
	.st2{fill:#ED1C24;}
	.st3{fill:#0081C3;}
	.st4{fill:#FB5058;}
	.st5{fill:#EA5B24;}
	.st6{fill:#89483E;}
	.st7{fill:#C03A26;}
	.st8{fill:#F89420;}
	.st9{fill:#F47D20;}
	.st10{fill:#F36D21;}
	.st11{fill:#F78D1E;}
	.st12{fill:#DF5126;}
	.st13{fill:#ED6A22;}
	.st14{fill:#DCBC83;}
	.st15{fill:#BACCD5;}
	.st16{fill:#5F3722;}
	.st17{fill:#0081C3;stroke:#FFFFFF;stroke-width:0.2754;stroke-miterlimit:10;}
	.st18{fill:#FBAB18;}
	.st19{fill:#2F1F11;}
	.st20{clip-path:url(#SVGID_00000154390914897864255240000008943897108098353577_);}
	.st21{clip-path:url(#SVGID_00000154390914897864255240000008943897108098353577_);fill:#010101;}
	.st22{clip-path:url(#SVGID_00000154390914897864255240000008943897108098353577_);fill:#FFFFFF;}
	.st23{clip-path:url(#SVGID_00000159448473651130225170000012308440211139347386_);fill:#FB5058;}
	.st24{clip-path:url(#SVGID_00000159448473651130225170000012308440211139347386_);fill:#FFFFFF;}
	.st25{clip-path:url(#SVGID_00000159448473651130225170000012308440211139347386_);fill:#010101;}
	.st26{fill:#8C786D;}
	.st27{fill:#8C786D;stroke:#FFFFFF;stroke-width:0.826;stroke-miterlimit:10;}
	.st28{fill:#0081C3;stroke:#091313;stroke-width:0.826;stroke-miterlimit:10;}
	.st29{fill:none;stroke:#091313;stroke-width:0.826;stroke-miterlimit:10;}
</style>
<g>
	<path class="st19" d="M94.2,19.6c0,0.1-0.1,0.3-0.1,0.4c-2.4-0.5-4.8-1.1-7.2-1.6c0,0.1-0.1,0.2-0.1,0.3c0.7,0.2,1.5,0.5,2.2,0.7
		c2.1,0.6,4.1,1.1,6.2,1.7c2.6,0.7,3.8,2.9,5.3,4.7c-0.1,0.1-0.2,0.2-0.3,0.4c-1.4-1-2.8-1.9-4.2-2.9c-0.1,0.1-0.1,0.2-0.2,0.2
		c0.8,0.6,1.6,1.3,2.4,1.9c-0.1,0.1-0.1,0.2-0.2,0.3c-8.4-5.9-17.6-9.8-28-10.5c0.2,0.2,0.4,0.3,0.6,0.3c2.3,0.5,4.5,0.9,6.8,1.4
		c4.7,1.2,9.2,3,12.6,6.6c0.3,0.3,0.5,0.6,0.7,0.9c-0.1,0.1-0.1,0.2-0.2,0.3c-5.5-3.5-11-6.9-17.3-6.4c2.4,0.6,5.4,1.1,8.2,2.1
		c2.8,1,5.4,2.6,8.2,3.9c-1.1,1.4-2.8,1.7-4.2,0.9c-0.8-0.5-1.7-0.9-2.6-1.3c0,0.1-0.1,0.2-0.1,0.3c0.7,0.4,1.5,0.8,2.2,1.1
		c0,0.1-0.1,0.3-0.1,0.4c-5.3-0.4-10.5-0.7-15.8-1.1c0,0.1,0,0.3,0,0.4c0.5,0.1,0.9,0.2,1.4,0.4c-0.2,0.1-0.4,0.2-0.6,0.3
		c1.5,0.4,2.8,0.8,4.1,1c1.1,0.2,2.2-0.2,3.2,0.1c2.1,0.6,4.1,1.6,6.2,2.4c0.2,0.1,0.3,0.3,0.5,0.5c-0.1,0.1-0.1,0.2-0.2,0.3
		c-0.8-0.3-1.6-0.6-2.5-0.9c-2.4-0.9-4.7-1.9-7.4-1.6c0.7,0.1,1.5,0.2,2.2,0.5c2,0.6,3.9,1.3,5.9,2c0.3,0.1,0.4,0.5,0.7,0.8
		c0.4,0.5,1.6-0.3,1.7,0.9c0.9,0.4,2,0.6,2.8,1.1c1.3,0.8,2.6,1.7,3.8,2.6c1,0.8,1.9,1.8,2.9,2.7c0.7,0.6,0.8,1.3,0.7,2.3
		c-0.6-0.4-1.6-0.9-1.5-1.1c0.4-1.1-0.7-0.9-1.1-1.2c-0.3-0.2-0.8-0.4-1.2-0.5c-1.3-0.5-2.6-1-3.9-1.6c1,0.5,1.9,1.1,2.9,1.6
		c2.2,1.1,3.6,3.1,5,4.9c0.4,0.6,1,1.1,1.5,1.7c-1,0.1-5.6-2.7-6.9-4.3c0.1,0,0.1,0,0.2,0c-0.7-0.4-1.4-0.9-2.1-1.3
		c-0.9-0.5-1.8-1-2.9-1.6c0.2,0.5,0.3,0.7,0.6,1.3c-1.3-0.6-2.5-1.2-3.6-1.7c0.3,0.3,0.6,0.7,0.9,1c-0.1,0.1-0.1,0.2-0.2,0.2
		c-0.9-0.6-1.8-1.2-2.7-1.8c-0.1-0.1-0.2-0.1-0.3-0.2c-0.8-0.1-1.5-0.2-2.6-0.3c1.2,0.7,2.1,1.2,3,1.8c-0.1,0.1-0.1,0.3-0.2,0.4
		c-0.5-0.1-0.9-0.1-1.4-0.2c-1.8-0.4-3.5-0.8-5.3-1.1c-0.4-0.1-0.9,0.2-1.4,0.3c0.2,0.1,0.4,0.1,0.5,0.2c3,0.2,8.6,2.1,9.7,3.4
		c-2-0.7-4-1.4-5.9-2.1c0,0.1-0.1,0.2-0.1,0.3c0.2,0.2,0.4,0.5,0.8,0.8c-1.1,0-2-0.1-2.9-0.1c0,0.1-0.1,0.3-0.1,0.4
		c3.4-0.1,6.3,1,9.2,2.6c-0.4,0.2-0.8,0.2-1.1,0.1c-1.2-0.4-2.3-1-3.5-1.2c-1.5-0.3-3-0.2-4.5-0.3c-0.1,0.2-0.1,0.4-0.2,0.7
		c2.5-0.5,4.4,1.2,6.5,2c-1.9,0.1-3.5-1.4-5.7-0.6c4.1,0.9,7.3,2.8,10.1,5.7c-1.7-0.1-3.2-0.5-4.8-0.8c-2.1-0.5-4.2-1-6.4-1.4
		c-0.8-0.1-1.6,0.4-2.4,0.3c-2.2-0.2-4.4-0.6-6.6-0.9c0.1-0.1,0.3-0.2,0.8-0.4c-0.6-0.1-1-0.1-1.3-0.1c-1.6,0-3.2,0.1-4.7,0.2
		c-2,0.1-4,0.3-6,0.5c-0.6,0.1-1.3,0.2-1.9,0.2c-1.7,0-3.3,0-5,0c-0.8,0-1.5,0.3-2.2,0.5c0,0.1,0,0.1,0,0.2c1.4-0.2,2.9-0.3,4.3-0.5
		c0,0.1,0,0.1,0,0.2c-1.7,0.5-3.4,0.9-5.2,1.4c0,0.1,0,0.2,0.1,0.3c2.3-0.5,4.6-1,7-1.5c0,0.1,0.1,0.2,0.1,0.3
		c-0.7,0.2-1.4,0.4-2.1,0.7c0,0.1,0,0.2,0.1,0.3c2.5-0.3,5-0.6,7.6-0.9c0,0.1,0,0.2,0,0.2c-0.1,0.1-0.3,0.2-0.3,0.2
		c1.8,0.2,3.7,0.4,5.6,0.7c1.5,0.2,3,0.6,4.5,1c0.8,0.2,1.4,0.9,2.2,1.2c2,0.8,4.1,1.4,6.2,2.1c0.6,0.2,1.1,0.6,1.9,1.1
		c-1,0.4-1.6,0.7-2.3,0.9c-2.5,0.8-5,1.5-7.5,2.3c-1.1,0.4-2.2,1-3.3,1.4c-0.7,0.2-1.4,0.2-2.1,0.4c-1.6,0.3-3.2,0.6-4.7,0.9
		c-3.4,0.6-6.9,0.6-10.3,0.9c-1.5,0.1-3,0.5-4.5,0.7c0,0.1,0,0.2,0.1,0.3c1.9-0.3,3.9-0.9,5.5-0.6c1.9-0.2,3.4-0.4,5-0.6
		c0,0.1,0,0.2,0.1,0.4c-1.5,0.4-3,0.8-4.5,1.2c1.1,0.4,2,0.7,3,1c0,0.1-0.1,0.3-0.1,0.4c-0.4,0.1-0.8,0.2-1.1,0.4c0,0,0-0.1-0.1-0.1
		c0.1-0.1,0.3-0.2,0.6-0.5c-0.8,0.2-1.5,0.4-2.1,0.6c-2.8,0.9-5.6,1.7-8.6,1.6c-0.6,0-1,0.2-0.9,0.9c0,0.5-0.3,1-0.4,1.5
		c0.5-0.1,1.1-0.2,1.7-0.3c-0.3,0.6-0.6,1-0.9,1.5c0.1,0.1,0.2,0.2,0.3,0.3c0.8-0.2,1.5-0.5,2.3-0.7c0,0.9,0.5,1,1.2,0.8
		c1.4-0.4,2.8-0.2,4.2,0c0,0.1,0,0.2,0,0.4c-1.2,0.1-2.3,0.3-3.6,0.4c0.3,0.3,0.5,0.5,0.8,0.7c-1.8,0.8-3.4,1.2-5.1,1.3
		c-0.7,0-1.5,0.4-2.2,0.7c-0.3,0.1-0.5,0.5-0.8,0.5c-2.7,0.6-5.4,1.2-8.1,1.8c0,0-0.1,0-0.1,0c-1.2,0.3-2.4,0.5-3.6,0.9
		c-1,0.4-1.9,1-2.9,1.5c-0.6,0.4-1.1,0.9-1.7,1.3c-0.1,0.1-0.3,0.2-0.4,0.3c0,0.1,0.1,0.1,0.1,0.2c1.9-0.5,3.9-0.9,6-1.4
		c-1.4,1.1-2.6,2.1-3.8,3c-0.3,0.2-0.7,0.3-1.1,0.3c-1.3,0.3-2.6,0.6-3.9,0.9c0,0.1,0,0.2,0,0.2c0.8-0.1,1.6-0.2,2.4-0.3
		c0,0.2,0.1,0.4,0.1,0.5c-2.6,0.8-5.3,0.8-7.9,1.7c1.2,0.1,2.5,0,3.7-0.1c1.2-0.1,2.5-0.3,4-0.5c-0.5,0.5-0.8,0.8-1.1,1.1
		c1.8-0.7,3.4-1.3,5.3-2c-0.5-0.1-0.7-0.2-0.9-0.3c0-0.1,0-0.2-0.1-0.3c1.2-0.6,2.5-1.1,3.6-1.6c0.2-0.3,0.4-0.6,0.6-0.9
		c1.4-1.2,3.2-1,4.8-1.1c0.2,0,0.4,0.3,0.4,0.4c-1.1,0.4-2.1,0.8-3,1.2c0.2,0.2,0.3,0.3,0.4,0.5c-1.2,0.5-2.4,0.8-3.4,1.3
		c-0.8,0.4-1.9,0.1-2.3,1.1c-0.6,1.3-2,1.5-3,2.1c-0.5,0.3-0.9,0.5-1.4,0.8c0.8,0,1.8,0.1,2.3-0.4c1.5-1.3,3.4-1.6,5.2-2
		c1.3-0.3,2.7-0.4,4.3-0.6c-0.5,0.7-1,1.4-1.5,2.1c0.3,0.1,0.7,0.2,1.4,0.4c2.9-1.3,5.9-2.6,8.9-4c0.1,0.1,0.2,0.2,0.3,0.3
		c-0.4,0.8-0.8,1.5-1.1,2.3c1-0.7,2.1-1.5,3.1-2.2c0.2-0.1,0.5-0.1,0.7,0c0.1,0.1,0.1,0.4,0.1,0.7c1.7-1.4,3.6-2.5,5.8-2.8
		c-2,1.2-4.3,2-5.6,4.4c0-0.4,0-0.6,0.1-0.9c-0.6,0.4-1.2,0.7-1.6,1.1c-0.8,0.6-1.6,0.9-2.5,0.2c-0.3,0.3-0.5,0.7-0.8,1
		c-0.9,0.8-1.8,1.6-2.8,2.5c0.3,0.1,0.6,0.1,0.8,0.1c1.5,0,3.1-0.1,4.6-0.2c2.8-0.1,5.6-0.4,8.3,0.4c0.3,0.1,0.8,0.2,1.1,0.1
		c1.6-0.4,3,0.5,4.5,0.5c0.2,0,0.5,0.2,0.7,0.4c-8,4.3-16.7,6.7-25.2,9.4c0,0.1,0,0.3,0,0.4c0.3,0,0.5,0,0.8,0.1
		c-0.5,0.4-0.8,0.7-1.2,1c0.1,0.1,0.1,0.3,0.2,0.4c1.1-0.3,2.2-0.6,3.4-1c2.5-0.8,4.9-1.6,7.4-2.4c0.1,0.1,0.1,0.3,0.2,0.4
		c-3.3,1.5-6.8,2.7-9.6,5.3c1-0.4,2-0.8,3-1.1c0.1,0.1,0.1,0.2,0.2,0.3c-0.9,0.6-1.7,1.3-2.6,1.8c-0.8,0.5-1.8,0.7-2.4,1.3
		c-0.7,0.8-1.1,0.4-1.8,0c-0.4,0.6-0.9,1.1-1.3,1.7c0,0,0.1,0.1,0.1,0.1c0.5-0.3,1-0.5,1.6-0.8c0.1,0.1,0.1,0.2,0.2,0.3
		c-0.9,0.9-1.7,1.9-3.1,2.4c-1.4,0.4-2.7,1.3-4.1,2c0.5,0.3,0.7,0.4,0.9,0.6c-0.2,0.2-0.3,0.4-0.6,0.5c-1.4,0.7-2.9,1.4-4.3,2.1
		c0,0.1,0.1,0.2,0.1,0.3c0.3-0.1,0.6-0.1,0.9-0.2c1.3-0.6,2.6-1.2,4-1.7c0.4-0.2,1,0.1,1.4-0.1c0.7-0.4,1.3-0.9,2-1.4
		c0.3,0.2,0.6,0.3,0.8,0.2c2.2-0.9,4.4-1.8,6.6-2.7c0.3-0.1,0.6-0.1,1-0.2c0,0.1,0,0.2,0.1,0.3c-0.5,0.3-1.1,0.5-1.7,0.8
		c0.4,0.1,0.6,0.2,0.8,0.3c-1,2.2-2,4.2-3,6.3c0.3,0,0.5,0,0.5-0.2c1.2-2,2.2-4.1,3.5-6.1c0.6-0.9,1-2.1,2.5-2.2
		c-0.4,0.9-0.8,1.8-1.2,2.6c0.7-0.3,1.2-0.7,1.7-1.1c0.3-0.2,0.7-0.5,0.9-0.5c1.9,0.2,3.6-0.6,5.4-1.1c0.9-0.2,2-0.3,2.8-0.7
		c1.5-1,3-0.8,4.9-0.7c-1,1-1.8,1.8-2.6,2.6c0.7-0.3,1.3-0.7,1.8-1.2c0.6-0.4,1.1-0.8,1.7-1.3c0.1,0.1,0.2,0.2,0.3,0.3
		c-0.8,0.9-1.5,1.8-2.4,2.8c0.4-0.1,0.5-0.1,0.7-0.1c-1.2,1.1-2.4,2.2-3.9,2.9c-1.6,0.7-2.3,2.1-3.1,3.4c0.3-0.1,0.6-0.2,0.7-0.5
		c0.9-2.1,2.9-2.4,4.6-3.2c1.4-0.7,2.8-1.4,4.1-2.1c1-0.5,2.1-1.1,3.2-1.7c0.1,0.5,0.2,0.7,0.2,0.9c0.4-0.6,0.7-1.3,1.2-1.7
		c1-0.7,2.1-1.2,3.1-2c1-0.9,2.3-1.4,3.4-2c1-0.5,2.1-1,3.1-1.5c0,0,0,0.1,0,0.1c-2.4,1.6-4.7,3.2-7.1,4.8c0.1,0.1,0.1,0.2,0.2,0.3
		c1.3-0.7,2.3-1.9,3.9-2c-1.3,1.2-2.7,2.2-4.1,3.3c-0.5,0.4-0.8,0.9-1.3,1.3c-0.8,0.6-1.7,1.5-2.7,1.7c-0.9,0.2-1.4,0.5-1.8,1.2
		c-0.1,0.2,0.1,0.5,0.3,1.1c-0.5,0.5-1.5,1-1.8,2.1c0.1,0.1,0.2,0.1,0.3,0.2c0.3-0.4,0.7-0.8,1-1.2c0.1,0.2,0.2,0.3,0.3,0.5
		c1.8-2.6,4.2-4.1,7.2-4.9c-1.5,1.6-2.8,3.1-4.2,4.6c0.1,0.1,0.1,0.2,0.2,0.3c3-1.8,6-3.6,9-5.4c0,0.1,0.1,0.1,0.1,0.2
		c-0.3,0.5-0.6,1-0.9,1.5c0.1,0,0.1,0.1,0.2,0.1c0.6-0.6,1.2-1.1,1.9-1.7c0.1,0.1,0.2,0.2,0.3,0.3c-1.2,1.1-2.5,2-3.5,3.2
		c-1.1,1.2-1.9,2.6-2.9,3.9c-0.9,1.3-1.9,2.5-2.8,3.8c1.3-1.2,2.5-2.4,3.7-3.6c0.4-0.4,0.5-1,0.9-1.5c0.5-0.6,1.1-1.5,1.6-1.5
		c1.4,0,2.1-0.9,2.8-1.7c1.1-1.1,2-2.4,3.7-3c-0.3,0.9-0.5,1.7-0.7,2.5c0.1,0,0.2,0,0.3,0.1c0.2-0.5,0.3-1,0.5-1.5
		c0.1,0,0.1,0,0.2,0.1c0,0.5-0.1,1-0.1,1.5c0.1-0.3,0.3-0.6,0.4-0.9c0.9-2.7,0.9-2.8,3.1-4.6c-0.3,0.4-0.6,0.9-0.8,1.3
		c-0.7,1.4-1.4,2.8-2.1,4.2c-0.1,0.1-0.3,0.2-0.4,0.3c0.8,0.8,0.5,1.7,0.3,2.5c-0.5,2.3-0.4,4.6-0.1,7c0.2-2.1,0.1-4.2,0.6-6.2
		c0.4-2,1.1-4,2-5.8c0.9-1.8,2.1-3.4,3.2-5.1c0.1,0.1,0.2,0.1,0.3,0.2c-0.6,1.6-1.2,3.2-1.7,4.7c-0.5,1.4-1.2,2.7-1.4,4.2
		c-0.4,2.2-1.3,4.2-1.2,6.5c0,2.3-0.4,4.6-0.7,6.9c0,0.3,0,0.5,0.1,0.8c0.1,0,0.1,0,0.2,0c0.1-0.3,0.2-0.7,0.3-1
		c0.4,0.6,0.6,1.2,0.6,1.8c0,0.6-0.1,1.3-0.1,1.9c0.1,0,0.1,0,0.2,0c0.2-1,0.5-2,0.7-2.9c0,0,0.1,0,0.1,0c0,1.3,0,2.7,0,4
		c0.1,0,0.1,0,0.2,0c0.1-0.2,0.2-0.4,0.3-0.8c0,1,0,1.7-0.1,2.5c0.1,0,0.2,0,0.4,0c0.1-0.9,0.2-1.9,0.4-2.8c0-0.3,0.1-0.9,0.2-0.9
		c1.3-0.3,0.6-1.3,0.8-2c0.1-0.4,0.1-0.8,0.1-1.3c0.7,0.7,1.2,1.2,1.8,1.7c-1.1-1.4-1.8-2.7-1.1-4.5c0.5-1.2,0.8-2.5,1.2-3.8
		c0.2-0.7,0.5-1.4,0.8-2.1c0.4-1,0.9-2,1.3-3.1c0,0,0.1,0,0.4-0.1c0.3,0.6,0.5,1.2,0.9,1.7c0.5,0.8,0.8,1.8,1.5,2.3
		c0.4,0.3,0.9,0.2,0.7,0.8c-0.6,1.6-1.2,3.3-1.8,4.9c-0.5,1.4-1.2,2.7-1.6,4.1c-0.5,1.5-0.8,3.1-1.2,4.7c-0.4,1.4-1,2.4-2,3.1
		c0.2,0,0.5,0,0.7,0c0.8-1.2,1.4-2.3,2.1-3.4c0.9-1.4,2-2.6,2.2-4.3c0,0,0,0,0,0c0,0,0,0,0,0c-0.3,0.3-0.6,0.6-0.9,0.8
		c-0.1,0-0.1,0-0.2-0.1c1.1-3.2,2.2-6.3,3.3-9.6c0.9,0.4,0.9,1.1,0.7,1.8c-0.7,1.9-1.5,3.7-2.2,5.5c-0.2,0.5-0.4,1-0.7,1.5
		c0,0,0,0,0,0c0,0,0,0,0,0c0.4-0.3,1-0.5,1.2-1c0.7-1.3,1.2-2.7,1.9-4c0.3-0.7,0.4-1.8,1.8-1.5c0,0.3-0.1,0.7-0.1,1.2
		c1.1-1,1.2-1,2.7,1.6c-0.7-1.3-1.1-2.9-2.1-3.8c-1-0.9-0.4-1.7-0.4-2.5c0.1-0.8,0.6-1.6,1-2.6c0.4,0.6,0.8,1.1,1.1,1.6
		c0,0,0.1-0.1,0.1-0.1c-1.4-2.4,0.1-3.9,1.6-5.3c1.1-1,2.4-1.8,3.5-2.8c1.6-1.4,5.8-1.4,7.6-0.1c-0.2,2.6-2.6,2.2-4.1,3.1
		c0.8-0.1,1.5-0.3,2.3-0.4c0.1,0.1,0.2,0.2,0.3,0.3c-1.2,1.9-2.3,3.8-3.5,5.6c0.1,0.1,0.1,0.1,0.2,0.2c0.2-0.2,0.5-0.4,0.6-0.6
		c0.9-1.5,1.9-2.9,2.8-4.4c0.5-1,1.2-1.3,2.3-0.7c-0.2,0.4-0.4,0.7-0.7,1.3c0.4-0.2,0.7-0.3,0.9-0.4c0.9-0.6,1.8-0.7,2.7,0
		c0.2,0.1,0.5,0,0.8,0c0,0,0,0,0,0c0,0,0,0,0,0c0.5-1.3,1.5-1.4,3-0.8c-1.1,0.3-2.1,0.6-3,0.8c0,0,0,0,0,0c0,0,0,0,0,0
		c0.5,1.2,1.2,1.3,2.1,0.3c0.3-0.3,0.6-0.5,1-0.6c0.6-0.1,1.3,0.3,1.9-0.3c0.1-0.1,0.4,0.1,0.6,0.2c1,1,2.3,1.2,3.6,1.3
		c0.9,0,1.7,0.4,2.7,0.6c-0.8,1-1.4,1.8-2.1,2.7c-0.1,0-0.2-0.1-0.2-0.1c0.1-0.2,0.1-0.5,0.2-1c-1.3,1.4-2.3,0-3.5-0.1
		c0,0.5,0,0.9-0.1,1.5c1.3,0.3,2.5,0.7,3.8,1c0-0.1,0.1-0.2,0.1-0.3c0.1,0.3,0.2,0.6,0.3,0.9c3.3-1.6,3.8-1.7,5.2-1.2
		c-0.7,0.3-1.2,0.5-1.6,0.7c0.8,0.3,1.7,0.5,2.5,0.8c0.2,0.1,0.5,0.3,0.6,0.5c0.6,0.8,0.9,0.8,1.7,0.1c0.4-0.3,1-0.4,1.5-0.3
		c0.9,0.3,1,0.9,0.4,1.6c-0.2,0.2-0.3,0.4-0.2,0.8c0.3-0.3,0.5-0.6,0.8-0.9c0.4-0.5,0.8-0.9,1.6-0.7c0.2,0.1,0.6-0.3,0.8-0.6
		c0.1-0.3,0-0.7-0.1-1c-0.3-1.6-0.1-1.7,1.4-1.6c0.2,0,0.4-0.1,0.8-0.2c0,1.3-0.3,2.4-0.9,3.4c-0.1,0.1-0.1,0.2-0.2,0.3
		c0.7-0.9,1.4-1.9,2.1-2.7c0.1-0.3,0.1-0.7,0.2-1c0.1-1,0.2-2,0.2-3.1c0.6,1,1.1,1.9,1.7,2.8c6.8-4.9,10.5-12,15-19.3
		c0.1,0,0.4-0.3,0.7-0.4c0,0,0,0,0,0c2.3-0.5,2.6-2.6,3.3-4.4c0.1-0.3-0.4-1.2-0.8-1.4c-0.7-0.2-0.7,0.5-0.7,1
		c0,0.4-0.2,0.7-0.3,1.1c-0.6-0.6-0.4-2.4,0.2-3.3c-0.6-1-0.5-8.4,0.2-9.9c0.8,0.5,1.6,1.1,2.3,1.6c0.8,0.5,1.6,1.1,2.6,1.7
		c1.3,4.9-0.8,8.5-3.9,11.8c0.2,0.1,0.3,0.2,0.5,0.3c0.1-0.2,0.2-0.3,0.4-0.5c1.4-2,3.4-3.6,3.8-6.2c0.3-1.7,0.2-3.4,0.3-5
		c0.2,0,0.4,0.1,0.7,0.1c-0.3-0.7-0.7-1.2-0.9-1.9c-0.2-0.6-0.3-1.3-0.5-2.2c-0.4,0.4-0.7,0.7-1,1.1c-1.1-0.2-1.3-1.4-1.7-2.3
		c-1.3-2.3-1.3-2.3-1.1-2.9c1.2,1.3,2.2,2.5,3.5,3.9c-0.1-2.3-1.7-3.6-2.8-5c-0.9-1.3-2.6-2-4.1-2.9c-1.6-0.9-3.2-1.7-4.9-2.3
		c-1.9-0.7-4-1.1-5.9-1.8c-0.3-0.1-0.6-0.6-0.7-1c0-0.1,0.4-0.6,0.7-0.6c0.7-0.1,1.4-0.1,2.1-0.1c1.1,0.1,2.2,0.2,3.3,0.2
		c0-0.1,0-0.3,0-0.4c-2.4-0.3-4.7-0.5-7.3-0.8c0.4-0.6,0.6-0.8,0.9-1.2c-0.5,0.1-0.8,0.1-1.1,0.1c0,0,0-0.1-0.1-0.1
		c2-1,3.9-1.9,5.9-2.9c-0.4,0-0.7,0-1,0c2.7-1,5.4-2,8.1-2.5c2.1-0.4,4.4,0,6.6,0c0.4,0,0.8-0.1,1.3-0.1c-1.2-0.3-2.3-1.1-3.8-0.3
		c0.1-1.4-0.7-1.2-1.5-1.2c-2.5,0-4.9,0.6-7.3,1.3c-0.8,0.3-1.7,0.5-2.7,0.8c0.1-0.4,0.2-0.6,0.3-0.8c-1.6,0.5-3.2,1-4.7,1.5
		c1-0.9,2.1-1.7,3.3-2.3c1.3-0.6,2.5-1.5,4.1-1.3c0.5,0.1,1.1-0.4,1.8-0.6c-0.6-0.6-1.6,0.5-1.4-0.9c-1.4,0.5-2.8,1-4.2,1.6
		c-1.4,0.6-2.6,1.8-4.4,1.4c0.2,0.3,0.3,0.4,0.6,0.9c-1-0.3-1.7-0.5-2.4-0.7c3.5-2.3,7.4-3.8,11.3-5.2c-1.8,0.2-3.5,0.4-5.2,0.7
		c0.1,0.1,0.3,0.2,0.5,0.3c-1.2,0.5-2.4,0.9-3.6,1.4c0,0,0,0.1,0,0.1c0.2,0,0.5-0.1,0.7-0.1c0,0.1,0,0.2,0.1,0.3
		c-1.7,0.5-3.4,1-5.2,1.6c2.1-1.4,4.1-2.6,6.1-3.9c0,0-0.1-0.1-0.2-0.2c0.9-0.3,1.8-0.7,2.8-1.1c-0.5-0.3-0.8-0.5-1.1-0.7
		c0.5-0.5,0.9-0.9,1.5-1.5c-1.1,0.3-1.9,0.5-2.6,0.7c-1.6,0.5-3.5,0.2-5,1.6c-1.5,1.4-3.4,2.3-5.1,3.5c-0.6,0.4-1.2,0.7-1.9,1.1
		c1.4-2.2,3.3-3.9,3.5-6.6c-0.7,0.8-1.3,1.6-2,2.4c0.6-1.5,1.3-2.8,2.2-4.1c0.6-0.9,1.6-1.7,1.3-3c-0.1-0.6-0.3-1.2-0.2-1.9
		c0.2-1.1-0.5-2.3-0.9-3.6c-0.6,2,0.4,3.8-0.1,5.6c-0.2,0.5-0.2,1-0.4,1.5c-0.5,1-1.2,1.9-1.8,2.9c-0.3,0.5-0.6,1.1-0.8,1.6
		c-0.2-0.1-0.4-0.2-0.7-0.4c-1.2,1.9-2.4,3.8-3.6,5.7c-0.9,1.4-1.9,2.7-3,3.9c-0.4,0.4-1.1,0.5-1.7,0.7c-0.1-0.6-0.3-1.1-0.3-1.7
		c0-0.8,0-1.6,0.1-2.3c0-0.1,0.1-0.1,0.1-0.2c0.1,0.1,0.2,0.3,0.3,0.4c0.1,0,0.2-0.1,0.3-0.1c-0.2-0.5-0.5-0.9-0.5-1.4
		c0.1-1.6,0.4-3.3,0.5-4.9c0.4-5.2,0.7-10.4-1.2-15.4c-0.3-0.9-0.5-1.8-0.9-2.7c-1.2-2.5-2.7-4.8-3.7-7.3c-0.8-2.1-2.4-3-4.1-4.1
		c0.8,1,1.6,2,2.4,3c-0.1,0.1-0.2,0.2-0.3,0.2c-0.3-0.2-0.6-0.4-0.8-0.5c1,1.4,2.3,2.8,3.1,4.3c0.9,1.6,1.4,3.5,2,5.2
		c-0.1,0-0.2,0.1-0.3,0.1c-0.2-0.1-0.3-0.2-0.6-0.3c0.1,0.8,0.2,1.5,0.3,2.2c-0.4,0.1-0.7,0.2-1,0.3c1.1,0.2,1,1,1,1.8
		c0.1,1.9,0.2,3.8,0.3,5.7c0,0.4-0.1,0.7-0.2,0.9c-0.3-1.6-0.5-3.3-0.9-5c-0.2-0.8-0.5-1.7-0.7-2.5c-0.1-0.3,0.2-0.6,0.3-1
		c-0.8,0-1-0.6-1.3-1.1c-1.4-2.8-3-5.3-5.2-7.5c-0.5-0.5-0.8-1.1-1.2-1.6c-1.7-2.6-3.5-5-6-6.9c-0.3-0.2-0.6-0.4-0.9-0.6
		c0,0,0,0.1,0,0.1c1.2,1.1,2.4,2.3,3.6,3.4c-0.1,0.1-0.1,0.1-0.2,0.2c-1.2-1-2.3-2-3.5-3c0,0-0.1,0.1-0.1,0.1c1.5,1.5,3,3.1,4.7,4.8
		c-0.5,0-0.6,0.1-1,0.1c0.5,0.5,0.9,0.8,1.3,1.1c-0.1,0.1-0.2,0.2-0.2,0.3c-0.6-0.5-1.2-1.3-1.9-1.4c-1.7-0.3-2.7-1.6-4-2.4
		c-2.9-1.7-5.4-4.2-8.8-5.2c-1.5-0.4-3-0.9-4.5-1.3c0,0.1,0,0.1,0,0.2C89.9,17.7,92.1,18.6,94.2,19.6z M86.7,39.7
		c0.1-0.1,0.1-0.2,0.2-0.3c0.8,0.5,1.6,1,2.4,1.5c-0.1,0.1-0.1,0.2-0.2,0.3C88.3,40.7,87.5,40.2,86.7,39.7z M81.1,44.1
		c0.1-0.2,0.1-0.3,0.2-0.5c1.4,0.8,2.9,1.6,4.3,2.4c-0.1,0.1-0.1,0.2-0.2,0.4C84,45.6,82.6,44.8,81.1,44.1z M66.1,48.8
		c0-0.1,0.1-0.2,0.1-0.4c1,0.3,2.1,0.6,3.1,1c0,0.1-0.1,0.2-0.1,0.3C68.1,49.4,67.1,49.1,66.1,48.8z M77.6,118.6
		c-0.4,1.7-0.7,3.4-1.1,5.2c-0.2,0-0.3-0.1-0.5-0.1c0.4-1.7,0.8-3.4,1.2-5.2C77.3,118.5,77.5,118.5,77.6,118.6z M129.8,115.7
		c0.1,0.7,0.2,1.4,0.2,2.1c-0.2,0-0.3,0.1-0.5,0.1c-0.1-0.7-0.1-1.4-0.2-2.1C129.5,115.8,129.7,115.7,129.8,115.7z M128.2,116.3
		c0,1.2-0.1,2.3-0.1,3.7c-1.1-0.5-1.5-1.3-1.3-2c0.1-0.6,0.6-1.2,0.9-1.7C127.9,116.3,128.1,116.3,128.2,116.3z M117,118.7
		c0.4-0.5,0.7-0.9,1.1-1.5C118.7,118.5,118.6,118.6,117,118.7z M130.3,114c-2-0.8-2.1-1.4-0.7-3C129.9,112.1,130.1,113,130.3,114z
		 M104.1,111.2c-0.7,0.6-1.2,1.1-2,1.7C102.2,111.5,103.1,110.8,104.1,111.2z M61.8,112.2c-0.1-0.1-0.2-0.3-0.3-0.4
		c0.6-0.5,1.2-1,1.8-1.4c0.4-0.3,1-0.5,1.5-0.7c1.2-1,2.4-2,3.6-3c0.1,0.2,0.2,0.3,0.4,0.5c-1.4,0.9-2.7,1.7-4.1,2.6
		C63.7,110.6,62.8,111.4,61.8,112.2z M88.7,110.6C88.7,110.6,88.7,110.6,88.7,110.6c0.5-0.6,1.1-1.2,1.7-1.8
		c0.1,0.1,0.2,0.2,0.3,0.3c-0.7,0.8-1.3,1.6-2,2.4c-0.1,0-0.1-0.1-0.2-0.1C88.6,111.1,88.6,110.9,88.7,110.6
		C88.7,110.6,88.7,110.6,88.7,110.6C88.7,110.6,88.7,110.6,88.7,110.6c-0.4,0.4-0.7,0.7-1.1,1c-0.1,0-0.1,0-0.2-0.1
		c0.6-1.1,1.2-2.2,1.8-3.4c0.1,0,0.2,0.1,0.3,0.1C89.2,109.1,88.9,109.8,88.7,110.6C88.7,110.6,88.7,110.6,88.7,110.6z M84,115
		c0.1-0.2,0.1-0.5,0.1-0.8c0-0.5,0-0.9-0.2-1.5c-0.3,0.7-0.6,1.4-0.9,2.1c-0.7-1.6-0.4-2.7,0.8-3.6c0.2-0.1,0.5-0.1,0.9-0.2
		c0.4-0.4,0.9-1,1.5-1.6c0.1,0.1,0.2,0.1,0.3,0.2c0.1,1.5,1.2,3.1-0.5,4.7c0.3-0.9,0.6-1.5,0.8-2.1c-0.1,0-0.2-0.1-0.3-0.1
		c-0.2,0.4-0.3,0.8-0.6,1.1c-0.5,0.8-0.4,2-1.6,2.4c-0.1,0-0.1,0.6-0.1,0.9C83.5,115.8,83.5,115.8,84,115z M86.4,119.3
		c-0.2,0-0.3,0-0.5,0.1c-0.1-0.4-0.4-0.8-0.3-1.1c0.5-1.1,1.1-2.2,1.9-3.3C87.8,116.6,86.6,117.8,86.4,119.3z M88.4,114.5
		c-0.3-0.7,0.8-2.8,2.3-4.1C89.9,111.9,89.2,113.2,88.4,114.5z M95.1,108c0.1,0.1,0.1,0.2,0.2,0.3c-1.2,0.8-2.3,1.6-3.5,2.4
		c-0.1-0.1-0.1-0.2-0.2-0.3C92.8,109.6,94,108.8,95.1,108z M150.4,89c-0.6-1-1-1.8-1.5-2.8C150.5,87.1,150.7,87.4,150.4,89z
		 M150.5,85.5c0.1,0.3,0.2,0.7,0.3,1.2c-3-1.6-4.2-4.5-5.9-7.1c0.6,0.4,1.3,1.1,1.8,1c1.1-0.3,1.6,0.2,2,0.9
		C149.3,82.8,149.9,84.2,150.5,85.5z M155.4,81.3c-3.7-0.7-4.1-2.2-4-4C153.7,77.7,154.1,80,155.4,81.3z M153.6,77.6
		c-0.1,0.1-0.1,0.1-0.2,0.2c-0.6-0.5-1.2-1-1.8-1.4C152.7,76.1,153.2,76.9,153.6,77.6z M149.2,78.5c-1.3-0.6-2.6-1.3-4-2
		C146.5,75.2,148.8,76.3,149.2,78.5z M55.1,105.4c-1.4,1.3-2.7,2.4-4,3.5C51.1,107,53,105.4,55.1,105.4z M52.1,102.8
		c0,0.1,0.1,0.2,0.1,0.4c-1.7,0.6-3.4,1.3-5.1,1.9c0-0.1-0.1-0.2-0.1-0.3C48.4,103.3,50.4,103.5,52.1,102.8z M46.5,104.3
		c-0.7,1.5-5,3.1-6.9,2.6C41.9,106.1,44,105.2,46.5,104.3z M47.3,102.9c-2.9,0.7-5,3.4-8.3,3.1c0.9-1.3,2.5-1.3,3.7-1.9
		C44.1,103.3,45.7,103.1,47.3,102.9z M33.7,107.5c-0.9,1.2-2.4,1.2-3.8,1.5c1.2-0.6,2.4-1.2,3.6-1.8
		C33.7,107.3,33.7,107.4,33.7,107.5z M34.1,104.5c-1.2,0.6-2.4,1.2-3.7,1.9c-0.1-0.1-0.1-0.2-0.2-0.4c1.2-0.7,2.4-1.3,3.6-2
		C33.9,104.2,34,104.3,34.1,104.5z M153.6,58.7c0,0.1,0,0.2,0,0.3c-1,0.1-2,0.3-3,0.4c0-0.1,0-0.2,0-0.3
		C151.6,59,152.6,58.8,153.6,58.7z M52.2,86c-1.3,0.2-2.5,0.5-3.8,0.7c0,0,0,0.1,0,0.1c3.4-0.2,6.8-0.4,10.2-0.5c0,0.2,0,0.3,0,0.5
		c-1.1,0.1-2.1,0.3-3.2,0.4c-2.1,0.1-4.3,0.5-6.3,0.2c-2.6-0.4-5,0.5-7.5,0.3c-0.4,0-0.8,0-1.2-0.1C44.3,86.1,48.3,86.1,52.2,86z
		 M78.3,58.7c0,0.1,0,0.2,0,0.4c-1.2,0-2.5,0-3.7,0c0-0.1,0-0.3,0-0.4C75.9,58.6,77.1,58.6,78.3,58.7z M51.6,65.6
		c0.4-0.1,0.7-0.2,1.1-0.4c-1.1,1.7-3,1-4.5,1.3c0,0.1,0,0.2,0,0.3c0.4,0.1,0.9,0.2,1.3,0.3c-1.5,1-4.1,1.1-5.2,0.1
		c0.3-0.1,0.5-0.3,0.7-0.3c1.3,0.2,2.3-0.4,3.3-1.1c0.8-0.6,1.9-0.8,2.9-1.2C51.4,65,51.5,65.3,51.6,65.6z M51.6,63.9
		c0-0.2-0.1-0.3-0.1-0.5c1.1-0.2,2.2-0.4,3.2-0.5c0,0.1,0.1,0.3,0.1,0.4C53.7,63.6,52.6,63.8,51.6,63.9z M72.7,55.9
		c0.1,0.2,0.1,0.3,0.2,0.5c-2.4,0.7-4.7,1.4-7.1,2.1c0-0.1-0.1-0.3-0.1-0.4C68,57.4,70.3,56.7,72.7,55.9z M90.7,23.5
		c1.1-0.3,1.7,0.4,2.4,1.1C91.9,24.9,91.1,24.7,90.7,23.5z M78.8,27.1c3.1,0,5.9,1,8.2,3.1C84.3,29.1,81.6,28.1,78.8,27.1z
		 M102.4,41.4c-0.5-0.6-1-1.2-1.5-1.7c-1.1-1.2-2.2-2.3-3.2-3.5c-0.3-0.4-0.3-1-0.4-1.5c-0.6-0.1-1.1-0.2-1.7-0.3
		c0.1-0.2,0.2-0.3,0.2-0.5c1.1-0.4,2,0,1.9,1c1.8,1.5,3.5,3,4.5,5.2c0.2,0.3,0.3,0.7,0.4,1C102.6,41.3,102.5,41.4,102.4,41.4z
		 M109.5,30.4c-0.7-0.5-1.8-0.8-1.3-2.3C108.6,29,109,29.7,109.5,30.4z M99.9,28.8c1.2,1.2,2.4,2.5,3.5,3.8c0.1,0.1,0,0.4-0.1,0.5
		c1.7,1.7,3.2,3.6,4.2,5.8c-0.8-0.4-1.3-0.9-2-1.7c-1.2-1.5-2.4-2.9-3.6-4.4c-0.2-0.3-0.2-0.7-0.3-1c-1-1.1-2.5-1.8-2.8-3.5
		C99.2,28.4,99.7,28.5,99.9,28.8z M92.8,34.1c-0.7-0.4-1.4-0.9-2.1-1.3c0.1-0.1,0.1-0.2,0.2-0.3c0.7,0.4,1.4,0.9,2.1,1.3
		C92.9,33.8,92.8,34,92.8,34.1z M88.5,32.2c1.2,0.8,2.4,1.8,3.5,2.7c1.2,1,2.3,2.1,3.4,3.2c0.7,0.7,1.2,1.5,1.8,2.3
		c-0.1,0.1-0.2,0.2-0.3,0.2c-2.8-3.5-6.2-6.3-10-8.8C87.5,32,88.1,31.9,88.5,32.2z M93.1,29.4c0,0.1-0.1,0.2-0.1,0.4
		c-0.8-0.3-1.5-0.6-2.3-0.9c0-0.1,0.1-0.3,0.1-0.4C91.5,28.9,92.3,29.2,93.1,29.4z M101.7,25.9c-0.1,0-0.2,0.1-0.3,0.1
		c-0.7-0.8-1.3-1.5-2-2.3c0.1-0.1,0.1-0.1,0.2-0.2C100.3,24.3,101,25.1,101.7,25.9z"/>
	<g>
		<path class="st0" d="M45.6,242c-2,0-3.8-0.2-5.6-0.6c-7.6-1.7-10.6-6.5-11.1-7.3c-5.2-7.4-16.3-25.3-9.6-34.3
			c2.1-2.8,5.3-4.2,9.5-4.2c4,0,7.9,1.3,9.6,1.9c0.9,0.3,1.7,0.4,2.4,0.4c1.1,0,2.2-0.3,3.3-0.9c6.1-3.5,11.8-15.6,17.5-36.9l0.1,0
			c0.2-1.4,1-5.1,3.5-15.7c1.4-6.1,2.8-11.8,3.2-13.6c3.2-14.9,5.9-27.6,9.3-35.7c4.6-11.1,14.5-29.8,29.2-29.8l0.2,0
			c10.2,0.1,18.9,9.4,25.8,27.5c1.9,4.9,3.6,10.1,5.6,16.5c0.1,0.3,5.5,22.3,8.6,37.9c2-0.4,4.1-0.5,6.5-0.5c2.9,0,6.3,0.2,11.1,0.8
			c29.6,3.3,44.1,30.1,47.2,40.2c1.5,4.9,1,9.5-1.3,12.7c-1.6,2.2-5,4.8-11.7,4.8c0,0,0,0,0,0c-6.7,0-15.5-2.5-26.2-7.4
			c-6.1-2.8-12.7-4.2-19.7-4.2c-17.1,0-36.5,8.3-57.5,24.8c-0.6,0.4-1,0.8-1.4,1.1C74.2,234.3,57.9,242,45.6,242z"/>
		<path class="st1" d="M106.8,66.6c0.1,0,0.1,0,0.2,0c9.6,0.1,17.9,9.1,24.6,26.7c2.1,5.6,3.9,11.1,5.5,16.4c0,0,5.7,23.3,8.9,39
			c2.3-0.5,4.6-0.7,7.5-0.7c2.9,0,6.4,0.3,11,0.8c28,3.1,42.8,28.4,46.1,39.3c2.2,7.3,0.3,15.8-11.8,15.8c-5.9,0-14.2-2-25.6-7.3
			c-6.7-3.1-13.5-4.3-20.3-4.3c-28.2,0-54.5,22.2-59.7,26.1c-19.7,14.9-35.7,22.4-47.7,22.4c-1.9,0-3.6-0.2-5.3-0.5
			c-7.3-1.6-10-6.2-10.3-6.7c-4.8-6.8-15.8-24.6-9.7-32.9c2.1-2.9,5.3-3.7,8.5-3.7c3.7,0,7.4,1.2,9.2,1.8c1,0.3,1.9,0.5,2.9,0.5
			c1.3,0,2.6-0.4,3.9-1.1c7.6-4.4,13.5-20.2,18.1-37.7c-0.1-0.1,5.9-25.3,6.8-29.3c3.2-14.8,5.9-27.5,9.2-35.5
			C83.3,84.7,92.9,66.6,106.8,66.6 M106.8,64c-15.4,0-25.7,19.1-30.4,30.6c-3.4,8.1-6.1,21-9.3,35.8l0,0.1
			c-0.4,1.7-1.8,7.8-3.2,13.6c-0.9,3.8-1.8,7.7-2.5,10.7c-0.6,2.5-0.9,4-1.1,4.9l0,0c-5.5,20.7-11.2,32.9-16.9,36.2
			c-0.9,0.5-1.7,0.7-2.6,0.7c-0.6,0-1.3-0.1-2-0.4c-1.7-0.6-5.8-1.9-10-1.9c-4.6,0-8.2,1.6-10.6,4.8c-7.2,9.7,4.2,28.2,9.5,35.8
			c0.7,1.3,4,6.2,11.9,7.9c1.8,0.4,3.8,0.6,5.9,0.6c12.6,0,29.2-7.7,49.3-22.9c0.4-0.3,0.8-0.7,1.4-1.1c3.8-2.9,11.6-9.1,21.8-14.5
			c12.5-6.6,24.2-10,34.9-10c6.8,0,13.3,1.4,19.2,4.1c10.9,5,19.8,7.5,26.7,7.5c7.3,0,11-2.9,12.8-5.3c2.6-3.5,3.2-8.6,1.5-13.9
			c-3.2-10.3-18-37.8-48.3-41.1c-4.8-0.5-8.3-0.8-11.2-0.8c-2,0-3.8,0.1-5.5,0.3c-3.2-15.5-8.3-36.4-8.4-36.6l0-0.1l0-0.1
			c-2-6.4-3.7-11.7-5.6-16.6C127,73.6,117.9,64.1,107,64L106.8,64L106.8,64z"/>
	</g>
	<path class="st1" d="M131.8,120.9l8.3,0.9c-1.7-7-2.9-12.1-2.9-12.1c-1.6-5.4-3.4-10.8-5.5-16.4c-6.7-17.5-15-26.5-24.6-26.7
		c-14-0.2-23.7,18.1-28.2,29c-3.3,7.9-6,20.7-9.2,35.5c-0.1,0.2-0.1,0.5-0.2,0.9C103.1,109.7,131.8,120.9,131.8,120.9z"/>
	<g>
		<g>
			<g>
				<g>
					<path class="st0" d="M229.8,175.8l0.2-0.8c0.2,0,0.3,0.1,0.4,0.1c0.1,0,0.1,0,0.1,0c0,0,0-0.1-0.1-0.3c-0.9-0.7-0.4-1.5-0.1-2
						l0.1-0.1c0.3-0.4,0.9-0.7,1.6-0.7c0.9,0,1.7,0.3,2.1,0.8c0.3,0.3,0.4,0.7,0.3,1c-0.2,1.3-0.5,1.6-1.1,1.6c-0.2,0-0.2,0-0.3,0.1
						c0,0.2,0.2,0.3,0.4,0.4l-0.3,0.7L229.8,175.8z"/>
					<path class="st0" d="M232,172.4c1,0,2.2,0.5,2,1.4c-0.2,2-0.9,0.8-1.5,1.7c0,0.5,0.3,0.7,0.7,0.9l-3.3-1c0.2,0,0.4,0.1,0.5,0.1
						c0.4,0,0.7-0.2,0.3-0.9c-0.8-0.6-0.3-1.2,0-1.6C230.9,172.6,231.4,172.4,232,172.4 M232,171.6c-0.9,0-1.5,0.3-1.9,0.8l-0.1,0.2
						c-0.2,0.4-0.9,1.4,0,2.3l-0.3,1.2l3.3,1l0.5-1.3c0.8-0.2,1.2-0.7,1.3-2c0.1-0.5-0.1-0.9-0.4-1.3
						C233.9,172,232.9,171.6,232,171.6L232,171.6z"/>
				</g>
				<g>
					<path class="st0" d="M233.7,177l0.2-0.8l0.2,0.1c0.3,0.1,0.5,0.1,0.8,0.2c0-0.2,0-0.3,0-0.4c-0.8-0.5-0.5-1.2-0.4-1.6
						c0-0.1,0.1-0.2,0.1-0.3c0.1-0.4,0.4-0.9,1.3-0.9c0.5,0,1,0.1,1.4,0.2c0.2,0,0.4,0.1,0.5,0.1c0.8,0.3,1.2,0.9,1,1.6l0,0.2
						c-0.1,0.5-0.3,1.3-1.3,1.3c0,0,0,0.1-0.1,0.1c0.1,0.4,0.4,0.5,1.3,0.7c0.3,0.1,0.6,0.1,0.8,0.2c0,0,0,0,0,0c0-0.1,0-0.1,0-0.2
						c-0.6-0.4-0.7-0.8-0.6-1.1c0-0.4,0.2-0.7,0.4-1l0.1-0.1c0.3-0.4,0.8-0.6,1.4-0.6c0.9,0,1.7,0.4,2,0.6c0.6,0.3,0.8,0.9,0.6,1.8
						c-0.2,0.8-0.7,0.9-1.1,0.9c-0.2,0-0.3,0-0.3,0.1c0,0.3,0.1,0.5,0.4,0.6l-0.3,0.7L233.7,177z"/>
					<path class="st0" d="M235.9,173.7c0.6,0,1.3,0.3,1.8,0.4c0.5,0.2,0.9,0.5,0.7,1.1c-0.1,0.6-0.1,1.2-1,1.3
						c-0.2,0-0.5,0.3-0.5,0.4c0,1.1,1.7,1,2.5,1.4c0,0,0,0,0,0c0.1,0,0.4-0.1,0.4-0.2c0-0.2,0-0.6-0.1-0.6c-0.9-0.5-0.4-1.3-0.1-1.8
						c0.3-0.3,0.7-0.4,1.1-0.4c0.6,0,1.3,0.3,1.8,0.5c0.6,0.3,0.6,0.8,0.4,1.4c-0.3,1.2-1,0.3-1.4,1c0,0.6,0.2,0.9,0.6,1.1l-8.3-2.6
						c0.4,0.1,0.7,0.2,1,0.3c0,0,0,0,0,0c0.1,0,0.4-0.2,0.4-0.2c0-0.3,0-0.7-0.2-0.8c-0.8-0.5-0.3-1-0.2-1.6
						C235.1,173.9,235.4,173.7,235.9,173.7 M235.9,172.9L235.9,172.9c-1.2,0-1.6,0.8-1.7,1.1l0,0l0,0c0,0.1-0.1,0.2-0.1,0.3
						c-0.1,0.3-0.4,0.9-0.1,1.5l-0.1,0l-0.4,1.5l8.3,2.6l0.6-1.4c0,0,0,0,0,0c0.4-0.1,1-0.3,1.2-1.3c0.4-1.4-0.3-2-0.8-2.2
						c-0.2-0.1-1.1-0.6-2.1-0.6c-0.7,0-1.2,0.3-1.5,0.5c0-0.7-0.5-1.3-1.3-1.6l-0.1,0l-0.1,0c-0.1,0-0.3-0.1-0.5-0.1
						C236.9,173.1,236.4,172.9,235.9,172.9L235.9,172.9z M238.1,177.1c0.1-0.1,0.2-0.1,0.3-0.2c0,0,0,0.1,0,0.1c0,0.1,0,0.1,0.1,0.2
						C238.4,177.2,238.2,177.1,238.1,177.1L238.1,177.1z"/>
				</g>
				<g>
					<path class="st0" d="M77.1,207.5c-11.5,0-18.6-7.9-19-21c-0.1-1.4-0.1-2.8-0.2-4.2c-0.5-9.3-1-18.8,3.9-27.1
						c3-5.5,8.2-8.9,13.8-9c0.5,0,1.1-0.1,1.6-0.1c6,0,11.6,2.4,17,4.7c4.7,2,9.5,4.1,14.6,4.5l0.1,0c2.3,0,4.7-0.8,6.9-1.5
						c0.6-0.2,1.3-0.4,1.9-0.6c8.2-3.4,14.2-3.5,14.4-3.5l0.1,0c5.1,0.1,11.2,0.8,13,5.8c0.1,0.9,0,1.6-0.5,2.1
						c-1,1.2-3.2,1.4-5.1,1.5c-0.7,0-1.4,0.1-1.9,0.2l0,0l-0.1,0c-1.4,0-4.4,1.7-6,3.8c-0.7,0.9-1.4,2.3-1.1,3.7
						c0.4,2.4,1.3,3.7,2.9,4l1.1,0l3.1,0.1c17.9,0.6,72.3,2.3,72.3,2.3l0.2,0c1.3,0,2.1-0.4,2.6-1.2c0.6-1,1.4-1.5,2.4-1.5
						c0.5,0,1,0.1,1.6,0.3c0.1,0,0.2,0.1,0.3,0.1l0.1,0c0.1,0,0.1,0,0.2,0c0,0,0-0.2-0.3-0.4c-0.4-0.5-0.4-1.4-0.1-2
						c0.2-0.4,0.6-0.6,1-0.6c0.2,0,0.4,0,0.5,0.1c0.8,0.1,1.9,0.2,2.3,0.9c0.2,0.3,0.3,0.7,0.1,1.2c-0.1,0.9-0.5,1.1-1,1.2
						c-0.2,0.1-0.3,0.1-0.4,0.4c0,0,0,0,0,0c0,0,0.1,0.1,0.1,0.2l0.2,0c0.2,0.1,0.3,0.1,0.5,0.2c0.4,0.2,0.9,0.4,1.3,0.4
						c0,0,0,0,0,0c0.1,0,0.2,0,0.2,0c0-0.2-0.1-0.3-0.2-0.4c-0.3-0.3-0.6-0.7-0.1-1.6c0.1-0.6,0.7-1,1.6-1c0.8,0,1.9,0.4,2.4,1
						c0.2,0.3,0.3,0.7,0.1,1l0,0.1c-0.1,0.5-0.3,1.4-1.3,1.4c0,0-0.1,0-0.1,0c0,0,0,0.1,0,0.1c0,0.1,0,0.1,0.1,0.2
						c0.2,0.1,0.4,0.1,0.6,0.2c0.4,0.2,0.8,0.3,1.1,0.4c0,0,0,0,0,0c0.1,0,0.2,0,0.2,0c0-0.2-0.1-0.3-0.2-0.4
						c-0.4-0.4-0.6-0.8-0.1-1.9c0.2-0.5,0.7-0.8,1.4-0.8c0.6,0,1.2,0.2,1.5,0.4c0.8,0.4,1.3,1.3,1.1,2.1c-0.1,0.6-0.6,1-1.4,1.1l0,0
						c0,0,0,0-0.1,0.1c0,0.1,0,0.3,0.1,0.3c0,0,0,0,0,0c0,0,0.1,0,0.2,0.1l0.4,0.2c0.3,0.1,0.6,0.2,0.9,0.3l3.3,1
						c0.2,0.1,0.4,0.1,0.6,0.2l8.3,2.6c0.2,0.1,0.3,0.1,0.5,0.2c2.3,0.9,3.5,2.7,3.4,5.1c-0.3,3.3-2.9,4.7-5.5,4.7
						c-2.7,0-5.1-1.5-6-3.9c-0.4-0.6-0.6-0.7-0.9-0.7c-0.2,0-0.4,0-0.8,0.1c-0.7,0.1-1.9,0.4-3.3,0.7c-2.9,0.7-6.8,1.7-9.3,1.7
						c-1.6,0-2.5-0.4-2.8-1.1c-1.2-2-2.6-3-4.1-3c-0.1,0-0.2,0-0.2,0l-0.2,0l-0.1-0.1c-0.2-0.2-0.5-0.3-0.9-0.3l-0.2,0
						c-0.1,0-0.6,0-0.7,0c-0.3,0-29.6-0.1-54.2-0.1c-10.8,0-19.1,0-24.9,0.1c-1.6,0-3,0-4.3,0c-1.2,0-2.2,0-3,0.1
						c-0.7,0.1-1.2,0.3-1.6,0.9c-1.1,1.5-0.9,4.3-0.5,5.8c0.9,4.3,4.9,4.9,8.7,5.4l0.3,0c1.2,0.3,2,0.9,2.3,1.8
						c0.4,1,0.1,2.3-0.8,3.4c-2.1,2.6-4.9,3-7.9,3.3c-0.2,0-0.3,0-0.5,0c-3.6,0-7.1-1.3-10.4-2.6c-1.2-0.5-2.5-1-3.8-1.4
						c-1.1-0.4-2.2-0.5-3.4-0.5c-4.1,0-8.3,2-12.4,4c-1.4,0.6-2.8,1.3-4.2,1.9C85.8,206.5,81.3,207.5,77.1,207.5
						C77.1,207.5,77.1,207.5,77.1,207.5z"/>
					<path class="st0" d="M77.1,146.5c11.2,0,20.6,8.2,31.6,9.2c0,0,0.1,0,0.1,0c3.1,0,6-1.3,8.9-2.1c8-3.3,13.8-3.5,14.3-3.5
						c0,0,0,0,0,0c4.5,0.1,10.9,0.6,12.7,5.5c0.4,3.5-5,2.8-7.2,3.2c0,0-0.1,0-0.1,0c-2.4,0-8.5,4.1-7.5,8c0.3,1.9,1.1,3.9,3.2,4.3
						c0.2,0,0.4,0,0.6,0h0c0.9,0,2.2,0.1,3.6,0.1c17.9,0.6,72.3,2.3,72.3,2.3l0.2,0h0c0,0,0,0,0,0c1.2,0,2.2-0.3,2.9-1.4
						c0.6-0.9,1.3-1.3,2.1-1.3c0.5,0,1,0.1,1.5,0.3c0.1,0,0.2,0.1,0.3,0.1c0.1,0,0.1,0,0.2,0c0.6,0,0.8-0.6,0.1-1.2
						c-0.4-0.5-0.3-2,0.6-2c0,0,0,0,0,0c1,0.1,3,0.1,2.6,1.7c-0.2,1.4-1,0.5-1.4,1.5c0,0.2,0.2,0.6,0.3,0.7c0,0,0,0,0,0c0,0,0,0,0,0
						l0.2,0.1c0.5,0.2,1.3,0.6,1.9,0.6c0,0,0,0,0,0c0.2,0,0.4,0,0.6-0.2c0.2-1.2-1-0.7-0.3-2.1c0-0.5,0.6-0.7,1.2-0.7
						c1.1,0,2.5,0.7,2.2,1.5c-0.1,0.6-0.2,1.2-1,1.2c0,0-0.1,0-0.1,0c-0.6,0.1-0.5,0.8-0.1,1c0.2,0,0.4,0.1,0.6,0.2
						c0.4,0.2,0.9,0.4,1.3,0.4c0,0,0.1,0,0.1,0c0.2,0,0.4-0.1,0.5-0.2c0.1-1.2-1.1-0.7-0.3-2.4c0.2-0.4,0.6-0.6,1.1-0.6
						c0.5,0,1,0.2,1.3,0.3c1.1,0.5,1.5,2.4-0.1,2.5c-0.5,0.1-0.5,0.9-0.2,1.1c0.2,0.1,0.4,0.2,0.7,0.3l0,0c0.3,0.1,0.6,0.2,0.9,0.3
						l3.3,1c0.2,0.1,0.4,0.1,0.6,0.2l8.3,2.6c0.2,0.1,0.4,0.1,0.6,0.2c2.1,0.8,3.1,2.4,3,4.7c-0.3,2.9-2.6,4.4-5.1,4.4
						c-2.3,0-4.7-1.2-5.6-3.6c-0.5-0.7-0.7-0.9-1.2-0.9c-0.2,0-0.5,0-0.8,0.1c-2,0.3-8.8,2.4-12.5,2.4c-1.3,0-2.2-0.2-2.4-0.9
						c-1-1.6-2.5-3.2-4.5-3.2c-0.1,0-0.2,0-0.3,0c-0.4-0.3-0.8-0.4-1.2-0.4l-0.2,0c0,0,0,0,0,0c-0.2,0-0.5,0-0.7,0c0,0,0,0,0,0
						c0,0-29.2-0.1-54.1-0.1c-9.6,0-18.5,0-24.9,0.1c-1.6,0-3,0-4.3,0v0c-1.2,0-2.2,0-3,0.1c-3.1,0.2-3,4.9-2.5,7.2
						c1,4.6,5.3,5.2,9.3,5.8c2.2,0.5,2.9,2.6,1.3,4.6c-2,2.5-4.8,2.9-7.6,3.1c-0.2,0-0.3,0-0.5,0c-4.9,0-9.4-2.4-14-3.9
						c-1.2-0.4-2.3-0.5-3.5-0.5c-5.5,0-11.2,3.6-16.7,5.9l0,0c-4.7,2-9.2,3.1-13.3,3.1c-10.4,0-18.2-6.7-18.6-20.6
						c-0.4-10.4-1.9-21.7,3.6-31.1c2.8-5,7.7-8.7,13.5-8.8C76.1,146.6,76.6,146.5,77.1,146.5 M119.5,172.3c0-0.1,0.1-0.1,0.1-0.2
						C119.6,172.2,119.5,172.2,119.5,172.3 M119.5,180.6C119.5,180.6,119.5,180.6,119.5,180.6C119.5,180.6,119.5,180.6,119.5,180.6
						c0,0,0-0.1-0.1-0.1C119.4,180.5,119.4,180.5,119.5,180.6 M77.1,145.8c-0.6,0-1.1,0-1.7,0.1c-5.7,0.1-11,3.6-14.1,9.2
						c-4.9,8.4-4.4,18-3.9,27.3c0.1,1.4,0.2,2.8,0.2,4.2c0.4,13.4,7.6,21.4,19.4,21.4c4.3,0,8.9-1.1,13.6-3.2l0,0
						c1.4-0.6,2.8-1.2,4.1-1.9c4.1-1.9,8.3-3.9,12.3-3.9c1.2,0,2.2,0.2,3.3,0.5c1.2,0.4,2.5,0.9,3.8,1.4c3.3,1.3,6.8,2.6,10.5,2.6
						c0.2,0,0.3,0,0.5,0c3-0.2,6.1-0.7,8.2-3.4c1-1.3,1.3-2.6,0.9-3.8c-0.4-1-1.3-1.8-2.6-2.1l-0.3-0.1c-3.9-0.6-7.5-1.1-8.4-5.1
						c-0.3-1.5-0.5-4.2,0.5-5.5c0.3-0.5,0.8-0.7,1.3-0.7c0.8,0,1.8,0,3-0.1c1.2,0,2.7,0,4.3,0c5.8,0,14.1-0.1,24.9-0.1
						c24.6,0,53.8,0.1,54.1,0.1c0,0,0,0,0,0c0.2,0,0.3,0,0.4,0c0.1,0,0.2,0,0.3,0l0.2,0c0.3,0,0.5,0.1,0.7,0.2l0.2,0.2l0.3,0
						c0.1,0,0.1,0,0.2,0c1.4,0,2.6,0.9,3.8,2.8c0.6,1.3,2.5,1.3,3.1,1.3c2.6,0,6.5-1,9.4-1.7c1.4-0.3,2.6-0.6,3.2-0.7l0,0l0,0
						c0.2-0.1,0.5-0.1,0.7-0.1c0.1,0,0.2,0,0.5,0.5c1,2.5,3.4,4.1,6.3,4.1c2.7,0,5.5-1.6,5.8-5.1c0.1-2.7-1.1-4.6-3.5-5.5l-0.1,0
						l-0.1,0c-0.1,0-0.3-0.1-0.4-0.1l-0.1,0l-0.1,0l-8.3-2.6l0,0l0,0c-0.1,0-0.3-0.1-0.5-0.1l0,0l0,0l-3.3-1l0,0l0,0
						c-0.2,0-0.5-0.1-0.8-0.3c0,0-0.1,0-0.1,0c0.5-0.2,0.9-0.7,1-1.2c0.2-1-0.4-2.1-1.3-2.6c-0.4-0.2-1.1-0.4-1.7-0.4
						c-0.5,0-1,0.1-1.3,0.4c0-0.1-0.1-0.3-0.2-0.4c-0.5-0.8-1.8-1.2-2.7-1.2c-0.8,0-1.4,0.3-1.7,0.8c0.1-0.5-0.1-0.9-0.3-1.2
						c-0.6-0.8-1.8-0.9-2.6-1c-0.2,0-0.3,0-0.4,0l0,0l0,0l0,0l-0.1,0c-0.6,0-1,0.3-1.3,0.8c-0.3,0.6-0.3,1.5-0.1,2.1
						c-0.5-0.1-0.9-0.2-1.3-0.2c-1.2,0-2.1,0.5-2.8,1.6c-0.5,0.8-1.1,1.1-2.3,1.1l-0.2,0c-0.5,0-54.6-1.8-72.3-2.3l-3.6-0.1l-0.5,0
						c-1.3-0.3-2.2-1.5-2.5-3.6l0,0l0,0c-0.3-1.3,0.4-2.5,1-3.4c1.7-2.2,4.6-3.6,5.7-3.6l0.1,0l0.1,0c0.5-0.1,1.1-0.1,1.9-0.2
						c2-0.1,4.3-0.3,5.4-1.6c0.5-0.6,0.7-1.4,0.6-2.3l0-0.1l0-0.1c-2.1-5.8-9.7-6-13.2-6l0,0l-0.3,0c-0.3,0-6.3,0-14.6,3.5
						c-0.6,0.2-1.3,0.4-1.9,0.6c-2.2,0.7-4.5,1.5-6.8,1.5l-0.1,0c-5-0.5-9.8-2.5-14.5-4.5C88.8,148.2,83.2,145.8,77.1,145.8
						L77.1,145.8z M220.1,171.6c0.3-0.1,0.5-0.2,0.7-0.5c0,0.3,0,0.6,0.2,0.8c-0.2-0.1-0.4-0.2-0.6-0.2
						C220.3,171.6,220.2,171.6,220.1,171.6L220.1,171.6z M225,173.1c0.1,0,0.1-0.1,0.2-0.1c0,0.1,0.1,0.2,0.1,0.3
						C225.2,173.2,225.1,173.1,225,173.1L225,173.1z"/>
				</g>
			</g>
			<g>
				<g>
					<defs>
						<path id="SVGID_1_" d="M119.2,179.4l0.1-6.1c0-1.3,1.1-2.3,2.4-2.3l5.5,0.1l4.3,0.1l2.4,0c-0.2,0-0.4,0-0.6,0
							c-2.1-0.4-2.9-2.4-3.2-4.3c-1-3.9,5.2-8.1,7.5-8c2.3-0.5,7.7,0.3,7.2-3.2c-1.8-5-8.2-5.5-12.7-5.5c0,0-6,0-14.4,3.5
							c-3,0.9-5.9,2.2-9.1,2.1c-11.5-1.1-21.3-10-33.2-9.2c-5.8,0.1-10.7,3.8-13.5,8.8c-5.6,9.4-4,20.7-3.6,31.1
							c0.6,19.5,15.5,24.8,31.9,17.6l0,0c6.7-2.8,13.7-7.5,20.3-5.3c4.7,1.5,9.4,4.1,14.5,3.9c2.9-0.2,5.7-0.6,7.6-3.1
							c1.6-2,1-4.1-1.3-4.6c-4-0.6-8.3-1.1-9.3-5.8c-0.5-2.3-0.6-6.9,2.5-7.2c0.8,0,1.8,0,3-0.1l-6.3-0.1
							C120.2,181.8,119.1,180.7,119.2,179.4z"/>
					</defs>
					<clipPath id="SVGID_00000183223068208939813620000011617295533502877113_">
						<use xlink:href="#SVGID_1_"  style="overflow:visible;"/>
					</clipPath>
					<g style="clip-path:url(#SVGID_00000183223068208939813620000011617295533502877113_);">
						<path class="st4" d="M119.2,179.4l0.1-6.1c0-1.3,1.1-2.3,2.4-2.3l5.5,0.1l4.3,0.1l2.4,0c-0.2,0-0.4,0-0.6,0
							c-2.1-0.4-2.9-2.4-3.2-4.3c-1-3.9,5.2-8.1,7.5-8c2.3-0.5,7.7,0.3,7.2-3.2c-1.8-5-8.2-5.5-12.7-5.5c0,0-6,0-14.4,3.5
							c-3,0.9-5.9,2.2-9.1,2.1c-11.5-1.1-21.3-10-33.2-9.2c-5.8,0.1-10.7,3.8-13.5,8.8c-5.6,9.4-4,20.7-3.6,31.1
							c0.6,19.5,15.5,24.8,31.9,17.6l0,0c6.7-2.8,13.7-7.5,20.3-5.3c4.7,1.5,9.4,4.1,14.5,3.9c2.9-0.2,5.7-0.6,7.6-3.1
							c1.6-2,1-4.1-1.3-4.6c-4-0.6-8.3-1.1-9.3-5.8c-0.5-2.3-0.6-6.9,2.5-7.2c0.8,0,1.8,0,3-0.1l-6.3-0.1
							C120.2,181.8,119.1,180.7,119.2,179.4z"/>
					</g>
					
						<rect x="125.8" y="162.2" transform="matrix(0.9058 -0.4237 0.4237 0.9058 -56.7914 70.6549)" style="clip-path:url(#SVGID_00000183223068208939813620000011617295533502877113_);fill:#010101;" width="9.3" height="1.6"/>
					
						<rect x="62.1" y="162.5" transform="matrix(0.6595 -0.7517 0.7517 0.6595 -106.8503 105.3824)" style="clip-path:url(#SVGID_00000183223068208939813620000011617295533502877113_);fill:#FFFFFF;" width="1.6" height="16.3"/>
					
						<rect x="49.3" y="166.5" transform="matrix(0.7457 -0.6663 0.6663 0.7457 -92.3219 94.3405)" style="clip-path:url(#SVGID_00000183223068208939813620000011617295533502877113_);fill:#010101;" width="56.3" height="3.3"/>
					
						<rect x="82.3" y="138.4" transform="matrix(0.7984 -0.6021 0.6021 0.7984 -79.1524 82.7034)" style="clip-path:url(#SVGID_00000183223068208939813620000011617295533502877113_);fill:#FFFFFF;" width="3.3" height="42.3"/>
					
						<rect x="56.5" y="178.9" transform="matrix(1 -9.584388e-03 9.584388e-03 1 -1.7271 0.7364)" style="clip-path:url(#SVGID_00000183223068208939813620000011617295533502877113_);fill:#FFFFFF;" width="38.9" height="3.3"/>
					<polygon style="clip-path:url(#SVGID_00000183223068208939813620000011617295533502877113_);fill:#FFFFFF;" points="
						136.3,205.1 104.7,192.3 56.4,193.1 56.3,189.8 105.3,189 137.5,202.1 					"/>
					
						<rect x="85.3" y="158" transform="matrix(0.9808 -0.1949 0.1949 0.9808 -29.0393 22.5225)" style="clip-path:url(#SVGID_00000183223068208939813620000011617295533502877113_);fill:#FFFFFF;" width="29.3" height="1.6"/>
					
						<rect x="113.7" y="161.6" transform="matrix(0.1908 -0.9816 0.9816 0.1908 -56.5559 256.2236)" style="clip-path:url(#SVGID_00000183223068208939813620000011617295533502877113_);fill:#FFFFFF;" width="26.8" height="1.6"/>
					<polygon style="clip-path:url(#SVGID_00000183223068208939813620000011617295533502877113_);fill:#FFFFFF;" points="
						137.2,165.5 116,154.7 116.8,153.2 135.6,162.8 135.8,148.6 137.4,148.6 					"/>
					
						<rect x="90.1" y="159.3" transform="matrix(0.54 -0.8417 0.8417 0.54 -87.884 159.4708)" style="clip-path:url(#SVGID_00000183223068208939813620000011617295533502877113_);fill:#FFFFFF;" width="23.6" height="1.6"/>
					
						<rect x="95.3" y="147.9" transform="matrix(0.9947 -0.1024 0.1024 0.9947 -15.6572 10.6791)" style="clip-path:url(#SVGID_00000183223068208939813620000011617295533502877113_);fill:#FFFFFF;" width="1.6" height="19.8"/>
					<path style="clip-path:url(#SVGID_00000183223068208939813620000011617295533502877113_);fill:#FFFFFF;" d="M136.2,169.1
						c-14.3-1.1-36.3-2.5-37.8-2.2c0.1,0,0.3-0.1,0.4-0.3l-1.4-0.9c0.3-0.5,0.7-0.5,2.5-0.5c1,0,2.5,0.1,4.4,0.2
						c3.2,0.2,7.6,0.4,13.1,0.8c9.4,0.6,18.8,1.3,18.9,1.3L136.2,169.1z"/>
					
						<rect x="113.8" y="153.6" transform="matrix(0.9738 -0.2273 0.2273 0.9738 -33.4391 30.2544)" style="clip-path:url(#SVGID_00000183223068208939813620000011617295533502877113_);fill:#FFFFFF;" width="1.6" height="13.4"/>
					
						<rect x="100.8" y="157.7" transform="matrix(0.1267 -0.9919 0.9919 0.1267 -61.9258 246.6061)" style="clip-path:url(#SVGID_00000183223068208939813620000011617295533502877113_);fill:#FFFFFF;" width="16.6" height="1.6"/>
					
						<rect x="96.1" y="192.1" transform="matrix(0.5891 -0.8081 0.8081 0.5891 -111.2877 167.0207)" style="clip-path:url(#SVGID_00000183223068208939813620000011617295533502877113_);fill:#FFFFFF;" width="24.9" height="1.6"/>
					
						<rect x="119" y="180.6" transform="matrix(0.9874 -0.1583 0.1583 0.9874 -29.1107 21.4092)" style="clip-path:url(#SVGID_00000183223068208939813620000011617295533502877113_);fill:#FFFFFF;" width="1.6" height="25.6"/>
					
						<rect x="116.4" y="198.8" transform="matrix(0.5923 -0.8057 0.8057 0.5923 -110.1853 181.5386)" style="clip-path:url(#SVGID_00000183223068208939813620000011617295533502877113_);fill:#FFFFFF;" width="15.8" height="1.6"/>
					<polygon style="clip-path:url(#SVGID_00000183223068208939813620000011617295533502877113_);fill:#FFFFFF;" points="
						110.2,203.4 105.8,186.4 115.5,178.3 116.5,179.5 107.6,187 111.8,203 					"/>
					
						<rect x="84.5" y="190.1" transform="matrix(0.8308 -0.5565 0.5565 0.8308 -96.9376 81.329)" style="clip-path:url(#SVGID_00000183223068208939813620000011617295533502877113_);fill:#FFFFFF;" width="1.6" height="20"/>
					<path style="clip-path:url(#SVGID_00000183223068208939813620000011617295533502877113_);fill:#FFFFFF;" d="M72.1,209.5
						l-1.6-2.9c-0.3,0.2-0.5,0.4-0.5,0.4c0.8-1.1,8.8-16.2,13.7-25.5l2.9,1.5c0,0.1-3.4,6.5-6.8,12.8c-2,3.7-3.6,6.7-4.8,8.9
						C72.7,209.2,72.6,209.2,72.1,209.5z"/>
					
						<rect x="60.3" y="198.6" transform="matrix(0.3592 -0.9333 0.9333 0.3592 -142.1274 191.8427)" style="clip-path:url(#SVGID_00000183223068208939813620000011617295533502877113_);fill:#FFFFFF;" width="16.6" height="1.6"/>
					
						<rect x="69.3" y="150.7" transform="matrix(0.6646 -0.7472 0.7472 0.6646 -96.0266 106.0922)" style="clip-path:url(#SVGID_00000183223068208939813620000011617295533502877113_);fill:#FFFFFF;" width="1.6" height="18.7"/>
					
						<rect x="56.4" y="180.9" transform="matrix(0.995 -9.952048e-02 9.952048e-02 0.995 -17.7987 8.2202)" style="clip-path:url(#SVGID_00000183223068208939813620000011617295533502877113_);fill:#010101;" width="34.2" height="3.3"/>
					
						<rect x="69.1" y="153" transform="matrix(0.2428 -0.9701 0.9701 0.2428 -87.8338 196.721)" style="clip-path:url(#SVGID_00000183223068208939813620000011617295533502877113_);fill:#010101;" width="26" height="3.3"/>
					
						<rect x="108.1" y="165.8" transform="matrix(0.1879 -0.9822 0.9822 0.1879 -94.4689 258.2504)" style="clip-path:url(#SVGID_00000183223068208939813620000011617295533502877113_);fill:#010101;" width="1.6" height="40.9"/>
					
						<rect x="136.8" y="156.2" transform="matrix(0.125 -0.9922 0.9922 0.125 -31.222 278.691)" style="clip-path:url(#SVGID_00000183223068208939813620000011617295533502877113_);fill:#010101;" width="11.2" height="1.6"/>
					
						<rect x="132.3" y="146.9" transform="matrix(0.8635 -0.5043 0.5043 0.8635 -61.7041 88.7697)" style="clip-path:url(#SVGID_00000183223068208939813620000011617295533502877113_);fill:#010101;" width="1.6" height="23"/>
					<path style="clip-path:url(#SVGID_00000183223068208939813620000011617295533502877113_);fill:#010101;" d="M107.2,203.3
						l-1.6-0.5c0,0.2,0,0.3,0,0.3c-0.3-1.2-6.6-13-10.6-20.2l1.4-0.8c0,0,2.8,5,5.4,10C107.4,202.5,107.3,202.9,107.2,203.3z"/>
					<path style="clip-path:url(#SVGID_00000183223068208939813620000011617295533502877113_);fill:#010101;" d="M112.9,203.8
						l-1.1-1.2c1.2-1,11.3-9.8,13.8-10.8l0.6,1.5C124.5,194,117.3,199.9,112.9,203.8z"/>
					<path style="clip-path:url(#SVGID_00000183223068208939813620000011617295533502877113_);fill:#010101;" d="M59.8,199l-1.3-1
						c0.5-0.7,7.2-11.5,9.8-15.5l1.4,0.9C69.2,184,60.4,198.2,59.8,199z"/>
				</g>
				<path class="st14" d="M213.6,173.7l-3.6-0.1l-0.2,0c0,0-54.5-1.8-72.3-2.3c-1.5,0-2.7-0.1-3.6-0.1l-2.4,0l-4.3-0.1l-5.5-0.1
					c-1.3,0-2.4,1-2.4,2.3l-0.1,6.1c0,1.3,1,2.4,2.3,2.4l6.3,0.1c1.2,0,2.7,0,4.3,0c23-0.2,79,0.1,79,0.1c0.3,0,0.5,0,0.8,0l0.2,0
					l1.4,0L213.6,173.7z"/>
				<path class="st1" d="M219,171.5c0.3-1,1.2-0.2,1.4-1.5c0.4-1.6-1.6-1.5-2.6-1.7c-0.9,0-1,1.4-0.6,2c0.7,0.6,0.5,1.2-0.3,1.1
					l2.5,0.8C219.2,172.1,219,171.7,219,171.5z"/>
				<path class="st1" d="M228.4,173.7c1.5-0.1,1.1-2,0.1-2.5c-0.6-0.3-2-0.6-2.4,0.3c-0.8,1.7,0.5,1.2,0.3,2.4
					c-0.2,0.2-0.4,0.2-0.6,0.2l3.2,1c-0.3-0.1-0.6-0.2-0.7-0.3C227.9,174.6,227.9,173.8,228.4,173.7z"/>
				<path class="st1" d="M224,172.5c0.9,0.1,1-0.6,1.1-1.2c0.5-1.3-3.3-2.2-3.4-0.8c-0.7,1.4,0.5,1,0.3,2.1
					c-0.2,0.1-0.4,0.2-0.6,0.2l3.1,0.9c-0.2-0.1-0.5-0.2-0.6-0.2C223.6,173.3,223.5,172.5,224,172.5z"/>
				<path class="st1" d="M232.5,175.6c0.6-0.9,1.2,0.3,1.5-1.7c0.2-1.4-2.6-1.9-3.3-0.9c-0.3,0.5-0.8,1.1,0,1.6c0.4,1-0.1,1-0.9,0.9
					l3.3,1C232.8,176.3,232.5,176,232.5,175.6z"/>
				<path class="st1" d="M241.4,178.1c0.4-0.8,1.2,0.1,1.4-1c0.2-0.6,0.2-1.1-0.4-1.4c-0.8-0.5-2.2-0.9-2.8-0.1
					c-0.3,0.5-0.8,1.2,0.1,1.8c0.1,0.1,0.2,0.4,0.1,0.6c0,0.1-0.3,0.3-0.4,0.2c-0.8-0.4-2.4-0.3-2.5-1.4c0-0.2,0.3-0.4,0.5-0.4
					c0.9,0,0.9-0.7,1-1.3c0.1-0.6-0.3-1-0.7-1.1c-0.8-0.1-2.4-0.8-2.7,0.2c-0.1,0.5-0.6,1.1,0.2,1.6c0.2,0.1,0.2,0.5,0.2,0.8
					c0,0.1-0.3,0.3-0.4,0.2c-0.3-0.1-0.7-0.2-1-0.3l8.3,2.6C241.7,179,241.4,178.7,241.4,178.1z"/>
				<path class="st1" d="M89.7,182.9l-0.1,0c-0.9,0-1.7-0.8-1.7-1.7l0.2-10.4c0-0.9,0.8-1.7,1.7-1.7l0.1,0c0.9,0,1.7,0.8,1.7,1.7
					l-0.2,10.4C91.4,182.1,90.6,182.9,89.7,182.9z"/>
				<path class="st1" d="M93.3,182.9l-0.1,0c-0.9,0-1.7-0.8-1.7-1.7l0.2-10.4c0-0.9,0.8-1.7,1.7-1.7l0.1,0c0.9,0,1.7,0.8,1.7,1.7
					L95,181.3C95,182.2,94.2,182.9,93.3,182.9z"/>
				<path class="st1" d="M99.6,183l-0.1,0c-0.9,0-1.7-0.8-1.7-1.7l0.2-10.4c0-0.9,0.8-1.7,1.7-1.7l0.1,0c0.9,0,1.7,0.8,1.7,1.7
					l-0.2,10.4C101.3,182.3,100.5,183,99.6,183z"/>
				<path class="st1" d="M103.2,183.1l-0.1,0c-0.9,0-1.7-0.8-1.7-1.7l0.2-10.4c0-0.9,0.8-1.7,1.7-1.7l0.1,0c0.9,0,1.7,0.8,1.7,1.7
					l-0.2,10.4C104.9,182.4,104.2,183.1,103.2,183.1z"/>
				<path class="st15" d="M85.1,167.1l-4.2-0.1c-0.9,0-1.6,0.7-1.6,1.5l0,0.1l-3-0.1c-1,0-1.8,0.8-1.8,1.7l-0.2,10.3
					c0,1,0.8,1.8,1.7,1.8l3,0.1l0,0.6c0,0.9,0.7,1.6,1.5,1.6l4.2,0.1c0.9,0,1.6-0.7,1.6-1.5l0.2-14.5
					C86.6,167.8,85.9,167.1,85.1,167.1z"/>
				<path class="st1" d="M96.8,185.4l4.2,10.4c0,0-7.5,3.3-10.5,5c-3,1.7-10.3,3.8-12.1,3.6c-1.8-0.2-3.2-2.4-1.5-4.6
					c1.6-2.2,6.8-7.1,7-13.9l3.9,0.1l1.1-1.7L96.8,185.4z"/>
				<path class="st1" d="M116.8,183.3l-0.1,0c-0.9,0-1.7-0.8-1.7-1.7l0.2-10.4c0-0.9,0.8-1.7,1.7-1.7l0.1,0c0.9,0,1.7,0.8,1.7,1.7
					l-0.2,10.4C118.5,182.6,117.7,183.3,116.8,183.3z"/>
				<g>
					<defs>
						<path id="SVGID_00000085211889140156657320000016337681577202260657_" d="M242.6,179.4c-0.2,0-0.4-0.1-0.6-0.2l-8.3-2.6
							c-0.2-0.1-0.4-0.1-0.6-0.2l-3.3-1c-0.3-0.1-0.6-0.2-0.9-0.3l-3.2-1c-0.4,0-0.9-0.2-1.3-0.4l-3.1-0.9c-0.6,0-1.4-0.4-1.9-0.6
							l-0.2-0.1c0,0,0,0,0,0c0,0,0,0,0,0l-2.5-0.8c-0.1,0-0.2,0-0.3-0.1c-1.4-0.6-2.7-0.5-3.6,1c-0.7,1.1-1.7,1.4-2.9,1.4l3.6,0.1
							l-0.1,8.2l-1.4,0c0.4,0,0.8,0.1,1.2,0.4c2.1-0.1,3.7,1.5,4.8,3.2c1,2.6,12.3-1.2,15-1.5c1.2-0.3,1.4-0.2,2.1,0.8
							c1.9,5,10.2,4.9,10.7-0.7C245.8,181.8,244.7,180.2,242.6,179.4z"/>
					</defs>
					<clipPath id="SVGID_00000038388090042469793030000013350881507877048748_">
						<use xlink:href="#SVGID_00000085211889140156657320000016337681577202260657_"  style="overflow:visible;"/>
					</clipPath>
					<path style="clip-path:url(#SVGID_00000038388090042469793030000013350881507877048748_);fill:#FB5058;" d="M242.6,179.4
						c-0.2,0-0.4-0.1-0.6-0.2l-8.3-2.6c-0.2-0.1-0.4-0.1-0.6-0.2l-3.3-1c-0.3-0.1-0.6-0.2-0.9-0.3l-3.2-1c-0.4,0-0.9-0.2-1.3-0.4
						l-3.1-0.9c-0.6,0-1.4-0.4-1.9-0.6l-0.2-0.1c0,0,0,0,0,0c0,0,0,0,0,0l-2.5-0.8c-0.1,0-0.2,0-0.3-0.1c-1.4-0.6-2.7-0.5-3.6,1
						c-0.7,1.1-1.7,1.4-2.9,1.4l3.6,0.1l-0.1,8.2l-1.4,0c0.4,0,0.8,0.1,1.2,0.4c2.1-0.1,3.7,1.5,4.8,3.2c1,2.6,12.3-1.2,15-1.5
						c1.2-0.3,1.4-0.2,2.1,0.8c1.9,5,10.2,4.9,10.7-0.7C245.8,181.8,244.7,180.2,242.6,179.4z"/>
					
						<rect x="224.9" y="165" transform="matrix(0.1483 -0.9889 0.9889 0.1483 14.6051 376.2054)" style="clip-path:url(#SVGID_00000038388090042469793030000013350881507877048748_);fill:#FFFFFF;" width="1.6" height="29.3"/>
					
						<rect x="212.9" y="173.9" transform="matrix(0.5116 -0.8592 0.8592 0.5116 -39.6045 279.7374)" style="clip-path:url(#SVGID_00000038388090042469793030000013350881507877048748_);fill:#FFFFFF;" width="26.8" height="1.6"/>
					<polygon style="clip-path:url(#SVGID_00000038388090042469793030000013350881507877048748_);fill:#FFFFFF;" points="
						232.9,186.9 218.5,171.5 213.4,184.8 211.9,184.2 217.9,168.4 234.1,185.7 					"/>
					
						<rect x="230.6" y="180.1" transform="matrix(0.1155 -0.9933 0.9933 0.1155 30.2165 395.705)" style="clip-path:url(#SVGID_00000038388090042469793030000013350881507877048748_);fill:#FFFFFF;" width="13.4" height="1.6"/>
					
						<rect x="233.6" y="183.7" transform="matrix(0.4547 -0.8906 0.8906 0.4547 -32.4273 316.0768)" style="clip-path:url(#SVGID_00000038388090042469793030000013350881507877048748_);fill:#FFFFFF;" width="16.6" height="1.6"/>
					
						<rect x="218.4" y="165" transform="matrix(0.9832 -0.1825 0.1825 0.9832 -28.5258 42.9807)" style="clip-path:url(#SVGID_00000038388090042469793030000013350881507877048748_);fill:#010101;" width="1.6" height="23"/>
					
						<rect x="218.6" y="172.2" transform="matrix(0.9957 -9.228537e-02 9.228537e-02 0.9957 -15.01 21.3464)" style="clip-path:url(#SVGID_00000038388090042469793030000013350881507877048748_);fill:#010101;" width="9.3" height="1.6"/>
				</g>
			</g>
		</g>
	</g>
	<g>
		<g>
			<path class="st1" d="M106.2,182.6c-1.9,0-5.7-1.7-5.8-1.8l-0.3-0.1l0-0.3c0-0.1,0.3-3.3-2.6-5.6c-0.5-0.4-0.8-0.7-0.7-1.1
				c0-0.1,0.2-0.3,0.6-0.3c1.6,0,8.9,3.6,10,7.9c0.1,0.4,0,0.7-0.1,0.9C107,182.5,106.7,182.6,106.2,182.6L106.2,182.6z"/>
			<path class="st0" d="M97.4,173.8c1.4,0,8.5,3.5,9.6,7.6c0.1,0.6-0.2,0.8-0.9,0.8c-1.8,0-5.7-1.7-5.7-1.7s0.3-3.4-2.7-5.9
				C97.1,174.1,97.1,173.8,97.4,173.8 M97.4,173.1c-0.7,0-0.9,0.5-1,0.6c-0.2,0.7,0.4,1.3,0.8,1.5c2.7,2.2,2.5,5.1,2.5,5.3l-0.1,0.6
				l0.5,0.2c0.4,0.2,4.1,1.8,6,1.8c0.6,0,1.1-0.2,1.4-0.6c0.2-0.2,0.4-0.6,0.2-1.2C106.6,176.7,99.1,173.1,97.4,173.1L97.4,173.1z"
				/>
		</g>
		<g>
			<path class="st1" d="M79.6,186.4c-1.7,0-3.2-0.6-4.3-1.8c-3.9-4.2-5.6-10.4-5.6-14.4c-8.6-1.1-15.9-2.5-21.7-4l-0.5-0.1l0.3-0.5
				c0.7-1,1.4-2,2.1-3c0.8-1.2,1.6-2.3,2.4-3.5l0.2-0.3l0.3,0.1c6.3,2.8,13.6,5.3,18.8,6.4c1.6-1,4.1-1.3,5.9-1.3
				c1,0,1.9,0.1,2.3,0.1c0.6-0.6,2.9-3,5.2-3c0.7,0,1.3,0.2,1.8,0.7c1.2,1,3.2,1.5,4.9,2c2.1,0.6,4,1.1,4.5,2.3
				c0.8,1.8,3.6,4.8,3.7,4.8l0.1,0.1l0,0.2c-0.1,2.4-1.5,2.4-1.7,2.4h-0.1l-0.1-0.1c-1.6-1-2.7-1.6-3.5-1.8c2.4,2.2,4.9,5,4.9,7.3
				c0,0.8-0.4,1.5-1.1,2c-0.8,0.6-1.7,0.9-2.8,0.9c0,0,0,0,0,0c-1.8,0-3.5-1-4.1-1.4C90.2,181.7,84.5,186.4,79.6,186.4z"/>
			<path class="st0" d="M52.6,159.3c5.9,2.7,13.6,5.3,19.1,6.4c1.5-1.1,4-1.3,5.8-1.3c1.4,0,2.4,0.1,2.4,0.1s2.6-3,5-3
				c0.6,0,1.1,0.2,1.6,0.6c2.6,2.1,8.4,2.3,9.3,4.2c0.9,1.9,3.7,4.9,3.7,4.9c-0.1,2-1.1,2.1-1.3,2.1c0,0,0,0,0,0
				c-2.9-1.9-4.3-2.1-4.8-2.1c-0.1,0-0.2,0-0.2,0c3.2,2.9,7.7,7.4,4.8,9.6c-0.8,0.6-1.7,0.8-2.5,0.8c-2.2,0-4.1-1.5-4.1-1.5
				c-1,0.9-7,5.9-11.8,5.9c-1.5,0-2.9-0.5-4-1.7c-3.9-4.2-5.6-10.3-5.5-14.5c-9.4-1.2-16.5-2.6-22-4
				C49.6,163.6,51.2,161.5,52.6,159.3 M52.4,158.3l-0.4,0.5c-0.8,1.2-1.6,2.4-2.4,3.5c-0.7,1-1.4,2-2.1,3l-0.6,0.9l1.1,0.3
				c5.7,1.5,12.9,2.8,21.4,4c0.1,4.1,1.8,10.2,5.7,14.4c1.2,1.3,2.7,1.9,4.6,1.9c4.8,0,10.2-4.3,11.9-5.7c0.8,0.5,2.3,1.3,4.1,1.3
				c1.1,0,2.1-0.3,3-1c0.8-0.6,1.2-1.4,1.3-2.3c0.1-1.6-1-3.5-3.4-6c0.4,0.2,0.9,0.5,1.4,0.9L98,174l0.2,0l0,0l0,0
				c0.2,0,2-0.1,2.1-2.8l0-0.3l-0.2-0.2c0,0-2.8-2.9-3.6-4.7c-0.6-1.3-2.5-1.9-4.7-2.5c-1.7-0.5-3.6-1-4.8-2
				c-0.6-0.5-1.3-0.7-2.1-0.7c-2.2,0-4.5,2.2-5.3,3c-0.4,0-1.2-0.1-2.1-0.1c-1.8,0-4.3,0.2-5.9,1.2c-5.1-1.1-12.5-3.6-18.6-6.3
				L52.4,158.3L52.4,158.3z"/>
		</g>
	</g>
	<g>
		<path class="st1" d="M107,181.5c-1.3-5.2-12.3-9.4-9.3-6.9c3.1,2.5,2.7,5.9,2.7,5.9S107.6,183.7,107,181.5z"/>
		<path class="st1" d="M93.3,171.2c0,0,1.2-0.3,4.9,2.1c0,0,1.2,0.1,1.3-2.1c0,0-2.9-3-3.7-4.9c-0.9-1.9-6.7-2.1-9.3-4.2
			c-2.6-2.1-6.6,2.4-6.6,2.4s-5.5-0.7-8.2,1.2c-5.5-1.1-13.1-3.7-19.1-6.4c-4-1.8-7.2-3.6-8.5-5c6.2-5.3,19.5-14.5,25.2-17.7
			c0.5-0.3,1-0.7,1.3-1.2c0.5-0.1,1.5-11.5,3.5-12.3c-3.4,0.1-4.7,2.4-4.2,3c-8.7,5.5-37.5,22.9-38.2,29.1
			c-0.3,2.8,2.4,6.9,16.4,10.6c5.5,1.4,12.6,2.8,22,4c-0.1,4.2,1.7,10.4,5.5,14.5c4.8,5.1,14.5-3,15.9-4.2c0,0,3.7,2.9,6.6,0.7
			C101,178.6,96.5,174.1,93.3,171.2z"/>
	</g>
	<circle class="st1" cx="67.6" cy="132" r="6.6"/>
	<path class="st19" d="M130.4,76.7c-1.4-2.2-2.2-4.7-3.4-7c-0.4-0.8-1.1-1.4-1.5-2.2c-2.7-4.3-6.8-7-11-9.7c-0.5-0.3-1-0.6-1.4-0.9
		c-4.9,6-19.1,4.5-25.3,9.5c-8.4,7-11.3,20.2-10.1,31.8c0.5-0.2,0.9-0.5,1.4-0.8c2-1.4,4-2.9,6-4.3c0.5-0.4,1.1-0.7,2-1.3
		c-0.1,0.9-0.1,1.5-0.3,2c-0.6,2-1.3,3.9-1.9,5.9c-0.2,0.8-0.1,1.6-0.3,2.4c-0.5,1.4-1.1,2.7-1.8,4c-0.9,1.6-1.8,3.2-2.7,4.7
		c0,0,0.2,0,0.3-0.1c0,0.1,0.1,0.1,0.1,0.2c-1.7,1.7-3.3,3.5-5,5.2c0.1,0.1,0.1,0.2,0.2,0.2c0.6-0.4,1.1-0.8,1.7-1.2
		c0.1,0.1,0.1,0.2,0.2,0.3c-1.7,1.5-3.4,2.9-5.1,4.4c0.1,0.1,0.1,0.1,0.2,0.2c1.3-1,2.7-2.1,4-3.1c0,0,0.1,0.1,0.1,0.1
		c-0.9,1-1.9,2-2.8,3c0,0,0.1,0.1,0.1,0.1c0.5-0.5,1.2-0.9,1.6-1.4c1-1.2,1.9-2.5,2.8-3.7c0.4-0.5,0.8-0.9,1.2-1.3
		c1.3-1.4,2.6-2.8,3.8-4.2c1-1.1,1.9-2.3,2.8-3.5c0.2-0.3,0.4-0.6,0.7-1.1c-0.4,0.2-0.6,0.3-0.8,0.3c1-1.8,2-3.7,3.1-5.5
		c0.4-0.6,1.3-1,1.6-1.6c0.9-1.8,1.7-3.7,2.6-5.6c0.6-1.4,1.3-2.8,2.1-4.1c0.6,3.7,0.3,7.3-1.4,10.8c1.9-1.2,1.7-3.3,2.8-4.6
		c-0.6,2.1-0.4,4.4-2.2,6c0.2,0.1,0.4,0.2,0.7,0.3c0.8-1.2,1.7-2.3,2.3-3.5c0.5-1,0.7-2.2,1.1-3.3c0.1-0.3,0.4-0.6,0.7-0.8
		c-0.4,3.1-1.2,5.9-3.2,8.4c0.1,0.1,0.2,0.1,0.4,0.2c0.5-0.7,1-1.4,1.6-2.3c0.1,0.5,0.1,0.8,0.2,1.1c0.1,0,0.2,0.1,0.3,0.1
		c0.6-1.8,1.2-3.7,1.8-5.6c0.4,1.5-1.3,6.9-2.9,9.3c-0.1,0.2-0.1,0.3-0.2,0.5c0.3-0.3,0.8-0.5,1-0.9c0.8-1.5,1.5-3.1,2.2-4.6
		c0.2-0.4,0.4-0.8,0.6-1.2c0.1,0,0.3,0.1,0.4,0.1c-0.1,1-0.2,2-0.4,3.3c0.5-0.8,0.9-1.5,1.3-2.1c0-0.1,0-0.2,0-0.4
		c0-1,0.1-2.1,0.1-3.1c0.1,0,0.2,0,0.3,0c0.1,0.4,0.2,0.8,0.3,1.2c0.2-1.1,0.5-2.3,0.7-3.7c0.3,0.5,0.4,0.7,0.6,1.2
		c0.1-1.2,0.3-2.1,0.4-3.1c0.1-0.8,0.2-1.6,0.2-2.3c0,0-0.1,0.1-0.1,0.1c-0.4-1.9,0-6.9,0.7-7.6c0.2,0.7,0.3,1.4,0.5,2.1
		c0.6,2.2,1.3,4.3,0.9,6.6c-0.2,1-0.3,2.1-0.5,3.1c0.3-1.3,0.7-2.5,1-3.8c0.1-0.4,0.3-0.8,0.3-1.2c0-0.5,0.8-1.1-0.3-1.5
		c-0.1-0.1,0-1,0.1-1.8c0.9,0.5,1.3,0.9,1.4,1.8c0,1.2,0.3,2.5,0.4,3.7c0,1.4,0,2.9-0.1,4.3c-0.1,1-0.5,1.9-0.8,2.8
		c0.8,0.8-0.4,1.3-0.3,1.8c0.1,0.3,0.3,0.7,0.2,0.9c-0.6,1.9-1.2,3.7-1.8,5.6c-0.2,0.7-0.6,1.3-0.9,2c1.7-1.8,2.3-4.2,2.9-6.5
		c0.2-0.8,0.5-1.6,0.7-2.4c0.1,0,0.2,0,0.3,0.1c0,0.2,0.1,0.4,0.1,0.6c-0.5,2-1,4.1-1.7,6c-0.3,0.9-1.3,1.6-1.8,2.5
		c-0.6,1.1-1,2.3-1.6,3.7c0.3-0.1,0.4-0.2,0.6-0.3c-0.2,0.5-0.4,0.9-0.5,1.3c0.1,0.1,0.2,0.1,0.3,0.2c2.7-4.2,5.4-8.4,8.1-12.5
		c0.1,0.1,0.3,0.1,0.4,0.2c-0.1,0.8-0.3,1.5-0.4,2.3c0.1,0,0.2,0,0.3,0.1c0.2-0.9,0.4-1.8,0.5-2.7c0.2-1.5,1.4-2.7,3.1-2.7
		c-0.5,2.8-0.8,5.7-1.7,8.4c-0.8,2.7-2.1,5.2-3.1,7.4c3.9-4.5,4.5-10.6,5-16.7c0.1,0,0.2,0,0.4,0c0.1,0.3,0.2,0.7,0.3,1
		c0.8,4.7-0.3,9.1-2.2,13.3c-0.9,2-1.9,3.9-2.8,5.9c-0.1,0.2-0.1,0.4-0.1,0.7c5.3-8.2,7.6-17.3,8-27.1c0.1,0,0.2,0,0.4,0.1
		c0,0.9,0.1,1.9,0.1,2.8c0.1,0,0.2,0,0.3,0c0.1-1.6,0.1-3.2,0.2-4.8c0.1,0,0.3,0,0.4,0c0.5,2.2,1.5,4.3,0.6,6.7
		c-0.7,1.9-1.5,3.8-2.2,5.7c-0.3,0.7-0.5,1.4-0.7,2.1c0.1,0,0.2,0.1,0.3,0.1c1-2.1,1.9-4.2,2.9-6.3c0.1,0,0.2,0.1,0.4,0.1
		c-0.5,2.2-1,4.4-1.5,6.5c0,0,0.1,0,0.1,0.1c0.5-1.4,1.1-2.8,1.6-4.1c1.2-3.1,0.7-6.4,1.1-9.6c0.2-1.4-0.3-2.9,0.5-4.4
		c0.3-0.6,0-1.5,0-2.2c0.1,0,0.2,0,0.3,0c0,0.5,0.1,1,0.1,1.7c0.2-0.2,0.3-0.3,0.6-0.7c0.3,2.2,0.6,4.2,0.9,6.2c0.1,0,0.1,0,0.2,0
		c-0.1-1.5-0.2-2.9-0.3-4.4c0.1,0,0.2,0,0.2,0c0.2,1.6,0.4,3.1,0.6,4.7c0,0,0.1,0,0.1,0c0-0.4,0.1-0.7,0.1-1.1
		c0-2.9-0.8-5.7-1.8-8.4c-0.2-0.6-0.5-1.2-0.5-1.8c-0.4-2.9-1.4-5.6-2.7-8.2c-0.3-0.6-0.6-1.1-0.1-1.7c-0.3-0.1-0.7-0.1-0.9-0.3
		c-0.6-0.6-1-1.3-1.5-1.9c-1.1-1.2-2.2-2.4-3.3-3.5c0.2,0.1,0.5,0.2,0.8,0.4c1.4,1.2,2.7,2.3,4.1,3.5c0.6,0.5,1.3,0.9,0.8,1.8
		c0.2-0.2,0.5-0.3,0.8-0.6c0.5,0.5,1,0.9,1.5,1.5c0-0.3,0.1-0.4,0.1-0.6c0.1-0.1,0.2-0.1,0.3-0.2c0.9,1.5,2.1,2.9,2.8,4.5
		c0.7,1.5,1,3.3,1.5,4.8c0-0.2,0-0.5,0-0.9c0.1,0,0.2,0,0.3-0.1c0.3,1.2,0.6,2.3,0.9,3.5C131.3,80.3,131.6,78.5,130.4,76.7z
		 M78.3,97.2c-0.1-0.1-0.2-0.2-0.3-0.4c1.9-1.4,3.7-2.8,5.6-4.1c0.1,0.1,0.2,0.3,0.3,0.4C82.1,94.4,80.2,95.8,78.3,97.2z M83.1,90.1
		c-0.1-0.1-0.2-0.1-0.3-0.2c0.7-0.9,1.4-1.9,2.1-2.8c0.1,0.1,0.2,0.1,0.3,0.2C84.5,88.2,83.8,89.1,83.1,90.1z M86,102.2
		c-0.1,0-0.2-0.1-0.4-0.1c0.4-1,0.7-1.9,1.1-2.9c0.1,0,0.2,0.1,0.3,0.1C86.7,100.3,86.3,101.3,86,102.2z M98.2,93.6
		c-0.2,0-0.3-0.1-0.5-0.1c0.3-1.5,0.5-3.1,0.8-4.6c0.1,0,0.3,0,0.4,0.1C98.7,90.5,98.4,92,98.2,93.6z M104.5,91.8
		c-0.1,0-0.2,0-0.3,0c0.1-0.9,0.1-1.8,0.2-2.7c0.1,0,0.2,0,0.3,0C104.6,90,104.5,90.9,104.5,91.8z M110.2,95.9
		c0.3-4.3,0.1-8.4-0.9-12.6c0.1,0,0.2,0,0.3-0.1c0.2,0.9,0.5,1.8,0.7,2.7c0.2,1.4,0.4,2.9,0.5,4.4c0.1,1.4,0.1,2.8,0.1,4.2
		C110.9,95.1,110.4,95.5,110.2,95.9z M109.3,104.8c0.8-2.6,1.6-5.3,2.3-7.9C111.8,99.8,111,102.4,109.3,104.8z M112,92.7
		c-0.1,0-0.2,0-0.3,0c0.1-0.8,0.1-1.6,0.2-2.3c0.1,0,0.3,0,0.4,0.1C112.2,91.2,112.1,91.9,112,92.7z M113.7,88
		c-0.2,0-0.4-0.1-0.5-0.1c0.2-0.5,0.5-1,0.7-1.4c-0.3-0.4-0.8-0.7-0.9-1.2c-0.3-1.4-0.5-2.9-0.8-4.4c-0.1-0.7-0.3-1.4-0.5-2.1
		c0.1,0,0.2-0.1,0.3-0.1c0.2,0.3,0.4,0.6,0.6,0.9c1.1,2,1.3,4.2,1.4,6.4C114.8,86.5,114.7,87.5,113.7,88z M124.1,79.8
		c0.3,0.7,0.6,1.4,1,2.3C123.8,81.6,124.1,80.6,124.1,79.8z M123.1,88.2c0.2,1,0.4,1.9,0.6,2.9c-0.1,0-0.2,0-0.3,0.1
		c-0.2-0.9-0.4-1.9-0.6-2.8C122.9,88.3,123,88.3,123.1,88.2z M118.7,97.9c-0.7-1-0.3-1.7,0.5-2.5C119.3,96.4,119.5,97.2,118.7,97.9z
		 M116.6,76.4c1.2,2,1.7,4.2,2,6.5c0.2,0.1,0.4,0.2,0.5,0.3c0.3,1.6,0.6,3.2,0.8,4.8c0.1,0.4-0.2,0.8-0.3,1.1
		c-1.1-1.3-0.8-2.8-1-4.1c-0.2-0.3-0.5-0.5-0.6-0.8c-0.4-1.7-0.8-3.5-1.3-5.3C116.6,77.9,116.4,77.2,116.6,76.4z M115.5,92.7
		c-0.2,0.7-0.4,1.5-0.6,2.2c-0.1,0-0.2-0.1-0.4-0.1c0.2-0.7,0.4-1.5,0.6-2.2C115.3,92.6,115.4,92.7,115.5,92.7z"/>
	<g>
		<g>
			<path class="st1" d="M39.8,222.9c0,0.5-0.1,1-0.3,1.3c-0.2,0.4-0.5,0.6-0.9,0.7l1,1h-0.7L38,225l-0.2,0c-0.6,0-1.1-0.2-1.4-0.6
				c-0.3-0.4-0.5-0.9-0.5-1.6c0-0.7,0.2-1.2,0.5-1.6c0.3-0.4,0.8-0.6,1.4-0.6c0.6,0,1.1,0.2,1.4,0.6
				C39.6,221.7,39.8,222.2,39.8,222.9z M36.4,222.9c0,0.6,0.1,1,0.4,1.3c0.2,0.3,0.6,0.4,1.1,0.4c0.5,0,0.8-0.1,1.1-0.4
				c0.2-0.3,0.4-0.7,0.4-1.3c0-0.6-0.1-1-0.4-1.3s-0.6-0.4-1.1-0.4c-0.5,0-0.8,0.1-1.1,0.4C36.6,221.9,36.4,222.3,36.4,222.9z"/>
			<path class="st1" d="M44.7,220.8v2.7c0,0.5-0.1,0.9-0.4,1.1c-0.3,0.3-0.7,0.4-1.2,0.4s-0.9-0.1-1.2-0.4c-0.3-0.3-0.4-0.7-0.4-1.1
				v-2.7h0.5v2.7c0,0.4,0.1,0.6,0.3,0.8c0.2,0.2,0.5,0.3,0.9,0.3c0.4,0,0.6-0.1,0.8-0.3c0.2-0.2,0.3-0.5,0.3-0.8v-2.7H44.7z"/>
			<path class="st1" d="M49.2,225l-0.5-1.3h-1.7l-0.5,1.3h-0.5l1.7-4.2H48l1.7,4.2H49.2z M48.5,223.2l-0.5-1.3
				c-0.1-0.2-0.1-0.4-0.2-0.6c0,0.2-0.1,0.4-0.2,0.6l-0.5,1.3H48.5z"/>
			<path class="st1" d="M51.5,223.2v1.7H51v-4.2h1.2c0.5,0,0.9,0.1,1.2,0.3c0.2,0.2,0.4,0.5,0.4,0.9c0,0.6-0.3,0.9-0.9,1.1l1.1,1.9
				h-0.6l-1-1.7H51.5z M51.5,222.8h0.7c0.3,0,0.6-0.1,0.8-0.2c0.2-0.1,0.2-0.3,0.2-0.6c0-0.3-0.1-0.5-0.2-0.6
				c-0.2-0.1-0.4-0.2-0.8-0.2h-0.6V222.8z"/>
			<path class="st1" d="M58.4,225h-0.6l-1.5-2l-0.4,0.4v1.6h-0.5v-4.2h0.5v2.1l1.9-2.1h0.6l-1.7,1.8L58.4,225z"/>
			<path class="st1" d="M62.9,220.8v2.7c0,0.5-0.1,0.9-0.4,1.1c-0.3,0.3-0.7,0.4-1.2,0.4s-0.9-0.1-1.2-0.4c-0.3-0.3-0.4-0.7-0.4-1.1
				v-2.7h0.5v2.7c0,0.4,0.1,0.6,0.3,0.8c0.2,0.2,0.5,0.3,0.9,0.3c0.4,0,0.6-0.1,0.8-0.3c0.2-0.2,0.3-0.5,0.3-0.8v-2.7H62.9z"/>
			<path class="st1" d="M67.1,223.9c0,0.4-0.1,0.7-0.4,0.9c-0.3,0.2-0.6,0.3-1.1,0.3c-0.5,0-0.9-0.1-1.2-0.2v-0.5
				c0.2,0.1,0.4,0.1,0.6,0.2c0.2,0,0.4,0.1,0.6,0.1c0.3,0,0.6-0.1,0.7-0.2c0.2-0.1,0.2-0.3,0.2-0.5c0-0.1,0-0.3-0.1-0.4
				c-0.1-0.1-0.2-0.2-0.3-0.3c-0.1-0.1-0.3-0.2-0.6-0.3c-0.4-0.1-0.7-0.3-0.8-0.5c-0.2-0.2-0.3-0.4-0.3-0.8c0-0.3,0.1-0.6,0.4-0.8
				c0.2-0.2,0.6-0.3,1-0.3c0.4,0,0.8,0.1,1.2,0.2l-0.2,0.4c-0.3-0.1-0.7-0.2-1-0.2c-0.3,0-0.5,0.1-0.6,0.2c-0.1,0.1-0.2,0.3-0.2,0.5
				c0,0.1,0,0.3,0.1,0.4c0.1,0.1,0.1,0.2,0.3,0.3c0.1,0.1,0.3,0.2,0.6,0.3c0.4,0.2,0.7,0.3,0.9,0.5C67,223.3,67.1,223.6,67.1,223.9z
				"/>
		</g>
		<polygon class="st3" points="53.1,209 51.5,209.9 53.1,210.8 		"/>
		<polygon class="st4" points="50,209 50,210.8 51.5,209.9 		"/>
		<polygon class="st1" points="53.1,210.8 51.5,209.9 50,210.8 51.5,211.7 		"/>
		<polygon class="st3" points="48.3,211.9 49.9,212.8 49.9,211 		"/>
		<polygon class="st4" points="49.9,214.6 51.4,213.7 49.9,212.8 		"/>
		<polygon class="st1" points="49.9,211 49.9,212.8 51.4,213.7 51.4,211.9 		"/>
		<polygon class="st3" points="53.2,214.6 53.2,212.8 51.6,213.7 		"/>
		<polygon class="st4" points="54.7,211.9 53.2,211 53.2,212.8 		"/>
		<polygon class="st1" points="51.6,213.7 53.2,212.8 53.2,211 51.6,211.9 		"/>
		<path class="st3" d="M54.9,207.3h-6.8c-0.9,0-1.7,0.8-1.7,1.7v6.8c0,0.9,0.8,1.7,1.7,1.7h4.6l-1.2-3l-0.9,1.9h-2.5
			c-0.3,0-0.6-0.3-0.6-0.6v-6.8c0-0.3,0.3-0.6,0.6-0.6h6.8c0.3,0,0.6,0.3,0.6,0.6v6.8c0,0.3-0.3,0.6-0.6,0.6h-1.5l0.5,1.1h1
			c0.9,0,1.7-0.8,1.7-1.7v-6.8C56.6,208,55.8,207.3,54.9,207.3z"/>
	</g>
	<path class="st1" d="M74.2,123.1c0.1,0,0.3,0,0.4,0C74.4,123.1,74.3,123.1,74.2,123.1z"/>
	<path class="st1" d="M143.6,125.2c0.1,4.8,0.3,9.7,1.7,14.2c6.9,7.5,14.5,20.5,13,40.5c2.1-0.4,4.3-0.4,6.4-0.6
		C166.8,147.7,151.2,131.3,143.6,125.2z"/>
	<path class="st1" d="M184.8,170.8c-0.2-3.8-2.2-3.2-5.7-2.2c-3.5,1-8.8,0.9-12.7-3.4c-3.9-4.3-9.8-0.1-9.8-0.1
		c-0.4,0.4-1,1.1-1.7,2.4c-0.8,1.5-0.8,2.8-0.2,3.3c0.5,0.4,0.7,1.5,0.5,2.7c6,0.2,11.9,1.6,17.7,3.1c0.7-0.5,1.9-0.5,3.5,0.3
		C179.7,178.7,185,174.6,184.8,170.8z"/>
	<g>
		<path class="st1" d="M161.9,190.5c-1.9,0-3.7-1.2-4.3-3c-0.2,0-0.5,0.1-0.7,0.1c-1.7,0-3.3-1-4.1-2.4h0l-0.1-0.2
			c-0.2-0.4-0.3-0.8-0.4-1.1c0-0.1,0-0.3-0.1-0.4c-0.2-1.2-0.3-3.5,1.3-5c0.3-0.3,0.6-0.5,1-0.8c0.5-0.3,1-0.4,1.5-0.4
			c0.8,0,1.4,0.4,1.9,1c0.1-1.1,0.6-2.5,2.4-2.9c0.4-0.1,0.8-0.1,1.2-0.1c1.4,0,2.5,0.6,3.1,1.9c0.2-1,0.7-2.1,2-2.2
			c0.3,0,0.5,0,0.8,0c2,0,3.4,1.2,4.7,3.8c0.1,0.3,0.3,0.5,0.4,0.8l0,0c0.6,1.3,0.9,2.2,1,2.5c0,0.1,0,0.3,0,0.3
			c0.3,2.4-1.3,4.7-3.7,5.1c-0.3,0.1-0.6,0.1-0.9,0.1c-0.8,0-1.7-0.2-2.4-0.7c-0.4,1.8-1.8,3.2-3.6,3.5
			C162.5,190.5,162.2,190.5,161.9,190.5z"/>
		<path class="st0" d="M167.3,175.1c1.6,0,3.1,0.7,4.5,3.7c0.1,0.3,0.3,0.5,0.4,0.8c0,0,0,0,0,0c0.4,1,0.9,2,1,2.5
			c0,0.1,0,0.3,0,0.3c0.3,2.3-1.2,4.4-3.5,4.8c-0.3,0.1-0.6,0.1-0.9,0.1c-1,0-1.9-0.3-2.6-0.9c-0.2,1.8-1.6,3.3-3.5,3.7
			c-0.3,0.1-0.6,0.1-0.9,0.1c-1.9,0-3.6-1.2-4.2-3.1l0,0c-0.3,0.1-0.6,0.1-0.9,0.1c-1.7,0-3.2-1-3.9-2.4l0,0l0-0.1
			c-0.1-0.3-0.3-0.6-0.3-1c0-0.1,0-0.3-0.1-0.4c-0.2-1.2-0.3-3.3,1.2-4.8c0.3-0.3,0.6-0.5,0.9-0.7c0.5-0.3,0.9-0.4,1.3-0.4
			c1.2,0,2,1.2,2.2,2.1c-0.1-0.8-0.4-3.5,2.1-4c0.4-0.1,0.8-0.1,1.1-0.1c2.1,0,2.9,1.4,3.3,3c0,0-0.3-3.1,1.8-3.3
			C166.8,175.1,167,175.1,167.3,175.1 M167.3,174.6c-0.3,0-0.5,0-0.8,0c-1.1,0.1-1.7,0.9-2,1.8c-0.7-1-1.7-1.5-3-1.5
			c-0.4,0-0.8,0-1.2,0.1c-1.5,0.3-2.3,1.3-2.5,2.5c-0.4-0.4-1-0.7-1.7-0.7c-0.5,0-1,0.2-1.6,0.5c-0.4,0.2-0.7,0.5-1.1,0.8
			c-1.6,1.6-1.6,4-1.4,5.2c0,0.1,0,0.3,0.1,0.4c0.1,0.4,0.2,0.7,0.4,1.1l0,0l0.1,0.3l0,0c0.9,1.5,2.5,2.4,4.2,2.4c0.2,0,0.4,0,0.5,0
			c0.7,1.8,2.5,3,4.5,3c0.3,0,0.6,0,1-0.1c1.8-0.4,3.2-1.7,3.7-3.4c0.7,0.4,1.5,0.6,2.3,0.6c0.3,0,0.6,0,1-0.1
			c2.5-0.5,4.2-2.9,3.9-5.4c0,0,0,0,0,0s0-0.2,0-0.3c-0.1-0.4-0.4-1.2-1-2.6c-0.1-0.3-0.3-0.6-0.4-0.9
			C170.9,175.8,169.4,174.6,167.3,174.6L167.3,174.6z"/>
	</g>
	<g>
		<path class="st1" d="M132.6,106.8L132.6,106.8L132.6,106.8c1.8-0.5,3.7-0.8,5.6-0.8c4.2,0,8.2,1.1,11.3,3.3
			c3.4,2.3,5.3,5.6,5.3,8.9c0,5.1-4.3,9.8-10.8,11.7c-1.8,0.5-3.7,0.8-5.7,0.8c-4.2,0-8.2-1.1-11.3-3.3c-3.4-2.3-5.3-5.6-5.3-8.9
			C121.8,113.3,126.1,108.6,132.6,106.8L132.6,106.8z"/>
		<path class="st2" d="M138.5,128.1c7.6-0.1,13.9-4.6,13.9-9.9c0-5.3-6.5-9.7-14.1-9.6c-7.6,0.1-13.9,4.6-13.9,9.9
			C124.4,123.7,130.9,128.1,138.5,128.1z"/>
	</g>
</g>
</svg>
