<?xml version="1.0" encoding="utf-8"?>
<!-- Generator: Adobe Illustrator 27.6.1, SVG Export Plug-In . SVG Version: 6.00 Build 0)  -->
<svg version="1.1" id="Layer_1" xmlns="http://www.w3.org/2000/svg" xmlns:xlink="http://www.w3.org/1999/xlink" x="0px" y="0px"
	 viewBox="0 0 256 256" style="enable-background:new 0 0 256 256;" xml:space="preserve">
<style type="text/css">
	.st0{fill:#FFFFFF;}
	.st1{fill:#010101;}
	.st2{fill:#ED1C24;}
	.st3{fill:#0081C3;}
	.st4{fill:#FB5058;}
	.st5{fill:#EA5B24;}
	.st6{fill:#89483E;}
	.st7{fill:#C03A26;}
	.st8{fill:#F89420;}
	.st9{fill:#F47D20;}
	.st10{fill:#F36D21;}
	.st11{fill:#F78D1E;}
	.st12{fill:#DF5126;}
	.st13{fill:#ED6A22;}
	.st14{fill:#DCBC83;}
	.st15{fill:#BACCD5;}
	.st16{fill:#5F3722;}
	.st17{fill:#0081C3;stroke:#FFFFFF;stroke-width:0.2754;stroke-miterlimit:10;}
	.st18{fill:#FBAB18;}
	.st19{fill:#2F1F11;}
	.st20{clip-path:url(#SVGID_00000181783012131427965280000017818919583734294946_);}
	.st21{clip-path:url(#SVGID_00000181783012131427965280000017818919583734294946_);fill:#010101;}
	.st22{clip-path:url(#SVGID_00000181783012131427965280000017818919583734294946_);fill:#FFFFFF;}
	.st23{clip-path:url(#SVGID_00000073707021215257910010000003451789505297191299_);fill:#FB5058;}
	.st24{clip-path:url(#SVGID_00000073707021215257910010000003451789505297191299_);fill:#FFFFFF;}
	.st25{clip-path:url(#SVGID_00000073707021215257910010000003451789505297191299_);fill:#010101;}
	.st26{fill:#8C786D;}
	.st27{fill:#8C786D;stroke:#FFFFFF;stroke-width:0.826;stroke-miterlimit:10;}
	.st28{fill:#0081C3;stroke:#091313;stroke-width:0.826;stroke-miterlimit:10;}
	.st29{fill:none;stroke:#091313;stroke-width:0.826;stroke-miterlimit:10;}
</style>
<g>
	<path class="st0" d="M158.9,99.5c-1.3,0.4-2.5,1.2-3.5,2.1c-0.6-2.3-1.3-4.6-2.1-6.8c1.9,0.3,3.9,0.6,5.8,1.1
		c-0.2,0.5-0.3,1.1-0.3,1.7C158.8,98.2,158.8,98.9,158.9,99.5z M189.6,131.9c-5,0.8-11,1.5-17.2,2c0.8-2.7,1.6-5.7,2.5-8.9
		c0.8,0.1,1.6,0.2,2.4,0.3c1,0.1,1.9,0.2,2.7,0.4l0.4,0.1C182.4,127,185.9,129.2,189.6,131.9z"/>
	<g>
		<circle class="st1" cx="64.9" cy="134.4" r="7.8"/>
		<g>
			<path class="st3" d="M113.1,44.8C113.1,44.8,113.1,44.8,113.1,44.8c0.7-2.6,0.3-5-1-7.2c-1.9-3.5-5.6-5.5-8.9-4.8
				c-3.2,0.7-5.9,2.3-8,4.8c-4,4.5-6.2,9.9-6.9,15.8c-0.4,3.2-0.4,6.5-0.6,9.8c-0.4,0.1-0.9,0.2-1.6,0.4c0,0,0,0,0,0
				c-0.8-6.6-0.5-13,1.6-19.2c2.5-7.1,7.5-11.5,14.9-13.2c0.4-0.1,0.7-0.2,1.1-0.3c0-0.1,0-0.1,0-0.2c-1.2,0.1-2.3,0.3-3.5,0.4
				c-1.5,0.6-2.9,1.1-4.4,1.6c-1.6,1.1-3.3,2.1-4.8,3.3c-5.5,4.4-7.6,10.4-7.6,17.1c0,3.6,0.6,7.2,0.9,10.9c0,0.5,0,1.1-0.3,1.4
				c-2.8,3.8-4.4,8-4.9,12.7c-0.6,5.1-0.9,10.3,1.2,15.2c0.1,0.2,0,0.8-0.2,0.9c-3.5,2.7-4.1,7.2-1.3,11.7c2.5,4,6.1,7,9.6,9.9
				c1.5,1.3,3.1,2.5,4.8,3.9c0,0,0,0,0,0c0.3-1,40.1,6.7,41.7,7.9c0.6,0.5,1.3,1,1.9,1.4c0.7,0,1.3-0.2,1.5-0.9
				c-0.2-0.3-0.3-0.7-0.4-1.1c-1.2-9.9-2.4-19.9-5-29.6c-3-11.3-8.9-20.7-18-28.1c-3.6-2.9-7.1-5.9-10.6-8.9
				c-4.8-4-7.3-9.2-7.9-15.4c0-0.5-0.1-0.9-0.3-1.4c0,0,0,0,0,0c-0.8,2.8-1.2,5.6-1.1,8.5c0.2,5.1,2.1,9.7,5,13.8
				c3.4,4.8,7.3,9.4,10.9,14.1c2.7,3.7,5.1,7.6,7.6,11.4c0.1,0.2,0.2,0.5,0.3,0.6c-5.8-6.7-11.7-13.5-17.3-20.1c0,0,0,0,0,0
				c3.8,8.7,9.1,16.9,14.4,25.3c-0.6-0.6-1.1-1.2-1.7-1.8c-0.6-0.6-1.1-1.2-1.6-1.8c-7.3-8-11.8-17.6-15.2-27.7
				c-1.6-4.9-3-9.7-3.2-14.9c-0.2-5.1,0.9-9.8,4.1-13.9c2.6-3.2,6.1-3.9,9.6-1.8c2.9,1.8,4.9,4.3,5,7.9c0,0.6,0,1.1-0.5,1.5
				C112.6,45,112.9,44.9,113.1,44.8C113.1,44.8,113.1,44.8,113.1,44.8z M92.9,111c-0.2-0.1-0.3-0.3-0.5-0.4c-2-2.7-4.6-4.8-7.5-6.5
				c-1.6-1-3-2.4-4.2-3.9c-1.2-1.5-0.9-3.4,0.3-4.6c0.1,0,0.2,0.1,0.2,0.2c0.1,0.3,0.3,0.5,0.4,0.8c1.4,2.9,3.3,5.3,5.5,7.5
				c2.1,2.1,4,4.4,6,6.6c0,0,0,0,0,0L92.9,111C92.9,111,92.9,111,92.9,111z M88.1,64.1C88.1,64.1,88.1,64.1,88.1,64.1
				c0.1,0.3,0.1,0.4,0.1,0.6c0.9,3.3,1.5,6.6,2.6,9.8c3,8.1,8.2,14.8,14.3,20.8c3.7,3.6,7.5,7.2,11.2,10.7c0.5,0.5,0.9,1.1,1.2,1.4
				c-6.7-4.7-13.6-9.5-20.3-14.4c-2.2-1.6-3.9-3.8-5.4-6.2c-2.4-4-4.3-8.3-5.7-12.7c-0.1-0.4-0.3-0.8-0.4-1.2
				c-0.1,0-0.2,0.1-0.3,0.1c1,10.7,3.6,20.9,9,30.3c0,0,0,0,0,0c-1.4-2.2-2.8-4.4-4.2-6.6C90.1,96.9,90,97,89.9,97
				c2.5,3.9,5,7.7,7.5,11.6c0,0,0,0,0,0l-0.4,0.3c0,0,0,0,0,0c-1.9-2.8-4-5.6-5.8-8.5c-1.8-2.9-3.4-5.9-5.1-8.9
				c-0.1,0.1-0.2,0.1-0.3,0.2c2.7,4.7,5.3,9.4,7.8,13.8c0,0,0,0,0,0c-3.8-3.8-10.2-15.9-10.4-19.9c0.3,0.7,0.6,1.4,0.7,1.7
				c-0.5-1.7-1.3-3.6-1.6-5.6c-0.3-2-0.2-4-0.2-6.1l0.4,0c0,0,0,0,0,0c0.4,2,0.7,4.1,1.1,6.1c0,0,0,0,0,0c-0.2-3.7-1.1-7.3,0-11.2
				c0,0,0,0,0,0c0.7,4.4,1.4,8.6,2.1,12.7c0.1,0,0.2,0,0.4-0.1c-0.9-4.9-2-9.8-1.2-14.8c0,0,0,0,0,0c3.8,11,9,21,19,27.6
				c0,0,0,0,0,0c-1.3-1.5-2.8-2.8-4-4.4C94,84.3,89.9,76.1,87,67.3C86.5,65.8,86.8,64.9,88.1,64.1z"/>
			<path class="st3" d="M103.2,50.5c0.1-1.7,0.7-3.4,1.4-5c1-2,2.9-3,5.2-2.8c0.3,0,0.7,0,1,0.1c0,0,0.1,0,0.1-0.1
				c-1.1-2.9-3.5-4.6-6.3-4.1c-3.7,0.8-5.5,2.1-5.7,5.9c-0.1,3.9,1.3,7.5,3.3,10.8c0.5,0.8,1,1.5,1.3,2c0,0,0,0,0,0
				C103.5,55.2,103.1,52.8,103.2,50.5z"/>
		</g>
		<path class="st1" d="M180.2,119.5c0.4,0,0.9,0.1,1.4,0.3c0.1,0.1,13.2,7.3,20.3,15.3c-7,2.1-22.4,4.1-35.8,4.9
			c-2.4-1.8-6.4-1.1-9,0.5c3.1,3.7,0.4,7.9,3.8,11.4c0.3-0.4-3.5,0.1,2.2-1.5c19.7-1.3,35.9-4.6,42.1-6.7c7.3-2.5,8.1-5,8.5-6.3
			c0.4-1.3,0.9-4.6-2.9-7.5c-9.9-7.6-26-12.1-28.3-12.8c0.3-0.3,0.5-0.7,0.7-1C181.8,116.4,181.1,118.1,180.2,119.5z"/>
		<g>
			<path class="st1" d="M137.2,152.1c-10.3,1.7-25.6,2.2-39.7-4.8c-22.7-11.3-26.9-19.1-27.6-21c1-1.8,2.1-3.7,3.3-5.7
				c6.5-11,16.6-27,28.1-40.6c7.1-6.7,13.9-10.3,19.6-10.3c1.3,0,2.6,0.2,3.8,0.6l0.2,0.1l0.2,0c3.8,0.7,7.5,3.4,10.8,8.1
				c3.1,4.4,6,10.5,8.6,18.2c4.9,14.6,7.7,32,9.4,42.3c0.4,2.8,1,5.4,1.6,8C153.1,148,146.2,150.6,137.2,152.1z"/>
			<path class="st1" d="M120.9,66.1c1.7,0,3.3,0.2,4.9,0.7c20.6,3.6,28.2,49.1,31.8,71.6c3.4,21.1,12.9,39.7,18.1,46.6
				c35.3,44.4,34.8,64.8,9.7,64.8c-11.3,0-27.6-4.1-47.8-12c-17.1-5.8-34.8-11.7-45-11.8c-13,0.4-37.2,23.3-50.8,23.3
				c-0.4,0-0.7,0-1.1-0.1c-14.7-3-12.7-17.2-6.3-44.5c6.2-23.9,14.6-45,23.2-62.8c-0.1-0.1,18-37,41.1-64.3
				C106.6,70,114.2,66.1,120.9,66.1L120.9,66.1z"/>
			<path class="st0" d="M37.9,205.5c5.5-21.1,13.2-42,22.9-62.1l1.4-2.9l0,0c1.2-2.3,3.1-6,5.6-10.5c2.7,4.2,9.7,11.3,28.1,20.5
				c6.2,3.1,15.6,6.3,28.3,6.3c4.2,0,8.8-0.3,13.7-1.2c8.8-1.5,15.6-3.9,18.6-5.1c1.9,7.2,4.3,13.4,6.2,17.9
				c3.2,7.5,7,14.5,10.2,18.7l0,0l0,0c11.1,14,18.9,25.9,23.1,35.4c3.7,8.2,4.6,14.5,2.8,18.3c-1.7,3.5-6.2,5.3-13.4,5.3
				c-10.7,0-26.8-4.1-46.5-11.8l-0.1,0l-0.1,0c-17.3-5.8-35.3-11.9-46.1-12l-0.1,0l-0.1,0c-7.3,0.2-16.6,5.9-26.3,11.9
				c-8.6,5.3-18.4,11.4-24.3,11.4c-0.2,0-0.4,0-0.6,0c-4-0.9-5.5-2.6-6.3-3.8C31.2,236,33.9,222.5,37.9,205.5z"/>
			<g>
				<path class="st1" d="M98.7,133.2L98.7,133.2L98.7,133.2c2.6,0,5.2,0.4,7.8,1.1c5.6,1.5,10.6,4.6,13.9,8.6c3.6,4.3,5,9.4,3.7,14
					c-1.9,6.9-9.5,11.5-18.9,11.5c-2.6,0-5.3-0.4-7.9-1.1c-5.6-1.5-10.5-4.6-13.9-8.6c-3.6-4.3-5-9.4-3.8-14
					C81.7,137.9,89.3,133.2,98.7,133.2L98.7,133.2z"/>
				<path class="st2" d="M98.5,163.9c10.2,2.8,20.3-0.9,22.3-7.9c1.9-7.1-5-15.4-15.1-18.2c-10.1-2.8-20.3,0.9-22.3,7.9
					C81.4,152.8,88.3,161.1,98.5,163.9z"/>
			</g>
		</g>
		<g>
			<path class="st3" d="M152.8,86.5C152.8,86.5,152.8,86.5,152.8,86.5c-1.3,0.1-2.6,0.1-3.9,0.2c-3.2,0.4-6.2,1.3-9,2.8
				c-1.1,0.6-2.1,1.3-2.9,2.3c-0.7,0.9-1.5,1.9-2.2,2.9c0,0,0,0,0,0c0.8-0.5,1.5-1.1,2.3-1.6c4.8-3.3,10.1-4.7,16-4.1
				c3,0.3,6,0.9,8.9,1.7c0.7,0.2,1.4,0.3,2.1,0.4c0-0.1,0-0.1,0.1-0.2c-0.6-0.5-1.2-1-1.9-1.4c-1.9-1.3-4-2.2-6.3-2.7
				c-0.1,0-0.3-0.1-0.4-0.2L152.8,86.5z"/>
			<g>
				<path class="st3" d="M127.8,89.1c-0.4,0.6-0.8,1.3-1.3,2.1c0,0,0,0,0,0c1.5-1.4,2.8-2.8,4.3-3.9c5.2-4.1,10.6-7.7,17-9.7
					c5-1.6,10.1-1.4,15.2-0.2c3,0.7,6.1,1.4,9.2,2c1.6,0.3,3.2,0.3,4.8-0.2c2.6-0.8,3.8-3,3.1-5.6c0-0.1,0-0.2,0-0.3c0,0,0,0,0,0
					l-0.7-1.3c0,0,0,0,0,0c-0.9-0.8-1.8-1.6-2.7-2.3c0,0,0,0,0,0l-0.2,0.2c0,0,0,0,0,0c0.2,0.2,0.4,0.3,0.6,0.5
					c0.7,0.9,1.6,1.6,2.1,2.6c1,1.7,0,3.9-1.9,4.5c-1.4,0.5-2.9,0.4-4.3,0.1c-3.2-0.6-6.4-1.4-9.5-2.1c-1.7-0.4-3.3-0.7-5-0.9
					c-4.5-0.7-8.9,0.2-13.2,1.5c-3.1,1-6.1,2.3-8.7,4.1C133,82.5,130.2,85.5,127.8,89.1z"/>
				<path class="st3" d="M135.8,63.6C135.8,63.6,135.8,63.6,135.8,63.6c-1.2,0.9-2.4,1.8-3.5,2.8c-2.7,2.4-4.8,5.3-6.5,8.6
					c-0.6,1.3-1.1,2.6-1.1,4c-0.1,1.4-0.2,2.7-0.1,4.1c0,0,0,0,0,0c0.3-1,0.7-2,1-3c2.3-6.2,6.3-11.1,12.1-14.4
					c3-1.7,6.2-3.1,9.4-4.3c0.8-0.3,1.5-0.7,2.2-1c0-0.1,0-0.1,0-0.2c-0.9,0-1.8-0.1-2.6-0.1c-2.6,0.1-5.2,0.6-7.6,1.7
					c-0.2,0.1-0.3,0.1-0.5,0.1L135.8,63.6z"/>
				<path class="st3" d="M124.7,85.2c-0.2,0.9-0.3,1.9-0.4,2.9c0.1,0.1,0.1,0,0.2,0.1c0.2-0.2,0.3-0.3,0.5-0.5
					c2.8-3.9,6.6-6.9,10.6-9.4c4.1-2.6,8.3-4.8,12.7-6.7c5.4-2.4,11-3,16.7-1.4c1.5,0.4,2.4,1.5,3,2.9c0,0,0,0,0,0
					c-1.1-0.5-2.2-1-3.3-1.4c-4.4-1.6-8.8-1.4-13.2-0.3c-8.3,2.3-15.6,6.3-21.6,12.5c-0.3,0.3-0.5,0.5-0.7,0.9
					c1.2-0.9,2.3-1.9,3.5-2.8c3.7-2.8,7.7-4.9,12.1-6.4c2.1-0.7,4.3-1.4,6.5-1.9c3.9-0.9,7.7-0.5,11.4,0.8c2.4,0.9,5,1.2,7.6,1.3
					c0.5,0,1,0,1.6-0.2c0,0,0,0,0,0c-0.8-0.6-1.7-1.1-2.5-1.7c0,0,0,0,0,0c0.5-1.5,0-2.8-0.9-3.9c-2.6-3.2-6-5.3-9.9-6.5
					c-5.7-1.9-11.2-1.3-16.6,1.1c-3.7,1.6-7.2,3.7-9.9,6.8C128.6,75.2,126.1,79.9,124.7,85.2z M137.6,73.7c3.4-2,6.8-4,10.4-5.7
					c3-1.5,6.3-2.4,9.7-2.4c2.1,0,4.1,0.2,6,1.2c-0.1,0-0.2,0-0.3,0c-2.5-0.7-5.1-0.5-7.6,0.1c-7.5,1.9-14.4,5.1-20.6,9.8
					c-1,0.8-2.1,1.6-3.1,2.4c0,0,0,0,0,0C133.7,76.9,135.4,75,137.6,73.7z"/>
				<path class="st3" d="M127.2,93.2c-0.2,0.4-0.3,0.9,0.1,1.1c0.3,0.1,0.7,0.2,1,0c1.6-0.8,3.2-1.5,4.8-2.4
					c1.6-0.9,3.1-1.8,4.6-2.8c3.6-2.3,7.6-3.5,11.7-4.7c3.3-1,6.6-1.7,10.1-2c4.9-0.5,9.5,0.3,14,2.1c2,0.8,3.9,1.7,6.1,2.6
					c0,0,0,0,0,0c-2.4-2.3-4.9-4.1-7.6-5.7c-6.8-3.8-14.1-4.2-21.6-2.8c-3,0.6-5.9,1.6-8.6,3c-4.5,2.3-8.8,5-12.4,8.5
					C128.5,91.1,127.9,92.2,127.2,93.2z"/>
			</g>
		</g>
		<g>
			<path class="st3" d="M119.1,84c1.2,0.3,2.1,0.9,2.9,0.8c2.1-0.3,4.3-0.8,6.3-1.4c0.6-0.2,1.1-0.3,1.7-0.1
				c0.2-0.1,0.4-0.2,0.6-0.3c0.1-0.2,0.1-0.3,0.2-0.3c0.2,0,0.5,0,0.7,0c0.6-0.2,1.2-0.3,1.9-0.2c7-0.9,12.9-4.2,18.4-8.5
				c7.1-5.6,14.4-11.1,22.8-14.7c8-3.4,16.4-5.7,25.2-5.3c7.6,0.3,14,3.4,20,7.8c2.2,1.6,4.4,3.3,6.6,5c0-0.1,0-0.2,0-0.3
				c-5.8-5.6-11.9-10.8-19.3-14.2c-8.1-3.7-16.4-3.9-24.8-1.5c-9.2,2.7-17.3,7.6-24.9,13.4c-6.1,4.6-12.2,9.1-18.4,13.6
				c-1,0.7-2.2,1.3-3.5,1.7c0,0,0,0,0,0c2.1-1.6,4.3-3.1,6.3-4.8c5-4,9.7-8.5,15-12.1c7.2-5,14.8-9.5,22.4-14
				c5.4-3.2,11-6.2,16.5-9.3c0.4-0.2,0.7-0.5,1-1c0,0,0,0,0,0c-2.4,0.2-4.9,0.3-7.3,0.5c-9.5,1-18.7,3.1-27.1,7.8
				c-6.7,3.7-12.8,8.3-18.7,13.1c-8.6,7.2-16.4,15.2-23.9,23.4C119.8,83.2,119.6,83.5,119.1,84C119.1,84,119.1,84,119.1,84z
				 M175.5,46.8c-0.2,0.1-0.4,0.3-0.6,0.4c-4.8,3.3-9.8,6.4-14.4,9.9c-8.4,6.5-16.6,13.2-24.9,19.8c-2.7,2.2-5.6,4.2-9,5.1
				c0,0,0,0,0,0c2.5-1.8,5.1-3.4,7.5-5.3c10.3-8.2,19.9-17.1,31-24.3c3.3-2.1,6.7-4.1,10.1-6.1c0,0,0.1,0,0.1,0l0.1,0.2
				C175.6,46.8,175.6,46.8,175.5,46.8z M176.6,45.5c-3.1,1.7-6.3,3.2-9.3,5.1c-10.5,6.5-19.8,14.7-29.3,22.5c-4,3.3-8,6.5-12.6,9
				c-0.5,0.2-0.9,0.5-1.4,0.7c-0.1-0.1-0.1-0.2-0.2-0.2c0.1-0.1,0.2-0.3,0.4-0.4c5.8-3.4,10.8-7.8,15.4-12.6
				c8.9-9.3,19.7-15.8,30.8-21.8c2.3-1.3,4.9-2.1,7.3-3.2C177.4,45.1,177,45.3,176.6,45.5z M145.5,61.7c7.6-6.9,16.3-12.1,25.8-15.8
				c2.3-0.9,4.7-1.7,7-2.5c-0.3,0.5-0.7,0.7-1.1,0.9c-6,2.3-11.7,5.1-16.9,8.8c-4.2,2.9-8.8,5.4-12.7,8.6c-5.3,4.3-10,9.3-15.1,13.8
				c-2.6,2.3-5.5,4.3-8.2,6.4c0,0,0,0,0,0l-0.4-0.6c0,0,0,0,0,0C131.1,74.7,138.3,68.2,145.5,61.7z"/>
			<path class="st3" d="M114.1,74c-0.4,1.5-0.7,2.9-1.1,4.7c0,0,0,0,0,0c2-3.6,3.5-7,5.6-10.1c7.1-10.9,15-21.2,25.6-28.9
				c8.4-6.2,18-8.9,28.3-9.9c6.1-0.6,12.3-1.3,18.4-2.1c3.2-0.4,6.2-1.6,8.8-3.5c4.3-3.1,5.2-8,2.3-12.5c-0.1-0.2-0.2-0.4-0.2-0.5
				c0,0,0,0,0,0l-2.2-2c0,0,0,0,0,0c-2.2-0.9-4.4-1.8-6.6-2.7c0,0,0,0,0,0L192.6,7c0,0,0,0,0,0c0.5,0.2,1,0.3,1.5,0.6
				c1.9,1.1,4,2.1,5.6,3.5c2.9,2.6,2.5,7.3-0.6,9.7c-2.4,1.8-5.2,2.6-8,3c-6.4,0.8-12.8,1.4-19.1,2.2c-3.3,0.4-6.6,0.8-9.9,1.4
				c-8.9,1.5-16.5,5.9-23.7,11.2c-5.2,3.8-9.9,8-13.7,13.2C119.6,58.4,116.2,65.9,114.1,74z"/>
			<path class="st3" d="M112.8,21.2C112.8,21.2,112.8,21.2,112.8,21.2c-1.6,2.5-3.3,4.9-4.7,7.4c-3.5,6.3-5.7,13-6.7,20.1
				c-0.4,2.8-0.3,5.5,0.4,8.3c0.7,2.6,1.4,5.2,2.3,7.8c0,0,0,0,0,0c0-2.1,0-4.2,0-6.3c0.4-13.1,4.8-24.7,13.6-34.5
				c4.6-5.1,9.5-9.7,14.9-13.9c1.3-1,2.4-2.2,3.6-3.3c-0.1-0.2-0.1-0.2-0.2-0.4c-1.7,0.5-3.4,1-5,1.5c-4.9,1.8-9.3,4.4-13.2,8
				c-0.2,0.2-0.6,0.4-0.9,0.6L112.8,21.2z"/>
			<path class="st3" d="M105.8,68.6c0.1,1.9,0.7,3.8,1.1,5.7c0.2,0,0.2,0,0.5,0c0.2-0.4,0.4-0.9,0.5-1.3c2.8-9.2,7.9-17,13.9-24.4
				c6-7.4,12.5-14.2,19.5-20.6c8.6-8,18.6-12.7,30.4-13.3c3.1-0.2,5.5,1.4,7.5,3.6c0,0,0,0,0,0c-2.3-0.2-4.6-0.5-7-0.5
				c-9.2-0.3-17.3,2.8-24.8,7.9c-14.1,9.5-25.2,21.6-32.4,37.1c-0.3,0.7-0.6,1.3-0.7,2c1.6-2.5,3.1-5,4.7-7.4
				c5.1-7.5,11.4-14,18.5-19.6c3.5-2.7,7.1-5.2,10.9-7.6c6.7-4.1,14-5.9,21.8-5.8c5.1,0.1,10.1-0.9,15-2.4c1-0.3,1.9-0.7,2.9-1.5
				c0,0,0,0,0,0c-1.9-0.5-3.8-1.1-5.8-1.6c0,0,0,0,0,0c0-3.1-1.8-5.2-4.3-6.8c-6.9-4.4-14.6-6-22.6-6c-11.8,0.1-21.8,4.6-30.4,12.5
				c-5.9,5.4-11.2,11.4-14.3,18.9C106.8,47.6,105,57.9,105.8,68.6z M122.6,38.9c5.1-6,10.3-11.8,15.8-17.3
				c4.7-4.7,10.2-8.4,16.6-10.6c3.9-1.3,7.8-2.2,11.9-1.5c-0.2,0-0.4,0.1-0.5,0.1c-5.2,0.4-9.8,2.2-14.1,5
				C139.5,22.9,128.6,33.3,120,46c-1.5,2.1-2.9,4.3-4.4,6.4c0,0,0,0,0,0C117.3,47.5,119.3,42.8,122.6,38.9z"/>
			<path class="st3" d="M115.5,82.1c-0.2,0.8-0.1,1.9,1,2.1c0.6,0.1,1.5-0.1,1.9-0.5c2.5-2.5,5.1-4.9,7.4-7.5
				c2.4-2.6,4.6-5.4,6.8-8.1c5.3-6.6,12.1-11.3,18.9-16.2c5.5-4,11.4-7.3,17.5-10.2c8.8-4.1,17.9-5.5,27.5-4.9c4.2,0.3,8.4,0.7,13,1
				c0,0,0,0,0,0c-5.9-2.8-11.8-4.7-17.9-5.8c-15.1-2.9-29,1-42.1,8.4c-5.2,2.9-10,6.7-14.1,11c-6.9,7.2-13.3,14.9-17.8,23.8
				C116.5,77.3,116.1,79.8,115.5,82.1z"/>
		</g>
		<g>
			<g>
				<path class="st0" d="M186.7,37.4c0.2-0.3,0.2-0.5,0.2-0.5c0,0-0.1,0-0.1,0c-0.1,0-0.1,0-0.2,0c-0.3,0.2-0.5,0.3-0.8,0.3
					c-0.6,0-1-0.4-1.3-0.7l-0.1-0.1c-0.5-0.6-0.4-1.6,0-2.4c0.3-0.7,1-1.5,1.9-1.5c0.2,0,0.4,0,0.6,0.1c1.3,0.5,1.5,1,1.4,1.6
					c0,0.2,0,0.3,0,0.4c0,0,0,0,0,0c0.1,0,0.3,0,0.5-0.3l0.7,0.5l-2,3.1L186.7,37.4z"/>
				<path class="st0" d="M186.2,32.8c0.1,0,0.3,0,0.4,0.1c2,0.8,0.6,1.2,1.4,2.1c0.1,0,0.2,0,0.2,0c0.4,0,0.6-0.2,0.9-0.5l-2,3.1
					c0.3-0.6,0.5-1.2-0.3-1.2c-0.1,0-0.2,0-0.4,0c-0.2,0.2-0.5,0.3-0.6,0.3c-0.5,0-0.8-0.4-1.1-0.7C184,35.2,185,32.8,186.2,32.8
					 M186.2,32c-1.1,0-1.9,0.9-2.3,1.8c-0.4,0.9-0.6,2,0.1,2.8l0,0l0,0l0.1,0.1c0.3,0.3,0.8,0.9,1.6,0.9c0.3,0,0.6-0.1,0.8-0.2
					l1.2,0.7l2-3.1l-1.2-0.9c0.1-0.9-0.4-1.4-1.7-2C186.7,32,186.5,32,186.2,32L186.2,32z"/>
			</g>
			<g>
				<path class="st0" d="M189.1,33.7l0.1-0.2c0.1-0.3,0.3-0.5,0.4-0.7c-0.2-0.1-0.3-0.1-0.3-0.1c-0.3,0.2-0.5,0.4-0.8,0.4
					c-0.4,0-0.7-0.2-1-0.4c-0.1-0.1-0.2-0.2-0.3-0.2c-1.2-0.8-0.4-2.1,0.1-3c0.1-0.2,0.2-0.3,0.3-0.5c0.4-0.5,0.8-0.8,1.3-0.8
					c0.2,0,0.5,0.1,0.7,0.2l0.2,0.1c0.5,0.2,1.3,0.7,1,1.8c0,0,0,0,0,0c0,0,0,0.1,0.1,0.1c0,0,0.1,0,0.1,0c0.4,0,0.7-0.6,1-1.2
					c0.2-0.3,0.3-0.6,0.5-0.8c0,0,0,0,0,0c-0.1,0-0.1,0-0.2,0c-0.3,0.3-0.6,0.4-0.9,0.4c-0.6,0-1-0.5-1.3-0.8l-0.1-0.1
					c-0.8-1.1,0-2.6,0.9-3.5c0.3-0.3,0.6-0.4,1-0.4c0.3,0,0.7,0.1,1.1,0.4c0.8,0.4,0.8,1,0.7,1.4c0,0.2-0.1,0.3,0,0.4
					c0.1,0,0.2,0,0.2,0c0.2,0,0.4-0.1,0.6-0.3l0.7,0.5l-5.1,7.8L189.1,33.7z"/>
				<path class="st0" d="M191.7,24.3c0.3,0,0.6,0.1,0.9,0.3c1.1,0.6,0,1.1,0.6,1.8c0.2,0,0.3,0.1,0.5,0.1c0.4,0,0.6-0.1,0.9-0.4
					l-5.1,7.8c0.2-0.4,0.4-0.7,0.6-1c0.1-0.1,0-0.5-0.1-0.5c-0.2-0.1-0.4-0.1-0.6-0.1c-0.1,0-0.2,0-0.2,0.1
					c-0.2,0.2-0.4,0.3-0.6,0.3c-0.4,0-0.7-0.4-1.1-0.6c-1-0.7,0.2-2.1,0.6-2.9c0.2-0.3,0.5-0.6,0.9-0.6c0.1,0,0.3,0,0.5,0.1
					c0.5,0.3,1.2,0.5,1,1.4c0,0.2,0.1,0.6,0.3,0.6c0.1,0,0.2,0,0.3,0c1,0,1.3-1.5,1.9-2.2c0.1-0.1,0-0.5-0.1-0.5
					c-0.1-0.1-0.3-0.1-0.5-0.1c-0.1,0-0.2,0-0.2,0.1c-0.3,0.2-0.5,0.3-0.7,0.3c-0.5,0-0.8-0.5-1.1-0.8c-0.6-0.9,0.2-2.3,0.9-2.9
					C191.3,24.4,191.5,24.3,191.7,24.3 M191.7,23.5L191.7,23.5c-0.5,0-0.9,0.2-1.3,0.6c-1,1-1.8,2.5-1.2,3.7c-0.1,0-0.3-0.1-0.4-0.1
					c-0.6,0-1.2,0.3-1.6,0.9l0,0.1l0,0.1c-0.1,0.1-0.2,0.3-0.3,0.4c-0.5,0.8-1.5,2.5,0,3.5l0,0l0,0c0.1,0,0.2,0.1,0.2,0.2
					c0.3,0.2,0.7,0.5,1.2,0.5c0.1,0,0.2,0,0.3,0l0,0.1l1.4,0.9l5.1-7.8l-1.3-1c0,0,0,0,0,0c0.1-0.4,0-1.1-0.9-1.6
					C192.5,23.6,192.1,23.5,191.7,23.5L191.7,23.5z M191.3,29.2c0.1,0,0.1,0,0.2,0c-0.1,0.1-0.2,0.3-0.2,0.4c0-0.2-0.1-0.3-0.1-0.4
					C191.2,29.2,191.2,29.2,191.3,29.2L191.3,29.2z"/>
			</g>
			<g>
				<path class="st0" d="M156.1,220.3c-2.5,0-5.3-0.4-8.2-1.1c-1.5-0.3-2.9-0.7-4.4-1c-9.8-2.2-19.9-4.5-27-12
					c-4.8-4.8-6.8-11.1-5.3-16.9c1.5-7,5.9-12.6,10.3-18c3.5-4.3,7-8.7,9-13.8c0.7-2.5,0.6-5.1,0.5-7.7c0-0.7-0.1-1.4-0.1-2.2
					c-1.1-8.8,0.3-15,0.7-16.1l0,0c1.6-5.3,4.2-11.4,9.9-11.8c1,0.1,1.6,0.5,2,1.1c1,1.4,0.5,3.7,0,5.8c-0.2,0.8-0.3,1.5-0.4,2
					l0,0.1l0,0c-0.5,1.4,0.3,4.9,2,7.3c0.7,1,2,2.3,3.6,2.3c0.5,0.1,0.9,0.1,1.3,0.1c1.8,0,3.1-0.6,3.7-1.9l0-0.1l1.3-4.2
					c5.8-18.4,23.7-74.4,23.7-74.4l0.1-0.2c0.4-1.3,0.2-2.2-0.5-3.1c-1.2-1.4-1.2-2.9,0-4.5c0.1-0.1,0.1-0.2,0.2-0.3
					c0.1-0.2,0.1-0.2,0-0.3c0,0-0.1,0-0.1,0c-0.2,0-0.3,0.1-0.5,0.2l0,0l0,0c-0.1,0.1-0.3,0.1-0.5,0.1c-0.6,0-1.3-0.2-1.7-0.8
					c-0.2-0.3-0.3-0.7-0.2-1c0.1-0.2,0.1-0.3,0.2-0.5c0.4-0.9,0.9-2.2,2-2.2c0.3,0,0.6,0.1,0.9,0.3c0.9,0.4,1,0.9,1,1.4
					c0,0.3,0,0.4,0.2,0.5c0.1,0,0.2-0.1,0.2-0.1l0.1-0.1c0.1-0.2,0.2-0.3,0.4-0.5c0.3-0.4,0.6-0.8,0.8-1.2c0-0.1,0-0.2,0-0.2
					c-0.1,0-0.1,0-0.2,0c-0.1,0-0.2,0-0.3,0.1c-0.2,0.1-0.4,0.2-0.6,0.2c-0.3,0-0.7-0.2-1.1-0.5c-0.6-0.2-0.8-0.9-0.7-1.6
					c0.2-1,1.2-2.6,2.3-2.6c0.2,0,0.5,0.1,0.7,0.2l0.1,0.1c0.5,0.3,1.4,0.7,1,1.9c0,0,0,0,0,0c0,0,0.1,0,0.2,0c0.1,0,0.1,0,0.1,0
					c0.1-0.2,0.2-0.3,0.4-0.5c0.3-0.4,0.6-0.8,0.7-1.1c0-0.1,0.1-0.2,0-0.3c-0.1,0-0.1,0-0.2,0c-0.1,0-0.2,0-0.4,0.1
					c-0.2,0.1-0.4,0.2-0.7,0.2c-0.4,0-0.8-0.2-1.3-0.7c-0.3-0.2-0.5-0.6-0.5-1c-0.1-0.9,0.5-1.8,0.9-2.2c0.4-0.5,1.1-0.7,1.7-0.7
					c0.6,0,1,0.2,1.3,0.6c0.2,0.2,0.4,0.7,0.2,1.4c0.1,0.1,0.2,0.1,0.3,0.1c0.1,0,0.1,0,0.1,0l0.1-0.2l0.3-0.4
					c0.2-0.3,0.4-0.5,0.5-0.8l2-3.1c0.2-0.2,0.3-0.4,0.4-0.6l5.1-7.8c0.1-0.2,0.2-0.3,0.3-0.5c1.2-1.6,2.6-2.3,4.3-2.3
					c0.7,0,1.3,0.1,2.1,0.4c2.6,1,3.9,3.3,3.5,6.1c-0.4,2.7-2.6,5.7-6,6c-0.9,0.3-1,0.4-1,1.5c-0.1,0.7-0.2,2.1-0.2,3.6
					c-0.2,6.8-0.6,12.5-3,12.7c-2.5,0.7-4,2-4.4,3.7l0,0.2l-0.2,0.1c-0.3,0.2-0.5,0.5-0.6,0.9l-0.1,0.2c0,0.1-0.1,0.2-0.1,0.4
					c0,0.2-0.1,0.3-0.1,0.5c-0.2,0.6-16.8,58.4-23.3,82c-0.5,1.7-0.9,3.1-1.2,4.4c-0.3,1.2-0.6,2.3-0.8,3.1c-0.1,0.7,0,1.3,0.5,1.9
					c1.2,1.5,4.2,2.2,5.9,2.3c0.2,0,0.3,0,0.5,0c4.3,0,6-3.8,7.7-7.4l0.1-0.3c0.6-1.2,1.7-1.9,2.8-1.9c1.1,0,2.2,0.7,3.1,1.9
					c2.1,2.9,1.7,6,1,9.2c-1,4-3.5,7.3-5.9,10.5c-0.9,1.1-1.7,2.3-2.5,3.5c-3.2,4.8-2.1,11.2-1.1,17.5c0.3,1.6,0.5,3.3,0.7,4.9
					c1.3,9.7-0.5,17.9-5.1,23.2C167.4,218.1,162.3,220.3,156.1,220.3C156.1,220.3,156.1,220.3,156.1,220.3z"/>
				<path class="st0" d="M198.8,23.5c0.6,0,1.2,0.1,1.9,0.3c5.7,2.2,3.4,10.8-2.4,11.3c-1.2,0.4-1.4,0.6-1.4,1.9
					c-0.4,2.8,0.1,15.6-2.8,16c-2.1,0.6-4.3,1.7-4.7,4c-0.4,0.3-0.7,0.7-0.8,1.1l-0.1,0.2c-0.1,0.3-0.1,0.6-0.2,0.8
					c0,0-16.8,58.1-23.3,82c-0.5,1.7-0.9,3.1-1.2,4.4v0c-0.3,1.2-0.6,2.3-0.8,3.1c-0.7,3.3,4.2,4.6,6.7,4.7c0.2,0,0.3,0,0.5,0
					c4.7,0,6.5-4.2,8.2-8c0.6-1.1,1.5-1.6,2.4-1.6c0.9,0,2,0.6,2.8,1.7c2,2.8,1.6,5.8,1,8.8c-1.3,5.3-5.4,9.4-8.3,13.9
					c-4.2,6.2-1.4,14.9-0.4,22.6l0,0c2.3,16.5-4.7,29-19.6,29c-2.5,0-5.2-0.3-8-1.1c-11-2.6-23.1-4.4-31.2-12.9
					c-4.4-4.3-6.7-10.5-5.2-16.6c2.6-12.6,14.8-20.1,19.3-31.7c1-3.2,0.5-6.7,0.4-10c-1.2-9.8,0.6-15.9,0.6-15.9
					c1.4-4.7,3.8-11.2,9.5-11.5c3.8,0.6,1.4,6,1.2,8.5c-0.8,2.5,1.7,10.1,6,10.2c0.4,0.1,0.9,0.1,1.3,0.1c1.7,0,3.3-0.5,4.1-2.1
					c0.1-0.2,0.1-0.4,0.2-0.6v0c0.3-1,0.7-2.2,1.2-3.7C161.4,114,179.3,58,179.3,58l0.1-0.3l0,0c0.4-1.2,0.3-2.4-0.6-3.5
					c-1.2-1.3-0.9-2.7,0.1-4c0.1-0.1,0.2-0.2,0.2-0.3c0.2-0.5,0-0.9-0.4-0.9c-0.2,0-0.4,0.1-0.7,0.2c-0.1,0-0.2,0.1-0.4,0.1
					c-0.7,0-1.7-0.5-1.5-1.3c0.4-0.8,0.8-2.4,1.8-2.4c0.2,0,0.4,0.1,0.7,0.2c1.4,0.6,0.3,1.2,1.2,1.9c0.1,0,0.1,0,0.2,0
					c0.2,0,0.5-0.1,0.6-0.2c0,0,0,0,0,0c0,0,0,0,0,0l0.1-0.2c0.4-0.5,1-1.2,1.2-1.8l0,0c0.1-0.2,0.1-0.5,0-0.7
					c-0.2-0.1-0.4-0.1-0.5-0.1c-0.4,0-0.6,0.3-0.9,0.3c-0.2,0-0.5-0.1-0.9-0.5c-1.3-0.5,0.2-3.4,1.4-3.4c0.1,0,0.3,0,0.4,0.1
					c0.6,0.3,1.3,0.6,1,1.5c-0.1,0.4,0.3,0.6,0.6,0.6c0.2,0,0.3,0,0.4-0.1c0.1-0.2,0.3-0.4,0.4-0.6c0.3-0.4,0.6-0.8,0.8-1.2l0,0
					c0.1-0.3,0.1-0.5,0-0.7c-0.2-0.1-0.3-0.1-0.5-0.1c-0.4,0-0.7,0.3-1,0.3c-0.2,0-0.6-0.1-1.1-0.6c-0.8-0.7-0.1-2,0.4-2.6
					c0.3-0.4,0.9-0.6,1.4-0.6c0.7,0,1.4,0.4,1.2,1.4c0,0.4,0.4,0.6,0.7,0.6c0.2,0,0.3,0,0.4-0.1c0.1-0.2,0.3-0.4,0.5-0.7l0,0
					c0.2-0.3,0.4-0.6,0.6-0.9l2-3.1c0.1-0.2,0.3-0.4,0.4-0.6l5.1-7.8c0.1-0.1,0.2-0.3,0.4-0.5C196,24.2,197.3,23.5,198.8,23.5
					 M151.2,151.2C151.3,151.2,151.3,151.2,151.2,151.2C151.3,151.2,151.3,151.2,151.2,151.2c0,0-0.1-0.1-0.1-0.1
					C151.2,151.1,151.2,151.2,151.2,151.2 M159.8,153.7c0,0-0.1,0-0.1,0C159.7,153.8,159.7,153.8,159.8,153.7c0,0,0.1,0,0.1,0
					C159.9,153.7,159.8,153.7,159.8,153.7 M198.8,22.6C198.8,22.6,198.8,22.6,198.8,22.6c-1.8,0-3.4,0.8-4.6,2.4l0,0.1l0,0.1
					c-0.1,0.1-0.1,0.3-0.2,0.3l0,0l0,0.1l-5.1,7.8l0,0l0,0c-0.1,0.1-0.2,0.3-0.3,0.5l0,0l0,0l-2,3.1l0,0l0,0
					c-0.1,0.2-0.3,0.5-0.5,0.8c0,0-0.1,0.1-0.1,0.1c0-0.4-0.2-0.8-0.4-1c-0.4-0.5-1-0.7-1.6-0.7c-0.8,0-1.5,0.3-2,0.9
					c-0.1,0.1-1.1,1.3-1,2.5c0,0.2,0.1,0.4,0.1,0.5c-1.3,0.1-2.4,1.7-2.6,2.9c-0.1,0.8,0.1,1.3,0.4,1.7c-0.2-0.1-0.5-0.2-0.7-0.2
					c-1.4,0-2,1.5-2.4,2.5c-0.1,0.2-0.1,0.3-0.2,0.4l0,0l0,0c-0.2,0.5-0.1,1,0.2,1.4c0.5,0.7,1.4,1,2.1,1c0.1,0,0.2,0,0.3,0
					c-1.1,1.7-1,3.3,0.3,4.7c0.6,0.7,0.8,1.5,0.4,2.7l-0.1,0.2c-0.2,0.5-17.9,56.2-23.7,74.3l-1.2,3.7l-0.2,0.6
					c-0.6,1.1-1.6,1.6-3.3,1.6c-0.4,0-0.8,0-1.2-0.1l0,0l0,0c-1.5,0-2.6-1.2-3.3-2.2c-1.7-2.4-2.3-5.8-2-6.9l0-0.1l0-0.1
					c0-0.5,0.2-1.2,0.4-2c0.5-2.1,1-4.5-0.1-6.1c-0.5-0.7-1.2-1.1-2.2-1.3l-0.1,0l-0.1,0c-6.7,0.5-9.2,8.6-10.2,12.1l0,0
					c-0.6,1.6-1.7,7.9-0.7,16.2c0,0.7,0,1.4,0.1,2.1c0.1,2.5,0.2,5.2-0.5,7.6c-2,5.1-5.5,9.4-8.9,13.7c-4.4,5.4-8.9,11-10.4,18.2
					c-1.5,6,0.5,12.4,5.4,17.3c7.2,7.6,17.4,9.9,27.2,12.1c1.5,0.3,3,0.7,4.4,1c2.9,0.7,5.7,1.1,8.2,1.1c6.3,0,11.5-2.2,15.2-6.4
					c4.7-5.4,6.6-13.8,5.2-23.6l0-0.1c-0.2-1.6-0.5-3.2-0.7-4.8c-1-6.1-2.1-12.5,1-17.1c0.8-1.2,1.7-2.4,2.5-3.5
					c2.4-3.2,4.9-6.6,5.9-10.6c0.7-3.2,1.1-6.5-1.1-9.5c-1-1.3-2.2-2-3.5-2c-1.3,0-2.4,0.8-3.1,2.1l0,0l0,0l-0.1,0.3
					c-1.7,3.7-3.3,7.2-7.3,7.2c-0.1,0-0.3,0-0.5,0c-1.6-0.1-4.5-0.7-5.6-2.1c-0.4-0.5-0.5-1-0.4-1.6c0.2-0.8,0.5-1.9,0.8-3.1
					c0.3-1.3,0.8-2.8,1.2-4.4c6.5-23.6,23.2-81.4,23.3-82c0-0.1,0.1-0.3,0.1-0.5c0-0.1,0.1-0.2,0.1-0.4l0.1-0.2
					c0.1-0.3,0.2-0.5,0.5-0.6l0.3-0.2l0.1-0.3c0.3-1.5,1.7-2.6,4.1-3.3c2.7-0.4,3.1-5.9,3.3-13.1c0.1-1.5,0.1-2.9,0.2-3.5l0,0l0,0
					c0-0.9,0-0.9,0.8-1.1c3.6-0.4,5.9-3.5,6.3-6.4c0.4-3-1-5.5-3.8-6.5C200.2,22.7,199.5,22.6,198.8,22.6L198.8,22.6L198.8,22.6z
					 M183.1,41.8c0.1,0,0.2,0,0.3-0.1c-0.1,0.1-0.1,0.2-0.2,0.3C183.2,41.9,183.1,41.9,183.1,41.8L183.1,41.8z M180.2,46.7
					c0-0.3-0.1-0.6-0.3-0.9c0.2,0.1,0.4,0.1,0.5,0.1c0.1,0,0.2,0,0.4,0c-0.1,0.2-0.3,0.4-0.4,0.5C180.3,46.5,180.2,46.6,180.2,46.7
					L180.2,46.7z"/>
			</g>
		</g>
		<g>
			<path class="st4" d="M158.6,153.7l-6.3-1.9c-1.3-0.4-2.1-1.8-1.7-3.2l1.7-5.7l1.3-4.4l0.7-2.4c-0.1,0.2-0.1,0.4-0.2,0.6
				c-1,2.1-3.3,2.3-5.4,2c-4.3-0.1-6.8-7.7-6-10.2c0.2-2.5,2.6-7.9-1.2-8.5c-5.7,0.4-8.1,6.9-9.5,11.5c0,0-1.8,6.2-0.6,15.9
				c0.1,3.3,0.5,6.8-0.4,10c-4.5,11.6-16.7,19.2-19.3,31.7c-1.6,6.1,0.8,12.2,5.2,16.6c8.2,8.5,20.3,10.3,31.2,12.9
				c20.4,5.1,30.3-8.8,27.6-28l0,0c-0.9-7.8-3.7-16.4,0.4-22.6c3-4.5,7-8.5,8.3-13.9c0.6-3,1-6.1-1-8.8c-1.7-2.3-4-2.2-5.2,0
				c-1.8,3.9-3.6,8.3-8.7,7.9c-2.5-0.1-7.4-1.4-6.7-4.7c0.2-0.9,0.5-1.9,0.8-3.1l-1.9,6.5C161.3,153.3,159.9,154.1,158.6,153.7z"/>
		</g>
		<path class="st14" d="M180.5,54l-1.1,3.8l-0.1,0.3c0,0-17.9,56-23.7,74.4c-0.5,1.5-0.9,2.8-1.2,3.7l-0.7,2.4l-1.3,4.4l-1.7,5.7
			c-0.4,1.3,0.4,2.8,1.7,3.2l6.3,1.9c1.3,0.4,2.8-0.4,3.2-1.7l1.9-6.5c0.3-1.3,0.8-2.8,1.2-4.4c6.6-23.9,23.3-82,23.3-82
			c0.1-0.3,0.1-0.6,0.2-0.8l0.1-0.2l0.5-1.5L180.5,54z"/>
		<path class="st1" d="M179.7,47.7c-0.9-0.7,0.2-1.3-1.2-1.9c-1.5-0.9-2,1.2-2.5,2.2c-0.3,0.9,1.2,1.5,1.8,1.2
			c0.8-0.5,1.4-0.1,1.1,0.6l1.5-2.4C180.4,47.7,180,47.8,179.7,47.7z"/>
		<path class="st1" d="M184.9,38.6c0.4-1.6-1.7-1.8-2.5-0.8c-0.5,0.6-1.3,1.9-0.4,2.6c1.5,1.3,1.4-0.1,2.6,0.4
			c0.1,0.2,0.1,0.5,0,0.7l2-3c-0.2,0.3-0.4,0.5-0.5,0.7C185.6,39.5,184.8,39.2,184.9,38.6z"/>
		<path class="st1" d="M182.3,42.8c0.3-0.9-0.4-1.2-1-1.5c-1.2-0.9-3.3,2.7-1.8,3.3c1.3,1.1,1.1-0.2,2.3,0.3c0.1,0.2,0.1,0.4,0,0.7
			l1.9-2.9c-0.2,0.2-0.3,0.4-0.4,0.6C183,43.5,182.2,43.4,182.3,42.8z"/>
		<path class="st1" d="M188,34.9c-0.8-0.9,0.6-1.2-1.4-2.1c-1.3-0.6-2.7,2.2-1.9,3.1c0.4,0.4,0.9,1.1,1.7,0.5c1.1-0.2,1,0.4,0.6,1.1
			l2-3.1C188.8,34.8,188.5,35,188,34.9z"/>
		<path class="st1" d="M193.2,26.4c-0.7-0.7,0.5-1.2-0.7-1.8c-0.5-0.3-1.1-0.5-1.5,0c-0.7,0.7-1.6,2-0.9,2.9c0.4,0.4,1,1.2,1.8,0.4
			c0.1-0.1,0.5,0,0.7,0.1c0.1,0.1,0.2,0.4,0.1,0.5c-0.6,0.7-1,2.5-2.2,2.2c-0.2-0.1-0.3-0.4-0.3-0.6c0.2-0.9-0.5-1.1-1-1.4
			c-0.6-0.3-1.1,0-1.4,0.4c-0.4,0.7-1.6,2.2-0.6,2.9c0.5,0.3,1,1,1.7,0.3c0.1-0.1,0.6,0,0.9,0.1c0.1,0,0.2,0.4,0.1,0.5
			c-0.2,0.3-0.4,0.6-0.6,1l5.1-7.8C194.2,26.5,193.8,26.6,193.2,26.4z"/>
		<path class="st1" d="M153.5,185.4L153.5,185.4c-0.3,1-1.4,1.6-2.3,1.3l-10.6-3.2c-1-0.3-1.6-1.4-1.3-2.3l0,0
			c0.3-1,1.4-1.6,2.3-1.3l10.6,3.2C153.2,183.3,153.8,184.4,153.5,185.4z"/>
		<path class="st1" d="M154.6,181.6L154.6,181.6c-0.3,1-1.4,1.6-2.3,1.3l-10.6-3.2c-1-0.3-1.6-1.4-1.3-2.3v0c0.3-1,1.4-1.6,2.3-1.3
			l10.6,3.2C154.3,179.6,154.9,180.6,154.6,181.6z"/>
		<path class="st1" d="M156.6,175.1L156.6,175.1c-0.3,1-1.4,1.6-2.3,1.3l-10.6-3.2c-1-0.3-1.6-1.4-1.3-2.3l0,0
			c0.3-1,1.4-1.6,2.3-1.3l10.6,3.2C156.3,173.1,156.9,174.1,156.6,175.1z"/>
		<path class="st1" d="M157.7,171.4L157.7,171.4c-0.3,1-1.4,1.6-2.3,1.3l-10.6-3.2c-1-0.3-1.6-1.4-1.3-2.3l0,0
			c0.3-1,1.4-1.6,2.3-1.3l10.6,3.2C157.4,169.3,158,170.4,157.7,171.4z"/>
		<path class="st15" d="M135.8,185.4l-1.3,4.4c-0.3,0.9,0.2,1.8,1.1,2.1l0.1,0l-0.9,3.1c-0.3,1,0.3,2.1,1.3,2.4l10.6,3.2
			c1,0.3,2-0.3,2.3-1.3l1-3.1l0.6,0.2c0.9,0.3,1.8-0.2,2.1-1.1l1.3-4.4c0.3-0.9-0.2-1.8-1.1-2.1l-15-4.5
			C137,184.1,136,184.5,135.8,185.4z"/>
		<path class="st1" d="M158.2,178.6l12.1-1.3c0,0,1.3,8.8,2.2,12.4c0.9,3.6,0.9,11.8,0.2,13.6s-3.4,2.6-5.2,0.2
			c-1.8-2.3-5.4-9.2-12.4-11.3l1.2-4l-1.4-1.6L158.2,178.6z"/>
		<path class="st1" d="M161.9,157.3L161.9,157.3c-0.3,1-1.4,1.6-2.3,1.3l-10.6-3.2c-1-0.3-1.6-1.4-1.3-2.3v0c0.3-1,1.4-1.6,2.3-1.3
			l10.6,3.2C161.7,155.3,162.2,156.4,161.9,157.3z"/>
		<path class="st4" d="M194.9,25.5c-0.1,0.2-0.2,0.4-0.4,0.5l-5.1,7.8c-0.1,0.2-0.2,0.4-0.4,0.6l-2,3.1c-0.2,0.3-0.4,0.6-0.6,0.9
			l-2,3c-0.1,0.4-0.5,0.8-0.8,1.2l-1.9,2.9c-0.2,0.6-0.8,1.3-1.2,1.8l-0.1,0.2c0,0,0,0,0,0c0,0,0,0,0,0l-1.5,2.4
			c0,0.1-0.1,0.2-0.2,0.3c-1,1.3-1.3,2.7-0.1,4c1,1.1,1,2.2,0.6,3.5l1.1-3.8l8.5,2.6l-0.5,1.5c0.1-0.4,0.4-0.8,0.8-1.1
			c0.5-2.2,2.7-3.4,4.7-4c3-0.3,2.4-13.1,2.8-16c0.1-1.3,0.2-1.5,1.4-1.9c5.8-0.5,8.1-9.1,2.4-11.3C198.4,23,196.4,23.6,194.9,25.5z
			"/>
		<path class="st1" d="M169.6,175.4c0,0-0.5,8.1-5.7,12.4c0,0,4.5-1.2,6.5-4.4C172.4,180.1,169.4,175.9,169.6,175.4z"/>
		<path class="st0" d="M152,154.6c0.2,0,0.4,0.1,0.6,0.3c3.5,3.7,2.6,12.2,1.9,12.2c-0.1,0-0.3-0.3-0.4-0.8
			c-0.7-3.9-4.1-5.9-4.1-5.9S150.6,154.6,152,154.6"/>
		<path class="st1" d="M160.3,114.9c1.1-0.7,2.4-1.2,3.7-1.5c2.3-0.6,4.6-1,6.9-1.4c0.1-0.3,0.1-0.5,0.2-0.8
			c-1.8-0.4-3.7-0.8-5.5-1.1c-1.4-0.2-3,0.2-4.2-0.2c-1.1-0.4-2.4-1.3-2.5-2.3c-0.2-1.5,1.3-2.8,2.9-3c2-0.3,4-0.3,6-0.1
			c1.7,0.2,3.4,0.8,5,1.3c0.3-0.3,0.5-0.6,0.8-0.9c-0.8-0.6-1.6-1.2-2.5-1.7c-1.7-1.1-3.4-2.1-5-3.1c-1.9-1.2-1.7-3.2,0.6-4.3
			c1.1-0.5,2.8-0.9,3.6-0.5c2.3,1.1,4.4,2.4,6.2,4.1c1.6,1.5,2.7,3.5,4,5.1c1.4-1.7,2.6-3.5,4.2-5c1.9-1.8,4.5-2.1,5.8-0.9
			c1.2,1.1,0.7,2.9-1.3,4.8c-0.7,0.7-1.5,1.3-1.9,2c-0.6,1-1.2,2.2-1.1,3.2c0.3,2.2-0.4,4.2-1.7,6.3c-0.2,0.3-0.4,0.8-0.4,1.2
			c0,0.3-0.1,0.4-0.2,0.7c0.2,0.6,0.1,3.4-2.5,3.5c-2.1-0.4-4.2-0.5-6.3-0.9c-1.1-0.2-2.3-0.5-3.2-1.1c-2.3-1.6-4.6-0.9-7.2,0.4
			c-0.8,0.4-1.8,1.1-2.5,1.1c-1.3-0.1-2.9-0.4-3.4-1.2C157.9,117.4,158.7,115.8,160.3,114.9z"/>
		<path class="st0" d="M166,170.3c-1.7-1.9-2.8-3.3-4-5c-0.4-0.6-0.9-1.2-1.4-1.8c-3.2-4.2-3.8-4.6-4.4-4.6c-0.2,0-0.5,0.1-0.6,0.3
			c-0.4-1.8-1.2-3.5-2.3-4.7c-0.4-0.4-0.8-0.6-1.2-0.6c-1.4,0-2,1.9-2.3,3.5c-0.3,1.5-0.5,2.9-0.5,3l-0.1,0.5l0.5,0.3
			c0,0,0.5,0.3,1.2,1c-1-0.6-2.1-1-3.2-1c-1.4,0-2.5,0.5-3,1.4c-0.4,0.6-0.4,1.3,0,2c0.5,0.9,0.7,3.1-0.3,4.7
			c-0.6,1.1-1.7,1.6-3.1,1.6c-0.2,0-0.5,0-0.7,0c-0.5-0.1-0.9-0.1-1.4-0.1c-4.9,0-6.5,3.2-6.7,3.6c-0.2,0.3-0.3,0.6-0.4,0.9
			c-7.9,0.5-15.2,1-21.5,1.2c-2.2,2.3-3.6,5.3-4.9,8.2c11.2-1,21.9-3.3,26.3-4.3c2.2,6,12.2,8.4,12.8,8.5c3.1,0.8,5.7,1.1,8,1.1
			c2.3,0,4.2-0.4,5.9-1.2c4.7-2.3,8.3-8.6,9-13.1C167.7,173.2,167.2,171.4,166,170.3z M154.4,175c-0.3,0.3-0.5,0.4-0.7,0.4
			c-0.3,0-0.7-0.1-1.2-0.4c-0.7-0.4-0.8-0.7-0.8-0.8c0-0.2,0.4-0.8,0.8-1.3c0.8-1,1.9-2.4,1.9-4.4l0,0
			C155.1,171,155.2,173.9,154.4,175z"/>
		<g>
			<path class="st1" d="M165.4,170.9c-2.3-2.6-3.5-4.4-5.5-7c-1.5-1.9-4.2-5.4-3.8-3.9c1.4,6.1-0.9,8.2-0.9,8.2
				c1.4,4.4,0.7,9.7-3.1,7.4c-4.5-2.7,4.9-3.8,0-11.2c-2.7-4.1-7.8-2.5-6.7-0.5c1.1,2.1,0.7,8.1-4.9,7.5c-5.7-0.7-7.3,3-7.3,3
				c-0.2,0.5-0.4,0.9-0.5,1.4c-29.3,1.9-43.2,2.5-49.7-2.3c-0.2-0.1-0.3-0.2-0.5-0.4C65.8,159.8,67.8,130,67.8,130l-10.7,3.3
				c0,0,5.5,37.3,20.3,47.5c1.6,1.1,3.2,1.8,5,2.2c16.2,3.6,43.4-2.3,50-3.9c1.4,6.2,12.4,8.7,12.4,8.7c5.5,1.4,10,1.6,13.2,0
				C164.2,185,169,174,165.4,170.9z"/>
			<path class="st1" d="M154.1,166.2c0.7,3.9,2.6-7-1.5-11.3c-1.8-1.9-2.5,5.5-2.5,5.5S153.4,162.3,154.1,166.2z"/>
		</g>
	</g>
	<g>
		<g>
			<path class="st1" d="M45.7,217.6c0,0.6-0.1,1.1-0.4,1.4c-0.2,0.4-0.6,0.6-1,0.8l1.1,1.1h-0.8l-0.9-1l-0.2,0
				c-0.7,0-1.2-0.2-1.6-0.6c-0.4-0.4-0.5-1-0.5-1.7c0-0.7,0.2-1.3,0.5-1.7c0.4-0.4,0.9-0.6,1.6-0.6c0.7,0,1.2,0.2,1.5,0.6
				C45.6,216.3,45.7,216.8,45.7,217.6z M42.1,217.6c0,0.6,0.1,1.1,0.4,1.4c0.3,0.3,0.6,0.5,1.1,0.5c0.5,0,0.9-0.2,1.1-0.5
				c0.3-0.3,0.4-0.8,0.4-1.4c0-0.6-0.1-1.1-0.4-1.4c-0.3-0.3-0.6-0.5-1.1-0.5c-0.5,0-0.9,0.2-1.2,0.5
				C42.2,216.5,42.1,217,42.1,217.6z"/>
			<path class="st1" d="M51,215.3v2.9c0,0.5-0.2,0.9-0.5,1.2c-0.3,0.3-0.7,0.4-1.3,0.4c-0.5,0-1-0.1-1.3-0.4
				c-0.3-0.3-0.5-0.7-0.5-1.2v-2.9H48v3c0,0.4,0.1,0.7,0.3,0.9c0.2,0.2,0.5,0.3,0.9,0.3c0.4,0,0.7-0.1,0.9-0.3
				c0.2-0.2,0.3-0.5,0.3-0.9v-3H51z"/>
			<path class="st1" d="M55.8,219.8l-0.6-1.4h-1.8l-0.6,1.4h-0.5l1.8-4.6h0.4l1.8,4.6H55.8z M55.1,217.9l-0.5-1.4
				c-0.1-0.2-0.1-0.4-0.2-0.7c0,0.2-0.1,0.4-0.2,0.7l-0.5,1.4H55.1z"/>
			<path class="st1" d="M58.3,217.9v1.9h-0.5v-4.5H59c0.6,0,1,0.1,1.2,0.3c0.3,0.2,0.4,0.5,0.4,1c0,0.6-0.3,1-0.9,1.2l1.2,2h-0.6
				l-1.1-1.9H58.3z M58.3,217.5H59c0.4,0,0.6-0.1,0.8-0.2c0.2-0.1,0.3-0.4,0.3-0.7c0-0.3-0.1-0.5-0.3-0.6c-0.2-0.1-0.5-0.2-0.9-0.2
				h-0.7V217.5z"/>
			<path class="st1" d="M65.8,219.8h-0.6l-1.7-2.2l-0.5,0.4v1.8h-0.5v-4.5H63v2.2l2.1-2.2h0.6l-1.8,2L65.8,219.8z"/>
			<path class="st1" d="M70.6,215.3v2.9c0,0.5-0.2,0.9-0.5,1.2c-0.3,0.3-0.7,0.4-1.3,0.4s-1-0.1-1.3-0.4c-0.3-0.3-0.5-0.7-0.5-1.2
				v-2.9h0.5v3c0,0.4,0.1,0.7,0.3,0.9c0.2,0.2,0.5,0.3,0.9,0.3c0.4,0,0.7-0.1,0.9-0.3c0.2-0.2,0.3-0.5,0.3-0.9v-3H70.6z"/>
			<path class="st1" d="M75.2,218.6c0,0.4-0.1,0.7-0.4,0.9c-0.3,0.2-0.7,0.3-1.2,0.3c-0.5,0-1-0.1-1.2-0.2v-0.5
				c0.2,0.1,0.4,0.1,0.6,0.2c0.2,0,0.4,0.1,0.7,0.1c0.4,0,0.6-0.1,0.8-0.2c0.2-0.1,0.3-0.3,0.3-0.6c0-0.2,0-0.3-0.1-0.4
				c-0.1-0.1-0.2-0.2-0.3-0.3c-0.1-0.1-0.4-0.2-0.7-0.3c-0.4-0.2-0.7-0.3-0.9-0.5c-0.2-0.2-0.3-0.5-0.3-0.8c0-0.3,0.1-0.6,0.4-0.8
				c0.3-0.2,0.6-0.3,1-0.3c0.5,0,0.9,0.1,1.3,0.2l-0.2,0.5c-0.4-0.2-0.7-0.2-1.1-0.2c-0.3,0-0.5,0.1-0.7,0.2
				c-0.2,0.1-0.2,0.3-0.2,0.5c0,0.2,0,0.3,0.1,0.4c0.1,0.1,0.2,0.2,0.3,0.3c0.1,0.1,0.4,0.2,0.6,0.3c0.5,0.2,0.8,0.4,1,0.5
				C75.1,218.1,75.2,218.3,75.2,218.6z"/>
		</g>
		<polygon class="st3" points="60,202.6 58.4,203.6 60,204.6 		"/>
		<polygon class="st4" points="56.7,202.6 56.7,204.6 58.4,203.6 		"/>
		<polygon class="st1" points="60,204.6 58.4,203.6 56.7,204.6 58.4,205.5 		"/>
		<polygon class="st3" points="54.9,205.7 56.6,206.7 56.6,204.7 		"/>
		<polygon class="st4" points="56.6,208.6 58.3,207.6 56.6,206.7 		"/>
		<polygon class="st1" points="56.6,204.7 56.6,206.7 58.3,207.6 58.3,205.7 		"/>
		<polygon class="st3" points="60.1,208.6 60.1,206.7 58.5,207.6 		"/>
		<polygon class="st4" points="61.8,205.7 60.1,204.7 60.1,206.7 		"/>
		<polygon class="st1" points="58.5,207.6 60.1,206.7 60.1,204.7 58.5,205.7 		"/>
		<path class="st3" d="M62,200.7h-7.3c-1,0-1.8,0.8-1.8,1.8v7.3c0,1,0.8,1.8,1.8,1.8h5l-1.3-3.3l-1,2.1h-2.7c-0.3,0-0.6-0.3-0.6-0.6
			v-7.3c0-0.3,0.3-0.6,0.6-0.6H62c0.3,0,0.6,0.3,0.6,0.6v7.3c0,0.3-0.3,0.6-0.6,0.6h-1.6l0.5,1.2H62c1,0,1.8-0.8,1.8-1.8v-7.3
			C63.8,201.5,63,200.7,62,200.7z"/>
	</g>
</g>
</svg>
