<?xml version="1.0" encoding="utf-8"?>
<!-- Generator: Adobe Illustrator 27.6.1, SVG Export Plug-In . SVG Version: 6.00 Build 0)  -->
<svg version="1.1" id="Layer_1" xmlns="http://www.w3.org/2000/svg" xmlns:xlink="http://www.w3.org/1999/xlink" x="0px" y="0px"
	 viewBox="0 0 256 256" style="enable-background:new 0 0 256 256;" xml:space="preserve">
<style type="text/css">
	.st0{fill:#FFFFFF;}
	.st1{fill:#010101;}
	.st2{fill:#ED1C24;}
	.st3{fill:#0081C3;}
	.st4{fill:#FB5058;}
	.st5{fill:#EA5B24;}
	.st6{fill:#89483E;}
	.st7{fill:#C03A26;}
	.st8{fill:#F89420;}
	.st9{fill:#F47D20;}
	.st10{fill:#F36D21;}
	.st11{fill:#F78D1E;}
	.st12{fill:#DF5126;}
	.st13{fill:#ED6A22;}
	.st14{fill:#DCBC83;}
	.st15{fill:#BACCD5;}
	.st16{fill:#5F3722;}
	.st17{fill:#0081C3;stroke:#FFFFFF;stroke-width:0.2754;stroke-miterlimit:10;}
	.st18{fill:#FBAB18;}
	.st19{fill:#2F1F11;}
	.st20{clip-path:url(#SVGID_00000035509777078772724350000002387598792918809990_);}
	.st21{clip-path:url(#SVGID_00000035509777078772724350000002387598792918809990_);fill:#010101;}
	.st22{clip-path:url(#SVGID_00000035509777078772724350000002387598792918809990_);fill:#FFFFFF;}
	.st23{clip-path:url(#SVGID_00000093171993584973262080000004646714011909203608_);fill:#FB5058;}
	.st24{clip-path:url(#SVGID_00000093171993584973262080000004646714011909203608_);fill:#FFFFFF;}
	.st25{clip-path:url(#SVGID_00000093171993584973262080000004646714011909203608_);fill:#010101;}
	.st26{fill:#8C786D;}
	.st27{fill:#8C786D;stroke:#FFFFFF;stroke-width:0.826;stroke-miterlimit:10;}
	.st28{fill:#0081C3;stroke:#091313;stroke-width:0.826;stroke-miterlimit:10;}
	.st29{fill:none;stroke:#091313;stroke-width:0.826;stroke-miterlimit:10;}
</style>
<g>
	<g>
		<path class="st18" d="M122,85.8c-0.3-0.5-0.4-0.7-0.5-0.9c-4.2-7.6-8.7-15-14-21.9c-3.6-4.7-7.5-9.2-11.8-13.2
			c-5.5-5-12.1-8.2-19.2-10.6c-1.8-0.6-3.6-1.1-5.4-1.6c0,0,0,0,0,0c0.1,0.4,0.4,0.7,0.6,0.9c3.6,3.3,7.4,6.5,10.9,9.9
			c4.9,4.7,9.9,9.4,14.5,14.5c3.4,3.7,6.2,7.8,9.3,11.7c1.3,1.6,2.6,3.1,4,4.7c0,0,0,0,0,0c-0.9-0.5-1.7-1.1-2.4-1.9
			c-3.9-4.5-7.8-8.9-11.6-13.4c-4.8-5.7-10-10.8-16.5-14.4c-6-3.3-12.3-4.6-19-3.2c-6.2,1.3-11.7,4.2-17,7.4c0,0,0,0.1-0.1,0.2
			c2-0.9,3.9-1.8,5.8-2.6c5.3-2.3,10.7-3.5,16.5-2.4c6.8,1.2,12.7,4.4,18.2,8.4c5.8,4.2,10.3,9.5,14.7,15c3.4,4.3,7.4,7.8,12.5,9.6
			c0.6,0,1,0.2,1.4,0.5c0.2,0,0.3,0.1,0.5,0.2c0,0,0,0.1,0.1,0.3c0.1,0.1,0.3,0.2,0.4,0.3c0.5,0,0.8,0.1,1.3,0.4
			c1.5,0.8,3,1.6,4.5,2.2C120.3,86.1,121.1,85.9,122,85.8C122,85.8,122,85.8,122,85.8z M85.7,47.8l0.2-0.2c0,0,0.1,0,0.1,0
			c2.2,2.1,4.5,4.2,6.6,6.3c7.1,7.3,12.9,15.8,19.3,23.7c1.5,1.9,3.2,3.5,4.8,5.3c0,0,0,0,0,0c-2.4-1.3-4.2-3.3-5.9-5.4
			c-5.2-6.4-10.2-12.9-15.4-19.3c-2.9-3.5-6.1-6.7-9.2-10c-0.1-0.1-0.3-0.3-0.4-0.4C85.7,47.9,85.7,47.9,85.7,47.8z M84.5,45.8
			c1.7,1.2,3.4,2.3,5,3.7c7.4,6.5,14.4,13.3,19.5,21.8c2.7,4.4,5.7,8.7,9.5,12.2c0.1,0.1,0.1,0.2,0.2,0.3c-0.1,0.1-0.1,0.1-0.2,0.2
			c-0.3-0.3-0.6-0.5-0.9-0.8c-3.1-2.6-5.5-5.8-8-9c-5.9-7.6-11.5-15.4-18.3-22.1c-1.9-1.9-4.1-3.6-6.2-5.4
			C84.9,46.5,84.6,46.3,84.5,45.8z M118.9,82.9C118.9,82.9,118.9,82.9,118.9,82.9l-0.4,0.4c0,0,0,0,0,0c-1.7-2.1-3.6-4-5.1-6.2
			c-3.1-4.3-5.8-8.9-9-13.1c-2.4-3.1-5.4-5.8-8.1-8.7c-3.4-3.7-7.2-6.8-11.3-9.5c-0.3-0.2-0.5-0.4-0.6-0.8c1.6,1,3.3,2,4.9,3.1
			c6.6,4.5,12.3,9.9,16.8,16.4C110.2,70.5,114.6,76.7,118.9,82.9z"/>
		<path class="st18" d="M127.6,79.1c0,1.2,0,2.3,0,3.8c0,0,0,0,0,0c-0.9-3.1-1.5-5.9-2.5-8.6c-3.5-9.5-7.7-18.6-14.4-26.3
			c-5.3-6.1-12.1-9.9-19.7-12.4c-4.5-1.5-9.1-3.1-13.5-4.8c-2.3-0.9-4.4-2.3-6.1-4.2c-2.7-3.1-2.5-7,0.4-9.9
			c0.1-0.1,0.2-0.2,0.3-0.4c0,0,0,0,0,0l2-1.1c0,0,0,0,0,0c1.8-0.3,3.6-0.6,5.4-0.9c0,0,0,0,0,0l0.1,0.5c0,0,0,0,0,0
			c-0.4,0.1-0.8,0.1-1.2,0.2c-1.6,0.5-3.4,0.9-4.9,1.7c-2.6,1.4-3.1,5.1-1.2,7.4c1.5,1.8,3.5,2.9,5.6,3.6c4.7,1.7,9.4,3.3,14.1,4.9
			c2.4,0.9,4.9,1.8,7.3,2.8c6.5,2.7,11.5,7.3,16,12.6c3.2,3.8,6.1,7.8,8.1,12.4C126.1,66.3,127.4,72.6,127.6,79.1z"/>
		<path class="st18" d="M137.7,39.4C137.7,39.4,137.7,39.4,137.7,39.4c0.8,2.1,1.6,4.3,2.3,6.4c1.6,5.4,2.1,10.8,1.6,16.4
			c-0.2,2.2-0.7,4.3-1.8,6.2c-1,1.8-1.9,3.7-3.1,5.5c0,0,0,0,0,0c0.4-1.6,0.8-3.2,1.1-4.8c2-10,0.6-19.5-4.3-28.5
			c-2.6-4.7-5.5-9-8.9-13.1c-0.8-1-1.4-2.1-2.1-3.1c0.1-0.2,0.1-0.1,0.3-0.3c1.2,0.7,2.4,1.3,3.5,2c3.4,2.2,6.3,5,8.6,8.3
			c0.1,0.2,0.4,0.4,0.5,0.6L137.7,39.4z"/>
		<path class="st18" d="M136.3,52.2c-1.1-6.2-4-11.7-7.5-16.8c-5.1-7.5-12-12.6-20.8-14.7c-6.1-1.4-12.2-1.6-18.2,0.6
			c-2.1,0.8-3.8,2-4.4,4.4c0,0,0,0,0,0c-1.6,0.1-3.1,0.1-4.6,0.2c0,0,0,0,0,0c0.6,0.7,1.3,1.2,1.9,1.6c3.4,2,7,3.6,10.9,4.4
			c5.9,1.3,11.2,3.9,15.5,8.1c2.4,2.4,4.8,5,6.9,7.6c4.5,5.4,8.1,11.4,10.6,18c0.8,2.1,1.5,4.3,2.3,6.4c0-0.6-0.1-1.1-0.2-1.7
			c-2.8-13-9.1-24.1-18.1-33.7c-4.8-5.1-10.4-8.9-17.4-10.2c-1.8-0.3-3.6-0.5-5.4-0.8c0,0,0,0,0,0c1.9-1.3,4-2.1,6.3-1.4
			c8.8,2.5,15.6,7.8,20.7,15.3c4.2,6.1,8,12.3,11.2,19c3.2,6.6,5.7,13.4,6.3,20.8c0,0.4,0.1,0.7,0.2,1.1c0.2,0,0.2,0,0.4,0
			c0.6-1.4,1.4-2.7,1.8-4.1C137.2,68.5,137.7,60.4,136.3,52.2z M130.1,62.5C130.1,62.5,130.1,62.5,130.1,62.5
			c-0.7-1.9-1.5-3.7-2.2-5.6c-4.4-11.1-10.8-20.8-19.1-29.4c-2.8-2.8-6-5-9.8-6.2c-0.1,0-0.3-0.1-0.4-0.2c3.3,0.2,6.1,1.6,8.8,3.2
			c4.5,2.7,8,6.5,10.8,10.9c3.2,5.1,6.2,10.4,9,15.8C129,54.6,129.7,58.5,130.1,62.5z"/>
		<path class="st18" d="M125.1,85c0,0.7-0.3,1.4-1.1,1.4c-0.5,0-1.1-0.4-1.3-0.7c-1.5-2.3-3-4.6-4.3-7c-1.3-2.4-2.6-4.9-3.8-7.3
			c-2.9-5.9-7.2-10.7-11.5-15.5c-3.5-4-7.3-7.5-11.5-10.7c-5.9-4.6-12.6-7.2-20-8.4c-3.2-0.5-6.5-0.9-10-1.5c0,0,0,0,0,0
			c5-1.1,9.7-1.5,14.5-1.3c11.9,0.4,21.8,5.8,30.4,13.6c3.5,3.1,6.4,6.8,8.8,10.8c4,6.6,7.5,13.5,9.4,21.1
			C125.2,81.2,125.1,83.1,125.1,85z"/>
	</g>
	<g>
		<path class="st18" d="M133.6,42.9c0.2,0.1,0.4,0.1,0.6,0.2c-0.5-0.3-0.5-0.8-0.4-1.3c0.1-3.2,1.9-5.5,4.5-7.1
			c3.2-1.9,6.4-1.3,8.7,1.6c2.9,3.7,3.9,7.9,3.7,12.5c-0.2,4.6-1.4,9.1-2.9,13.4c-3,9.2-7.2,17.8-13.7,25c-0.5,0.5-1,1.1-1.5,1.6
			c-0.5,0.5-1,1.1-1.5,1.6c4.7-7.6,9.6-15,13-22.8c0,0,0,0,0,0c-5.1,5.9-10.4,12.1-15.6,18.1c0-0.1,0.1-0.3,0.2-0.5
			c2.3-3.4,4.4-7,6.9-10.3c3.2-4.3,6.7-8.4,9.8-12.8c2.6-3.7,4.3-7.9,4.5-12.5c0.1-2.6-0.2-5.2-1-7.7c0,0,0,0,0,0
			c-0.1,0.4-0.2,0.8-0.2,1.3c-0.5,5.6-2.7,10.2-7.1,13.9c-3.2,2.7-6.4,5.4-9.6,8c-8.2,6.7-13.5,15.2-16.2,25.3
			c-2.3,8.8-3.4,17.7-4.5,26.7c0,0.3-0.2,0.7-0.3,1c0.2,0.6,0.7,0.8,1.4,0.8c0.6-0.4,1.1-0.9,1.7-1.3c1.4-1.1,37.3-8,37.6-7.1
			c0,0,0,0,0,0c1.5-1.2,2.9-2.3,4.3-3.5c3.2-2.7,6.4-5.4,8.7-9c2.5-4,2-8.1-1.1-10.5c-0.2-0.1-0.3-0.6-0.2-0.9
			c1.9-4.5,1.6-9.1,1.1-13.7c-0.5-4.2-1.9-8-4.4-11.4c-0.2-0.3-0.3-0.8-0.2-1.3c0.3-3.3,0.8-6.5,0.8-9.8c0-6.1-1.9-11.5-6.8-15.4
			c-1.4-1.1-2.9-2-4.3-3c-1.3-0.5-2.6-1-4-1.5c-1.1-0.1-2.1-0.2-3.2-0.4c0,0.1,0,0.1,0,0.2c0.3,0.1,0.6,0.2,1,0.3
			c6.6,1.5,11.2,5.4,13.4,11.9c1.9,5.6,2.2,11.3,1.4,17.3c0,0,0,0,0,0c-0.6-0.2-1.1-0.3-1.5-0.4c-0.2-3-0.2-5.9-0.6-8.8
			c-0.6-5.4-2.6-10.2-6.2-14.2c-2-2.2-4.4-3.7-7.2-4.3c-3-0.7-6.3,1.1-8,4.3C133.4,38.4,133,40.5,133.6,42.9
			C133.6,42.9,133.6,42.9,133.6,42.9C133.6,42.9,133.6,42.9,133.6,42.9z M151.8,102.6l-0.3-0.3c0,0,0,0,0,0c1.8-2,3.5-4,5.4-5.9
			c2-2,3.8-4.2,5-6.8c0.1-0.2,0.2-0.5,0.4-0.7c0-0.1,0.1-0.1,0.2-0.1c1.1,1.1,1.3,2.9,0.3,4.2c-1.1,1.3-2.3,2.6-3.8,3.5
			c-2.6,1.6-4.9,3.4-6.8,5.9C152.1,102.4,151.9,102.5,151.8,102.6C151.8,102.6,151.8,102.6,151.8,102.6z M157.1,63.2
			c-2.6,8-6.3,15.4-11.6,21.9c-1.1,1.4-2.5,2.6-3.7,3.9c0,0,0,0,0,0c9-6,13.7-15,17.1-24.9c0,0,0,0,0,0c0.7,4.5-0.3,8.9-1.1,13.3
			c0.1,0,0.2,0,0.3,0.1c0.6-3.7,1.2-7.4,1.9-11.4c0,0,0,0,0,0c1,3.6,0.2,6.8,0,10.1c0,0,0,0,0,0c0.3-1.8,0.7-3.7,1-5.5c0,0,0,0,0,0
			l0.3,0c0,1.8,0.1,3.7-0.2,5.5c-0.3,1.8-1,3.6-1.4,5.1c0.1-0.3,0.4-0.9,0.6-1.5c-0.2,3.7-5.9,14.5-9.4,18c0,0,0,0,0,0
			c2.3-4,4.7-8.3,7.1-12.5c-0.1,0-0.2-0.1-0.3-0.1c-1.5,2.7-2.9,5.4-4.6,8.1c-1.6,2.6-3.5,5.1-5.2,7.7c0,0,0,0,0,0l-0.4-0.2
			c0,0,0,0,0,0c2.3-3.5,4.5-7,6.8-10.5c-0.1-0.1-0.2-0.1-0.2-0.2c-1.3,2-2.6,4-3.8,6c0,0,0,0,0,0c4.9-8.5,7.2-17.7,8.1-27.3
			c-0.1,0-0.2-0.1-0.3-0.1c-0.1,0.4-0.3,0.7-0.4,1.1c-1.3,4-3,7.9-5.2,11.5c-1.3,2.2-2.8,4.1-4.8,5.6c-6.1,4.4-12.3,8.7-18.3,13
			c0.3-0.4,0.7-0.9,1.1-1.3c3.4-3.2,6.8-6.4,10.1-9.7C146.3,83,151,77,153.7,69.7c1.1-2.8,1.6-5.9,2.4-8.8c0-0.2,0.1-0.4,0.1-0.6
			c0,0,0,0,0,0C157.3,61.1,157.5,61.8,157.1,63.2z"/>
		<path class="st18" d="M142.5,48c-0.1-1.5-0.6-3.1-1.3-4.5c-0.9-1.8-2.6-2.7-4.7-2.5c-0.3,0-0.6,0-0.9,0.1c0,0-0.1,0-0.1-0.1
			c1-2.6,3.2-4.2,5.7-3.7c3.3,0.7,5,1.9,5.1,5.3c0.1,3.6-1.1,6.7-3,9.7c-0.4,0.7-0.9,1.3-1.2,1.8c0,0,0,0,0,0
			C142.2,52.2,142.6,50.1,142.5,48z"/>
	</g>
	<g>
		<path class="st18" d="M103.5,95.2c0.5-0.3,0.7-0.7,0.9-1.1C104.2,94.5,103.8,94.8,103.5,95.2z"/>
		<path class="st18" d="M106.4,81c-9.5-5.3-19.7-9-30.6-10.3c-2.1-0.3-4.1-0.4-6.2-0.6l0,0l-6,0.2c-0.4,0.1-0.7,0.2-1.1,0.2
			c-7.8,1-14.6,4.1-20.4,9.3c-2.9,2.6-5.1,5.7-6.2,9.4c-0.2,0.8-0.5,1.6-0.8,2.4c-0.6,1.4-1.4,2.9-2.4,4.1c-0.9,1.1-1.9,1.2-3.1,0.5
			c0,0,0,0,0,0c0.2-0.2,0.5-0.3,0.6-0.6c0.2-0.4,0.7-1,0.5-1.2c-0.3-0.6-0.8-1.2-1.4-1.4c-1.9-0.5-3.7,1.6-3.1,3.4
			c0.5,1.4,1.4,2.4,2.9,2.8c1.5,0.4,2.9,0.2,4.3-0.4c2.9-1.2,4.9-3.3,6.6-5.8c4.2-5.9,9.8-10,16.5-12.7c3.5-1.4,7.3-1.7,11-1.9
			c9.2-0.4,18.3,0.9,27.3,2.6c4,0.8,8,1.7,12,2.6c0,0.2,0,0.1,0,0.3c-0.9-0.1-1.9-0.3-2.8-0.4c-6-0.5-12.1-0.9-18.1-1.5
			c-8.8-0.8-17.4,0.1-25.8,2.5c-7.8,2.2-14.2,6.6-19.9,12.2c-1.7,1.7-3.7,2.9-5.9,3.6c-1.7,0.5-3.4,0.6-5,0c-2-0.8-3.3-2.2-3.7-4.3
			c-0.3-2,0.5-3.5,2-4.8c1.3-1,2.9-1.1,4.2-0.3c1.2,0.7,1,1.9,0.8,3c0,0.1,0.1,0.1,0.1,0.2c1.6-1.1,1.5-4.2-0.2-5.4
			c-3.2-2.3-10.3-1.5-11.4,3.9c-0.1,0.3-0.2,0.6-0.3,1c0,0,0,0,0,0c-2.1-1.3-4.2-1.6-6.4-1.2c-3.5,0.7-6.3,3.2-6.6,6.3
			c-0.3,2.9,0.4,5.7,1.9,8.2c2.8,4.7,6.7,8,11.7,10.3c2.7,1.2,5.4,2.2,8.2,3.2c0,0.4-0.1,0.9-0.1,1.5c0,0,0,0,0,0
			c-5.9-1.2-11.3-3.1-16-6.7c-5.4-4.1-7.8-9.6-7.2-16.4c0-0.3,0-0.7,0-1c-0.1,0-0.1,0-0.2,0c-0.2,1-0.4,2.1-0.6,3.1
			c0.1,1.4,0.1,2.8,0.2,4.2c0.5,1.7,0.9,3.4,1.5,5c2.2,6,6.8,9.4,12.6,11.3c3.1,1,6.4,1.5,9.6,2.3c0.4,0.1,0.9,0.3,1.1,0.6
			c2.4,3.5,5.7,6,9.5,7.7c4.3,1.9,8.6,3.6,13.4,3.2c0.2,0,0.7,0.2,0.7,0.5c1.3,3.7,5.1,5.5,9.7,4.3c4.1-1.1,7.7-3.3,11.2-5.5
			c1.5-1,3-2,4.7-3c0,0,0,0,0,0C78.8,131,96.4,99,97.9,98c0.6-0.4,1.2-0.8,1.8-1.2c0.2-0.6,0.2-1.2-0.3-1.6c-0.3,0.1-0.7,0.1-1,0
			c-8.9-1.7-17.8-3.4-26.8-3.9C61,90.8,51.3,93.2,42.4,99c-3.5,2.3-7.1,4.4-10.6,6.7c-4.8,3-9.9,3.7-15.4,2.5
			c-0.4-0.1-0.8-0.2-1.3-0.2c0,0,0,0,0,0c2.2,1.5,4.5,2.6,7,3.3c4.5,1.2,9,0.9,13.3-0.5c5.1-1.6,10.1-3.7,15.2-5.4
			c3.9-1.3,7.9-2.3,11.9-3.4c0.2-0.1,0.5-0.1,0.5-0.1c-7.4,3.1-14.9,6.3-22.1,9.3c0,0,0,0,0,0c8.5-0.8,17.1-3.1,25.7-5.3
			c-0.7,0.3-1.3,0.6-2,0.9c-0.7,0.3-1.3,0.6-2,0.9c-8.9,4-18.4,5.3-28,5.4c-4.6,0-9.2-0.1-13.7-1.4c-4.4-1.3-8.2-3.5-10.8-7.4
			c-2-3.1-1.7-6.3,1.1-8.7c2.3-2,5-3,8.2-2.1c0.6,0.2,1.2,0.4,1.2,1.3c-0.1,6.1,3.7,8.5,9.3,8.7c3.5,0.1,6.5-1.6,9.2-3.6
			c6.6-5.1,14.3-7.8,22.2-9.9c6.7-1.8,13.5-1.9,20.3-1.7c7.5,0.3,15,1.1,22.5,2.4c0.4,0.1,1.1-0.2,1.4-0.5c1.3-1.4,2.6-2.9,3.9-4.3
			c0.6-0.7,1.3-1.2,2.1-2C109.9,82.9,108.2,81.9,106.4,81z M71.9,129.4c-0.2,0.1-0.3,0.2-0.5,0.3c-2.9,1-5.4,2.6-7.7,4.6
			c-1.3,1.1-2.9,1.9-4.5,2.5c-1.6,0.6-3.1-0.2-3.9-1.5c0.1,0,0.1-0.1,0.2-0.1c0.3-0.1,0.5-0.1,0.8-0.1c2.8-0.4,5.4-1.4,8-2.7
			c2.4-1.2,4.9-2.2,7.3-3.3c0,0,0,0,0,0L71.9,129.4C71.9,129.4,71.9,129.4,71.9,129.4z M30.3,120.5
			C30.3,120.5,30.3,120.5,30.3,120.5c0.2,0,0.4,0.1,0.6,0.1c3,0.2,6.1,0.6,9.1,0.5c7.8-0.3,15-2.9,21.8-6.5
			c4.1-2.2,8.2-4.4,12.3-6.7c0.5-0.3,1.2-0.5,1.6-0.7c-5.9,4.4-11.9,9-18,13.5c-2,1.5-4.3,2.3-6.8,2.9c-4.1,1-8.3,1.4-12.5,1.4
			c-0.4,0-0.8,0-1.1,0c0,0.1,0,0.2,0,0.3c9.5,2.1,18.9,2.7,28.5,0.7c0,0,0,0,0,0c-2.3,0.6-4.6,1.2-6.9,1.8c0,0.1,0.1,0.2,0.1,0.3
			c4-1.1,8-2.2,12-3.3c0,0,0,0,0,0l0.1,0.4c0,0,0,0,0,0c-3,0.9-5.9,1.8-8.9,2.6c-3,0.7-6,1.2-9.1,1.9c0,0.1,0,0.2,0.1,0.3
			c4.8-1,9.5-2,14-2.9c0,0,0,0,0,0c-4.3,2.2-16.4,4.3-20,3.4c0.7-0.1,1.3-0.1,1.7-0.1c-1.6,0-3.5,0.1-5.3-0.2
			c-1.8-0.3-3.5-1-5.3-1.5l0.1-0.3c0,0,0,0,0,0c1.9,0.3,3.7,0.5,5.6,0.8c0,0,0,0,0,0c-3.2-0.8-6.6-1.1-9.6-3.1c0,0,0,0,0,0
			c4,0.6,7.7,1.2,11.4,1.7c0-0.1,0-0.2,0-0.3c-4.5-0.6-8.9-1-13-3c0,0,0,0,0,0c10.5-0.3,20.5-1.9,29-8.6c0,0,0,0,0,0
			c-1.6,0.7-3.2,1.6-4.9,2.3c-7.8,3.1-16,4.4-24.4,4.3C31.3,122.3,30.7,121.8,30.3,120.5z"/>
		<path class="st18" d="M68.4,89.9C68.4,89.9,68.4,89.9,68.4,89.9c7,0.3,14,1.5,20.9,2.8c2.9,0.5,5.8,1.2,8.7,1.7
			c0.5,0.1,1.2,0,1.6-0.2c1.7-0.7,3.3-1.5,4.9-2.4c0,0,0,0,0,0C92.5,90.7,80.5,88.4,68.4,89.9z"/>
		<path class="st18" d="M18.3,94.9c-2.8,0.1-5,1.8-5.2,4.3c-0.3,3.4,0.3,5.3,3.5,6.5c3.3,1.2,6.8,1,10.2,0.2
			c0.8-0.2,1.6-0.4,2.1-0.6c0,0,0,0,0,0c-1.9-0.5-4-0.7-6-1.5c-1.4-0.5-2.8-1.5-3.9-2.6c-1.5-1.4-1.8-3.3-1-5.3
			c0.1-0.3,0.2-0.6,0.3-0.9C18.3,95,18.3,94.9,18.3,94.9z"/>
		<path class="st18" d="M85.4,81c-12.9-2.7-25.1-2.3-36.3,5.1c-2.5,1.7-4.7,3.8-6.6,6.5c0,0,0,0,0,0c1.8-1.4,3.5-2.6,5.1-3.8
			c5.7-4,12.1-6.1,18.9-7.1c6-0.9,11.9-1,17.9-0.6C84.7,81.1,84.9,81,85.4,81z"/>
	</g>
	<g>
		<path class="st18" d="M118.9,94.7c0.6-0.1,1-0.3,1.3-0.6C119.8,94.3,119.4,94.5,118.9,94.7z"/>
		<path class="st18" d="M128.1,83.4c-6-9.1-13.3-17-22.4-23.3c-1.7-1.2-3.5-2.2-5.2-3.4l0,0L95,54.2c-0.4-0.1-0.7-0.2-1.1-0.3
			c-7.4-2.7-14.8-3.1-22.4-1.1c-3.8,1-7.1,2.7-9.8,5.5c-0.6,0.6-1.2,1.2-1.8,1.7c-1.2,1-2.5,1.9-4,2.6c-1.3,0.6-2.3,0.2-3-1
			c0,0,0,0,0,0c0.3-0.1,0.6-0.1,0.8-0.2c0.4-0.2,1-0.6,1-0.8c0-0.6-0.2-1.5-0.6-1.9c-1.4-1.3-4-0.3-4.3,1.6
			c-0.2,1.5,0.2,2.8,1.3,3.8c1.1,1.1,2.5,1.5,4,1.6c3.1,0.3,5.9-0.7,8.6-2.1C70,60.3,76.9,59.3,84,60c3.8,0.4,7.3,1.8,10.7,3.4
			c8.3,3.9,15.8,9.2,23,14.9c3.2,2.5,6.3,5.2,9.4,7.8c-0.1,0.1-0.1,0.1-0.2,0.2c-0.8-0.5-1.5-1.1-2.3-1.6
			c-5.1-3.2-10.3-6.4-15.4-9.7c-7.4-4.8-15.4-8-24.1-9.7c-7.9-1.6-15.6-0.7-23.3,1.6c-2.2,0.7-4.6,0.9-6.9,0.4
			c-1.7-0.3-3.3-1-4.5-2.3c-1.4-1.6-1.9-3.5-1.3-5.5c0.6-1.9,2.1-2.9,4-3.3c1.6-0.3,3.1,0.3,3.9,1.7c0.8,1.2,0,2.1-0.7,3
			c0,0,0,0.1,0,0.2c1.9-0.3,3.2-3.1,2.3-4.9c-1.7-3.5-8.5-6-11.9-1.8c-0.2,0.2-0.5,0.5-0.7,0.7c-0.1,0.2-0.2,0.4-0.3,0.5
			c0,0.1-0.1,0.3-0.2,0.4c-2.9,5.4-0.7,9.3,4.2,12c3.1,1.7,6.5,1.6,9.9,1c8.2-1.4,16.3-0.4,24.2,1.4c6.7,1.5,12.8,4.5,18.8,7.9
			c6.6,3.7,12.8,7.9,18.8,12.5c0.3,0.3,1,0.3,1.4,0.2c1.8-0.6,3.6-1.4,5.4-2c0.9-0.3,1.7-0.5,2.8-0.8
			C130.2,86.7,129.2,85,128.1,83.4z"/>
		<path class="st18" d="M90.1,73.8C90.1,73.8,90.1,73.8,90.1,73.8c6.1,3.5,11.7,7.8,17.2,12.1c2.3,1.8,4.6,3.7,7,5.6
			c0.4,0.3,1,0.6,1.5,0.6c1.8,0.1,3.6,0.2,5.5,0.1c0,0,0,0,0,0C111.2,85.6,101.6,78.1,90.1,73.8z"/>
		<path class="st18" d="M109.4,73.7c-10.2-8.3-21.2-13.6-34.6-12.2c-3,0.3-5.9,1.2-8.9,2.7c0,0,0,0,0,0c2.3-0.4,4.3-0.7,6.3-1
			c6.9-0.9,13.6,0.1,20.1,2.4c5.7,1.9,11.1,4.6,16.2,7.8C108.7,73.4,109,73.5,109.4,73.7z"/>
	</g>
	<g>
		<path class="st1" d="M96,138.2c9.3,1.5,23.1,2,35.8-4.3c20.4-10.2,24.3-17.3,24.9-19c-0.9-1.6-1.9-3.4-3-5.1
			c-5.9-9.9-15-24.3-25.4-36.6c-6.4-6.1-12.6-9.3-17.7-9.3c-1.2,0-2.3,0.2-3.4,0.5l-0.2,0.1l-0.2,0c-3.5,0.6-6.8,3.1-9.8,7.3
			c-2.8,4-5.4,9.5-7.8,16.4c-4.4,13.2-7,28.8-8.5,38.2c-0.4,2.5-0.9,4.9-1.4,7.2C81.6,134.5,87.9,136.9,96,138.2z"/>
		<circle class="st1" cx="77.1" cy="141.7" r="7"/>
		<path class="st1" d="M196.2,135.3c0.2,0.3,0.4,0.7,0.5,1.2c0,0.1,1.9,13.5,0,23c-5.3-3.9-15.2-13.9-23-23.1c0-2.8-2.7-5.3-5.3-6.2
			c-1,4.2-0.9,8.5-1.6,12.8c0.5,0,0.9,0,1.4-0.1c11.7,13.4,19.2,20.3,24.1,23.6c5.7,3.9,8,3.1,9.1,2.7c1.1-0.4,3.8-1.8,3.8-6.1
			c0.1-11.3-5.4-25.3-6.2-27.4c0.4,0,0.8,0,1.1,0C199.2,134.8,197.7,135.2,196.2,135.3z"/>
		<path class="st1" d="M227.1,136c-1-1.2-2.4-2.3-3.7-3.2c-1.6-1-3.3-1.8-4.9-2.7c0-0.2,0.1-0.3,0.1-0.5c1.8,0,3.6,0,5.5,0
			c0.6,0,1.3,0,1.9,0c3.2,0,4.5-0.8,4.8-2.6c0.3-1.9-1.4-4.5-3.8-5.1c-2.6-0.6-5.2-0.9-7.8-1.2c-3-0.3-6-0.3-9.1-0.6
			c-2.6-0.2-2.8-0.6-2.3-3.1c0.8-4-1.4-7.3-5.2-7.7c-2.8-0.3-4.5,1.4-4,4.2c0.2,1,0.8,1.9,0.9,2.9c0.1,1,0.2,2.1-0.2,3
			c-1.2,2.5-2.7,4.9-4.1,7.3c-0.8,1.3-2.4,2.3-2.5,3.7c-0.2,2,0.1,3.6,0.6,4.7c0,0.3,0.2,0.8,0.3,1.5c1.4,0.5,3,0.8,3.5,2
			c1.6,0.6,3.1,0.6,3.7,0.8c1.9,0.6,4.1,0.6,6.1,0.9c4.2,0.6,8.5,1,12.7,1.8c2.6,0.5,4.8-0.6,7.1-1.2
			C228.1,140.5,228.4,137.6,227.1,136z"/>
		<path class="st1" d="M110.7,60.6c-1.5,0-3,0.2-4.4,0.7c-18.6,3.2-25.4,44.3-28.7,64.6c-3.1,19-11.7,35.8-16.4,42
			c-31.8,40.1-31.4,58.4-8.8,58.4c10.2,0,24.9-3.7,43.2-10.9c15.5-5.2,31.4-10.5,40.6-10.6c11.7,0.3,33.6,21,45.8,21
			c0.3,0,0.7,0,1,0c13.3-2.7,11.4-15.5,5.7-40.2c-5.6-21.6-13.1-40.6-20.9-56.7c0.1-0.1-16.2-33.4-37.1-58.1
			C123.6,64.1,116.7,60.6,110.7,60.6L110.7,60.6z"/>
		<path class="st0" d="M185.6,186.4c-4.9-19.1-11.9-37.9-20.7-56l-1.3-2.6l0,0c-1.1-2.1-2.8-5.4-5-9.5c-2.4,3.7-8.7,10.2-25.3,18.5
			c-5.6,2.8-14.1,5.7-25.6,5.7c-3.8,0-7.9-0.3-12.3-1c-8-1.3-14.1-3.5-16.8-4.6c-1.7,6.5-3.8,12.1-5.6,16.2
			c-2.9,6.8-6.3,13.1-9.2,16.9l0,0l0,0c-10,12.6-17,23.4-20.9,31.9c-3.3,7.4-4.2,13.1-2.5,16.5c1.5,3.1,5.6,4.7,12.1,4.7
			c9.6,0,24.2-3.7,42-10.6l0.1,0l0.1,0c15.7-5.3,31.8-10.7,41.6-10.8l0.1,0l0.1,0c6.6,0.2,14.9,5.3,23.8,10.8
			c7.8,4.8,16.6,10.3,22,10.3c0.2,0,0.3,0,0.5,0c3.6-0.8,5-2.3,5.7-3.4C191.6,213.9,189.2,201.8,185.6,186.4z"/>
		<g>
			<path class="st1" d="M130.7,121.2L130.7,121.2L130.7,121.2c-2.4,0-4.7,0.3-7.1,1c-5.1,1.4-9.5,4.2-12.6,7.8
				c-3.3,3.9-4.5,8.5-3.4,12.6c1.7,6.2,8.5,10.4,17,10.4c2.4,0,4.8-0.3,7.1-1c5.1-1.4,9.5-4.2,12.5-7.8c3.3-3.9,4.5-8.5,3.4-12.6
				C146,125.4,139.2,121.2,130.7,121.2L130.7,121.2z"/>
			<path class="st2" d="M130.9,148.8c-9.2,2.5-18.4-0.8-20.1-7.1c-1.7-6.4,4.5-13.9,13.7-16.4c9.2-2.5,18.4,0.8,20.1,7.1
				C146.3,138.8,140.1,146.3,130.9,148.8z"/>
		</g>
		<path class="st1" d="M15.2,71.7c0.6-0.7,1.9-1.1,2.9-1.2c1-0.1,2,0.3,3,0.5c0.5,0.1,1,0.2,1.7,0c-1.2-0.9-2.5-1.7-3.7-2.6
			c-1.7-1.3-2.7-2.9-2.1-5.1c0.6-2.1,2.2-3,4.3-3.1c0.3,0,0.6-0.2,0.9-0.3c2.4-1.5,4.8-1.3,7.3-0.2c3.8,1.6,6.4,4.5,8.5,7.9
			c0.6,1,1.3,1.7,2.6,1.8c1,0.1,2.1,0.6,3,1c3.4,1.8,3.8,5,1.3,7.5c0.6,1.3,1,2.3,1.5,3.4c0.5,1.1,1,2.2,1.6,3.3
			c0.8,1.4,0.4,3.9-0.8,5.6c6.7,19.3,22.3,38.8,29.4,47.2c-0.3-0.5-3,10.1-3.1,9.1c-4.1-5-24-31.1-32.3-56.2
			c-0.9-0.2-1.8-0.3-2.8-0.4c-0.1,0-0.1,0-0.2-0.1c-2.7-1.4-5.6-2.4-7.9-4.2c-1.7-1.3-2.8-3.4-3.9-5.3c-0.6-1.1-1.1-1.4-2.4-1.5
			c-2-0.1-4.1-0.6-6-1.3c-1-0.4-1.9-1.4-2.6-2.3C14.6,74.1,14.2,72.7,15.2,71.7z"/>
		<g>
			<g>
				<path class="st4" d="M226.4,113.8c0,0,0.9-1.3,3.8-0.9c2.8,0.4,3.8,0.7,5,0.3c1.1-0.4,10.4-10.3,13.9-14.4
					c3-3.5,0.7-6.5,0.7-6.5s-2.1-3.1-6.4-1.4c-5,2-17.3,7.7-18,8.7c-0.7,0.9-0.8,2-1.3,4.8c-0.5,2.8-2,3.3-2,3.3L226.4,113.8z"/>
				<g>
					<path class="st3" d="M115.6,239.1c0.8-1,40.9-61.1,49-73.1c0.6-1,1.2-2.2,1.2-3.3c0.1-2.1,0.7-4,1.9-5.4
						c-2.2-3.1-3.6-5.4-6.1-8.3c-1.8,0.5-4-0.1-5.9-0.6c-1.3-0.4-2.5-0.3-3.8,0c-3.9,1-7.8,2-11.7,3c-24.2,6.1-48.4,12.1-72.6,18.2
						c-1.3,0.3-2.5,0.8-3.8,1.3c-0.7,0.8-1.6,1.6-2,2.6c-1.1,2.6,0.4,4.7,3.9,5.4c6.9,1.3,37.2,6.9,42,8.2c4.4,1.1,6.3,4.4,5.7,8.9
						c-1.2,8.5-5,35-5.7,39.7c-0.3,2.3-0.2,4.4,2,5.7C111.5,242.2,113.7,241.3,115.6,239.1z"/>
				</g>
				<polygon class="st1" points="161.3,162 155.3,153.5 223.7,106 228.7,112.9 				"/>
				<path class="st0" d="M144.9,154c0,0,2.9-2.1,5.2,1c2.2,3.1,8.5,11.9,8.5,11.9s1.3,1.9-0.2,3.9c-1.6,2-37.3,57.2-37.3,57.2
					s-1.2,1.5-1.4-0.1c-0.2-1.5-1.2-28.5-1.2-28.5s0-1.9,3-4.1c3-2.2,6.8-4.9,6.8-4.9s1.8-1.3,0.5-3.1c-1.3-1.8-9.9-13.8-9.9-13.8
					s-0.8-1-2.1-1.5c-1.3-0.5-4.6-1.3-4.6-1.3s-1.4-0.8-0.1-1.4S144.9,154,144.9,154z"/>
				<path class="st1" d="M133.3,179.5l-4.2-5.8c-1.3-1.7-0.9-4.2,0.9-5.5l0,0c1.7-1.3,4.2-0.9,5.5,0.9l4.2,5.8
					c1.3,1.7,0.9,4.2-0.9,5.5l0,0C137,181.7,134.5,181.3,133.3,179.5z"/>
				<path class="st1" d="M122.2,175.4l7.6,10.6c0.4,0.5,1.2,0.7,1.7,0.3l0,0c0.5-0.4,0.7-1.2,0.3-1.7l-7.6-10.6
					c-0.4-0.5-1.2-0.7-1.7-0.3l0,0C122,174.1,121.8,174.8,122.2,175.4z"/>
				<circle class="st1" cx="136.9" cy="196.9" r="2.6"/>
				<circle class="st1" cx="129" cy="196.8" r="2.6"/>
				<circle class="st1" cx="131.1" cy="204.7" r="2.6"/>
				<circle class="st1" cx="124.4" cy="202.6" r="1.6"/>
			</g>
			<g>
				<path class="st0" d="M245.9,90.6c2.6,0,3.9,1.9,3.9,1.9s2.2,3-0.7,6.5c-3.5,4.1-12.8,14-13.9,14.4c-0.4,0.1-0.7,0.2-1.1,0.2
					c-0.8,0-1.9-0.2-3.8-0.5c-0.4-0.1-0.8-0.1-1.1-0.1c-0.2,0-0.3,0-0.5,0l-61.1,44.6c-1.1,1.4-1.6,3.2-1.7,5.2
					c-0.1,1.1-0.6,2.4-1.2,3.3c-8,12.1-48.1,72.1-49,73.1c-1.3,1.6-2.9,2.5-4.3,2.5c-0.5,0-1-0.1-1.5-0.4c-2.2-1.3-2.3-3.4-2-5.7
					c0.7-4.7,4.5-31.2,5.7-39.7c0.6-4.5-1.3-7.8-5.7-8.9c-4.9-1.2-35.2-6.8-42-8.2c-3.4-0.7-5-2.8-3.9-5.4c0.4-1,1.3-1.7,2-2.6
					c1.4-0.5,2.6-1,3.8-1.3c24.2-6.1,48.4-12.2,72.6-18.2c3.9-1,7.8-2,11.7-3c0.7-0.2,1.3-0.3,1.9-0.3c0.6,0,1.2,0.1,1.9,0.3
					c1.4,0.4,2.9,0.8,4.4,0.8c0.5,0,1-0.1,1.5-0.2c0,0,0.1,0.1,0.1,0.1l62-43.1h0c0.2-0.4,0.3-0.9,0.4-1.4c0.5-2.8,0.5-3.9,1.3-4.8
					c0.7-0.9,13-6.6,18-8.7C244.4,90.8,245.2,90.6,245.9,90.6 M245.9,89.7C245.9,89.7,245.9,89.7,245.9,89.7c-0.9,0-1.9,0.2-2.8,0.6
					c-3.4,1.4-17.4,7.6-18.4,8.9c-0.7,0.9-0.9,1.9-1.2,3.9c-0.1,0.4-0.1,0.8-0.2,1.3c-0.1,0.3-0.1,0.7-0.2,1L161.6,148l-0.3,0.1
					c-0.4,0.1-0.8,0.2-1.3,0.2c-1.3,0-2.7-0.4-4.1-0.8c-0.7-0.2-1.4-0.3-2.1-0.3c-0.7,0-1.4,0.1-2.2,0.3c-3.8,1-7.6,2-11.3,2.9
					l-0.3,0.1l-18.9,4.7c-17.9,4.5-35.8,9-53.7,13.5c-0.9,0.2-1.7,0.5-2.6,0.9c-0.4,0.2-0.8,0.3-1.3,0.5l-0.3,0.1l-0.2,0.2
					c-0.2,0.2-0.4,0.5-0.6,0.7c-0.5,0.6-1.1,1.3-1.5,2.1c-0.6,1.4-0.6,2.7,0,3.9c0.8,1.4,2.3,2.4,4.5,2.8c1.8,0.4,5.3,1,9.6,1.8
					c11.5,2.2,28.8,5.4,32.4,6.3c4.9,1.2,5.4,5,5,7.9c-1.2,8.4-5,34.9-5.7,39.7c-0.3,2.2-0.3,5,2.5,6.6c0.6,0.3,1.3,0.5,2,0.5
					c1.7,0,3.5-1,5-2.9c0.9-1.1,42.2-63,49-73.2c0.8-1.2,1.3-2.6,1.4-3.8c0.1-1.9,0.6-3.5,1.4-4.5l60.8-44.4c0.1,0,0.1,0,0.2,0
					c0.3,0,0.6,0,1,0.1c0.5,0.1,0.9,0.1,1.3,0.2c1.2,0.2,2,0.3,2.7,0.3c0.5,0,1-0.1,1.4-0.2c1.6-0.5,12-11.9,14.3-14.6
					c2.7-3.2,1.7-6.4,0.8-7.6C250.5,91.9,248.9,89.7,245.9,89.7L245.9,89.7L245.9,89.7z"/>
			</g>
		</g>
	</g>
	<g>
		<path class="st18" d="M98.6,68.4C98.6,68.4,98.6,68.4,98.6,68.4c1.2-0.2,2.3-0.4,3.5-0.7c2.8-0.7,5.3-2,7.7-3.6
			c0.9-0.7,1.7-1.4,2.3-2.4c0.6-0.9,1.1-1.9,1.6-2.8c0,0,0,0,0,0c-0.6,0.6-1.2,1.2-1.8,1.7c-3.9,3.5-8.5,5.5-13.8,5.6
			c-2.7,0.1-5.5-0.1-8.2-0.5c-0.6-0.1-1.3-0.1-1.9-0.1c0,0.1,0,0.1-0.1,0.2c0.6,0.3,1.2,0.7,1.8,1c1.9,0.9,3.9,1.5,6,1.6
			c0.1,0,0.3,0.1,0.4,0.1L98.6,68.4z"/>
		<g>
			<path class="st18" d="M120.5,63c0.3-0.6,0.6-1.3,0.9-2c0,0,0,0,0,0c-1.2,1.4-2.2,2.8-3.4,4.1c-4.1,4.3-8.5,8.2-13.9,10.8
				c-4.3,2-8.8,2.5-13.5,2c-2.8-0.3-5.6-0.5-8.4-0.6c-1.5-0.1-2.9,0.2-4.3,0.8c-2.2,1-3,3.1-2.1,5.4c0,0.1,0,0.2,0.1,0.3
				c0,0,0,0,0,0l0.8,1.1c0,0,0,0,0,0c0.9,0.6,1.8,1.2,2.7,1.8c0,0,0,0,0,0l0.2-0.2c0,0,0,0,0,0c-0.2-0.1-0.4-0.2-0.6-0.4
				c-0.8-0.7-1.6-1.3-2.2-2.1c-1.1-1.4-0.5-3.5,1.1-4.3c1.2-0.6,2.5-0.7,3.9-0.6c2.9,0.2,5.8,0.5,8.8,0.7c1.5,0.1,3,0.2,4.6,0.2
				c4.1,0.1,7.9-1.2,11.6-3c2.6-1.3,5.1-2.8,7.3-4.7C116.7,69.5,118.9,66.4,120.5,63z"/>
			<path class="st18" d="M116.6,86.8C116.6,86.8,116.6,86.8,116.6,86.8c0.9-1,1.9-1.9,2.7-2.9c2.1-2.5,3.7-5.4,4.7-8.5
				c0.4-1.2,0.6-2.5,0.5-3.8c-0.1-1.2-0.2-2.5-0.4-3.7c0,0,0,0,0,0c-0.2,0.9-0.3,1.9-0.5,2.8c-1.3,5.9-4.2,10.7-9.1,14.3
				c-2.5,1.9-5.1,3.6-7.9,5c-0.7,0.3-1.3,0.8-1.9,1.2c0,0.1,0,0.1,0.1,0.2c0.8-0.1,1.6-0.1,2.4-0.3c2.4-0.4,4.6-1.2,6.6-2.5
				c0.1-0.1,0.3-0.1,0.4-0.2L116.6,86.8z"/>
			<path class="st18" d="M123.8,66.1c0.1-0.9,0-1.8,0-2.6c-0.1,0-0.1,0-0.2-0.1c-0.1,0.2-0.3,0.4-0.4,0.5c-2,3.9-5,7-8.3,9.8
				c-3.3,2.8-6.8,5.3-10.5,7.6c-4.6,2.8-9.4,4.1-14.8,3.4c-1.4-0.2-2.3-1.1-3.1-2.2c0,0,0,0,0,0c1,0.3,2,0.6,3.1,0.8
				c4.1,0.9,8,0.2,11.8-1.4c7.1-3,13.2-7.5,17.7-13.9c0.2-0.3,0.4-0.5,0.5-0.9c-0.9,1-1.8,2-2.7,2.9c-2.9,2.9-6.3,5.3-10,7.2
				c-1.8,0.9-3.7,1.7-5.5,2.5c-3.3,1.3-6.8,1.4-10.3,0.7c-2.3-0.5-4.6-0.4-6.9-0.2c-0.5,0-0.9,0.2-1.4,0.4c0,0,0,0,0,0
				c0.8,0.4,1.6,0.8,2.5,1.2c0,0,0,0,0,0c-0.2,1.4,0.4,2.5,1.3,3.4c2.7,2.6,6,4,9.6,4.6c5.3,1,10.2-0.2,14.7-3c3.1-1.9,6-4.2,8-7.3
				C121.6,75.5,123.2,71,123.8,66.1z M113.7,78c-2.8,2.2-5.6,4.4-8.6,6.4c-2.5,1.7-5.3,2.9-8.4,3.3c-1.8,0.3-3.7,0.3-5.5-0.3
				c0.1,0,0.2,0,0.2,0c2.3,0.3,4.6-0.1,6.7-1c6.5-2.6,12.3-6.4,17.2-11.3c0.8-0.8,1.7-1.7,2.5-2.5c0,0,0,0,0,0
				C116.8,74.6,115.5,76.5,113.7,78z"/>
			<path class="st18" d="M120.6,59.2c0.2-0.3,0.2-0.8-0.3-1c-0.3-0.1-0.7-0.1-0.9,0.1c-1.3,0.9-2.7,1.8-4,2.7c-1.3,1-2.5,2-3.8,3.1
				c-2.9,2.5-6.4,4.1-9.8,5.7c-2.8,1.3-5.7,2.3-8.7,3.1c-4.3,1.1-8.5,0.9-12.8-0.2c-1.9-0.5-3.7-1-5.7-1.6c0,0,0,0,0,0
				c2.4,1.8,4.9,3.1,7.5,4.1c6.5,2.6,13.1,2,19.6-0.2c2.6-0.9,5-2.1,7.3-3.7c3.7-2.6,7.2-5.5,10-9.2
				C119.7,61.3,120.1,60.2,120.6,59.2z"/>
		</g>
	</g>
	<g>
		<path class="st1" d="M52.2,208.7c0,0.5-0.1,1-0.3,1.3c-0.2,0.3-0.5,0.6-0.9,0.7l1,1h-0.7l-0.8-0.9l-0.2,0c-0.6,0-1.1-0.2-1.4-0.6
			c-0.3-0.4-0.5-0.9-0.5-1.6c0-0.7,0.2-1.2,0.5-1.5c0.3-0.4,0.8-0.6,1.4-0.6c0.6,0,1.1,0.2,1.4,0.6C52.1,207.5,52.2,208,52.2,208.7z
			 M48.9,208.7c0,0.6,0.1,1,0.4,1.3c0.2,0.3,0.6,0.4,1,0.4c0.5,0,0.8-0.1,1-0.4c0.2-0.3,0.3-0.7,0.3-1.3c0-0.6-0.1-1-0.3-1.3
			c-0.2-0.3-0.6-0.4-1-0.4c-0.5,0-0.8,0.1-1,0.4C49.1,207.7,48.9,208.1,48.9,208.7z"/>
		<path class="st1" d="M56.9,206.6v2.6c0,0.5-0.1,0.8-0.4,1.1c-0.3,0.3-0.7,0.4-1.2,0.4s-0.9-0.1-1.2-0.4s-0.4-0.6-0.4-1.1v-2.6h0.5
			v2.7c0,0.3,0.1,0.6,0.3,0.8c0.2,0.2,0.5,0.3,0.8,0.3c0.3,0,0.6-0.1,0.8-0.3c0.2-0.2,0.3-0.4,0.3-0.8v-2.7H56.9z"/>
		<path class="st1" d="M61.3,210.7l-0.5-1.3h-1.7l-0.5,1.3h-0.5l1.6-4.1h0.4l1.6,4.1H61.3z M60.7,209l-0.5-1.3
			c-0.1-0.2-0.1-0.4-0.2-0.6c0,0.2-0.1,0.4-0.2,0.6l-0.5,1.3H60.7z"/>
		<path class="st1" d="M63.6,209v1.7h-0.5v-4.1h1.1c0.5,0,0.9,0.1,1.1,0.3c0.2,0.2,0.4,0.5,0.4,0.9c0,0.5-0.3,0.9-0.8,1.1l1.1,1.8
			h-0.6l-1-1.7H63.6z M63.6,208.6h0.7c0.3,0,0.6-0.1,0.7-0.2c0.2-0.1,0.2-0.3,0.2-0.6c0-0.3-0.1-0.5-0.2-0.6
			c-0.2-0.1-0.4-0.2-0.8-0.2h-0.6V208.6z"/>
		<path class="st1" d="M70.3,210.7h-0.6l-1.5-2l-0.4,0.4v1.6h-0.5v-4.1h0.5v2l1.9-2h0.6l-1.7,1.8L70.3,210.7z"/>
		<path class="st1" d="M74.7,206.6v2.6c0,0.5-0.1,0.8-0.4,1.1c-0.3,0.3-0.7,0.4-1.2,0.4c-0.5,0-0.9-0.1-1.2-0.4s-0.4-0.6-0.4-1.1
			v-2.6H72v2.7c0,0.3,0.1,0.6,0.3,0.8c0.2,0.2,0.5,0.3,0.8,0.3c0.3,0,0.6-0.1,0.8-0.3c0.2-0.2,0.3-0.4,0.3-0.8v-2.7H74.7z"/>
		<path class="st1" d="M78.8,209.6c0,0.4-0.1,0.6-0.4,0.8c-0.3,0.2-0.6,0.3-1.1,0.3c-0.5,0-0.9-0.1-1.1-0.2v-0.5
			c0.2,0.1,0.4,0.1,0.6,0.2c0.2,0,0.4,0.1,0.6,0.1c0.3,0,0.6-0.1,0.7-0.2c0.2-0.1,0.2-0.3,0.2-0.5c0-0.1,0-0.3-0.1-0.3
			c-0.1-0.1-0.2-0.2-0.3-0.3c-0.1-0.1-0.3-0.2-0.6-0.3c-0.4-0.1-0.7-0.3-0.8-0.5c-0.2-0.2-0.2-0.4-0.2-0.7c0-0.3,0.1-0.6,0.4-0.8
			c0.2-0.2,0.6-0.3,0.9-0.3c0.4,0,0.8,0.1,1.1,0.2l-0.1,0.4c-0.3-0.1-0.7-0.2-1-0.2c-0.3,0-0.5,0.1-0.6,0.2
			c-0.1,0.1-0.2,0.3-0.2,0.5c0,0.1,0,0.3,0.1,0.3c0.1,0.1,0.1,0.2,0.3,0.2c0.1,0.1,0.3,0.2,0.6,0.3c0.4,0.2,0.7,0.3,0.9,0.5
			C78.7,209.1,78.8,209.4,78.8,209.6z"/>
	</g>
	<polygon class="st3" points="65.1,195.2 63.6,196.1 65.1,196.9 	"/>
	<polygon class="st4" points="62.1,195.2 62.1,196.9 63.6,196.1 	"/>
	<polygon class="st1" points="65.1,196.9 63.6,196.1 62.1,196.9 63.6,197.8 	"/>
	<polygon class="st3" points="60.5,198 62,198.8 62,197.1 	"/>
	<polygon class="st4" points="62,200.6 63.5,199.7 62,198.8 	"/>
	<polygon class="st1" points="62,197.1 62,198.8 63.5,199.7 63.5,198 	"/>
	<polygon class="st3" points="65.2,200.6 65.2,198.8 63.7,199.7 	"/>
	<polygon class="st4" points="66.7,198 65.2,197.1 65.2,198.8 	"/>
	<polygon class="st1" points="63.7,199.7 65.2,198.8 65.2,197.1 63.7,198 	"/>
	<path class="st3" d="M66.9,193.5h-6.6c-0.9,0-1.6,0.7-1.6,1.6v6.6c0,0.9,0.7,1.6,1.6,1.6h4.5l-1.2-3l-0.9,1.9h-2.4
		c-0.3,0-0.5-0.2-0.5-0.5v-6.6c0-0.3,0.2-0.5,0.5-0.5h6.6c0.3,0,0.5,0.2,0.5,0.5v6.6c0,0.3-0.2,0.5-0.5,0.5h-1.4l0.4,1.1h1
		c0.9,0,1.6-0.7,1.6-1.6v-6.6C68.5,194.2,67.8,193.5,66.9,193.5z"/>
</g>
</svg>
